<svg height="983.03998" viewBox="0 0 983.03998 983.03998" width="983.03998" xmlns="http://www.w3.org/2000/svg" xmlns:xlink="http://www.w3.org/1999/xlink"><clipPath id="a"><path d="m0 737.28h737.28v-737.28h-737.28z"/></clipPath><g transform="matrix(1.3333333 0 0 -1.3333333 0 983.04)"><path d="m0 0h737.28v737.28h-737.28z" fill="#007dbb"/><path d="m729.577 7.685h-721.875v721.91h721.875z" fill="#007dbb"/><g clip-path="url(#a)" fill="#fff"><path d="m0 0c-12.034 0-21.787 9.767-21.787 21.795s9.753 21.769 21.787 21.769c12.062 0 21.811-9.741 21.811-21.769s-9.749-21.795-21.811-21.795m94.62 10.155c-8.243 11.135-61.482 79.012-136.123 79.012-64.818 0-134.157-58.79-134.157-58.79s-26.047 53.312-79.327 58.434c-.314 0-.648.07-1.002.07h-.329c-1.113-.061-2.154-1.142-2.035-2.108.151-.934.835-1.95.835-1.95 6.867-11.401 24.394-43.84 24.394-76.247 0-32.512-17.63-65.037-24.434-76.384l-.461-.723c-.199-.342-.334-.683-.334-1.125 0-1.124.874-1.999 1.967-2.098l.577.048c.178 0 .369 0 .56.051 53.446 4.98 79.589 58.454 79.589 58.454s69.339-58.795 134.157-58.795c74.641 0 127.88 67.881 136.123 78.991.227.304.41.566.572.765.096.261.175.504.175.816 0 .293-.079.587-.175.813-.162.227-.345.487-.572.766" transform="translate(448.7554 159.3198)"/><path d="m0 0c.171.243.33.421.568.59.35.219.74.401 1.177.401.556 0 1.085-.226 1.459-.596.019-.036.063-.065.095-.091 40.689-38.789 83.376-7.348 92.259 0l.871.83c.25.099.52.136.806.136.31 0 .604-.037.859-.136l.87-.83c8.875-7.348 51.547-38.789 92.251 0 .008.026.044.055.076.091.382.37.878.596 1.443.596.449 0 .854-.182 1.18-.401.255-.169.421-.347.605-.59 7.884-7.76 41.964-37.104 78.031-5.767.377.384.632.887.632 1.504v14.896c0 1.187-.954 2.132-2.127 2.132-.155 0-.298-.059-.461-.089-.334-.161-.684-.348-1.081-.541-11.072-5.556-45.458-18.726-76.648 10.751-.291.278-.596.556-.903.856-.289.162-.563.213-.913.213-.219 0-.449-.051-.644-.161-.469-.117-.835-.413-1.085-.799-9.292-7.078-51.976-35.979-89.986-.523l-.556.557c-.394.38-.939.596-1.543.596-.556 0-1.113-.216-1.486-.596l-.588-.557c-37.986-35.456-80.71-6.555-89.994.523-.243.386-.604.682-1.054.799-.218.11-.448.161-.683.161-.306 0-.6-.051-.886-.213-.295-.3-.608-.578-.926-.856-31.195-29.477-65.548-16.307-76.637-10.751-.389.193-.755.38-1.093.541-.167.03-.274.089-.409.089-1.184 0-2.146-.945-2.146-2.132v-14.896c0-.617.234-1.12.619-1.504 36.036-31.337 70.155-1.993 78.048 5.767" transform="translate(268.203 309.3298)"/><path d="m0 0c-.163.036-.275.091-.41.091-1.18 0-2.142-.963-2.142-2.164v-14.855c0-.623.234-1.169.624-1.539 36.031-31.307 70.146-1.973 78.043 5.779.163.235.33.461.565.605.354.226.739.387 1.18.387.556 0 1.081-.215 1.451-.575.027-.039.071-.073.103-.091 40.701-38.843 83.376-7.382 92.256 0l.874.799c.25.117.52.161.81.161.303 0 .604-.044.847-.161l.878-.799c8.875-7.382 51.551-38.843 92.248 0 .007.018.059.052.079.091.382.36.883.575 1.447.575.441 0 .85-.161 1.181-.387.246-.144.416-.37.6-.605 7.888-7.752 41.968-37.086 78.031-5.779.373.37.619.916.619 1.539v14.855c0 1.201-.933 2.164-2.114 2.164-.155 0-.298-.055-.461-.091-.334-.191-.68-.37-1.081-.56-11.08-5.552-45.45-18.755-76.648 10.762-.294.274-.6.549-.907.867-.285.117-.559.195-.909.195-.219 0-.453-.062-.644-.1-.465-.187-.835-.483-1.085-.842-9.3-7.088-51.976-35.98-89.982-.527l-.557.542c-.397.352-.938.64-1.542.64-.56 0-1.117-.288-1.486-.64l-.592-.542c-37.986-35.453-80.71-6.561-89.994.527-.243.359-.6.655-1.057.842-.219.038-.437.1-.679.1-.303 0-.605-.078-.895-.195-.278-.318-.608-.593-.914-.867-31.194-29.517-65.552-16.314-76.64-10.762-.39.19-.759.369-1.097.56" transform="translate(192.0879 376.0718)"/><path d="m0 0v-145.488h-24.467v111.367h-.214l-17.159-17.808h-.224v25.535l22.531 26.394z" transform="translate(101.23 668.8536)"/><path d="m0 0 21.9 59.898h.214v-59.898zm44.873-42.721v23.612h9.873v19.109h-9.873v102.833h-24.047l-42.291-106.911v-15.031h43.15v-23.612z" transform="translate(130.8565 566.0534)"/><path d="m0 0c-1.401-.737-4.136-1.309-7.532-1.309-12.703 0-18.761 11.639-18.761 27.3 0 20.833 10.413 28.946 20.089 28.946 3.399 0 5.762-.737 6.721-1.474l-1.626-9.022c-1.106.578-2.363 1.067-4.504 1.067-5.464 0-10.413-5.247-10.413-18.939 0-13.202 4.504-18.367 10.413-18.367 1.626 0 3.472.407 4.653.819z" transform="translate(254.2476 613.9726)"/><path d="m0 0c0-12.541 2.144-18.939 6.058-18.939 4.059 0 5.613 8.202 5.613 19.435 0 9.676-1.331 18.449-5.69 18.449-3.837 0-5.981-7.052-5.981-18.945m21.788.985c0-20.826-6.645-29.269-16.099-29.269-11.302 0-15.734 13.284-15.734 28.449 0 15.089 5.391 28.126 16.398 28.126 12.036 0 15.435-14.676 15.435-27.306" transform="translate(266.1154 640.7834)"/><path d="m0 0-3.177 10.165c-.959 3.202-1.772 6.315-2.659 9.841h-.145c-.813-3.526-1.627-6.887-2.364-10l-2.659-10.006h-9.603l9.308 28.291-8.936 26.976h10.117l2.882-10.247c.81-2.872 1.474-5.744 2.287-8.857h.149c.81 3.361 1.402 5.985 2.068 9.015l2.509 10.089h9.676l-9.307-27.471 9.825-27.796z" transform="translate(309.3648 613.1529)"/><path d="m0 0c.445-.159.962-.159 1.554-.159 4.872 0 7.09 3.85 7.09 9.015 0 4.841-1.773 8.609-6.28 8.609-.887 0-1.773-.159-2.364-.407zm-9.673 25.095c2.732.655 6.423 1.067 10.118 1.067 5.759 0 10.263-.901 13.516-4.269 2.955-2.865 4.282-7.459 4.282-12.134 0-5.986-1.626-10.166-4.209-13.285-3.103-3.602-8.125-5.248-12.112-5.248h-1.922v-20.578h-9.673z" transform="translate(332.9832 642.5054)"/><path d="m0 0-1.626 11.563c-.518 3.36-1.182 8.856-1.627 12.541h-.219c-.518-3.685-1.254-9.428-1.772-12.623l-1.846-11.481zm-8.053-8.361-2.214-12.63h-9.38l10.784 55.267h11.595l9.676-55.267h-9.38l-2.144 12.63z" transform="translate(370.572 634.1443)"/><path d="m0 0v-22.142h10.118v22.142h9.676v-55.267h-9.676v23.126h-10.118v-23.126h-9.673v55.267z" transform="translate(397.386 668.4203)"/><path d="m0 0h-11.375v-14.923h12.852v-9.347h-22.526v55.268h21.64v-9.352h-11.966v-12.707h11.375z" transform="translate(445.8582 637.4225)"/><path d="m0 0v-22.142h10.121v22.142h9.673v-55.267h-9.673v23.126h-10.121v-23.126h-9.676v55.267z" transform="translate(462.872 668.4203)"/><path d="m0 0v-12.218c0-10.171-.591-19.682-.963-25.419h.15c1.404 4.753 3.913 11.969 5.391 16.233l7.312 21.404h8.79v-55.267h-8.495v12.465c0 11.067.369 19.27.591 24.841h-.149c-1.109-5-3.323-11.639-4.946-16.232l-7.313-21.074h-8.939v55.267z" transform="translate(498.8636 668.4203)"/><path d="m0 0h-11.375v-14.923h12.852v-9.347h-22.528v55.268h21.642v-9.352h-11.966v-12.707h11.375z" transform="translate(548.2564 637.4225)"/><path d="m0 0c-.219 5.248-.591 12.382-.442 18.284h-.222c-.886-5.902-2.214-12.712-3.173-16.976l-4.285-19.758h-6.869l-4.135 19.434c-.963 4.429-2.291 11.316-3.028 17.3h-.222c-.149-5.984-.445-12.954-.74-18.449l-.81-19.187h-8.348l3.621 55.267h10.19l3.99-20.006c1.401-6.97 2.656-13.12 3.545-19.352h.147c.737 6.149 1.845 12.382 3.176 19.352l3.914 20.006h10.19l3.031-55.267h-8.641z" transform="translate(260.8197 545.9233)"/><path d="m0 0c0-12.541 2.144-18.939 6.058-18.939 4.06 0 5.613 8.202 5.613 19.435 0 9.676-1.331 18.449-5.69 18.449-3.837 0-5.981-7.052-5.981-18.945m21.788.985c0-20.826-6.645-29.269-16.099-29.269-11.302 0-15.734 13.284-15.734 28.449 0 15.089 5.392 28.126 16.399 28.126 12.036 0 15.434-14.676 15.434-27.306" transform="translate(284.2982 554.2012)"/><path d="m0 0c.444-.159.96-.159 1.55-.159 4.876 0 7.09 3.85 7.09 9.015 0 4.841-1.772 8.609-6.276 8.609-.887 0-1.773-.159-2.364-.407zm-9.676 25.095c2.735.655 6.426 1.067 10.12 1.067 5.76 0 10.268-.902 13.514-4.269 2.954-2.865 4.285-7.459 4.285-12.134 0-5.986-1.623-10.166-4.209-13.285-3.103-3.602-8.125-5.248-12.112-5.248h-1.922v-20.578h-9.676z" transform="translate(321.3282 555.9233)"/><path d="m0 0c-1.404-.737-4.136-1.308-7.532-1.308-12.703 0-18.761 11.638-18.761 27.299 0 20.833 10.416 28.946 20.089 28.946 3.399 0 5.763-.737 6.722-1.474l-1.623-9.022c-1.109.578-2.364 1.067-4.508 1.067-5.464 0-10.413-5.247-10.413-18.939 0-13.202 4.504-18.367 10.413-18.367 1.626 0 3.472.407 4.654.819z" transform="translate(369.2442 527.3905)"/><path d="m0 0v-24.028h.737l8.126 24.028h10.635l-11.449-25.585c5.096-2.128 6.796-7.3 8.196-14.021 1.109-5.331 1.922-10.579 3.4-15.661h-9.676c-1.182 3.932-1.92 8.443-2.733 12.789-1.181 6.481-2.509 10.66-6.499 10.66h-.737v-23.449h-9.453v55.267z" transform="translate(383.5835 581.8382)"/><path d="m0 0v-12.218c0-10.171-.591-19.682-.959-25.419h.149c1.401 4.752 3.914 11.97 5.391 16.233l7.312 21.404h8.787v-55.267h-8.491v12.465c0 11.067.368 19.27.591 24.841h-.15c-1.105-5-3.322-11.639-4.949-16.232l-7.309-21.074h-8.936v55.267z" transform="translate(416.0041 581.8382)"/><path d="m0 0-3.177 10.165c-.959 3.202-1.772 6.315-2.659 9.841h-.145c-.814-3.526-1.627-6.887-2.364-10l-2.659-10.006h-9.603l9.308 28.291-8.936 26.976h10.117l2.882-10.247c.81-2.872 1.474-5.744 2.287-8.857h.149c.81 3.361 1.401 5.985 2.068 9.015l2.509 10.089h9.676l-9.307-27.471 9.825-27.796z" transform="translate(461.4108 526.5708)"/><path d="m0 0h13.59c-.073 5.737-2.586 13.526-9.085 13.526-2.069 0-4.063-.488-5.686-1.391l-2.215 8.608c2.142 1.144 5.169 2.377 9.232 2.377 14.326 0 17.649-15.909 17.649-28.533 0-16.893-7.383-28.043-18.685-28.043-3.913 0-7.09 1.226-8.787 2.128l1.773 8.939c1.55-.819 3.323-1.391 5.61-1.391 7.462 0 9.603 7.954 10.044 14.263h-13.44z" transform="translate(230.8355 472.7905)"/><path d="m0 0v-24.028h.737l8.126 24.028h10.635l-11.449-25.584c5.096-2.129 6.795-7.3 8.196-14.022 1.109-5.331 1.922-10.579 3.399-15.661h-9.676c-1.181 3.932-1.919 8.443-2.732 12.789-1.181 6.481-2.509 10.66-6.499 10.66h-.737v-23.449h-9.453v55.267z" transform="translate(269.1998 495.2561)"/><path d="m0 0c0-12.541 2.141-18.939 6.058-18.939 4.063 0 5.613 8.202 5.613 19.435 0 9.676-1.331 18.449-5.686 18.449-3.844 0-5.985-7.052-5.985-18.945m21.789.985c0-20.826-6.649-29.269-16.102-29.269-11.299 0-15.731 13.284-15.731 28.449 0 15.089 5.394 28.127 16.398 28.127 12.039 0 15.435-14.677 15.435-27.307" transform="translate(299.8983 467.6191)"/><path d="m0 0c-1.404-.737-4.136-1.308-7.532-1.308-12.703 0-18.761 11.638-18.761 27.299 0 20.833 10.416 28.946 20.089 28.946 3.399 0 5.762-.737 6.722-1.474l-1.623-9.022c-1.109.579-2.364 1.067-4.508 1.067-5.464 0-10.413-5.247-10.413-18.939 0-13.202 4.504-18.367 10.413-18.367 1.626 0 3.472.407 4.654.819z" transform="translate(351.8173 440.8084)"/><path d="m0 0v-12.218c0-10.171-.591-19.682-.96-25.419h.15c1.401 4.753 3.913 11.97 5.391 16.232l7.312 21.405h8.787v-55.267h-8.492v12.465c0 11.067.369 19.269.592 24.841h-.15c-1.105-5-3.322-11.639-4.949-16.233l-7.31-21.073h-8.935v55.267z" transform="translate(365.2672 495.2561)"/><path d="m0 0c-1.401-.737-4.136-1.308-7.532-1.308-12.703 0-18.761 11.638-18.761 27.299 0 20.833 10.413 28.946 20.089 28.946 3.399 0 5.762-.737 6.722-1.474l-1.627-9.022c-1.105.579-2.363 1.067-4.504 1.067-5.464 0-10.413-5.247-10.413-18.939 0-13.202 4.504-18.367 10.413-18.367 1.626 0 3.472.407 4.653.819z" transform="translate(417.6149 440.8084)"/><path d="m0 0h-8.79v9.924h27.325v-9.924h-8.862v-45.343h-9.673z" transform="translate(429.5653 485.3323)"/><path d="m0 0h-11.375v-14.923h12.853v-9.346h-22.526v55.267h21.639v-9.352h-11.966v-12.707h11.375z" transform="translate(473.6663 464.2583)"/><path d="m0 0c-.223 5.248-.591 12.382-.444 18.284h-.223c-.886-5.902-2.214-12.712-3.177-16.976l-4.282-19.758h-6.868l-4.135 19.434c-.96 4.429-2.291 11.316-3.031 17.3h-.219c-.15-5.984-.445-12.954-.74-18.449l-.814-19.187h-8.344l3.617 55.267h10.194l3.987-20.006c1.404-6.97 2.662-13.12 3.545-19.352h.149c.741 6.149 1.846 12.382 3.177 19.352l3.913 20.006h10.194l3.028-55.267h-8.643z" transform="translate(511.7476 459.3412)"/></g></g></svg>