<svg height="983.03998" viewBox="0 0 983.03998 983.03998" width="983.03998" xmlns="http://www.w3.org/2000/svg" xmlns:xlink="http://www.w3.org/1999/xlink"><clipPath id="a"><path d="m0 737.28h737.28v-737.28h-737.28z"/></clipPath><g transform="matrix(1.3333333 0 0 -1.3333333 0 983.04)"><path d="m0 0h737.28v737.28h-737.28z" fill="#f99d25"/><path d="m729.573 7.694h-721.866v721.892h721.866z" fill="#f99d25"/><g clip-path="url(#a)" fill="#fff"><path d="m0 0h.975 93.85c1.282 0 2.326 1.048 2.326 2.333 0 .597-.241 1.133-.612 1.546l-.13.138-47.178 61.041-.459.505c-.428.467-1.036.758-1.718.758-.585 0-1.109-.245-1.526-.597l-.283-.329-.443-.497-46.026-60.399-.708-.865c-.252-.367-.398-.818-.398-1.301 0-1.285 1.044-2.333 2.33-2.333" transform="translate(162.3901 167.1533)"/><path d="m0 0h-95.012c-1.286 0-2.326-1.041-2.326-2.326v-74.355c0-1.285 1.04-2.333 2.326-2.333h30.581v46.779c0 1.293 1.037 2.326 2.326 2.326h28.386c1.286 0 2.326-1.033 2.326-2.326v-46.779h31.393c1.282 0 2.326 1.048 2.326 2.333v74.355c0 1.285-1.044 2.326-2.326 2.326" transform="translate(256.9282 158.5461)"/><path d="m0 0c0-1.239-1.025-2.242-2.303-2.242h-28.088c-1.278 0-2.303 1.003-2.303 2.242v17.085c0 1.232 1.025 2.234 2.303 2.234h28.088c1.278 0 2.303-1.002 2.303-2.234zm0-31.553c0-1.248-1.025-2.25-2.303-2.25h-28.088c-1.278 0-2.303 1.002-2.303 2.25v17.07c0 1.247 1.025 2.241 2.303 2.241h28.088c1.278 0 2.303-.994 2.303-2.241zm-42.939 31.553c0-1.239-1.025-2.242-2.295-2.242h-28.095c-1.278 0-2.311 1.003-2.311 2.242v17.085c0 1.232 1.033 2.234 2.311 2.234h28.095c1.27 0 2.295-1.002 2.295-2.234zm0-31.553c0-1.248-1.025-2.25-2.295-2.25h-28.095c-1.278 0-2.311 1.002-2.311 2.25v17.07c0 1.247 1.033 2.241 2.311 2.241h28.095c1.27 0 2.295-.994 2.295-2.241zm51.454 61.989h-94.04c-1.27 0-2.296-.986-2.296-2.233v-94.96c0-1.231 1.026-2.234 2.296-2.234h94.04c1.278 0 2.303 1.003 2.303 2.234v94.96c0 1.247-1.025 2.233-2.303 2.233" transform="translate(576.7905 147.5738)"/><path d="m0 0c0-.658-.543-1.202-1.216-1.202h-21.064c-.674 0-1.209.544-1.209 1.202v23.489c0 .673.535 1.209 1.209 1.209h21.064c.673 0 1.216-.536 1.216-1.209zm0-53.918c0-.666-.543-1.209-1.216-1.209h-21.064c-.674 0-1.209.543-1.209 1.209v23.489c0 .666.535 1.193 1.209 1.193h21.064c.673 0 1.216-.527 1.216-1.193zm0-53.934c0-.665-.543-1.208-1.216-1.208h-21.064c-.674 0-1.209.543-1.209 1.208v23.49c0 .665.535 1.209 1.209 1.209h21.064c.673 0 1.216-.544 1.216-1.209zm0-53.918c0-.68-.543-1.208-1.216-1.208h-21.064c-.674 0-1.209.528-1.209 1.208v23.474c0 .682.535 1.209 1.209 1.209h21.064c.673 0 1.216-.527 1.216-1.209zm0-53.932c0-.667-.543-1.209-1.216-1.209h-21.064c-.674 0-1.209.542-1.209 1.209v23.481c0 .665.535 1.201 1.209 1.201h21.064c.673 0 1.216-.536 1.216-1.201zm-41.324 215.702c0-.658-.543-1.202-1.209-1.202h-21.071c-.666 0-1.209.544-1.209 1.202v23.489c0 .673.543 1.209 1.209 1.209h21.071c.666 0 1.209-.536 1.209-1.209zm0-53.918c0-.666-.543-1.209-1.209-1.209h-21.071c-.666 0-1.209.543-1.209 1.209v23.489c0 .666.543 1.193 1.209 1.193h21.071c.666 0 1.209-.527 1.209-1.193zm0-53.934c0-.665-.543-1.208-1.209-1.208h-21.071c-.666 0-1.209.543-1.209 1.208v23.49c0 .665.543 1.209 1.209 1.209h21.071c.666 0 1.209-.544 1.209-1.209zm0-53.918c0-.68-.543-1.208-1.209-1.208h-21.071c-.666 0-1.209.528-1.209 1.208v23.474c0 .682.543 1.209 1.209 1.209h21.071c.666 0 1.209-.527 1.209-1.209zm0-53.932c0-.667-.543-1.209-1.209-1.209h-21.071c-.666 0-1.209.542-1.209 1.209v23.481c0 .665.543 1.201 1.209 1.201h21.071c.666 0 1.209-.536 1.209-1.201zm54.744 283.189h-92.028c-1.232 0-2.25-1.002-2.25-2.257v-314.514c0-1.239 1.018-2.249 2.25-2.249h92.028c1.233 0 2.265 1.01 2.265 2.249v314.514c0 1.255-1.032 2.257-2.265 2.257" transform="translate(353.2832 330.9426)"/><path d="m0 0c0-1.056-.842-1.898-1.89-1.898h-94.653c-1.04 0-1.89.842-1.89 1.898v18.929c0 1.04.85 1.89 1.89 1.89h94.653c1.048 0 1.89-.85 1.89-1.89z" transform="translate(587.502 187.5668)"/><path d="m0 0c0-1.247-1.018-2.25-2.25-2.25h-27.422c-1.254 0-2.264 1.003-2.264 2.25v17.169c0 1.255 1.01 2.257 2.264 2.257h27.422c1.232 0 2.25-1.002 2.25-2.257zm0-31.73c0-1.239-1.018-2.241-2.25-2.241h-27.422c-1.254 0-2.264 1.002-2.264 2.241v17.169c0 1.248 1.01 2.25 2.264 2.25h27.422c1.232 0 2.25-1.002 2.25-2.25zm0-31.729c0-1.232-1.018-2.242-2.25-2.242h-27.422c-1.254 0-2.264 1.01-2.264 2.242v17.177c0 1.247 1.01 2.25 2.264 2.25h27.422c1.232 0 2.25-1.003 2.25-2.25zm0-31.722c0-1.247-1.018-2.249-2.25-2.249h-27.422c-1.254 0-2.264 1.002-2.264 2.249v17.169c0 1.255 1.01 2.25 2.264 2.25h27.422c1.232 0 2.25-.995 2.25-2.25zm0-31.722c0-1.247-1.018-2.249-2.25-2.249h-27.422c-1.254 0-2.264 1.002-2.264 2.249v17.17c0 1.239 1.01 2.241 2.264 2.241h27.422c1.232 0 2.25-1.002 2.25-2.241zm-41.853 132.963v-.826-36.994c0-1.247-1.017-2.249-2.249-2.249h-27.422c-1.254 0-2.265 1.002-2.265 2.249v4.568.19c.012.299.069.582.173.842.045.092.053.131.137.261.054.106.13.206.199.298.069.107.172.245.257.367 3.504 5.019 19.327 24.507 25.972 32.655l.665.804c.482.582 1.209.957 2.024.957 1.259 0 2.265-.919 2.509-2.105zm-.076-69.519c0-1.232-1.002-2.242-2.249-2.242h-27.43c-1.247 0-2.249 1.01-2.249 2.242v17.177c0 1.247 1.002 2.25 2.249 2.25h27.43c1.247 0 2.249-1.003 2.249-2.25zm0-31.722c0-1.247-1.002-2.249-2.249-2.249h-27.43c-1.247 0-2.249 1.002-2.249 2.249v17.169c0 1.255 1.002 2.25 2.249 2.25h27.43c1.247 0 2.249-.995 2.249-2.25zm0-31.722c0-1.247-1.002-2.249-2.249-2.249h-27.43c-1.247 0-2.249 1.002-2.249 2.249v17.17c0 1.239 1.002 2.241 2.249 2.241h27.43c1.247 0 2.249-1.002 2.249-2.241zm14.312 160.69.646.812c6.19 7.941 16.618 20.78 21.703 27.016l.666.796c.482.581 1.209.956 2.023.956 1.259 0 2.265-.91 2.51-2.104v-1.018-.826-27.185c0-1.4-1.113-2.525-2.498-2.586-.042 0-.076-.023-.115-.023-.038 0-.072.023-.115.023h-21.48-1.121c-.043 0-.077-.023-.115-.023-.039 0-.073.023-.115.023-1.385.061-2.498 1.186-2.498 2.586 0 .582.187 1.118.509 1.553m38.08 62.312c-.306 1.01-1.202 1.76-2.311 1.76-.497 0-.93-.184-1.316-.436-.057-.039-.115-.069-.172-.115l-.777-.98-90.449-114.737-.416-.559c-.467-.459-.765-1.086-.785-1.79v-.153-140.843c0-1.239 1.01-2.242 2.258-2.242h91.936c1.248 0 2.25 1.003 2.25 2.242v256.911c0 .337-.088.659-.218.942" transform="translate(467.4014 242.9385)"/><path d="m0 0v-25.54h.211l17.172 17.821h.219v-111.42h24.471v145.555h-19.538z" transform="translate(59.2793 642.6749)"/><path d="m0 0v-25.54h.219l17.173 17.821h.21v-111.42h24.48v145.555h-19.53z" transform="translate(115.0901 642.6749)"/><path d="m0 0 4.581-20.829c.666-3.117 1.258-6.395 1.626-8.853h.223c.438 2.623.737 5.984 1.181 9.1l3.323 20.582h9.822l-7.389-29.438c-1.696-6.969-3.615-14.514-6.131-19.269-2.363-4.346-5.978-7.214-10.114-7.214-1.703 0-2.954.162-3.914.489l.369 8.774c.444-.083 1.181-.245 2.363-.245 2.51 0 4.581 2.868 5.318 5.575.368 1.15.292 2.049-.077 3.281l-11.594 38.047z" transform="translate(229.9844 668.0781)"/><path d="m0 0c-1.404-.737-4.136-1.312-7.535-1.312-12.701 0-18.755 11.642-18.755 27.306 0 20.826 10.413 28.943 20.089 28.943 3.392 0 5.756-.737 6.722-1.474l-1.626-9.022c-1.112.575-2.364 1.067-4.505 1.067-5.47 0-10.413-5.247-10.413-18.942 0-13.199 4.505-18.367 10.413-18.367 1.62 0 3.469.41 4.65.823z" transform="translate(276.827 613.6304)"/><path d="m0 0h-8.787v9.924h27.326v-9.924h-8.863v-45.343h-9.676z" transform="translate(288.7773 658.1543)"/><path d="m0 0c0-12.544 2.141-18.942 6.055-18.942 4.059 0 5.61 8.198 5.61 19.434 0 9.677-1.328 18.45-5.686 18.45-3.838 0-5.979-7.052-5.979-18.942m21.786.985c0-20.829-6.646-29.272-16.099-29.272-11.303 0-15.731 13.281-15.731 28.449 0 15.089 5.387 28.126 16.391 28.126 12.039 0 15.439-14.676 15.439-27.303" transform="translate(319.3998 640.4444)"/><path d="m0 0c.223-3.034 1.036-4.672 3.323-4.672 1.995 0 3.177 1.638 3.323 4.672h6.131c-.737-7.049-4.136-9.428-9.53-9.428-5.019 0-8.933 2.379-9.301 9.428zm-2.732-11.477v-12.217c0-10.168-.59-19.68-.959-25.42h.146c1.404 4.756 3.914 11.97 5.394 16.236l7.307 21.401h8.792v-55.267h-8.494v12.465c0 11.067.368 19.267.591 24.845h-.147c-1.111-5.003-3.322-11.646-4.948-16.236l-7.313-21.074h-8.939v55.267z" transform="translate(358.0529 679.5549)"/><path d="m0 0v-18.368c0-4.51 1.55-7.709 5.464-7.709 1.403 0 3.03.493 3.989 1.15v24.927h9.524v-55.267h-9.524v22.059h-.222c-2.293-1.151-4.505-1.888-7.09-1.888-8.571 0-11.671 6.395-11.671 15.496v19.6z" transform="translate(391.681 668.0781)"/><path d="m0 0v-12.218c0-10.167-.591-19.679-.959-25.419h.146c1.404 4.756 3.914 11.97 5.388 16.236l7.312 21.401h8.793v-55.267h-8.494v12.465c0 11.067.368 19.266.591 24.844h-.147c-1.112-5.003-3.329-11.645-4.949-16.235l-7.312-21.074h-8.94v55.267z" transform="translate(426.8523 668.0781)"/><path d="m0 0c.591-.165 1.258-.165 2.141-.165 3.913 0 7.166 2.623 7.166 8.282 0 5.492-3.398 8.363-7.236 8.446h-2.071zm0 24.517h2.071c3.469 0 6.124 3.279 6.124 7.789 0 4.019-1.696 7.132-5.686 7.132-1.029 0-1.918-.08-2.509-.328zm-9.676 21.894c2.954.737 6.798 1.064 11.004 1.064 4.657 0 9.161-.655 12.63-3.936 2.662-2.459 3.767-6.15 3.767-10.003 0-4.921-2.287-9.676-7.236-12.055v-.328c5.762-1.804 8.863-7.131 8.863-13.202 0-4.59-1.328-8.116-3.691-10.823-2.955-3.608-7.98-5.574-16.322-5.574-3.697 0-6.798.244-9.015.574z" transform="translate(464.8704 620.8479)"/><path d="m531.414 612.811h-9.746v55.267h9.746zm-32.052 8.364c.667-.165 1.258-.165 1.773-.165 4.066 0 6.868 4.101 6.868 9.021 0 5.328-2.586 9.101-6.57 9.101-.667 0-1.48-.082-2.071-.247zm-.07 46.903v-20.664c1.182.245 2.51.327 3.616.327 8.862 0 15.139-6.559 15.139-16.645 0-5.575-1.55-9.759-4.136-12.792-3.399-3.937-8.786-5.903-15.8-5.903-3.107 0-6.207.245-8.425.575v55.102z"/><path d="m0 0h-11.372v-14.92h12.853v-9.349h-22.529v55.267h21.639v-9.349h-11.963v-12.71h11.372z" transform="translate(560.1117 637.0803)"/><path d="m0 0v-9.349h-13.298v-45.921h-9.676v55.27z" transform="translate(247.6403 581.4928)"/><path d="m0 0c0-12.548 2.141-18.945 6.055-18.945 4.06 0 5.61 8.202 5.61 19.434 0 9.676-1.328 18.451-5.686 18.451-3.838 0-5.979-7.053-5.979-18.94m21.786.985c0-20.833-6.646-29.276-16.099-29.276-11.303 0-15.731 13.285-15.731 28.45 0 15.089 5.387 28.129 16.391 28.129 12.04 0 15.439-14.679 15.439-27.303" transform="translate(259.5711 553.859)"/><path d="m0 0c.445-.165.96-.165 1.55-.165 4.88 0 7.091 3.85 7.091 9.021 0 4.835-1.773 8.609-6.278 8.609-.882 0-1.772-.165-2.363-.413zm-9.676 25.089c2.732.657 6.43 1.067 10.121 1.067 5.762 0 10.267-.902 13.514-4.263 2.954-2.872 4.288-7.465 4.288-12.134 0-5.992-1.627-10.172-4.212-13.285-3.101-3.609-8.126-5.248-12.116-5.248h-1.919v-20.584h-9.676z" transform="translate(296.5979 555.5811)"/><path d="m0 0c0-12.548 2.141-18.945 6.055-18.945 4.059 0 5.61 8.202 5.61 19.434 0 9.676-1.328 18.451-5.687 18.451-3.837 0-5.978-7.053-5.978-18.94m21.785.985c0-20.833-6.646-29.276-16.099-29.276-11.302 0-15.73 13.285-15.73 28.45 0 15.089 5.387 28.129 16.391 28.129 12.039 0 15.438-14.679 15.438-27.303" transform="translate(328.3264 553.859)"/><path d="m0 0c0-6.315-.368-12.706-1.181-18.615-.591-3.933-1.48-8.196-2.51-11.557h10.858v36.57h-7.167zm16.767 15.747v-46.084l3.913-.165-.444-21.074h-7.313l-.369 12.052h-21.639l-.368-12.052h-7.389l-.369 21.074 3.546.165c1.549 4.181 2.585 8.361 3.398 12.872.96 6.315 1.404 12.789 1.404 19.269v13.943z" transform="translate(369.3553 565.7463)"/><path d="m0 0-1.621 11.563c-.52 3.361-1.181 8.857-1.626 12.548h-.222c-.514-3.691-1.258-9.435-1.773-12.63l-1.849-11.481zm-8.049-8.36-2.218-12.631h-9.378l10.782 55.27h11.595l9.676-55.27h-9.378l-2.141 12.631z" transform="translate(412.4245 547.2134)"/><path d="m0 0v-12.22c0-10.166-.591-19.676-.959-25.42h.146c1.404 4.759 3.914 11.97 5.394 16.239l7.306 21.401h8.793v-55.27h-8.494v12.465c0 11.067.368 19.269.591 24.847h-.146c-1.112-5.006-3.323-11.645-4.95-16.239l-7.312-21.073h-8.939v55.27z" transform="translate(455.5943 581.4928)"/><path d="m0 0v-22.141h10.121v22.141h9.676v-55.267h-9.676v23.125h-10.121v-23.125h-9.676v55.267z" transform="translate(81.7746 498.4959)"/><path d="m0 0-1.626 11.563c-.515 3.361-1.183 8.856-1.621 12.548h-.222c-.521-3.692-1.258-9.435-1.773-12.63l-1.849-11.481zm-8.049-8.361-2.218-12.63h-9.378l10.782 55.267h11.595l9.676-55.267h-9.378l-2.141 12.63z" transform="translate(125.6504 464.2199)"/><path d="m0 0c-1.404-.737-4.136-1.308-7.535-1.308-12.701 0-18.755 11.645-18.755 27.305 0 20.827 10.413 28.946 20.089 28.946 3.392 0 5.756-.743 6.716-1.48l-1.62-9.015c-1.112.572-2.364 1.06-4.505 1.06-5.47 0-10.419-5.247-10.419-18.939 0-13.202 4.511-18.367 10.419-18.367 1.62 0 3.469.407 4.65.82z" transform="translate(166.0634 444.0482)"/><path d="m0 0h-11.372v-14.924h12.853v-9.352h-22.529v55.267h21.639v-9.346h-11.963v-12.713h11.372z" transform="translate(191.9971 467.5046)"/><path d="m0 0v-55.267h-9.676v45.921h-7.383v-14.6c0-12.706-.743-23.856-7.02-29.269-1.849-1.639-4.212-2.706-6.645-2.706l-2.071 9.104c1.181.324 2.439.978 3.322 1.963 2.885 3.284 3.545 9.186 3.545 19.93v24.924z" transform="translate(229.0622 498.4959)"/><path d="m0 0h-11.372v-14.924h12.852v-9.352h-22.528v55.267h21.639v-9.346h-11.963v-12.713h11.372z" transform="translate(257.7343 467.5046)"/><path d="m0 0v-22.141h10.121v22.141h9.676v-55.267h-9.676v23.125h-10.121v-23.125h-9.676v55.267z" transform="translate(274.7545 498.4959)"/><path d="m0 0v-22.141h10.12v22.141h9.676v-55.267h-9.676v23.125h-10.12v-23.125h-9.676v55.267z" transform="translate(311.8515 498.4959)"/><path d="m381 443.229h-9.746v55.267h9.746zm-32.052 8.367c.667-.165 1.258-.165 1.773-.165 4.066 0 6.867 4.098 6.867 9.021 0 5.325-2.585 9.099-6.569 9.099-.667 0-1.48-.083-2.071-.248zm-.07 46.9v-20.661c1.182.241 2.51.324 3.615.324 8.862 0 15.14-6.556 15.14-16.646 0-5.571-1.55-9.752-4.136-12.789-3.399-3.939-8.786-5.901-15.801-5.901-3.106 0-6.207.241-8.424.571v55.102z"/><path d="m0 0h-11.372v-14.924h12.852v-9.352h-22.529v55.267h21.64v-9.346h-11.963v-12.713h11.372z" transform="translate(409.6723 467.5046)"/><path d="m0 0v-55.267h-9.676v45.921h-9.898v-45.921h-9.676v55.267z" transform="translate(463.6942 498.4959)"/><path d="m0 0 4.581-20.826c.667-3.12 1.257-6.398 1.626-8.856h.222c.438 2.623.737 5.984 1.182 9.104l3.323 20.578h9.822l-7.389-29.435c-1.696-6.969-3.615-14.517-6.125-19.269-2.363-4.346-5.984-7.217-10.12-7.217-1.697 0-2.954.165-3.914.489l.369 8.774c.444-.076 1.181-.242 2.363-.242 2.51 0 4.581 2.865 5.318 5.572.368 1.15.292 2.052-.076 3.284l-11.595 38.044z" transform="translate(477.8682 498.4959)"/><path d="m0 0v-22.141h10.121v22.141h9.676v-55.267h-9.676v23.125h-10.121v-23.125h-9.676v55.267z" transform="translate(511.8451 498.4959)"/><path d="m0 0v-24.022h.737l8.126 24.022h10.635l-11.448-25.584c5.101-2.129 6.797-7.294 8.201-14.022 1.106-5.331 1.92-10.579 3.393-15.661h-9.669c-1.182 3.939-1.925 8.45-2.732 12.796-1.182 6.474-2.516 10.653-6.506 10.653h-.737v-23.449h-9.453v55.267z" transform="translate(548.7195 498.4959)"/><path d="m0 0h-8.787v9.924h27.326v-9.924h-8.863v-45.343h-9.676z" transform="translate(579.5775 488.5721)"/><path d="m644.355 443.229h-9.746v55.267h9.746zm-32.052 8.367c.667-.165 1.258-.165 1.772-.165 4.06 0 6.868 4.098 6.868 9.021 0 5.325-2.585 9.099-6.569 9.099-.668 0-1.481-.083-2.071-.248zm-.076 46.9v-20.661c1.182.241 2.515.324 3.621.324 8.863 0 15.14-6.556 15.14-16.646 0-5.571-1.551-9.752-4.136-12.789-3.393-3.939-8.787-5.901-15.807-5.901-3.101 0-6.201.241-8.418.571v55.102z"/></g></g></svg>