<svg height="983.03998" viewBox="0 0 983.03998 983.03998" width="983.03998" xmlns="http://www.w3.org/2000/svg" xmlns:xlink="http://www.w3.org/1999/xlink"><clipPath id="a"><path d="m0 737.28h737.28v-737.28h-737.28z"/></clipPath><g transform="matrix(1.3333333 0 0 -1.3333333 0 983.04)"><path d="m0 0h737.28v737.28h-737.28z" fill="#40ae49"/><path d="m729.577 7.687h-721.874v721.905h721.874z" fill="#40ae49"/><g clip-path="url(#a)" fill="#fff"><path d="m0 0c.88 0 1.59-.716 1.59-1.596v-52.565c0-.894-.71-1.599-1.59-1.599h-21.273c-.885 0-1.598.705-1.598 1.599v52.565c0 .88.713 1.596 1.598 1.596z" transform="translate(311.4097 241.4979)"/><path d="m0 0h-350.546c-.876 0-1.604-.754-1.604-1.647v-21.426c0-.872.728-1.577 1.604-1.577h350.546c.863 0 1.608.705 1.608 1.577v21.426c0 .893-.745 1.647-1.608 1.647" transform="translate(545.0121 163.1683)"/><path d="m0 0h-350.546c-.876 0-1.604-.705-1.604-1.577v-21.492c0-.858.728-1.581 1.604-1.581h350.546c.863 0 1.608.723 1.608 1.581v21.492c0 .872-.745 1.577-1.608 1.577" transform="translate(545.0121 120.5831)"/><path d="m0 0c-4.381 3.426-16.069 11.425-30.324 11.425-10.189 0-19.669-4.015-28.15-11.962-.601-.57-.938-1.357-.938-2.199v-1.91c0-.94.311-1.818.999-2.396.762-.576 1.56-.793 2.471-.576.202.029.451.092.657.168.649.226 1.257.616 1.753 1.111 1.839 1.235 6.859 2.922 14.04 2.922 7.425 0 22.017-1.989 36.119-15.138l.324-.289c.793-.817 1.888-1.268 3.049-1.268 1.104 0 2.247.46 2.965 1.24l.285.293c14.181 13.173 28.746 15.162 36.172 15.162 7.232 0 12.231-1.687 14.075-2.922.504-.495 1.122-.894 1.936-1.187.311-.092 1.205-.274 2.055-.063 1.297.365 2.208 1.532 2.208 2.889v1.691c0 .801-.346 1.609-.942 2.168-8.56 8.159-18.14 12.283-28.492 12.283-14.124 0-25.759-7.874-30.262-11.442" transform="translate(478.307 299.6851)"/><path d="m0 0c-.745-.346-1.284-1.027-1.529-1.847l-.355-1.169c-.263-.92-.096-1.891.46-2.633.543-.712 1.314-1.141 2.168-1.181.162-.019.32-.059.438-.019.61.019 1.157.151 1.696.434.31.063.959.236 2.124.236 1.569 0 15.701-.475 25.045-16.357l.118-.226c.509-.92 1.301-1.553 2.243-1.797.272-.087.793-.173 1.117-.173.648 0 1.301.173 1.766.438l.232.112c5.112 2.556 10.409 3.868 15.639 3.868 8.854 0 14.636-3.612 15.986-5.116.275-.511.696-.955 1.173-1.308.298-.171.824-.436 1.139-.548.158-.039.342-.061.518-.074.096-.02.21-.02.315-.02.477 0 .938.118 1.388.349.719.361 1.258 1.016 1.49 1.796l.294 1.034c.087.262.123.549.123.852 0 .547-.141 1.077-.408 1.504-6.808 11.822-16.687 14.292-23.779 14.292-5.279 0-9.896-1.368-12.616-2.368-3.212 4.32-11.329 13.248-23.643 13.248-4.329 0-8.74-1.113-13.142-3.327" transform="translate(456.5525 439.3976)"/><path d="m0 0 .101-1.577c.048-.986.564-1.838 1.401-2.361.692-.436 1.578-.587 2.357-.357.171.039.364.103.513.159.604.248 1.117.633 1.516 1.12 1.489 1.075 6.29 3.036 13.369 3.036 6.808 0 17.164-1.818 27.717-10.486l.246-.251c.753-.651 1.717-1.019 2.703-1.019h.258c1.104.086 2.125.594 2.751 1.323l.237.265c11.683 12.364 24.269 14.202 30.731 14.202 4.603 0 7.867-.95 9.138-1.669.482-.416 1.077-.744 1.822-.946.21-.05.727-.142 1.283-.083.228.024.513.103.736.175 1.253.438 2.077 1.66 1.99 3.014l-.08 1.371c-.052.817-.433 1.551-1.055 2.085-6.974 5.866-14.501 8.823-22.421 8.823-12.331 0-22.167-7.281-26.24-10.851-3.729 2.539-12.775 7.763-23.389 7.763-9.327 0-17.689-3.875-24.87-11.493-.565-.602-.849-1.422-.814-2.243" transform="translate(382.4829 385.4664)"/><path d="m0 0c0 20.992 17.02 38.003 38.003 38.003.823 0 1.625-.073 2.436-.118 2.002 26.564 24.138 47.515 51.219 47.515 28.401 0 51.426-23.018 51.426-51.419 0-8.045-1.906-15.626-5.2-22.407 25.736-5.702 44.999-28.62 44.999-56.06 0-31.734-25.729-57.463-57.462-57.463-2.318 0-76.685.447-76.685.447-22.478.005-40.693 18.211-40.693 40.687 0 10.796 4.232 20.571 11.092 27.856-11.421 6.556-19.135 18.842-19.135 32.959" transform="translate(205.0892 357.3246)"/><path d="m0 0v-25.544h.21l17.173 17.816h.219v-111.415h24.471v145.554h-19.538z" transform="translate(58.8294 642.7556)"/><path d="m0 0c-9.655 0-16.735-3.426-20.607-10.085h-.219v36.282h42.082v19.958h-64.397v-82.011h22.315v3.233c0 8.577 3.864 13.304 10.733 13.304 7.517 0 10.531-5.156 10.531-13.098v-35.209c0-7.719-2.795-13.089-10.312-13.089-8.367 0-11.364 5.581-11.364 14.167v18.246h-22.342v-16.537c0-22.106 8.806-36.273 33.706-36.273 24.69 0 34.774 13.099 34.774 33.276v35.638c0 22.972-11.801 32.198-24.9 32.198" transform="translate(159.0781 623.0029)"/><path d="m0 0c-1.404-.736-4.136-1.308-7.532-1.308-12.703 0-18.761 11.638-18.761 27.3 0 20.832 10.416 28.945 20.089 28.945 3.399 0 5.763-.737 6.722-1.474l-1.623-9.022c-1.109.579-2.364 1.068-4.508 1.068-5.464 0-10.413-5.248-10.413-18.94 0-13.202 4.504-18.367 10.413-18.367 1.626 0 3.472.407 4.654.82z" transform="translate(253.0751 613.97)"/><path d="m0 0c0-12.541 2.141-18.939 6.058-18.939 4.063 0 5.613 8.202 5.613 19.435 0 9.676-1.331 18.45-5.686 18.45-3.844 0-5.985-7.052-5.985-18.946m21.789.985c0-20.826-6.649-29.269-16.102-29.269-11.299 0-15.731 13.284-15.731 28.449 0 15.09 5.394 28.126 16.397 28.126 12.04 0 15.436-14.676 15.436-27.306" transform="translate(264.9429 640.7808)"/><path d="m0 0-3.177 10.165c-.959 3.202-1.772 6.315-2.659 9.841h-.145c-.813-3.526-1.627-6.886-2.364-9.999l-2.659-10.007h-9.603l9.308 28.291-8.939 26.976h10.12l2.878-10.248c.814-2.872 1.481-5.743 2.291-8.856h.149c.813 3.361 1.404 5.984 2.068 9.015l2.509 10.089h9.676l-9.304-27.472 9.822-27.795z" transform="translate(308.1929 613.1509)"/><path d="m0 0c.444-.159.959-.159 1.55-.159 4.876 0 7.09 3.85 7.09 9.015 0 4.842-1.773 8.609-6.277 8.609-.886 0-1.772-.159-2.363-.406zm-9.676 25.095c2.735.655 6.426 1.068 10.12 1.068 5.76 0 10.267-.903 13.514-4.27 2.954-2.865 4.285-7.459 4.285-12.134 0-5.985-1.623-10.166-4.209-13.285-3.104-3.602-8.126-5.248-12.112-5.248h-1.922v-20.578h-9.676z" transform="translate(331.8113 642.5028)"/><path d="m0 0-1.623 11.563c-.518 3.361-1.182 8.856-1.623 12.541h-.223c-.518-3.685-1.258-9.428-1.773-12.623l-1.848-11.481zm-8.05-8.361-2.214-12.63h-9.38l10.781 55.267h11.598l9.673-55.267h-9.378l-2.141 12.63z" transform="translate(369.3969 634.1417)"/><path d="m0 0v-22.141h10.12v22.141h9.674v-55.267h-9.674v23.126h-10.12v-23.126h-9.676v55.267z" transform="translate(396.2141 668.4177)"/><path d="m0 0h-11.376v-14.924h12.853v-9.345h-22.529v55.267h21.643v-9.346h-11.967v-12.713h11.376z" transform="translate(444.6863 637.4199)"/><path d="m0 0v-22.141h10.118v22.141h9.676v-55.267h-9.676v23.126h-10.118v-23.126h-9.673v55.267z" transform="translate(461.7001 668.4177)"/><path d="m0 0v-12.217c0-10.172-.591-19.683-.959-25.42h.149c1.401 4.752 3.914 11.97 5.391 16.233l7.313 21.404h8.786v-55.267h-8.491v12.465c0 11.068.368 19.269.591 24.841h-.15c-1.105-5-3.322-11.639-4.949-16.232l-7.309-21.074h-8.936v55.267z" transform="translate(497.6879 668.4177)"/><path d="m0 0h-11.375v-14.924h12.852v-9.345h-22.525v55.267h21.639v-9.346h-11.966v-12.713h11.375z" transform="translate(547.0846 637.4199)"/><path d="m0 0h13.59c-.074 5.743-2.586 13.533-9.085 13.533-2.069 0-4.06-.49-5.687-1.392l-2.217 8.608c2.144 1.144 5.172 2.377 9.235 2.377 14.326 0 17.652-15.909 17.652-28.533 0-16.893-7.389-28.043-18.688-28.043-3.914 0-7.091 1.226-8.79 2.128l1.773 8.94c1.553-.82 3.326-1.392 5.616-1.392 7.458 0 9.599 7.955 10.044 14.263h-13.443z" transform="translate(229.6637 559.3642)"/><path d="m0 0v-24.028h.74l8.123 24.028h10.635l-11.445-25.584c5.095-2.135 6.794-7.3 8.198-14.022 1.106-5.33 1.919-10.578 3.396-15.661h-9.676c-1.181 3.939-1.918 8.443-2.731 12.789-1.183 6.481-2.513 10.661-6.5 10.661h-.74v-23.45h-9.453v55.267z" transform="translate(268.0246 581.8356)"/><path d="m0 0c0-12.541 2.144-18.939 6.058-18.939 4.06 0 5.613 8.203 5.613 19.435 0 9.676-1.331 18.45-5.69 18.45-3.837 0-5.981-7.052-5.981-18.946m21.788.985c0-20.826-6.645-29.269-16.099-29.269-11.302 0-15.733 13.284-15.733 28.449 0 15.09 5.39 28.127 16.397 28.127 12.037 0 15.435-14.677 15.435-27.307" transform="translate(298.7265 554.1986)"/><path d="m0 0c-1.401-.737-4.136-1.309-7.532-1.309-12.703 0-18.761 11.639-18.761 27.3 0 20.832 10.413 28.945 20.089 28.945 3.399 0 5.762-.737 6.722-1.474l-1.627-9.021c-1.105.578-2.363 1.067-4.504 1.067-5.464 0-10.413-5.248-10.413-18.939 0-13.202 4.504-18.367 10.413-18.367 1.626 0 3.472.406 4.653.819z" transform="translate(350.6454 527.3885)"/><path d="m0 0v-12.217c0-10.172-.591-19.682-.963-25.42h.15c1.404 4.753 3.913 11.97 5.39 16.233l7.313 21.404h8.79v-55.267h-8.495v12.465c0 11.068.368 19.27.591 24.842h-.149c-1.109-5.001-3.323-11.64-4.946-16.233l-7.313-21.074h-8.939v55.267z" transform="translate(364.0986 581.8356)"/><path d="m0 0c-1.405-.737-4.136-1.309-7.532-1.309-12.704 0-18.762 11.639-18.762 27.3 0 20.832 10.417 28.945 20.089 28.945 3.4 0 5.763-.737 6.722-1.474l-1.623-9.021c-1.109.578-2.363 1.067-4.507 1.067-5.464 0-10.413-5.248-10.413-18.939 0-13.202 4.504-18.367 10.413-18.367 1.626 0 3.472.406 4.653.819z" transform="translate(416.4431 527.3885)"/><path d="m0 0h-8.79v9.924h27.329v-9.924h-8.863v-45.343h-9.676z" transform="translate(428.3934 571.9118)"/><path d="m0 0h-11.376v-14.924h12.853v-9.345h-22.529v55.267h21.643v-9.346h-11.967v-12.713h11.376z" transform="translate(472.4944 550.8378)"/><path d="m0 0c-.219 5.248-.591 12.382-.442 18.284h-.221c-.887-5.902-2.215-12.706-3.174-16.975l-4.285-19.759h-6.868l-4.136 19.435c-.963 4.428-2.291 11.315-3.028 17.299h-.222c-.149-5.984-.445-12.954-.74-18.449l-.81-19.187h-8.348l3.621 55.267h10.19l3.99-20.006c1.401-6.97 2.656-13.12 3.545-19.352h.147c.737 6.149 1.845 12.382 3.177 19.352l3.913 20.006h10.19l3.031-55.267h-8.641z" transform="translate(510.5724 545.9207)"/><path d="m0 0c-1.401-.737-4.136-1.309-7.532-1.309-12.703 0-18.761 11.639-18.761 27.3 0 20.832 10.413 28.945 20.089 28.945 3.399 0 5.762-.737 6.722-1.474l-1.627-9.021c-1.106.578-2.363 1.067-4.504 1.067-5.464 0-10.413-5.248-10.413-18.939 0-13.202 4.504-18.367 10.413-18.367 1.626 0 3.472.406 4.653.819z" transform="translate(565.7614 527.3885)"/><path d="m0 0 4.577-20.826c.665-3.12 1.255-6.398 1.624-8.856h.222c.445 2.623.74 5.984 1.182 9.097l3.323 20.585h9.825l-7.386-29.441c-1.699-6.97-3.621-14.511-6.131-19.269-2.363-4.346-5.981-7.211-10.117-7.211-1.7 0-2.954.165-3.917.489l.372 8.774c.441-.083 1.182-.248 2.363-.248 2.51 0 4.578 2.871 5.318 5.578.368 1.15.295 2.052-.073 3.279l-11.598 38.049z" transform="translate(578.4072 581.8356)"/><path d="m0 0v-45.921h8.049v45.921h9.455v-45.921h8.049v45.921h9.526v-55.267h-44.605v55.267z" transform="translate(612.2351 581.8356)"/><path d="m0 0v-12.217c0-10.172-.591-19.682-.96-25.42h.149c1.402 4.753 3.914 11.97 5.392 16.233l7.312 21.404h8.787v-55.267h-8.492v12.465c0 11.068.369 19.27.591 24.842h-.149c-1.106-5.001-3.323-11.64-4.949-16.233l-7.309-21.074h-8.937v55.267z" transform="translate(663.5158 581.8356)"/></g></g></svg>