<svg height="983.03998" viewBox="0 0 983.03998 983.03998" width="983.03998" xmlns="http://www.w3.org/2000/svg" xmlns:xlink="http://www.w3.org/1999/xlink"><clipPath id="a"><path d="m0 737.28h737.28v-737.28h-737.28z"/></clipPath><g transform="matrix(1.3333333 0 0 -1.3333333 0 983.04)"><path d="m0 0h737.28v737.28h-737.28z" fill="#00558a"/><path d="m729.577 7.685h-721.875v721.91h721.875z" fill="#00558a"/><g clip-path="url(#a)" fill="#fff"><path d="m0 0s-7.007-9.308-4.97-18.374c2.051-9.071 12.39-14.466 12.39-14.466s7.011 9.307 4.967 18.374c-2.044 9.075-12.387 14.466-12.387 14.466" transform="translate(486.7473 409.158)"/><path d="m0 0s7.01 9.313 4.966 18.383c-2.051 9.073-12.387 14.455-12.387 14.455s-7.014-9.299-4.977-18.372c2.056-9.066 12.398-14.466 12.398-14.466" transform="translate(475.3272 356.0075)"/><path d="m0 0s7.402-7.465 15.83-6.714c8.427.747 14.673 9.42 14.673 9.42s-7.39 7.465-15.825 6.718c-8.428-.751-14.678-9.424-14.678-9.424" transform="translate(504.1306 365.9756)"/><path d="m0 0c-6.856-6.959-5.889-19.271-5.889-19.271s12.088-1.047 18.958 5.902c6.856 6.952 5.889 19.266 5.889 19.266s-12.095 1.047-18.958-5.897" transform="translate(516.2553 405.8446)"/><path d="m0 0c8.398-.995 16.294 6.217 16.294 6.217s-5.719 8.819-14.11 9.812c-8.405.987-16.301-6.226-16.301-6.226s5.719-8.813 14.117-9.803" transform="translate(501.1269 338.3074)"/><path d="m0 0h-62.772c-4.911 0-8.892-3.963-8.892-8.874 0-4.905 3.981-8.885 8.892-8.885h62.772c4.904 0 8.878 3.98 8.878 8.885 0 4.911-3.974 8.874-8.878 8.874" transform="translate(508.628 203.2986)"/><path d="m0 0h-62.772c-4.911 0-8.892-3.967-8.892-8.878 0-4.9 3.981-8.881 8.892-8.881h62.772c4.904 0 8.878 3.981 8.878 8.881 0 4.911-3.974 8.878-8.878 8.878" transform="translate(508.628 105.4134)"/><path d="m0 0c-1.476.457-2.937.857-4.358 1.123 0 0 1.609-.5 4.358-1.123" transform="translate(226.3205 224.8566)"/><path d="m0 0c4.136-.07 8.288.053 12.446.336v-32.796l-12.446.285zm178.258-7.098h-58.168c-2.789 0-5.054-2.269-5.054-5.053v-17.615l-37.973-4.174-55.473 1.27v33.884c7.368.943 14.748 2.411 22.073 4.478 53.399 15.067 65.044 48.328 63.882 78.874-1.162 31.11 8.793 43.19 23.099 48.563 4.096 1.538 8.147 2.511 11.855 3.142.159-7.642 1.709-16.524 5.126-27.11 1.268.07 2.53.178 3.785.314-3.608 10.828-5.147 19.733-5.232 27.329 7.39.873 12.664.38 12.664.38s-4.997 2.683-12.051 8.583c2.398 14.731 11.173 23.777 20.216 33.025 4.971 5.094 10.107 10.351 14.151 16.616l-3.151 2.033c-3.827-5.953-8.852-11.07-13.689-16.025-8.819-9.022-17.719-18.241-20.734-32.865-2.867 2.586-5.966 5.645-9.14 9.206-13.169 14.763-30.12 3.918-54.292-18.59-24.188-22.495-54.596-23.266-84.299 7.123-39.186 40.119-73.369 39.89-96.811 37.613 16.036-6.83 21.645-21.814 29.762-59.901 8.505-39.963 29.958-58.044 59.303-60.54-13.603-2.203-17.131-4.09-38.997-19.195-17.081-11.783-41.106-8.059-50.847-5.846 17.881-5.574 39.061-24.331 58.012-30.859 11.033-3.796 22.667-6.145 34.582-7.09v-32.437l-105.226 2.269v-22.63l191.432 4.247 37.973-4.18v-17.601c0-2.786 2.265-5.063 5.054-5.063h58.168c2.793 0 5.062 2.277 5.062 5.063v57.709c0 2.784-2.269 5.053-5.062 5.053" transform="translate(328.057 186.4357)"/><path d="m0 0c0-4.771-3.328-8.642-7.432-8.642h-4.472c-4.095 0-7.434 3.871-7.434 8.642v15.642c0 4.778 3.339 8.641 7.434 8.641h4.472c4.104 0 7.432-3.863 7.432-8.641z" transform="translate(208.2561 137.851)"/><path d="m0 0v-25.544h.219l17.173 17.817h.219v-111.416h24.471v145.554h-19.53z" transform="translate(63.0885 642.6329)"/><path d="m0 0c0-9.23-3.435-14.597-11.802-14.597-8.157 0-11.373 5.577-11.373 14.597v26.617c.421 8.157 3.855 13.313 11.592 13.313 8.359 0 11.583-5.156 11.583-14.601zm24.26 2.142v21.47c0 23.827-9.445 35.857-27.046 35.857-10.313 0-16.534-4.723-20.178-11.811h-.211v31.344c0 8.806 2.778 15.03 11.592 15.03 8.797 0 11.373-5.151 11.373-14.162v-9.678h22.324v7.737c0 21.469-7.079 36.491-34.135 36.491-25.758 0-35.423-16.528-35.423-39.286v-70.841c0-22.538 9.883-38.857 35.642-38.857 25.969 0 36.062 14.167 36.062 36.706" transform="translate(166.5706 556.3325)"/><path d="m0 0c-.223 5.248-.591 12.382-.444 18.284h-.223c-.883-5.902-2.217-12.706-3.177-16.975l-4.282-19.759h-6.868l-4.135 19.434c-.96 4.429-2.294 11.316-3.031 17.3h-.222c-.147-5.984-.439-12.954-.737-18.449l-.814-19.187h-8.341l3.614 55.267h10.197l3.984-20.007c1.404-6.969 2.662-13.119 3.545-19.351h.146c.744 6.149 1.849 12.382 3.177 19.351l3.914 20.007h10.196l3.025-55.267h-8.641z" transform="translate(264.6382 632.5051)"/><path d="m0 0v-12.217c0-10.172-.591-19.682-.96-25.42h.147c1.404 4.753 3.913 11.97 5.387 16.233l7.313 21.404h8.793v-55.267h-8.495v12.465c0 11.068.369 19.27.591 24.841h-.146c-1.112-5-3.329-11.639-4.949-16.232l-7.313-21.074h-8.939v55.267z" transform="translate(289.0223 668.42)"/><path d="m0 0c.445-.159.96-.159 1.55-.159 4.88 0 7.09 3.85 7.09 9.015 0 4.842-1.772 8.609-6.276 8.609-.883 0-1.773-.159-2.364-.406zm-9.676 25.095c2.732.655 6.43 1.068 10.121 1.068 5.762 0 10.267-.903 13.513-4.27 2.954-2.865 4.289-7.459 4.289-12.134 0-5.985-1.627-10.166-4.213-13.285-3.1-3.602-8.125-5.248-12.115-5.248h-1.919v-20.578h-9.676z" transform="translate(327.0398 642.5051)"/><path d="m0 0c2.141 6.804 4.136 15.33 4.949 21.81l9.822.82c-2.21-7.383-5.317-15.991-8.564-21.893z" transform="translate(339.0793 602.9054)"/><path d="m0 0v-55.267h-9.676v45.922h-9.898v-45.922h-9.676v55.267z" transform="translate(400.8141 668.42)"/><path d="m0 0c.445-.159.96-.159 1.55-.159 4.873 0 7.091 3.85 7.091 9.015 0 4.842-1.773 8.609-6.278 8.609-.882 0-1.772-.159-2.363-.406zm-9.676 25.095c2.733.655 6.43 1.068 10.121 1.068 5.762 0 10.267-.903 13.513-4.27 2.954-2.865 4.282-7.459 4.282-12.134 0-5.985-1.62-10.166-4.205-13.285-3.101-3.602-8.126-5.248-12.116-5.248h-1.919v-20.578h-9.676z" transform="translate(418.1135 642.5051)"/><path d="m0 0-1.626 11.563c-.515 3.361-1.182 8.857-1.62 12.541h-.223c-.521-3.684-1.258-9.428-1.773-12.623l-1.848-11.481zm-8.049-8.361-2.218-12.63h-9.377l10.781 55.267h11.595l9.676-55.267h-9.378l-2.141 12.63z" transform="translate(455.6932 634.1439)"/><path d="m0 0c.591-.165 1.258-.165 2.141-.165 3.913 0 7.166 2.624 7.166 8.285 0 5.489-3.398 8.36-7.236 8.443h-2.071zm0 24.518h2.071c3.469 0 6.124 3.278 6.124 7.788 0 4.016-1.696 7.135-5.686 7.135-1.029 0-1.918-.083-2.509-.331zm-9.677 21.893c2.955.737 6.799 1.067 11.005 1.067 4.657 0 9.161-.661 12.63-3.939 2.662-2.459 3.767-6.15 3.767-10.006 0-4.918-2.287-9.67-7.236-12.052v-.324c5.762-1.805 8.863-7.135 8.863-13.202 0-4.594-1.328-8.12-3.691-10.827-2.955-3.608-7.98-5.578-16.322-5.578-3.698 0-6.798.248-9.016.579z" transform="translate(482.517 621.1897)"/><path d="m0 0c0-12.541 2.141-18.939 6.055-18.939 4.06 0 5.61 8.203 5.61 19.435 0 9.676-1.328 18.45-5.687 18.45-3.837 0-5.978-7.052-5.978-18.946m21.785.985c0-20.826-6.645-29.269-16.099-29.269-11.302 0-15.731 13.284-15.731 28.449 0 15.09 5.388 28.127 16.392 28.127 12.039 0 15.438-14.677 15.438-27.307" transform="translate(515.7124 640.783)"/><path d="m0 0c-1.405-.737-4.136-1.308-7.535-1.308-12.7 0-18.755 11.638-18.755 27.3 0 20.832 10.413 28.945 20.089 28.945 3.392 0 5.756-.737 6.716-1.474l-1.621-9.022c-1.112.579-2.363 1.068-4.504 1.068-5.471 0-10.419-5.248-10.419-18.94 0-13.202 4.511-18.367 10.419-18.367 1.62 0 3.469.407 4.65.82z" transform="translate(567.6314 613.9723)"/><path d="m0 0 4.581-20.826c.667-3.12 1.258-6.398 1.626-8.856h.223c.438 2.623.737 5.984 1.181 9.097l3.323 20.585h9.822l-7.389-29.441c-1.696-6.97-3.615-14.511-6.131-19.269-2.363-4.346-5.978-7.211-10.114-7.211-1.703 0-2.954.165-3.913.489l.368 8.774c.445-.083 1.182-.248 2.363-.248 2.51 0 4.581 2.871 5.318 5.578.368 1.15.292 2.052-.076 3.279l-11.595 38.049z" transform="translate(580.274 668.42)"/><path d="m0 0c0-6.315-.368-12.713-1.181-18.616-.591-3.932-1.48-8.201-2.51-11.562h10.858v36.576h-7.167zm16.767 15.743v-46.08l3.913-.165-.444-21.074h-7.313l-.369 12.052h-21.639l-.368-12.052h-7.389l-.369 21.074 3.546.165c1.549 4.181 2.585 8.361 3.398 12.872.96 6.315 1.404 12.789 1.404 19.269v13.939z" transform="translate(615.8583 652.6768)"/><path d="m0 0v-12.217c0-10.172-.591-19.682-.959-25.42h.146c1.404 4.753 3.914 11.97 5.394 16.233l7.306 21.404h8.793v-55.267h-8.494v12.465c0 11.068.368 19.27.591 24.841h-.146c-1.112-5-3.323-11.639-4.95-16.232l-7.312-21.074h-8.939v55.267z" transform="translate(649.9308 668.42)"/><path d="m0 0h-11.372v-14.923h12.853v-9.346h-22.529v55.267h21.639v-9.346h-11.963v-12.712h11.372z" transform="translate(699.321 637.4222)"/><path d="m0 0v-12.217c0-10.172-.591-19.682-.96-25.42h.147c1.404 4.753 3.913 11.97 5.394 16.233l7.306 21.404h8.793v-55.267h-8.495v12.465c0 11.068.369 19.27.591 24.842h-.146c-1.112-5.001-3.323-11.64-4.949-16.233l-7.313-21.074h-8.939v55.267z" transform="translate(242.777 581.8379)"/><path d="m0 0h13.59c-.076 5.743-2.586 13.532-9.085 13.532-2.065 0-4.06-.489-5.686-1.391l-2.218 8.608c2.141 1.144 5.172 2.377 9.231 2.377 14.334 0 17.656-15.909 17.656-28.533 0-16.893-7.388-28.043-18.685-28.043-3.913 0-7.09 1.226-8.792 2.128l1.772 8.94c1.55-.82 3.323-1.392 5.616-1.392 7.459 0 9.6 7.955 10.044 14.263h-13.443z" transform="translate(288.2569 559.3665)"/><path d="m0 0c3.246.737 6.131 5.165 6.131 17.547 0 12.548-3.329 16.563-6.131 17.3zm-8.424 34.847c-2.955-.985-6.131-5.412-6.131-17.63 0-11.398 3.106-16.48 6.131-17.217zm8.494 11.976v-4.186c8.939-1.309 15.731-9.099 15.731-25.007 0-16.975-6.869-24.104-15.731-25.502v-4.511h-8.565v4.511c-9.008 1.474-15.73 8.527-15.73 25.254 0 16.239 8.05 23.946 15.801 25.255v4.186z" transform="translate(339.7757 536.9841)"/><path d="m0 0c3.247.737 6.131 5.165 6.131 17.547 0 12.548-3.329 16.563-6.131 17.3zm-8.424 34.847c-2.954-.985-6.131-5.412-6.131-17.63 0-11.398 3.107-16.48 6.131-17.217zm8.494 11.976v-4.186c8.939-1.309 15.73-9.099 15.73-25.007 0-16.975-6.867-24.104-15.73-25.502v-4.511h-8.564v4.511c-9.009 1.474-15.731 8.527-15.731 25.254 0 16.239 8.05 23.946 15.801 25.255v4.186z" transform="translate(383.6764 536.9841)"/><path d="m0 0h-11.373v-14.923h12.853v-9.346h-22.529v55.267h21.64v-9.346h-11.964v-12.712h11.373z" transform="translate(425.7671 550.84)"/><path d="m0 0v-24.028h.737l8.126 24.028h10.635l-11.449-25.584c5.102-2.135 6.798-7.3 8.202-14.022 1.106-5.33 1.92-10.579 3.393-15.661h-9.669c-1.182 3.939-1.926 8.443-2.732 12.789-1.182 6.481-2.516 10.661-6.506 10.661h-.737v-23.45h-9.454v55.267z" transform="translate(442.5649 581.8379)"/><path d="m0 0h-8.787v9.924h27.326v-9.924h-8.863v-45.343h-9.676z" transform="translate(473.4229 571.914)"/><path d="m0 0v-12.217c0-10.172-.591-19.682-.959-25.42h.146c1.404 4.753 3.914 11.97 5.394 16.233l7.306 21.404h8.793v-55.267h-8.494v12.465c0 11.068.368 19.27.591 24.842h-.147c-1.112-5.001-3.322-11.64-4.949-16.233l-7.312-21.074h-8.94v55.267z" transform="translate(505.0362 581.8379)"/><path d="m0 0c.591-.165 1.258-.165 2.141-.165 3.913 0 7.166 2.624 7.166 8.285 0 5.489-3.398 8.36-7.236 8.443h-2.071zm0 24.518h2.071c3.469 0 6.131 3.278 6.131 7.789 0 4.014-1.703 7.134-5.693 7.134-1.029 0-1.918-.083-2.509-.331zm-9.676 21.893c2.954.737 6.798 1.067 11.004 1.067 4.657 0 9.161-.661 12.63-3.939 2.662-2.459 3.767-6.15 3.767-10.007 0-4.917-2.287-9.669-7.236-12.051v-.324c5.762-1.805 8.863-7.135 8.863-13.202 0-4.594-1.328-8.12-3.691-10.827-2.955-3.608-7.98-5.578-16.329-5.578-3.69 0-6.791.248-9.008.579z" transform="translate(543.0543 534.6076)"/><path d="m0 0v-22.141h10.12v22.141h9.676v-55.267h-9.676v23.126h-10.12v-23.126h-9.676v55.267z" transform="translate(577.6733 581.8379)"/><path d="m646.822 526.571h-9.746v55.267h9.746zm-32.052 8.361c.667-.159 1.258-.159 1.772-.159 4.066 0 6.868 4.098 6.868 9.016 0 5.33-2.586 9.104-6.569 9.104-.667 0-1.481-.083-2.071-.248zm-.07 46.906v-20.668c1.181.248 2.509.331 3.615.331 8.862 0 15.14-6.556 15.14-16.646 0-5.578-1.551-9.758-4.137-12.788-3.398-3.94-8.786-5.909-15.8-5.909-3.107 0-6.207.248-8.424.578v55.102z"/><path d="m0 0h-11.372v-14.923h12.852v-9.346h-22.528v55.267h21.639v-9.346h-11.963v-12.712h11.372z" transform="translate(675.494 550.84)"/><path d="m0 0v-12.217c0-10.172-.591-19.683-.96-25.42h.147c1.404 4.753 3.913 11.97 5.394 16.233l7.306 21.404h8.793v-55.267h-8.495v12.465c0 11.068.369 19.269.591 24.842h-.146c-1.112-5.001-3.323-11.64-4.949-16.234l-7.313-21.073h-8.939v55.267z" transform="translate(242.777 495.2558)"/><path d="m0 0v-22.141h10.121v22.141h9.676v-55.267h-9.676v23.126h-10.121v-23.126h-9.676v55.267z" transform="translate(280.7945 495.2558)"/><path d="m0 0c-1.404-.737-4.136-1.309-7.535-1.309-12.7 0-18.755 11.639-18.755 27.3 0 20.832 10.413 28.945 20.089 28.945 3.393 0 5.757-.737 6.716-1.474l-1.62-9.021c-1.112.578-2.364 1.067-4.505 1.067-5.47 0-10.419-5.248-10.419-18.939 0-13.202 4.511-18.367 10.419-18.367 1.62 0 3.469.406 4.651.82z" transform="translate(332.2177 440.8087)"/><path d="m0 0h-8.792v9.924h27.331v-9.924h-8.863v-45.343h-9.676z" transform="translate(344.1681 485.3319)"/><path d="m0 0v-12.217c0-10.172-.591-19.683-.96-25.42h.147c1.404 4.753 3.913 11.97 5.394 16.233l7.306 21.404h8.793v-55.267h-8.495v12.465c0 11.068.369 19.269.591 24.842h-.146c-1.112-5.001-3.323-11.64-4.949-16.234l-7.313-21.073h-8.939v55.267z" transform="translate(375.7885 495.2558)"/><path d="m0 0h-8.787v9.924h27.326v-9.924h-8.863v-45.343h-9.676z" transform="translate(409.8799 485.3319)"/><path d="m0 0 4.581-20.826c.666-3.12 1.257-6.398 1.626-8.856h.222c.438 2.623.737 5.984 1.182 9.097l3.323 20.585h9.822l-7.389-29.441c-1.696-6.97-3.615-14.511-6.131-19.269-2.363-4.346-5.978-7.211-10.114-7.211-1.703 0-2.954.165-3.914.489l.369 8.773c.444-.082 1.181-.247 2.363-.247 2.51 0 4.58 2.871 5.318 5.578.368 1.15.292 2.052-.077 3.279l-11.594 38.049z" transform="translate(440.7951 495.2558)"/><path d="m0 0h-8.793v9.924h27.332v-9.924h-8.863v-45.343h-9.676z" transform="translate(472.1612 485.3319)"/><path d="m536.939 439.989h-9.746v55.267h9.746zm-32.053 8.36c.668-.158 1.259-.158 1.773-.158 4.066 0 6.868 4.098 6.868 9.015 0 5.33-2.586 9.104-6.569 9.104-.668 0-1.481-.082-2.072-.247zm-.069 46.907v-20.668c1.181.248 2.509.331 3.614.331 8.864 0 15.14-6.557 15.14-16.646 0-5.578-1.55-9.758-4.135-12.789-3.4-3.939-8.787-5.908-15.802-5.908-3.106 0-6.207.248-8.424.578v55.102z"/></g></g></svg>