<svg height="983.03998" viewBox="0 0 983.03998 983.03998" width="983.03998" xmlns="http://www.w3.org/2000/svg" xmlns:xlink="http://www.w3.org/1999/xlink"><clipPath id="a"><path d="m0 737.28h737.28v-737.28h-737.28z"/></clipPath><g transform="matrix(1.3333333 0 0 -1.3333333 0 983.04)"><path d="m0 0h737.28v737.28h-737.28z" fill="#cd8c2a"/><path d="m729.569 7.692h-721.857v721.896h721.857z" fill="#cd8c2a"/><g clip-path="url(#a)" fill="#fff"><path d="m0 0c-31.883 25.18-74.122 25.698-89.586 22.017l-1.796-.415c-17.865-4.219-46.243-11.202-79.458-52.42-.184-.228-.376-.465-.552-.702l-.42-.507c-.324-.461-.552-.999-.552-1.604 0-.499.122-.955.359-1.38l.771-1.27c4.17-6.974 9.427-15.95 13.869-24.221.044-.088.088-.153.123-.254.474-.916 1.419-1.56 2.532-1.56.771 0 1.463.307 1.963.797.21.272.42.557.604.846 29.483 40.771 52.665 46.401 68.348 50.089l1.876.443c8.139 1.953 39.084 1.836 61.426-15.802 17.435-13.763 26.284-35.668 26.284-65.093 0-49.361-24.006-68.672-44.157-76.177-31.209-11.665-61.138 3.93-61.357 4.049l-1.341.652c-17.146 7.443-42.729 22.929-66.841 71.358-48.599 97.607-89.253 106.798-116.15 112.892l-1.438.319c-12.247 2.777-54.784 4.74-88.219-21.948-17.47-13.934-38.279-41.029-38.279-90.948 0-30.415 6.248-50.497 22.308-71.625 3.521-4.814 39.514-51.053 109.097-37.718 11.136 2.133 26.223 7.452 42.817 19.889l15.315-13.817c.999-.907 2.594-.832 3.514.175.437.469.622 1.069.613 1.66v.206l11.048 67.963.008.754c-.008.661-.279 1.336-.823 1.809-.464.442-1.042.613-1.621.613l-.472-.044-.719-.074-65.098-18.224-1.182-.193c-.474-.1-.912-.346-1.244-.727-.947-1.034-.859-2.611.183-3.531l.763-.705 14.588-13.173c-9.419-6.098-17.628-8.897-23.893-10.111-50.344-9.602-75.2 23.371-76.146 24.663l-.35.483c-11.697 15.358-15.648 28.409-15.648 51.727 0 29.513 8.691 51.426 25.837 65.12 21.773 17.374 51.798 17.474 60.279 15.543l1.463-.329c22.044-4.99 52.245-11.819 93.844-95.382 21.606-43.382 48.67-71.747 82.726-86.707 4.337-2.212 25.014-12.017 51.85-12.017 11.224 0 23.516 1.713 36.124 6.4 19.74 7.369 65.658 32.541 65.658 107.175 0 49.888-21.124 77.04-38.848 91.036" transform="translate(551.8335 355.0333)"/><path d="m0 0h.219v-111.42h24.471v145.55h-19.556l-22.525-26.407v-25.544h.209z" transform="translate(79.7701 634.7347)"/><path d="m0 0v-17.597h22.324v18.249c0 8.797 4.302 11.373 9.445 11.373 4.731 0 8.805-1.928 8.805-10.952v-12.012c0-12.029-1.069-16.747-9.024-25.119l-13.73-14.601c-13.308-14.171-18.259-23.616-18.259-38.002v-26.837h63.556v19.972h-40.153v6.865c0 11.381 4.083 15.674 10.303 22.328l15.674 16.529c12.669 13.523 15.464 22.118 15.464 36.714v14.163c0 20.831-10.084 30.7-31.988 30.7-21.474 0-32.417-11.376-32.417-31.773" transform="translate(119.0478 638.804)"/><path d="m0 0c0-12.544 2.141-18.942 6.055-18.942 4.06 0 5.61 8.198 5.61 19.434 0 9.676-1.328 18.45-5.686 18.45-3.838 0-5.979-7.052-5.979-18.942m21.786.985c0-20.829-6.646-29.273-16.1-29.273-11.302 0-15.73 13.282-15.73 28.45 0 15.089 5.387 28.126 16.391 28.126 12.04 0 15.439-14.676 15.439-27.303" transform="translate(243.702 640.4464)"/><path d="m0 0h-8.787v9.924h27.326v-9.924h-8.863v-45.343h-9.676z" transform="translate(276.6119 658.1562)"/><path d="m0 0c.591-.165 1.258-.165 2.141-.165 3.914 0 7.167 2.623 7.167 8.282 0 5.492-3.4 8.363-7.237 8.446h-2.071zm0 24.518h2.071c3.469 0 6.131 3.278 6.131 7.788 0 4.019-1.703 7.132-5.692 7.132-1.029 0-1.919-.08-2.51-.327zm-9.676 21.893c2.954.737 6.798 1.064 11.004 1.064 4.657 0 9.161-.655 12.63-3.936 2.662-2.459 3.768-6.15 3.768-10.003 0-4.921-2.287-9.676-7.237-12.055v-.328c5.763-1.804 8.863-7.131 8.863-13.202 0-4.59-1.328-8.116-3.691-10.823-2.955-3.608-7.98-5.574-16.328-5.574-3.691 0-6.792.244-9.009.574z" transform="translate(309.3312 620.8498)"/><path d="m0 0h-11.373v-14.92h12.853v-9.349h-22.529v55.267h21.64v-9.349h-11.964v-12.71h11.373z" transform="translate(355.3228 637.0822)"/><path d="m0 0h-8.793v9.924h27.332v-9.924h-8.863v-45.343h-9.676z" transform="translate(368.7024 658.1562)"/><path d="m0 0c-1.404-.737-4.136-1.312-7.536-1.312-12.699 0-18.754 11.642-18.754 27.306 0 20.826 10.413 28.943 20.089 28.943 3.392 0 5.756-.737 6.716-1.474l-1.621-9.022c-1.112.575-2.363 1.067-4.504 1.067-5.47 0-10.419-5.247-10.419-18.942 0-13.199 4.51-18.367 10.419-18.367 1.62 0 3.469.41 4.65.822z" transform="translate(415.2021 613.6324)"/><path d="m0 0h-8.793v9.924h27.332v-9.924h-8.863v-45.343h-9.676z" transform="translate(427.1525 658.1562)"/><path d="m0 0c.591-.165 1.258-.165 2.141-.165 3.914 0 7.167 2.623 7.167 8.282 0 5.492-3.4 8.363-7.237 8.446h-2.071zm0 24.518h2.071c3.469 0 6.131 3.278 6.131 7.788 0 4.019-1.702 7.132-5.692 7.132-1.029 0-1.919-.08-2.51-.327zm-9.676 21.893c2.954.737 6.798 1.064 11.004 1.064 4.657 0 9.161-.655 12.63-3.936 2.662-2.459 3.767-6.15 3.767-10.003 0-4.921-2.286-9.676-7.236-12.055v-.328c5.763-1.804 8.863-7.131 8.863-13.202 0-4.59-1.328-8.116-3.691-10.823-2.954-3.608-7.98-5.574-16.328-5.574-3.691 0-6.791.244-9.009.574z" transform="translate(459.8777 620.8498)"/><path d="m0 0h-11.373v-14.92h12.853v-9.349h-22.528v55.267h21.639v-9.349h-11.964v-12.71h11.373z" transform="translate(505.8692 637.0822)"/><path d="m0 0v-22.142h10.121v22.142h9.676v-55.267h-9.676v23.123h-10.121v-23.123h-9.676v55.267z" transform="translate(522.8895 668.0801)"/><path d="m0 0v-22.142h10.121v22.142h9.676v-55.267h-9.676v23.123h-10.121v-23.123h-9.676v55.267z" transform="translate(559.9858 668.0801)"/><path d="m0 0c0-12.544 2.141-18.942 6.055-18.942 4.06 0 5.61 8.198 5.61 19.434 0 9.676-1.328 18.45-5.686 18.45-3.838 0-5.979-7.052-5.979-18.942m21.786.985c0-20.829-6.646-29.273-16.1-29.273-11.302 0-15.73 13.282-15.73 28.45 0 15.089 5.387 28.126 16.391 28.126 12.039 0 15.439-14.676 15.439-27.303" transform="translate(595.3925 640.4464)"/><path d="m0 0h-11.373v-14.92h12.853v-9.349h-22.529v55.267h21.64v-9.349h-11.964v-12.71h11.373z" transform="translate(643.7919 637.0822)"/><path d="m0 0v-55.27h-9.676v45.921h-9.898v-45.921h-9.676v55.27z" transform="translate(265.3414 581.4947)"/><path d="m0 0c0-12.548 2.141-18.945 6.055-18.945 4.06 0 5.61 8.202 5.61 19.434 0 9.676-1.328 18.45-5.686 18.45-3.838 0-5.979-7.052-5.979-18.939m21.785.985c0-20.833-6.645-29.276-16.099-29.276-11.302 0-15.73 13.285-15.73 28.45 0 15.089 5.387 28.129 16.391 28.129 12.04 0 15.438-14.679 15.438-27.303" transform="translate(280.9512 553.861)"/><path d="m0 0h-8.793v9.927h27.332v-9.927h-8.863v-45.343h-9.676z" transform="translate(313.8611 571.5676)"/><path d="m0 0c.445-.165.96-.165 1.55-.165 4.88 0 7.09 3.85 7.09 9.021 0 4.835-1.772 8.609-6.277 8.609-.883 0-1.772-.165-2.363-.413zm-9.676 25.089c2.732.658 6.43 1.067 10.121 1.067 5.762 0 10.266-.902 13.513-4.263 2.954-2.872 4.288-7.465 4.288-12.134 0-5.991-1.626-10.172-4.212-13.285-3.1-3.609-8.126-5.248-12.116-5.248h-1.918v-20.584h-9.676z" transform="translate(346.5805 555.583)"/><path d="m0 0h-11.373v-14.924h12.853v-9.351h-22.529v55.27h21.64v-9.349h-11.964v-12.713h11.373z" transform="translate(390.7991 550.5001)"/><path d="m0 0c.667-.165 1.328-.165 2.141-.165 2.294 0 4.136.985 5.318 2.623 1.258 1.64 1.849 3.933 1.849 6.398 0 2.542-.668 4.835-1.919 6.392-1.258 1.639-3.031 2.707-5.172 2.707-.813 0-1.55-.083-2.217-.248zm15.731 46.903v-9.183h-15.807v-11.564c1.404.324 2.516.407 3.92.407 4.282 0 8.049-1.474 10.781-4.098 2.955-2.872 4.727-7.217 4.727-12.789 0-5.33-1.48-9.593-4.136-12.548-3.399-4.015-8.717-5.902-15.877-5.902-3.697 0-6.798.242-9.015.572v55.105z" transform="translate(407.8129 534.5917)"/><path d="m0 0v-55.27h-9.676v45.921h-7.383v-14.6c0-12.706-.743-23.856-7.02-29.269-1.848-1.639-4.212-2.706-6.646-2.706l-2.07 9.104c1.181.324 2.439.978 3.322 1.963 2.885 3.284 3.546 9.187 3.546 19.93v24.927z" transform="translate(461.7584 581.4947)"/><path d="m0 0h-11.372v-14.924h12.852v-9.351h-22.528v55.27h21.639v-9.349h-11.963v-12.713h11.372z" transform="translate(490.437 550.5001)"/><path d="m0 0v-22.144h10.121v22.144h9.676v-55.27h-9.676v23.126h-10.121v-23.126h-9.676v55.27z" transform="translate(507.4507 581.4947)"/><path d="m0 0v-12.22c0-10.165-.591-19.676-.96-25.42h.147c1.404 4.759 3.913 11.97 5.387 16.239l7.313 21.401h8.793v-55.27h-8.495v12.465c0 11.068.369 19.269.591 24.847h-.146c-1.112-5.006-3.329-11.645-4.949-16.239l-7.313-21.073h-8.939v55.27z" transform="translate(543.4424 581.4947)"/><path d="m0 0h-11.373v-14.924h12.853v-9.351h-22.529v55.27h21.64v-9.349h-11.964v-12.713h11.373z" transform="translate(592.8325 550.5001)"/><path d="m0 0v-12.217c0-10.165-.591-19.676-.96-25.42h.147c1.404 4.759 3.913 11.97 5.387 16.239l7.313 21.398h8.793v-55.267h-8.495v12.465c0 11.068.369 19.269.591 24.848h-.146c-1.112-5.007-3.329-11.646-4.95-16.239l-7.312-21.074h-8.939v55.267z" transform="translate(244.6618 494.9093)"/><path d="m0 0v-55.267h-9.676v45.922h-9.898v-45.922h-9.676v55.267z" transform="translate(317.9541 494.9093)"/><path d="m0 0c.444-.165.959-.165 1.55-.165 4.873 0 7.09 3.85 7.09 9.021 0 4.835-1.773 8.609-6.277 8.609-.883 0-1.772-.165-2.363-.413zm-9.677 25.089c2.733.654 6.43 1.067 10.121 1.067 5.763 0 10.267-.902 13.514-4.263 2.954-2.871 4.282-7.465 4.282-12.134 0-5.991-1.62-10.172-4.206-13.285-3.1-3.609-8.125-5.248-12.115-5.248h-1.919v-20.584h-9.677z" transform="translate(335.2541 469.0009)"/><path d="m0 0c0-12.548 2.141-18.945 6.055-18.945 4.059 0 5.61 8.202 5.61 19.434 0 9.676-1.328 18.45-5.686 18.45-3.838 0-5.979-7.052-5.979-18.939m21.786.985c0-20.832-6.646-29.276-16.099-29.276-11.303 0-15.731 13.285-15.731 28.45 0 15.089 5.387 28.126 16.391 28.126 12.04 0 15.439-14.676 15.439-27.3" transform="translate(366.9754 467.2789)"/><path d="m0 0v-12.217c0-10.165-.591-19.676-.959-25.42h.146c1.404 4.759 3.914 11.97 5.387 16.239l7.313 21.398h8.793v-55.267h-8.494v12.465c0 11.068.368 19.269.591 24.848h-.147c-1.112-5.007-3.329-11.646-4.949-16.239l-7.312-21.074h-8.94v55.267z" transform="translate(402.8967 494.9093)"/><path d="m0 0c2.141 1.639 6.277 3.196 11.004 3.196 9.454 0 13.882-6.392 13.882-13.609 0-5.661-3.392-11.15-8.418-12.548v-.165c5.839-1.309 9.899-6.226 9.899-13.856 0-10.579-8.126-16.398-17.059-16.398-4.142 0-7.758 1.067-10.051 2.458l1.404 8.775c2.141-1.392 4.949-2.212 7.681-2.212 5.172 0 7.903 3.279 7.903 7.707 0 6.15-4.574 8.608-9.822 8.608h-1.404v8.12h.96c4.434 0 8.862 2.376 8.862 7.459 0 3.856-2.14 6.48-6.277 6.48-2.287 0-5.018-1.067-6.943-2.3z" transform="translate(428.9385 492.3682)"/><path d="m0 0c.591-.165 1.258-.165 2.141-.165 3.913 0 7.166 2.624 7.166 8.285 0 5.495-3.398 8.36-7.236 8.443h-2.071zm0 24.517h2.071c3.469 0 6.131 3.279 6.131 7.79 0 4.021-1.703 7.134-5.693 7.134-1.029 0-1.918-.083-2.509-.33zm-9.676 21.893c2.954.738 6.798 1.068 11.004 1.068 4.657 0 9.161-.654 12.63-3.939 2.662-2.459 3.767-6.15 3.767-10 0-4.924-2.287-9.676-7.236-12.052v-.33c5.762-1.805 8.863-7.135 8.863-13.203 0-4.593-1.328-8.119-3.691-10.826-2.955-3.608-7.98-5.571-16.328-5.571-3.691 0-6.792.241-9.009.572z" transform="translate(470.1334 447.6791)"/><path d="m0 0c0-12.548 2.141-18.945 6.055-18.945 4.06 0 5.61 8.202 5.61 19.434 0 9.676-1.328 18.45-5.686 18.45-3.838 0-5.979-7.052-5.979-18.939m21.785.985c0-20.832-6.645-29.276-16.099-29.276-11.302 0-15.73 13.285-15.73 28.45 0 15.089 5.387 28.126 16.391 28.126 12.04 0 15.438-14.676 15.438-27.3" transform="translate(503.3289 467.2789)"/><path d="m0 0c0-6.315-.368-12.706-1.181-18.615-.591-3.933-1.48-8.196-2.51-11.557h10.851v36.57h-7.16zm16.767 15.743v-46.08l3.913-.165-.445-21.074h-7.312l-.369 12.052h-21.639l-.368-12.052h-7.389l-.369 21.074 3.545.165c1.55 4.181 2.586 8.361 3.399 12.872.96 6.315 1.404 12.789 1.404 19.269v13.939z" transform="translate(544.3644 479.1661)"/><path d="m0 0c-1.405-.737-4.136-1.309-7.535-1.309-12.7 0-18.755 11.645-18.755 27.306 0 20.826 10.413 28.946 20.089 28.946 3.393 0 5.756-.744 6.722-1.481l-1.627-9.015c-1.112.572-2.363 1.061-4.504 1.061-5.471 0-10.413-5.248-10.413-18.939 0-13.202 4.504-18.367 10.413-18.367 1.62 0 3.469.406 4.65.819z" transform="translate(593.3675 440.4623)"/><path d="m0 0h-8.792v9.924h27.331v-9.924h-8.862v-45.343h-9.677z" transform="translate(605.3237 484.9855)"/><path d="m0 0c.591-.165 1.258-.165 2.141-.165 3.914 0 7.167 2.624 7.167 8.285 0 5.495-3.399 8.36-7.237 8.443h-2.071zm0 24.517h2.071c3.469 0 6.125 3.279 6.125 7.79 0 4.021-1.696 7.134-5.686 7.134-1.029 0-1.919-.083-2.51-.33zm-9.676 21.893c2.954.738 6.798 1.068 11.004 1.068 4.657 0 9.161-.654 12.631-3.939 2.661-2.459 3.767-6.15 3.767-10 0-4.924-2.287-9.676-7.237-12.052v-.33c5.763-1.805 8.864-7.135 8.864-13.203 0-4.593-1.328-8.119-3.692-10.826-2.954-3.608-7.98-5.571-16.321-5.571-3.698 0-6.798.241-9.016.572z" transform="translate(638.043 447.6791)"/><path d="m0 0c0-12.548 2.141-18.945 6.054-18.945 4.06 0 5.61 8.202 5.61 19.434 0 9.676-1.328 18.45-5.686 18.45-3.837 0-5.978-7.052-5.978-18.939m21.785.985c0-20.832-6.646-29.276-16.099-29.276-11.302 0-15.731 13.285-15.731 28.45 0 15.089 5.388 28.126 16.391 28.126 12.04 0 15.439-14.676 15.439-27.3" transform="translate(671.2456 467.2789)"/></g></g></svg>