<svg height="983.03998" viewBox="0 0 983.03998 983.03998" width="983.03998" xmlns="http://www.w3.org/2000/svg" xmlns:xlink="http://www.w3.org/1999/xlink"><clipPath id="a"><path d="m0 737.28h737.28v-737.28h-737.28z"/></clipPath><g transform="matrix(1.3333333 0 0 -1.3333333 0 983.04)"><path d="m0 0h737.28v737.28h-737.28z" fill="#fdb713"/><path d="m729.577 7.692h-721.875v721.896h721.875z" fill="#fdb713"/><g clip-path="url(#a)" fill="#fff"><path d="m0 0c-30.389 0-55.026 24.633-55.026 55.026 0 24.704 16.261 45.595 38.672 52.561v-20.489c-11.666-5.958-19.669-18.066-19.669-32.072 0-19.897 16.121-36.022 36.023-36.022s36.023 16.125 36.023 36.022c0 14.045-8.043 26.175-19.762 32.12v20.467c22.456-6.935 38.774-27.848 38.774-52.587 0-30.393-24.637-55.026-55.035-55.026m-7.851 118.219c0 3.521 3.536 7.399 7.878 7.399 4.332 0 7.836-3.878 7.836-7.399v-36.326c0-3.504-3.504-7.341-7.836-7.341-4.342 0-7.878 3.837-7.878 7.341zm7.833 41.796c-58.426 0-105.79-47.368-105.79-105.799 0-58.456 47.364-105.812 105.79-105.812s105.791 47.356 105.791 105.812c0 58.431-47.365 105.799-105.791 105.799" transform="translate(368.9201 219.8176)"/><path d="m0 0c0 4.797-4.25 8.682-8.13 8.682h-46.331c-3.908 0-8.196-3.885-8.196-8.682 0-4.81 4.288-8.718 8.196-8.718h46.331c3.88 0 8.13 3.908 8.13 8.718" transform="translate(247.4556 274.9582)"/><path d="m0 0c0 4.797-4.25 8.682-8.131 8.682h-46.33c-3.904 0-8.192-3.885-8.192-8.682 0-4.81 4.288-8.718 8.192-8.718h46.33c3.881 0 8.131 3.908 8.131 8.718" transform="translate(553.0556 274.9582)"/><path d="m0 0c4.788 0 8.678 4.25 8.678 8.131v46.326c0 3.903-3.89 8.196-8.678 8.196-4.806 0-8.723-4.293-8.723-8.196v-46.326c0-3.881 3.917-8.131 8.723-8.131" transform="translate(368.9468 90.8181)"/><path d="m0 0c2.379 4.157.622 9.646-2.742 11.574l-40.211 23.012c-3.391 1.94-9.047.696-11.425-3.47-2.388-4.166-.609-9.695 2.782-11.631l40.211-23.012c3.368-1.927 8.993-.648 11.385 3.527" transform="translate(528.7424 183.4974)"/><path d="m0 0c4.158-2.378 9.642-.622 11.57 2.747l23.012 40.206c1.94 3.391.697 9.05-3.466 11.43-4.165 2.387-9.698.604-11.635-2.782l-23.012-40.211c-1.927-3.365-.644-9.002 3.531-11.39" transform="translate(277.4853 115.1268)"/><path d="m0 0c4.158 2.391 5.41 8.012 3.479 11.372l-23.096 40.167c-1.954 3.386-7.456 5.165-11.618 2.773-4.17-2.392-5.418-8.06-3.46-11.451l23.091-40.162c1.931-3.361 7.434-5.095 11.604-2.699" transform="translate(460.7269 115.333)"/><path d="m0 0c2.387-4.153 8.007-5.406 11.372-3.47l40.158 23.095c3.391 1.945 5.178 7.452 2.777 11.609-2.387 4.171-8.06 5.419-11.441 3.474l-40.164-23.095c-3.364-1.932-5.099-7.443-2.702-11.613" transform="translate(209.3216 183.1383)"/><path d="m0 0c4.788 0 8.678 4.249 8.678 8.126v46.335c0 3.908-3.89 8.192-8.678 8.192-4.806 0-8.723-4.284-8.723-8.192v-46.335c0-3.877 3.917-8.126 8.723-8.126" transform="translate(368.9468 396.4136)"/><path d="m0 0c2.388 4.166.631 9.647-2.742 11.574l-40.211 23.012c-3.391 1.945-9.041.701-11.425-3.461-2.388-4.174-.604-9.694 2.786-11.639l40.211-23.012c3.365-1.928 8.994-.649 11.381 3.526" transform="translate(263.5065 335.2936)"/><path d="m0 0c4.162-2.378 9.637-.622 11.57 2.742l23.012 40.211c1.944 3.396.701 9.047-3.461 11.43-4.17 2.392-9.699.604-11.64-2.786l-23.012-40.207c-1.927-3.373-.648-9.002 3.531-11.39" transform="translate(429.2822 380.3581)"/><path d="m0 0c4.157 2.392 5.41 8.012 3.474 11.377l-23.095 40.167c-1.955 3.386-7.452 5.16-11.614 2.768-4.175-2.392-5.419-8.06-3.465-11.447l23.091-40.158c1.94-3.364 7.434-5.103 11.609-2.707" transform="translate(308.3875 380.2534)"/><path d="m0 0c2.388-4.153 8.008-5.406 11.373-3.474l40.157 23.095c3.391 1.949 5.179 7.456 2.787 11.614-2.401 4.165-8.06 5.418-11.451 3.469l-40.163-23.095c-3.364-1.932-5.103-7.443-2.703-11.609" transform="translate(474.2413 335.4823)"/><path d="m0 0h37.788l-32.641-125.583h24.27l31.988 123.007v22.548h-61.405z" transform="translate(67.4922 649.7469)"/><path d="m0 0v-22.142h10.118v22.142h9.676v-55.267h-9.676v23.123h-10.118v-23.123h-9.673v55.267z" transform="translate(179.4935 668.0801)"/><path d="m0 0h-11.376v-14.92h12.853v-9.349h-22.526v55.267h21.64v-9.349h-11.967v-12.71h11.376z" transform="translate(227.9657 637.0822)"/><path d="m0 0c0-6.315-.371-12.71-1.181-18.615-.591-3.936-1.478-8.198-2.513-11.559h10.858v36.569h-7.164zm16.763 15.744v-46.083l3.917-.166-.445-21.07h-7.309l-.372 12.052h-21.639l-.368-12.052h-7.386l-.369 21.07 3.545.166c1.551 4.18 2.583 8.363 3.396 12.874.96 6.312 1.404 12.789 1.404 19.27v13.939z" transform="translate(250.1222 652.3362)"/><path d="m0 0c0-12.544 2.144-18.942 6.058-18.942 4.06 0 5.613 8.198 5.613 19.434 0 9.676-1.331 18.45-5.69 18.45-3.837 0-5.981-7.052-5.981-18.942m21.788.985c0-20.829-6.645-29.273-16.099-29.273-11.302 0-15.733 13.282-15.733 28.45 0 15.089 5.39 28.126 16.397 28.126 12.037 0 15.435-14.676 15.435-27.303" transform="translate(283.064 640.4464)"/><path d="m0 0c.445-.165.96-.165 1.55-.165 4.876 0 7.09 3.853 7.09 9.021 0 4.838-1.772 8.609-6.276 8.609-.887 0-1.773-.166-2.364-.41zm-9.676 25.092c2.735.654 6.426 1.064 10.121 1.064 5.759 0 10.267-.902 13.513-4.263 2.954-2.872 4.285-7.462 4.285-12.134 0-5.989-1.623-10.169-4.209-13.285-3.103-3.609-8.126-5.248-12.112-5.248h-1.922v-20.581h-9.676z" transform="translate(320.0939 642.1684)"/><path d="m0 0c0-12.544 2.144-18.942 6.057-18.942 4.061 0 5.614 8.198 5.614 19.434 0 9.676-1.331 18.45-5.69 18.45-3.837 0-5.981-7.052-5.981-18.942m21.788.985c0-20.829-6.645-29.273-16.099-29.273-11.302 0-15.733 13.282-15.733 28.45 0 15.089 5.39 28.126 16.397 28.126 12.037 0 15.435-14.676 15.435-27.303" transform="translate(351.8126 640.4464)"/><path d="m0 0v-9.349h-13.294v-45.918h-9.676v55.267z" transform="translate(402.1364 668.0801)"/><path d="m0 0c0-12.544 2.144-18.942 6.058-18.942 4.06 0 5.613 8.198 5.613 19.434 0 9.676-1.331 18.45-5.69 18.45-3.837 0-5.981-7.052-5.981-18.942m21.788.985c0-20.829-6.645-29.273-16.099-29.273-11.302 0-15.733 13.282-15.733 28.45 0 15.089 5.39 28.126 16.397 28.126 12.037 0 15.435-14.676 15.435-27.303" transform="translate(414.0744 640.4464)"/><path d="m0 0c-1.405-.737-4.136-1.312-7.532-1.312-12.703 0-18.761 11.642-18.761 27.306 0 20.826 10.416 28.943 20.089 28.943 3.399 0 5.762-.737 6.722-1.474l-1.624-9.022c-1.109.575-2.363 1.067-4.507 1.067-5.464 0-10.413-5.247-10.413-18.942 0-13.199 4.504-18.367 10.413-18.367 1.626 0 3.472.41 4.653.822z" transform="translate(465.9966 613.6324)"/><path d="m0 0h-8.79v9.924h27.329v-9.924h-8.863v-45.343h-9.676z" transform="translate(477.9469 658.1562)"/><path d="m0 0c0-12.544 2.144-18.942 6.058-18.942 4.06 0 5.613 8.198 5.613 19.434 0 9.676-1.331 18.45-5.689 18.45-3.838 0-5.982-7.052-5.982-18.942m21.788.985c0-20.829-6.645-29.273-16.099-29.273-11.302 0-15.733 13.282-15.733 28.45 0 15.089 5.39 28.126 16.398 28.126 12.036 0 15.434-14.676 15.434-27.303" transform="translate(508.5661 640.4464)"/><path d="m0 0c-.515.083-1.105.245-1.919.245-4.504 0-6.426-4.019-6.426-8.199 0-5.248 2.805-8.609 7.017-8.609.591 0 .813 0 1.328.079zm-20.013-46.902c.664 1.638 1.328 3.77 1.919 5.902 1.327 5.578 1.327 13.284 5.022 17.629.886 1.068 2.214 1.97 3.545 2.38v.162c-5.244 1.804-8.567 6.315-8.567 13.285 0 5.657 1.918 9.593 4.58 12.052 3.174 2.871 7.605 4.101 12.627 4.101 3.695 0 7.535-.327 10.563-1.064v-54.447h-9.676v22.058h-1.032c-1.7 0-3.028-.74-3.99-2.053-2.141-3.033-2.51-11.067-3.323-15.168-.369-1.639-.74-3.281-1.405-4.837z" transform="translate(552.3308 659.7157)"/><path d="m0 0v-45.918h8.049v45.918h9.455v-45.918h8.049v45.918h9.527v-46.083l3.917-.166-.445-21.07h-7.31l-.445 12.052h-40.323v55.267z" transform="translate(579.1253 668.0801)"/><path d="m0 0-1.626 11.563c-.518 3.361-1.182 8.853-1.627 12.545h-.219c-.518-3.692-1.254-9.432-1.772-12.627l-1.846-11.481zm-8.053-8.364-2.214-12.627h-9.38l10.784 55.267h11.595l9.676-55.267h-9.38l-2.145 12.627z" transform="translate(640.5517 633.804)"/><path d="m0 0c-.518.083-1.109.245-1.919.245-4.507 0-6.426-4.019-6.426-8.199 0-5.248 2.808-8.609 7.017-8.609.591 0 .81 0 1.328.079zm-20.016-46.902c.667 1.638 1.331 3.77 1.922 5.902 1.331 5.578 1.331 13.284 5.022 17.629.887 1.068 2.218 1.97 3.546 2.38v.162c-5.245 1.804-8.568 6.315-8.568 13.285 0 5.657 1.922 9.593 4.578 12.052 3.177 2.871 7.607 4.101 12.63 4.101 3.694 0 7.535-.327 10.562-1.064v-54.447h-9.676v22.058h-1.032c-1.7 0-3.031-.74-3.99-2.053-2.141-3.033-2.51-11.067-3.323-15.168-.368-1.639-.737-3.281-1.404-4.837z" transform="translate(675.7646 659.7157)"/><path d="m0 0v-12.22c0-10.165-.591-19.676-.96-25.42h.15c1.401 4.759 3.913 11.97 5.391 16.239l7.312 21.401h8.787v-55.27h-8.492v12.465c0 11.068.369 19.269.591 24.847h-.149c-1.105-5.006-3.323-11.645-4.949-16.239l-7.31-21.073h-8.935v55.27z" transform="translate(178.3849 581.4947)"/><path d="m0 0v-18.37c0-4.511 1.55-7.707 5.464-7.707 1.403 0 3.027.489 3.989 1.15v24.927h9.527v-55.27h-9.527v22.058h-.222c-2.29-1.15-4.505-1.886-7.09-1.886-8.567 0-11.671 6.397-11.671 15.495v19.603z" transform="translate(228.5883 581.4947)"/><path d="m0 0v-12.22c0-10.165-.591-19.676-.962-25.42h.149c1.404 4.759 3.914 11.97 5.391 16.239l7.312 21.401h8.79v-55.27h-8.494v12.465c0 11.068.368 19.269.591 24.847h-.15c-1.109-5.006-3.322-11.645-4.946-16.239l-7.313-21.073h-8.939v55.27z" transform="translate(263.766 581.4947)"/><path d="m0 0c-1.404-.737-4.136-1.309-7.532-1.309-12.703 0-18.761 11.645-18.761 27.306 0 20.826 10.416 28.946 20.089 28.946 3.399 0 5.762-.741 6.722-1.478l-1.623-9.018c-1.109.572-2.364 1.061-4.508 1.061-5.464 0-10.413-5.248-10.413-18.939 0-13.202 4.504-18.367 10.413-18.367 1.626 0 3.472.406 4.653.82z" transform="translate(316.1105 527.0444)"/><path d="m0 0h-8.79v9.927h27.329v-9.927h-8.863v-45.343h-9.676z" transform="translate(328.0608 571.5676)"/><path d="m0 0-1.623 11.563c-.518 3.361-1.182 8.856-1.623 12.548h-.223c-.518-3.692-1.258-9.435-1.772-12.63l-1.849-11.481zm-8.05-8.36-2.213-12.631h-9.381l10.781 55.27h11.599l9.672-55.27h-9.377l-2.141 12.631z" transform="translate(364.6491 547.2154)"/><path d="m0 0c-.515.083-1.105.242-1.919.242-4.504 0-6.426-4.015-6.426-8.196 0-5.248 2.805-8.609 7.017-8.609.591 0 .813 0 1.328.077zm-20.012-46.906c.663 1.639 1.328 3.774 1.918 5.909 1.328 5.571 1.328 13.278 5.022 17.624.887 1.067 2.215 1.969 3.546 2.382v.159c-5.245 1.804-8.568 6.315-8.568 13.285 0 5.66 1.919 9.596 4.581 12.055 3.173 2.871 7.604 4.101 12.627 4.101 3.694 0 7.535-.327 10.562-1.068v-54.447h-9.676v22.059h-1.032c-1.7 0-3.028-.737-3.99-2.052-2.141-3.031-2.51-11.068-3.323-15.166-.368-1.638-.74-3.284-1.404-4.841z" transform="translate(399.8652 573.1303)"/><path d="m0 0h13.589c-.073 5.737-2.585 13.526-9.085 13.526-2.068 0-4.06-.489-5.686-1.391l-2.217 8.611c2.144 1.147 5.171 2.377 9.234 2.377 14.327 0 17.653-15.906 17.653-28.536 0-16.893-7.389-28.043-18.689-28.043-3.913 0-7.09 1.232-8.789 2.134l1.772 8.933c1.554-.819 3.327-1.391 5.617-1.391 7.458 0 9.6 7.954 10.045 14.269h-13.444z" transform="translate(430.2723 559.0265)"/><path d="m0 0v-22.144h10.118v22.144h9.676v-55.27h-9.676v23.126h-10.118v-23.126h-9.673v55.27z" transform="translate(468.8519 581.4947)"/><path d="m0 0h-11.375v-14.924h12.852v-9.351h-22.525v55.27h21.639v-9.349h-11.966v-12.713h11.375z" transform="translate(517.3241 550.5001)"/><path d="m0 0c.445-.165.96-.165 1.55-.165 4.876 0 7.091 3.85 7.091 9.021 0 4.835-1.773 8.609-6.277 8.609-.886 0-1.773-.165-2.364-.413zm-9.676 25.089c2.736.658 6.426 1.067 10.121 1.067 5.76 0 10.267-.902 13.514-4.263 2.954-2.872 4.284-7.465 4.284-12.134 0-5.991-1.623-10.172-4.208-13.285-3.104-3.609-8.126-5.248-12.112-5.248h-1.923v-20.584h-9.676z" transform="translate(534.2299 555.583)"/><path d="m0 0v-9.349h-13.294v-45.921h-9.676v55.27z" transform="translate(580.3646 581.4947)"/><path d="m0 0v-12.22c0-10.165-.591-19.676-.963-25.42h.15c1.404 4.759 3.913 11.97 5.39 16.239l7.313 21.401h8.79v-55.27h-8.495v12.465c0 11.068.369 19.269.592 24.847h-.15c-1.109-5.006-3.322-11.645-4.946-16.239l-7.313-21.073h-8.939v55.27z" transform="translate(593.449 581.4947)"/><path d="m0 0c-.515.083-1.105.242-1.919.242-4.504 0-6.426-4.015-6.426-8.196 0-5.248 2.805-8.609 7.017-8.609.591 0 .813 0 1.328.077zm-20.012-46.906c.663 1.639 1.327 3.774 1.918 5.909 1.328 5.571 1.328 13.278 5.022 17.624.887 1.067 2.215 1.969 3.546 2.382v.159c-5.245 1.804-8.568 6.315-8.568 13.285 0 5.66 1.919 9.596 4.581 12.055 3.173 2.871 7.604 4.101 12.627 4.101 3.695 0 7.535-.327 10.562-1.068v-54.447h-9.676v22.059h-1.032c-1.7 0-3.028-.737-3.99-2.052-2.141-3.031-2.51-11.068-3.323-15.166-.368-1.638-.74-3.284-1.404-4.841z" transform="translate(638.5441 573.1303)"/></g></g></svg>