<svg height="983.03998" viewBox="0 0 983.03998 983.03998" width="983.03998" xmlns="http://www.w3.org/2000/svg" xmlns:xlink="http://www.w3.org/1999/xlink"><clipPath id="a"><path d="m0 737.28h737.28v-737.28h-737.28z"/></clipPath><g transform="matrix(1.3333333 0 0 -1.3333333 0 983.04)"><g fill="#ea1c2c"><path d="m0 0h737.28v737.28h-737.28z"/><path d="m0 0h721.875z" transform="translate(10.3545 2.9178)"/><path d="m0 0v721.901h721.875v-721.901" transform="translate(7.7026 7.6896)"/></g><g clip-path="url(#a)"><path d="m0 0c0 11.048 8.958 19.991 19.998 19.991 11.022 0 19.954-8.943 19.954-19.991 0-11.037-8.932-19.987-19.954-19.987-11.04 0-19.998 8.95-19.998 19.987" fill="#fff" transform="translate(563.6397 385.1792)"/><path d="m0 0c13.558-1.226 24.186-12.632 24.186-26.541v-6.641-2.904-45.853c0-4.261-3.47-7.743-7.737-7.743-4.297 0-7.754 3.482-7.754 7.743v47.579c0 1.785-.516 4.201-3.78 4.201-2.256 0-2.725-2.392-2.808-3.914v-142.608c0-6.129-4.964-11.13-11.123-11.13-6.164 0-11.153 5.001-11.153 11.13v82.18c-.031.906-.333 3.263-3.159 3.263h-.013c-2.839 0-3.185-2.357-3.215-3.263v-82.18c0-6.129-4.959-11.13-11.119-11.13-6.172 0-11.135 5.001-11.135 11.13v142.608c-.075 1.522-.561 3.914-2.8 3.914-3.281 0-3.776-2.416-3.776-4.201v-47.579c0-4.261-3.474-7.743-7.754-7.743-4.284 0-7.736 3.482-7.736 7.743v45.853 2.904 6.641c0 13.909 10.636 25.315 24.216 26.541.443.057.929.122 1.463.122h21.869 21.808c.573 0 1.043-.065 1.52-.122" fill="#fff" transform="translate(606.9653 357.4863)"/><path d="m0 0c0 10.453-8.45 18.945-18.907 18.945-10.462 0-18.934-8.492-18.934-18.945 0-10.457 8.472-18.926 18.934-18.926 10.457 0 18.907 8.469 18.907 18.926" fill="#fff" transform="translate(444.799 374.6828)"/><path d="m0 0-15.731-51.211s-2.804-9.388 5.161-11.731c7.924-2.348 10.329 6.818 10.329 6.818l12.686 42.74s.688 3.288 3.159 2.577c2.475-.708 1.546-4.225 1.546-4.225l-22.078-80.098h20.532v-57.37c0-5.428 4.421-9.846 9.87-9.846 5.441 0 9.844 4.418 9.844 9.846v57.37h2.817 2.786v-57.37c0-5.428 4.393-9.846 9.852-9.846 5.463 0 9.874 4.418 9.874 9.846v57.37h20.524l-22.061 80.098s-.929 3.517 1.537 4.225c2.475.711 3.163-2.577 3.163-2.577l12.682-42.74s2.414-9.166 10.326-6.818c7.981 2.343 5.165 11.731 5.165 11.731l-15.731 51.211s-5.621 14.804-18.071 14.804h-20.046-20.056c-12.445 0-18.079-14.804-18.079-14.804" fill="#fff" transform="translate(387.7574 331.8153)"/><path d="m0 0c0 10.453-8.463 18.945-18.916 18.945-10.461 0-18.925-8.492-18.925-18.945 0-10.457 8.464-18.926 18.925-18.926 10.453 0 18.916 8.469 18.916 18.926" fill="#fff" transform="translate(331.4562 374.6828)"/><path d="m0 0-15.722-51.211s-2.813-9.388 5.155-11.731c7.921-2.348 10.326 6.818 10.326 6.818l12.686 42.74s.689 3.288 3.159 2.577c2.479-.708 1.542-4.225 1.542-4.225l-22.07-80.098h20.528v-57.37c0-5.428 4.433-9.846 9.87-9.846 5.45 0 9.852 4.418 9.852 9.846v57.37h2.825 2.779v-57.37c0-5.428 4.384-9.846 9.856-9.846 5.463 0 9.861 4.418 9.861 9.846v57.37h20.532l-22.057 80.098s-.937 3.517 1.525 4.225c2.471.711 3.167-2.577 3.167-2.577l12.673-42.74s2.414-9.166 10.331-6.818c7.977 2.343 5.16 11.731 5.16 11.731l-15.732 51.211s-5.607 14.804-18.061 14.804h-20.034-20.068c-12.441 0-18.083-14.804-18.083-14.804" fill="#fff" transform="translate(274.4062 331.8153)"/><path d="m0 0c8.713 0 15.745 7.051 15.745 15.767 0 8.708-7.032 15.737-15.745 15.737s-15.753-7.029-15.753-15.737c0-8.716 7.04-15.767 15.753-15.767" fill="#fff" transform="translate(508.3547 268.7677)"/><path d="m0 0c-.771-1.842-1.402-5.748 2.296-7.452 4.337-1.99 6.75 2.199 6.75 2.199l8.564 27.308s1.486 1.829 1.486-.062v-64.285h.039c0-4.474 3.601-8.082 8.082-8.082 4.469 0 8.079 3.608 8.079 8.082v25.369s-.469 3.586 2.422 3.586 2.445-3.586 2.445-3.586v-25.369c0-4.474 3.627-8.082 8.095-8.082 4.46 0 8.1 3.608 8.1 8.082v64.285c0 1.891.999.542.999.542l6.711-18.7s2.914-8.356 3.811-8.724c3.028-1.273 6.528.173 7.807 3.228.836 1.994.517 4.134-.64 5.748l.057.059c-.192.605-10.031 24.732-11.188 28.118-3.553 10.372-10.019 10.281-16.244 10.453-6.23.148-9.953 0-9.953 0s-3.977.162-12.2-.081c-8.206-.259-10.799-4.465-19.853-27.761-1.293-3.356-5.665-14.211-5.722-14.862z" fill="#fff" transform="translate(470.5883 219.8329)"/><path d="m0 0c0 11.048-8.967 19.991-20.003 19.991-11.026 0-19.958-8.943-19.958-19.991 0-11.037 8.932-19.987 19.958-19.987 11.036 0 20.003 8.95 20.003 19.987" fill="#fff" transform="translate(162.4478 385.1792)"/><path d="m0 0c-13.554-1.226-24.195-12.632-24.195-26.541v-6.641-2.904-45.853c0-4.261 3.474-7.743 7.754-7.743 4.284 0 7.749 3.482 7.749 7.743v47.579c0 1.785.517 4.201 3.781 4.201 2.251 0 2.72-2.392 2.817-3.914v-142.608c0-6.129 4.955-11.13 11.118-11.13 6.155 0 11.131 5.001 11.131 11.13v82.18c.049.906.346 3.263 3.176 3.263h.009c2.839 0 3.185-2.357 3.211-3.263v-82.18c0-6.129 4.969-11.13 11.123-11.13 6.168 0 11.131 5.001 11.131 11.13v142.608c.066 1.522.574 3.914 2.808 3.914 3.282 0 3.772-2.416 3.772-4.201v-47.579c0-4.261 3.474-7.743 7.754-7.743s7.741 3.482 7.741 7.743v45.853 2.904 6.641c0 13.909-10.632 25.315-24.212 26.541-.451.057-.929.122-1.467.122h-21.87-21.807c-.573 0-1.051-.065-1.524-.122" fill="#fff" transform="translate(119.1138 357.4863)"/><path d="m0 0-17.746-94.066" fill="none" stroke="#fff" stroke-linecap="round" stroke-miterlimit="10" stroke-width="8.501" transform="translate(101.6869 267.4951)"/><g fill="#fff"><path d="m0 0c-1.034 1.615-2.812 2.692-4.862 2.692-3.163 0-5.739-2.576-5.739-5.726 0-.915.561-2.519.561-2.519l15.88-28.737s.972-1.98.972-3.789v-61.709h.031c0-4.307 3.474-7.763 7.767-7.763 4.284 0 7.74 3.456 7.74 7.763v24.352s-.437 3.446 2.344 3.446c2.773 0 2.34-3.446 2.34-3.446v-24.352c0-4.307 3.482-7.763 7.771-7.763 4.285 0 7.776 3.456 7.776 7.763v61.709c0 1.809.959 3.789.959 3.789l14.68 26.53s1.796 3.811 1.796 4.726c0 3.15-2.567 5.726-5.743 5.726-2.077 0-3.851-1.077-4.858-2.692l-.066.033c-.46-.397-7.811-13.488-10.237-15.913-2.568-2.587-4.863-2.3-4.863-2.3h-9.555-9.532s-2.313-.287-4.867 2.3c-2.458 2.425-9.778 15.516-10.247 15.913z" transform="translate(199.4823 277.0208)"/><path d="m0 0c8.713 0 15.744 7.051 15.744 15.767 0 8.708-7.031 15.737-15.744 15.737-8.709 0-15.745-7.029-15.745-15.737 0-8.716 7.036-15.767 15.745-15.767" transform="translate(224.1768 268.7677)"/><path d="m0 0 17.804-12.984 8.458-31.151h-26.262-26.284l8.481 31.151z" transform="translate(224.2028 246.6579)"/><path d="m0 0h.215v-111.42h24.466v145.555h-19.538l-22.534-26.407v-25.54h.215z" transform="translate(108.49 634.6485)"/><path d="m0 0v-55.267h-9.676v45.918h-7.386v-14.596c0-12.71-.74-23.86-7.017-29.272-1.846-1.64-4.209-2.704-6.646-2.704l-2.068 9.101c1.182.327 2.437.981 3.323 1.966 2.881 3.282 3.545 9.184 3.545 19.927v24.927z" transform="translate(236.3464 667.0096)"/><path d="m0 0v-12.217c0-10.169-.591-19.679-.959-25.419h.149c1.401 4.755 3.914 11.969 5.391 16.235l7.312 21.401h8.787v-55.267h-8.492v12.465c0 11.068.369 19.267.592 24.845h-.15c-1.105-5.004-3.322-11.646-4.949-16.236l-7.309-21.074h-8.936v55.267z" transform="translate(252.5404 667.0096)"/><path d="m0 0v-24.024h.74l8.123 24.024h10.635l-11.445-25.584c5.095-2.132 6.794-7.297 8.198-14.022 1.106-5.33 1.92-10.578 3.396-15.661h-9.676c-1.181 3.936-1.918 8.447-2.731 12.792-1.183 6.478-2.514 10.658-6.5 10.658h-.74v-23.45h-9.453v55.267z" transform="translate(290.3361 667.0096)"/><path d="m0 0c.591-.165 1.258-.165 2.141-.165 3.916 0 7.166 2.623 7.166 8.281 0 5.493-3.398 8.364-7.239 8.447h-2.068zm0 24.517h2.068c3.472 0 6.13 3.278 6.13 7.789 0 4.019-1.699 7.132-5.685 7.132-1.036 0-1.922-.08-2.513-.328zm-9.676 21.894c2.954.736 6.798 1.063 11.007 1.063 4.654 0 9.158-.654 12.627-3.935 2.662-2.459 3.767-6.151 3.767-10.003 0-4.921-2.287-9.676-7.236-12.056v-.327c5.759-1.804 8.863-7.132 8.863-13.202 0-4.59-1.331-8.116-3.695-10.823-2.954-3.608-7.976-5.575-16.321-5.575-3.694 0-6.795.245-9.012.575z" transform="translate(323.8686 619.7799)"/><path d="m0 0v-12.217c0-10.169-.591-19.679-.959-25.419h.149c1.401 4.755 3.914 11.969 5.391 16.235l7.313 21.401h8.786v-55.267h-8.491v12.465c0 11.068.368 19.267.591 24.845h-.149c-1.106-5.004-3.323-11.646-4.95-16.236l-7.309-21.074h-8.936v55.267z" transform="translate(357.3815 667.0096)"/><path d="m0 0c0-6.315-.369-12.71-1.182-18.615-.591-3.936-1.477-8.199-2.513-11.56h10.858v36.569h-7.163zm16.766 15.743v-46.083l3.914-.165-.445-21.071h-7.313l-.368 12.052h-21.639l-.368-12.052h-7.386l-.372 21.071 3.545.165c1.554 4.18 2.586 8.364 3.399 12.875.959 6.312 1.404 12.789 1.404 19.27v13.938z" transform="translate(399.8216 651.2664)"/><path d="m0 0-1.623 11.563c-.518 3.361-1.182 8.853-1.623 12.545h-.223c-.518-3.692-1.258-9.432-1.773-12.628l-1.849-11.48zm-8.049-8.364-2.215-12.627h-9.381l10.782 55.267h11.598l9.673-55.267h-9.378l-2.141 12.627z" transform="translate(442.8967 632.7341)"/><path d="m0 0v-45.918h9.822v45.918h9.676v-46.083l3.913-.165-.441-21.071h-7.313l-.442 12.052h-24.892v55.267z" transform="translate(469.714 667.0096)"/><path d="m0 0v-12.217c0-10.169-.591-19.679-.963-25.419h.15c1.404 4.755 3.913 11.969 5.39 16.235l7.313 21.401h8.79v-55.267h-8.495v12.465c0 11.068.368 19.267.591 24.845h-.149c-1.109-5.004-3.323-11.646-4.946-16.236l-7.313-21.074h-8.939v55.267z" transform="translate(506.5247 667.0096)"/><path d="m0 0c-.518.083-1.109.245-1.919.245-4.507 0-6.426-4.019-6.426-8.2 0-5.247 2.808-8.608 7.017-8.608.591 0 .81 0 1.328.079zm-20.016-46.903c.667 1.639 1.331 3.771 1.922 5.902 1.331 5.579 1.331 13.285 5.022 17.631.887 1.067 2.217 1.969 3.546 2.379v.162c-5.245 1.804-8.568 6.315-8.568 13.284 0 5.658 1.922 9.594 4.578 12.053 3.176 2.871 7.607 4.1 12.63 4.1 3.694 0 7.535-.327 10.562-1.063v-54.448h-9.676v22.058h-1.033c-1.699 0-3.03-.739-3.989-2.052-2.141-3.033-2.51-11.067-3.323-15.168-.368-1.639-.737-3.281-1.404-4.838z" transform="translate(551.6165 658.6458)"/><path d="m0 0v-22.142h10.121v22.142h9.673v-55.267h-9.673v23.122h-10.121v-23.122h-9.676v55.267z" transform="translate(218.1759 580.4248)"/><path d="m0 0v-12.218c0-10.168-.591-19.679-.962-25.419h.149c1.404 4.756 3.914 11.969 5.39 16.236l7.314 21.401h8.789v-55.267h-8.494v12.462c0 11.07.368 19.269.591 24.847h-.15c-1.109-5.003-3.323-11.645-4.946-16.235l-7.312-21.074h-8.94v55.267z" transform="translate(254.1669 580.4248)"/><path d="m0 0v-45.918h8.049v45.918h9.454v-45.918h8.049v45.918h9.527v-46.083l3.918-.166-.445-21.07h-7.31l-.445 12.052h-40.323v55.267z" transform="translate(292.0354 580.4248)"/><path d="m0 0h-11.375v-14.924h12.853v-9.349h-22.529v55.268h21.642v-9.35h-11.966v-12.709h11.375z" transform="translate(356.8448 549.4303)"/><path d="m0 0h-8.79v9.924h27.329v-9.924h-8.863v-45.344h-9.676z" transform="translate(370.2219 570.501)"/><path d="m435.003 525.157h-9.749v55.267h9.749zm-32.055 8.365c.667-.165 1.257-.165 1.772-.165 4.063 0 6.868 4.101 6.868 9.021 0 5.328-2.583 9.101-6.573 9.101-.663 0-1.477-.083-2.067-.247zm-.074 46.903v-20.664c1.182.244 2.513.327 3.619.327 8.862 0 15.139-6.56 15.139-16.646 0-5.574-1.55-9.755-4.136-12.792-3.396-3.936-8.786-5.902-15.803-5.902-3.104 0-6.204.244-8.421.575v55.102z"/></g></g></g></svg>