<svg height="983.03998" viewBox="0 0 983.03998 983.03998" width="983.03998" xmlns="http://www.w3.org/2000/svg" xmlns:xlink="http://www.w3.org/1999/xlink"><clipPath id="a"><path d="m0 737.28h737.28v-737.28h-737.28z"/></clipPath><g transform="matrix(1.3333333 0 0 -1.3333333 0 983.04)"><path d="m0 0h737.28v737.28h-737.28z" fill="#c21f33"/><path d="m729.577 7.69h-721.875v721.901h721.875z" fill="#c21f33"/><g fill="#fff"><path d="m0 0-129.468 74.757v-241.838l129.468-39.063z" transform="translate(327.9084 342.5172)"/><path d="m0 0v-205.732l130.309 39.177v241.799z" transform="translate(342.1456 342.0221)"/><path d="m0 0h-3.803l15.325-53.537 15.297 53.537h-3.802 3.802v215.164h-3.802-3.803-4.03-7.623-3.758-3.803-3.811v-215.164z" transform="translate(547.2601 179.7251)"/><path d="m0 0-13.878 10.965v-248.974l-143.855-46.484h-6.658-1.315-6.649l-143.215 40.009v255.449l-13.887-10.965v-254.223l156.444-43.308h7.307 1.315 7.307l144.336 45.827 12.748 3.75z" transform="translate(500.2634 406.8881)"/><g clip-path="url(#a)"><path d="m0 0c0 8.468-6.86 15.324-15.306 15.324-8.472 0-15.324-6.856-15.324-15.324v-16.511h30.63z" transform="translate(574.0877 423.3945)"/><path d="m0 0 21.895 59.898h.219v-59.898zm21.685-42.712h23.183v23.612h9.882v19.1h-9.882v102.842h-24.05l-42.284-106.916v-15.026h43.151z" transform="translate(99.2074 566.2524)"/><path d="m0 0v-24.024h.737l8.126 24.024h10.635l-11.449-25.584c5.102-2.132 6.798-7.297 8.202-14.022 1.106-5.33 1.92-10.578 3.393-15.661h-9.669c-1.183 3.936-1.926 8.447-2.732 12.792-1.182 6.478-2.517 10.658-6.506 10.658h-.737v-23.45h-9.454v55.267z" transform="translate(226.1374 667.0096)"/><path d="m0 0-1.626 11.563c-.515 3.361-1.183 8.853-1.621 12.545h-.222c-.521-3.692-1.258-9.432-1.773-12.628l-1.849-11.48zm-8.049-8.364-2.218-12.627h-9.378l10.782 55.267h11.595l9.676-55.267h-9.378l-2.141 12.627z" transform="translate(267.7766 632.7341)"/><path d="m0 0v-18.367c0-4.511 1.55-7.71 5.464-7.71 1.404 0 3.031.493 3.989 1.15v24.927h9.524v-55.267h-9.524v22.059h-.221c-2.294-1.15-4.505-1.887-7.091-1.887-8.571 0-11.671 6.394-11.671 15.495v19.6z" transform="translate(291.5629 667.0096)"/><path d="m0 0h-11.372v-14.921h12.853v-9.349h-22.529v55.267h21.639v-9.349h-11.963v-12.709h11.372z" transform="translate(339.2121 636.0124)"/><path d="m0 0c-1.404-.737-4.136-1.312-7.535-1.312-12.7 0-18.755 11.642-18.755 27.306 0 20.826 10.413 28.942 20.089 28.942 3.393 0 5.757-.736 6.722-1.473l-1.626-9.022c-1.112.575-2.364 1.067-4.505 1.067-5.47 0-10.413-5.247-10.413-18.942 0-13.199 4.505-18.367 10.413-18.367 1.621 0 3.469.409 4.651.822z" transform="translate(370.2796 612.5625)"/><path d="m0 0h-8.792v9.924h27.331v-9.924h-8.863v-45.343h-9.676z" transform="translate(382.2364 657.0857)"/><path d="m0 0c.591-.165 1.258-.165 2.141-.165 3.914 0 7.167 2.624 7.167 8.281 0 5.493-3.399 8.364-7.237 8.447h-2.071zm0 24.517h2.071c3.469 0 6.125 3.278 6.125 7.789 0 4.019-1.697 7.132-5.686 7.132-1.029 0-1.919-.08-2.51-.328zm-9.676 21.894c2.954.736 6.798 1.063 11.004 1.063 4.657 0 9.161-.654 12.63-3.935 2.662-2.459 3.768-6.151 3.768-10.003 0-4.921-2.287-9.676-7.237-12.056v-.327c5.763-1.804 8.863-7.132 8.863-13.202 0-4.59-1.328-8.116-3.691-10.823-2.955-3.608-7.98-5.575-16.321-5.575-3.698 0-6.799.245-9.016.575z" transform="translate(414.9557 619.7799)"/><path d="m0 0h-11.372v-14.921h12.853v-9.349h-22.529v55.267h21.639v-9.349h-11.963v-12.709h11.372z" transform="translate(460.9531 636.0124)"/><path d="m0 0v-22.141h10.12v22.141h9.676v-55.267h-9.676v23.123h-10.12v-23.123h-9.676v55.267z" transform="translate(477.9676 667.0096)"/><path d="m0 0v-22.141h10.121v22.141h9.676v-55.267h-9.676v23.123h-10.121v-23.123h-9.676v55.267z" transform="translate(515.0639 667.0096)"/><path d="m0 0c0-12.544 2.141-18.942 6.055-18.942 4.06 0 5.61 8.198 5.61 19.434 0 9.676-1.328 18.45-5.687 18.45-3.837 0-5.978-7.052-5.978-18.942m21.785.984c0-20.828-6.645-29.272-16.099-29.272-11.302 0-15.73 13.281-15.73 28.45 0 15.089 5.387 28.125 16.391 28.125 12.04 0 15.438-14.675 15.438-27.303" transform="translate(550.4706 639.3765)"/><path d="m0 0h-11.373v-14.921h12.853v-9.349h-22.529v55.267h21.64v-9.349h-11.964v-12.709h11.373z" transform="translate(598.87 636.0124)"/><path d="m0 0c0-12.548 2.141-18.942 6.054-18.942 4.06 0 5.61 8.199 5.61 19.435 0 9.676-1.328 18.446-5.686 18.446-3.837 0-5.978-7.049-5.978-18.939m21.785.985c0-20.829-6.646-29.276-16.099-29.276-11.302 0-15.731 13.285-15.731 28.453 0 15.089 5.388 28.126 16.392 28.126 12.039 0 15.438-14.676 15.438-27.303" transform="translate(224.295 552.7911)"/><path d="m0 0c.667-.165 1.328-.165 2.141-.165 2.293 0 4.136.985 5.318 2.623 1.257 1.64 1.848 3.937 1.848 6.398 0 2.541-.667 4.839-1.918 6.395-1.258 1.639-3.031 2.706-5.172 2.706-.813 0-1.55-.082-2.217-.247zm15.731 46.903v-9.184h-15.807v-11.563c1.404.328 2.516.41 3.92.41 4.282 0 8.049-1.477 10.781-4.101 2.954-2.868 4.727-7.214 4.727-12.789 0-5.33-1.48-9.593-4.136-12.548-3.399-4.015-8.717-5.902-15.877-5.902-3.697 0-6.798.244-9.015.575v55.102z" transform="translate(261.3217 533.5218)"/><path d="m0 0c.445-.165.96-.165 1.55-.165 4.873 0 7.091 3.853 7.091 9.022 0 4.838-1.773 8.608-6.278 8.608-.882 0-1.772-.165-2.363-.41zm-9.676 25.089c2.732.658 6.43 1.068 10.121 1.068 5.762 0 10.267-.902 13.513-4.263 2.954-2.872 4.282-7.462 4.282-12.135 0-5.988-1.62-10.168-4.205-13.284-3.101-3.609-8.126-5.249-12.116-5.249h-1.919v-20.581h-9.676z" transform="translate(295.3811 554.5125)"/><path d="m0 0-1.62 11.563c-.521 3.361-1.182 8.853-1.626 12.545h-.223c-.514-3.692-1.258-9.432-1.773-12.627l-1.849-11.481zm-8.05-8.364-2.217-12.627h-9.378l10.782 55.267h11.595l9.676-55.267h-9.378l-2.141 12.627z" transform="translate(332.9673 546.1488)"/><path d="m0 0c2.141 1.643 6.277 3.199 11.004 3.199 9.453 0 13.882-6.395 13.882-13.611 0-5.658-3.393-11.151-8.418-12.545v-.166c5.832-1.311 9.898-6.229 9.898-13.856 0-10.578-8.126-16.401-17.065-16.401-4.13 0-7.751 1.067-10.038 2.462l1.398 8.774c2.148-1.394 4.949-2.214 7.681-2.214 5.172 0 7.903 3.278 7.903 7.707 0 6.149-4.58 8.611-9.822 8.611h-1.404v8.116h.96c4.434 0 8.863 2.38 8.863 7.462 0 3.854-2.141 6.477-6.278 6.477-2.287 0-5.019-1.064-6.938-2.296z" transform="translate(349.0598 577.8798)"/><path d="m0 0c0-12.548 2.141-18.942 6.055-18.942 4.059 0 5.61 8.199 5.61 19.435 0 9.676-1.328 18.446-5.687 18.446-3.837 0-5.978-7.049-5.978-18.939m21.785.985c0-20.829-6.646-29.276-16.099-29.276-11.302 0-15.73 13.285-15.73 28.453 0 15.089 5.387 28.126 16.391 28.126 12.04 0 15.438-14.676 15.438-27.303" transform="translate(388.8567 552.7911)"/><path d="m0 0c.591-.165 1.258-.165 2.141-.165 3.914 0 7.167 2.623 7.167 8.281 0 5.496-3.399 8.364-7.237 8.447h-2.071zm0 24.517h2.071c3.469 0 6.125 3.279 6.125 7.789 0 4.019-1.697 7.132-5.687 7.132-1.029 0-1.918-.08-2.509-.328zm-9.676 21.89c2.954.741 6.798 1.068 11.004 1.068 4.657 0 9.161-.655 12.63-3.936 2.662-2.459 3.767-6.15 3.767-10.003 0-4.921-2.286-9.676-7.236-12.053v-.33c5.763-1.804 8.863-7.131 8.863-13.202 0-4.59-1.328-8.116-3.691-10.823-2.955-3.608-7.98-5.574-16.322-5.574-3.697 0-6.798.244-9.015.574z" transform="translate(425.8834 533.1946)"/><path d="m0 0-1.62 11.563c-.521 3.361-1.181 8.853-1.626 12.545h-.223c-.514-3.692-1.257-9.432-1.772-12.627l-1.849-11.481zm-8.05-8.364-2.217-12.627h-9.377l10.781 55.267h11.595l9.676-55.267h-9.378l-2.141 12.627z" transform="translate(467.1349 546.1488)"/><path d="m0 0v-22.142h10.12v22.142h9.676v-55.267h-9.676v23.122h-10.12v-23.122h-9.676v55.267z" transform="translate(493.9586 580.4248)"/><path d="m0 0v-12.218c0-10.168-.591-19.679-.959-25.419h.146c1.404 4.756 3.914 11.969 5.394 16.236l7.306 21.401h8.793v-55.267h-8.494v12.462c0 11.07.368 19.269.591 24.847h-.147c-1.112-5.003-3.322-11.645-4.949-16.235l-7.312-21.074h-8.94v55.267z" transform="translate(529.9432 580.4248)"/><path d="m0 0h-11.372v-14.924h12.853v-9.349h-22.529v55.268h21.639v-9.35h-11.963v-12.709h11.372z" transform="translate(579.3333 549.4303)"/></g></g></g></svg>