<svg height="983.03998" viewBox="0 0 983.03998 983.03998" width="983.03998" xmlns="http://www.w3.org/2000/svg" xmlns:xlink="http://www.w3.org/1999/xlink"><clipPath id="a"><path d="m0 737.28h737.28v-737.28h-737.28z"/></clipPath><g transform="matrix(1.3333333 0 0 -1.3333333 0 983.04)"><path d="m0 0h737.28v737.28h-737.28z" fill="#48773d"/><path d="m729.566 7.69h-721.853v721.901h721.853z" fill="#48773d"/><g clip-path="url(#a)" fill="#fff"><path d="m0 0c-2.987.817-15.499 18.11-5.607 29.491 1.642 1.87-3.321 7.375-1.963 7.484 5.41.419 8.288-2.937 9.708-7.777.109-2.132.193-4.284.193-6.457 0-7.794-.815-15.397-2.331-22.741m-30.516-56.244c-1.117.313-2.26.675-3.5 1.292-6.081 3.095-5.353-1.851-8.341-.76-3.009 1.115 3.373 8.054-5.612 2.186-8.941-5.853-6.527.904-10.43 10.818-3.943 9.923 4.49 21.245 11.53 23.808 9.676 3.504 15.687 4.216 20.225 5.337 13.383 3.343 16.213 11.285 18.641 6.451.46-.905.902-1.765 1.305-2.576.78-1.443 1.678-4.37 1.722-7.257-5.682-14.892-14.448-28.262-25.54-39.299m-78.573-32.43c-10.886 0-21.382 1.585-31.314 4.485-1.428 1.165-2.242 3.11-1.349 5.445 3.448 8.99 13.712 12.507 21.816 13.287 18.067 1.761 41.81-11.727 45.586-9.55 3.79 2.173 11.425 12.104 22.631 11.688 7.649-.293 7.592-1.577 10.159-2.546-18.736-14.294-42.13-22.809-67.529-22.809m-15.149 72.615c-1.533-2.509-5.721-21.245-8.533-19.063-2.826 2.186 1.139 21.73 1.953 23.215 4.399 8.072 13.919 7.673 6.58-4.152m45.498 22.12c-2.198-1.958-7.832-1.242-10.649.957-2.799 2.177 1.779 5.793 3.452 5.927 3.75.335 9.38-4.9 7.197-6.884m49.17-.193c-1.2.449-2.261 1.586-3.171 4.321-.907 2.737 1.393 4.296 3.639 3.196 2.287-1.16 5.253-4.571 5.253-6.393 0-1.825-4.494-1.606-5.721-1.124m4.736-3.423c3.746.302 9.37-4.887 7.171-6.881-2.191-1.975-7.806-1.25-10.623.954-2.804 2.181 1.769 5.788 3.452 5.927m-119.511-44.425c-2.164-8.517-4.692-11.587-6.847-14.273-2.151-2.718-10.129-6.183-15.188-5.811-5.069.379-5.774 13.902-5.774 20.854 0 2.403-3.399-4.72-5.173 9.754-1.135 9.268-7.084-.966-7.5 5.215-.425 6.166-3.395 4.937-6.523 8.793-3.106 3.85-6.984-.377-11.329-2.325-4.32-1.92-2.541-2.933-8.687-.998-.158.05-.237.097-.39.151-5.638 13.328-8.752 27.982-8.752 43.361 0 3.763.201 7.46.551 11.117.21.373.43.73.689 1.037 5.891 6.972 5.76 8.604 5.76 8.604l6.519 2.258s10.408-1.604 18.249-4.556c6.458-2.423 16.63-7.901 22.544-5.489 4.276 1.763 7.622 4.101 7.219 7.662-.482 4.466-3.999 5.528-8.257 2.516-1.573-1.108-4.92 6.734-7.544 6.335-2.624-.39 3.246-9.213 1.021-9.588-2.235-.38-6.72 9.198-7.487 10.748-.754 1.541-4.219 5.385-7.329 2.452-6.571-6.242-17.242-5.861-19.385-7.467-6.523-4.88-8.244 1.606-8.1 5.557.263.902.53 1.813.819 2.707 2.13 2.348 9.774 3.126 12.398 1.376 2.882-1.925 4.95.495 6.077 1.664 1.142 1.141.739 2.992.021 4.528-.731 1.549 1.441 2.681 2.931 3.08 1.502.398 6.466 3.873 8.446 5.033 2.002 1.15 12.301 2.401 16.918.092 4.613-2.324 8.849-.427 11.119 2.246 2.847 3.377 6.47 5.952 8.078 6.732 1.616.756-3.974 5.973-8.569.285-4.608-5.66-6.952-6.183-9.116-6.183-2.165 0-15.026 3.208-16.613 7.274-1.568 4.057 4.022 7.099 8.771 9.401 4.744 2.263 17.733 2.232 21.054 2.983 6.751 1.481 15.38 4.872 19.726 1.913 4.328-2.908-18.153-8.028-10.764-12.019 2.629-1.444 14.514 6.838 18.588 8.956 9.581 4.941-9.291 6.574-6.843 16.619 2.769 11.354-23.147 6.963-36.066 5.997 17.326 11.1 37.902 17.557 59.994 17.557 52.56 0 96.586-36.41 108.327-85.371.079-2.42-.298-4.166-.544-5.156-1.007-4.015-8.625-7.467-13.045-1.004-1.126 1.63-5.905 6.142-5.743-1.576.153-7.724 7.504-8.512.381-13.147-7.115-4.633-8.42-3.516-11.71-4.683-3.281-1.161-6.466-9.118-5.682-13.37.798-4.254 10.952-15.864 3.417-15.388-1.765.132-15.078 9.222-17.277 15.07-2.318 6.155-4.85 12.179-6.646 16.823-1.818 4.623-6.514 5.806-10.496 3.084-3.96-2.715 1.108-5.422-1.744-11.226-2.839-5.794-4.88-10.967-9.063-6.181-10.873 12.461-26.675 6.314-29.155 20.18-1.335 7.517-7.81 6.796-13.22 11.054-5.441 4.232-8.468 6.536-9.384 3.47-.806-2.69 17.028-16.828 18.299-20.451 1.892-5.38-5.341-10.129-10.637-11.404-5.27-1.264-7.596 2.971-12.787 8.378-5.187 5.395-7.461 9.259-7.82 5.016-.521-6.128 4.928-15.131 10.216-18.495 4.507-2.856 9.559-4.149 8.1-8.781-1.467-4.648-.026-2.018-5.077-7.013-5.06-5.023-6.024-6.638-5.656-13.572.364-6.959-1.445-7.357-2.532-13.14-1.082-5.785-3.592-.78-5.778-9.265m-59.85 122.783c.254.302.482.549.579.674 2.011 2.291 6.014 2.782 8.783 3.214 2.773.475 6.47-.923 6.917-2.765.474-1.833-6.952-5.197-8.31-6.457-3.847-3.544-9.87-10.763-13.392-11.541-1.152-.258-2.098-.083-2.878.302 2.317 5.774 5.086 11.329 8.301 16.573m5.712 11.359c1.442 2.116 6.23 8.156 6.813 8.919 1.231 1.586 3.675 1.91 5.392 2.214 1.696.33 3.961-.628 4.232-1.903.294-1.279-.657-6.229-1.494-7.081-2.344-2.434-8.45-5.87-11.815-5.33-2.602.399-3.622 2.414-3.128 3.181m354.17-65.834c-19.017 26.677-105.046 133.183-264.96 133.183-159.941 0-245.943-106.506-264.99-133.183-.811-1.141-1.507-2.127-2.077-2.965.57-.861 1.266-1.843 2.077-2.997 19.047-26.664 105.049-133.174 264.99-133.174 159.914 0 245.943 106.51 264.96 133.174.832 1.154 1.515 2.136 2.063 2.997-.548.838-1.231 1.824-2.063 2.965" transform="translate(483.3077 218.7952)"/><path d="m0 0v-145.488h-24.467v111.367h-.214l-17.159-17.808h-.223v25.536l22.53 26.393z" transform="translate(98.8283 669.0351)"/><path d="m0 0v-12.655c0-12.227-6.65-20.38-16.735-23.608 12.227-2.786 18.023-11.368 18.023-24.672v-21.461c0-20.169-10.724-33.26-35.405-33.26-24.896 0-33.701 14.163-33.701 36.265v19.099h22.329v-20.821c0-8.582 2.996-14.154 11.372-14.154 7.5 0 10.93 5.357 10.93 13.089v24.029c0 7.732-3.43 11.802-12.008 11.802h-10.294v18.67h9.229c7.934 0 13.073 4.083 13.073 11.802v15.666c0 7.942-2.778 13.088-10.501 13.088-7.719 0-10.514-5.146-10.514-14.162v-14.803h-22.329v12.871c0 21.461 8.806 36.483 34.122 36.483 22.539 0 32.409-12.665 32.409-33.268" transform="translate(179.5084 637.485)"/><path d="m0 0c.667-.159 1.331-.159 2.141-.159 2.29 0 4.136.985 5.318 2.624 1.257 1.639 1.849 3.933 1.849 6.392 0 2.541-.668 4.841-1.923 6.398-1.254 1.638-3.027 2.706-5.168 2.706-.813 0-1.55-.083-2.217-.248zm15.731 46.906v-9.187h-15.804v-11.556c1.404.324 2.513.406 3.913.406 4.286 0 8.053-1.473 10.785-4.098 2.954-2.871 4.727-7.216 4.727-12.795 0-5.33-1.478-9.593-4.136-12.541-3.399-4.022-8.717-5.909-15.88-5.909-3.694 0-6.795.248-9.012.579v55.101z" transform="translate(228.0942 621.5092)"/><path d="m0 0c0-12.541 2.141-18.939 6.057-18.939 4.063 0 5.614 8.203 5.614 19.435 0 9.676-1.332 18.45-5.686 18.45-3.844 0-5.985-7.052-5.985-18.946m21.788.985c0-20.826-6.649-29.269-16.102-29.269-11.299 0-15.731 13.284-15.731 28.449 0 15.09 5.394 28.126 16.398 28.126 12.039 0 15.435-14.676 15.435-27.306" transform="translate(261.0932 640.7785)"/><path d="m0 0c.445-.159.963-.159 1.553-.159 4.873 0 7.091 3.85 7.091 9.015 0 4.842-1.773 8.609-6.281 8.609-.886 0-1.772-.159-2.363-.406zm-9.673 25.095c2.733.655 6.423 1.068 10.118 1.068 5.759 0 10.263-.903 13.516-4.27 2.954-2.865 4.282-7.459 4.282-12.134 0-5.985-1.626-10.166-4.208-13.285-3.104-3.602-8.126-5.248-12.113-5.248h-1.922v-20.578h-9.673z" transform="translate(298.1225 642.5005)"/><path d="m0 0c.667-.159 1.257-.159 1.849-.159 4.946 0 7.459 4.181 7.459 9.18 0 5.001-2.44 8.94-7.091 8.94-.813 0-1.626-.083-2.217-.248zm-.073 46.906v-20.585c.813.166 1.922.248 3.913.248 9.454 0 15.512-6.315 15.512-16.893 0-5.489-1.478-9.511-4.063-12.541-3.472-3.939-8.79-5.909-15.953-5.909-3.694 0-6.795.248-9.012.579v55.101z" transform="translate(330.966 621.5092)"/><path d="m0 0c.664-.159 1.331-.159 2.144-.159 2.288 0 4.137.985 5.318 2.624 1.255 1.639 1.846 3.933 1.846 6.392 0 2.541-.665 4.841-1.922 6.398-1.255 1.638-3.028 2.706-5.169 2.706-.813 0-1.553-.083-2.217-.248zm15.734 46.906v-9.187h-15.807v-11.556c1.404.324 2.509.406 3.914.406 4.285 0 8.05-1.473 10.785-4.098 2.954-2.871 4.726-7.216 4.726-12.795 0-5.33-1.477-9.593-4.136-12.541-3.399-4.022-8.716-5.909-15.88-5.909-3.691 0-6.795.248-9.009.579v55.101z" transform="translate(365.0287 621.5092)"/><path d="m0 0-1.623 11.563c-.518 3.361-1.182 8.856-1.623 12.541h-.223c-.518-3.685-1.258-9.428-1.773-12.623l-1.849-11.481zm-8.049-8.361-2.215-12.63h-9.381l10.782 55.267h11.598l9.673-55.267h-9.378l-2.141 12.63z" transform="translate(405.8391 634.1394)"/><path d="m0 0c-1.404-.737-4.136-1.309-7.532-1.309-12.703 0-18.761 11.639-18.761 27.3 0 20.832 10.416 28.945 20.089 28.945 3.399 0 5.762-.737 6.722-1.474l-1.623-9.021c-1.109.578-2.364 1.067-4.508 1.067-5.464 0-10.413-5.248-10.413-18.939 0-13.202 4.504-18.367 10.413-18.367 1.626 0 3.472.406 4.653.819z" transform="translate(242.2747 527.3862)"/><path d="m0 0v-12.217c0-10.172-.591-19.683-.963-25.42h.15c1.404 4.752 3.914 11.97 5.39 16.233l7.313 21.404h8.79v-55.267h-8.495v12.465c0 11.068.369 19.269.592 24.842h-.15c-1.109-5.001-3.322-11.64-4.946-16.233l-7.313-21.074h-8.939v55.267z" transform="translate(271.8845 581.8333)"/><path d="m0 0c2.144 1.639 6.28 3.196 11.006 3.196 9.455 0 13.886-6.398 13.886-13.609 0-5.661-3.399-11.157-8.421-12.548v-.165c5.835-1.309 9.898-6.232 9.898-13.856 0-10.579-8.126-16.398-17.062-16.398-4.136 0-7.754 1.067-10.044 2.458l1.404 8.775c2.141-1.392 4.949-2.218 7.681-2.218 5.168 0 7.903 3.285 7.903 7.713 0 6.15-4.58 8.608-9.825 8.608h-1.401v8.114h.96c4.431 0 8.862 2.382 8.862 7.465 0 3.856-2.141 6.48-6.277 6.48-2.29 0-5.025-1.067-6.943-2.3z" transform="translate(297.9204 579.2922)"/><path d="m0 0c-.219 5.247-.591 12.382-.442 18.284h-.222c-.886-5.902-2.214-12.706-3.173-16.975l-4.285-19.759h-6.868l-4.136 19.435c-.963 4.428-2.291 11.315-3.028 17.299h-.222c-.149-5.984-.445-12.954-.74-18.449l-.81-19.187h-8.348l3.621 55.267h10.19l3.99-20.007c1.401-6.969 2.656-13.119 3.545-19.352h.147c.737 6.15 1.845 12.383 3.177 19.352l3.913 20.007h10.19l3.031-55.267h-8.641z" transform="translate(360.1184 545.9185)"/><path d="m0 0h-11.375v-14.924h12.853v-9.345h-22.529v55.267h21.642v-9.346h-11.966v-12.712h11.375z" transform="translate(396.9831 550.8355)"/><path d="m0 0v-22.141h10.118v22.141h9.676v-55.267h-9.676v23.126h-10.118v-23.126h-9.673v55.267z" transform="translate(413.9969 581.8333)"/><path d="m0 0h-11.375v-14.924h12.853v-9.345h-22.526v55.267h21.639v-9.346h-11.966v-12.712h11.375z" transform="translate(462.4691 550.8355)"/><path d="m0 0v-22.141h10.12v22.141h9.673v-55.267h-9.673v23.126h-10.12v-23.126h-9.676v55.267z" transform="translate(479.4836 581.8333)"/><path d="m0 0v-12.217c0-10.172-.591-19.683-.963-25.42h.15c1.404 4.752 3.913 11.97 5.391 16.233l7.312 21.404h8.79v-55.267h-8.495v12.465c0 11.068.369 19.269.591 24.842h-.149c-1.109-5.001-3.322-11.64-4.946-16.233l-7.313-21.074h-8.939v55.267z" transform="translate(515.4745 581.8333)"/><path d="m0 0h-11.376v-14.924h12.853v-9.345h-22.529v55.267h21.643v-9.346h-11.967v-12.712h11.376z" transform="translate(564.868 550.8355)"/><path d="m0 0c-.219 5.247-.591 12.382-.442 18.284h-.222c-.886-5.902-2.214-12.706-3.173-16.975l-4.285-19.759h-6.868l-4.136 19.435c-.963 4.428-2.291 11.315-3.028 17.299h-.223c-.148-5.984-.444-12.954-.739-18.449l-.81-19.187h-8.348l3.621 55.267h10.19l3.99-20.007c1.401-6.969 2.656-13.119 3.545-19.352h.147c.736 6.15 1.845 12.383 3.176 19.352l3.914 20.007h10.19l3.031-55.267h-8.641z" transform="translate(602.946 545.9185)"/><path d="m0 0v-24.028h.74l8.123 24.028h10.635l-11.445-25.584c5.095-2.135 6.794-7.3 8.199-14.022 1.105-5.33 1.919-10.578 3.395-15.661h-9.676c-1.181 3.939-1.918 8.443-2.731 12.789-1.182 6.481-2.513 10.661-6.5 10.661h-.74v-23.45h-9.453v55.267z" transform="translate(227.8717 495.2512)"/><path d="m0 0v-55.267h-9.676v45.922h-7.386v-14.601c0-12.706-.74-23.862-7.017-29.269-1.846-1.639-4.209-2.706-6.646-2.706l-2.068 9.097c1.182.331 2.437.985 3.323 1.97 2.881 3.278 3.545 9.187 3.545 19.924v24.93z" transform="translate(281.2583 495.2512)"/><path d="m0 0v-12.217c0-10.172-.591-19.682-.962-25.42h.149c1.404 4.753 3.914 11.97 5.39 16.233l7.314 21.404h8.789v-55.267h-8.494v12.465c0 11.068.368 19.269.591 24.842h-.15c-1.109-5.001-3.322-11.64-4.946-16.233l-7.312-21.074h-8.94v55.267z" transform="translate(297.4524 495.2512)"/><path d="m0 0c-.219 5.248-.591 12.382-.442 18.284h-.222c-.886-5.902-2.214-12.706-3.173-16.975l-4.285-19.759h-6.869l-4.135 19.435c-.963 4.428-2.291 11.315-3.028 17.299h-.222c-.149-5.984-.445-12.954-.74-18.449l-.81-19.187h-8.348l3.621 55.267h10.19l3.99-20.006c1.401-6.97 2.656-13.12 3.545-19.352h.147c.737 6.149 1.845 12.382 3.177 19.352l3.913 20.006h10.19l3.031-55.267h-8.641z" transform="translate(356.417 459.3363)"/><path d="m0 0-1.626 11.563c-.518 3.361-1.182 8.857-1.627 12.541h-.219c-.517-3.684-1.254-9.428-1.772-12.623l-1.846-11.481zm-8.053-8.361-2.214-12.63h-9.38l10.784 55.267h11.595l9.676-55.267h-9.38l-2.145 12.63z" transform="translate(389.3139 460.9751)"/><path d="m0 0h-8.789v9.924h27.325v-9.924h-8.863v-45.343h-9.673z" transform="translate(409.6983 485.3274)"/><path d="m0 0-1.626 11.563c-.518 3.361-1.182 8.857-1.627 12.541h-.219c-.518-3.684-1.255-9.428-1.773-12.623l-1.846-11.481zm-8.053-8.361-2.214-12.63h-9.381l10.785 55.267h11.595l9.676-55.267h-9.381l-2.144 12.63z" transform="translate(446.2904 460.9751)"/></g></g></svg>