<svg height="983.03998" viewBox="0 0 983.03998 983.03998" width="983.03998" xmlns="http://www.w3.org/2000/svg" xmlns:xlink="http://www.w3.org/1999/xlink"><clipPath id="a"><path d="m0 737.28h737.28v-737.28h-737.28z"/></clipPath><g transform="matrix(1.3333333 0 0 -1.3333333 0 983.04)"><path d="m0 0h737.28v737.28h-737.28z" fill="#00add8"/><path d="m729.569 7.69h-721.857v721.901h721.857z" fill="#00add8"/><g clip-path="url(#a)" fill="#fff"><path d="m0 0c-7.097 3.126-16.095 2-24.734-1.5-32.496-13.171-54.61-17.909-88.789-7.207-21.522 6.738-41.661 20.848-65.465 12.256-15.797-5.682-30.516-11.104-48.377-10.965l-10.317 52.888h245.099zm-83.076-157.053s-11.898-12.227-31.252-10.901c-19.399-1.326-31.284 10.901-31.284 10.901-19.621 19.601-12.62 43.989-5.791 56.59 4.219 7.894 34.363 53.164 36.956 57.015v.305s.044-.06.119-.147l.104.147v-.305c2.524-3.851 32.716-49.121 36.935-57.015 6.838-12.601 13.816-36.989-5.787-56.59m101.216 213.041c-.613.666-1.437 1.036-2.369 1.036h-261.889c-.907 0-1.74-.37-2.353-1.036-.574-.732-.802-1.634-.657-2.477l44-266.112c.241-1.472 1.529-2.566 3.018-2.566h54.002l3.693-43.342-22.723-.026 52.875-52.873 53.002 52.993-22.718-.024 3.689 43.272h54.951c1.516 0 2.782 1.094 3.006 2.612l41.165 266.066c.141.913-.127 1.787-.692 2.477" transform="translate(483.4505 381.6941)"/><path d="m0 0c.429 8.152 3.863 13.304 11.591 13.304 8.367 0 11.591-5.152 11.591-14.601v-25.334c0-9.226-3.425-14.596-11.801-14.596-8.166 0-11.381 5.581-11.381 14.596zm11.381-61.195c25.969 0 36.062 14.176 36.062 36.72v21.469c0 23.828-9.445 35.848-27.055 35.848-10.304 0-16.525-4.731-20.178-11.811h-.21v31.345c0 8.809 2.794 15.03 11.591 15.03s11.381-5.161 11.381-14.172v-9.659h22.325v7.727c0 21.475-7.088 36.492-34.135 36.492-25.759 0-35.423-16.524-35.423-39.278v-70.845c0-22.547 9.874-38.866 35.642-38.866" transform="translate(105.551 582.8141)"/><path d="m0 0v-18.367c0-4.511 1.55-7.71 5.464-7.71 1.403 0 3.03.493 3.99 1.15v24.927h9.523v-55.267h-9.523v22.059h-.223c-2.293-1.15-4.505-1.887-7.09-1.887-8.571 0-11.671 6.394-11.671 15.495v19.6z" transform="translate(225.8806 667.0096)"/><path d="m0 0v-12.217c0-10.169-.591-19.679-.96-25.419h.147c1.404 4.755 3.913 11.969 5.394 16.235l7.306 21.401h8.793v-55.267h-8.495v12.465c0 11.068.369 19.267.592 24.845h-.147c-1.112-5.004-3.323-11.646-4.949-16.236l-7.313-21.074h-8.939v55.267z" transform="translate(261.0584 667.0096)"/><path d="m0 0c-1.404-.737-4.136-1.312-7.535-1.312-12.7 0-18.755 11.642-18.755 27.306 0 20.826 10.413 28.942 20.089 28.942 3.392 0 5.756-.736 6.722-1.473l-1.626-9.022c-1.112.575-2.364 1.067-4.505 1.067-5.47 0-10.413-5.247-10.413-18.942 0-13.199 4.505-18.367 10.413-18.367 1.62 0 3.469.409 4.65.822z" transform="translate(313.4028 612.5625)"/><path d="m0 0h-8.787v9.924h27.326v-9.924h-8.863v-45.343h-9.676z" transform="translate(325.3532 657.0857)"/><path d="m0 0-1.626 11.563c-.515 3.361-1.182 8.853-1.62 12.545h-.223c-.521-3.692-1.257-9.432-1.772-12.628l-1.849-11.48zm-8.05-8.364-2.217-12.627h-9.377l10.781 55.267h11.595l9.676-55.267h-9.378l-2.141 12.627z" transform="translate(361.9414 632.7341)"/><path d="m0 0c-.515.083-1.105.245-1.918.245-4.505 0-6.424-4.019-6.424-8.2 0-5.247 2.802-8.608 7.014-8.608.591 0 .813 0 1.328.079zm-20.013-46.903c.661 1.639 1.328 3.771 1.919 5.902 1.328 5.579 1.328 13.285 5.025 17.631.884 1.067 2.212 1.969 3.545 2.379v.162c-5.247 1.804-8.57 6.315-8.57 13.284 0 5.658 1.919 9.594 4.581 12.053 3.176 2.871 7.604 4.1 12.63 4.1 3.691 0 7.529-.327 10.559-1.063v-54.448h-9.676v22.058h-1.036c-1.696 0-3.024-.739-3.983-2.052-2.141-3.033-2.516-11.067-3.323-15.168-.374-1.639-.743-3.281-1.404-4.838z" transform="translate(397.1575 658.6458)"/><path d="m0 0c.591-.165 1.258-.165 2.141-.165 3.913 0 7.166 2.623 7.166 8.281 0 5.493-3.398 8.364-7.236 8.447h-2.071zm0 24.517h2.071c3.469 0 6.124 3.278 6.124 7.789 0 4.019-1.696 7.132-5.686 7.132-1.029 0-1.918-.08-2.509-.328zm-9.676 21.894c2.954.736 6.798 1.063 11.004 1.063 4.657 0 9.161-.654 12.63-3.935 2.662-2.459 3.767-6.151 3.767-10.003 0-4.921-2.287-9.676-7.236-12.056v-.327c5.762-1.804 8.863-7.132 8.863-13.202 0-4.59-1.328-8.116-3.691-10.823-2.955-3.608-7.98-5.575-16.322-5.575-3.697 0-6.798.245-9.015.575z" transform="translate(439.7956 619.7799)"/><path d="m0 0c0-12.544 2.141-18.942 6.055-18.942 4.059 0 5.61 8.198 5.61 19.434 0 9.676-1.328 18.45-5.686 18.45-3.838 0-5.979-7.052-5.979-18.942m21.786.984c0-20.828-6.646-29.272-16.1-29.272-11.302 0-15.73 13.281-15.73 28.45 0 15.089 5.387 28.125 16.391 28.125 12.04 0 15.439-14.675 15.439-27.303" transform="translate(472.9911 639.3765)"/><path d="m0 0c0-6.315-.368-12.71-1.181-18.615-.591-3.936-1.48-8.199-2.51-11.56h10.858v36.569h-7.167zm16.767 15.743v-46.083l3.913-.165-.445-21.071h-7.312l-.369 12.052h-21.639l-.369-12.052h-7.388l-.369 21.071 3.545.165c1.55 4.18 2.586 8.364 3.399 12.875.96 6.312 1.404 12.789 1.404 19.27v13.938z" transform="translate(514.0266 651.2664)"/><path d="m0 0-1.621 11.563c-.52 3.361-1.181 8.853-1.626 12.545h-.223c-.514-3.692-1.257-9.432-1.772-12.628l-1.848-11.48zm-8.05-8.364-2.217-12.627h-9.378l10.782 55.267h11.595l9.676-55.267h-9.378l-2.141 12.627z" transform="translate(557.0958 632.7341)"/><path d="m0 0v-12.218c0-10.168-.591-19.679-.959-25.419h.146c1.404 4.756 3.914 11.969 5.394 16.236l7.306 21.401h8.793v-55.267h-8.494v12.462c0 11.07.368 19.269.591 24.847h-.147c-1.112-5.003-3.322-11.645-4.949-16.235l-7.312-21.074h-8.939v55.267z" transform="translate(225.2892 580.4248)"/><path d="m0 0c-1.404-.737-4.136-1.312-7.535-1.312-12.7 0-18.755 11.646-18.755 27.306 0 20.826 10.414 28.946 20.089 28.946 3.393 0 5.757-.74 6.716-1.477l-1.62-9.019c-1.112.572-2.364 1.064-4.505 1.064-5.47 0-10.419-5.247-10.419-18.942 0-13.199 4.511-18.367 10.419-18.367 1.621 0 3.469.41 4.651.819z" transform="translate(293.1813 525.9771)"/><path d="m0 0-1.62 11.563c-.521 3.361-1.182 8.853-1.626 12.545h-.223c-.514-3.692-1.258-9.432-1.773-12.627l-1.848-11.481zm-8.05-8.364-2.217-12.627h-9.377l10.781 55.267h11.595l9.676-55.267h-9.378l-2.141 12.627z" transform="translate(315.5831 546.1488)"/><path d="m0 0v-22.142h10.12v22.142h9.676v-55.267h-9.676v23.122h-10.12v-23.122h-9.676v55.267z" transform="translate(342.4003 580.4248)"/><path d="m0 0v-12.218c0-10.168-.591-19.679-.96-25.419h.147c1.404 4.756 3.914 11.969 5.394 16.236l7.306 21.401h8.793v-55.267h-8.495v12.462c0 11.07.369 19.269.592 24.847h-.147c-1.112-5.003-3.322-11.645-4.949-16.235l-7.313-21.074h-8.939v55.267z" transform="translate(378.3913 580.4248)"/><path d="m0 0h-8.786v9.924h27.325v-9.924h-8.863v-45.344h-9.676z" transform="translate(412.4826 570.501)"/><path d="m0 0-1.62 11.563c-.521 3.361-1.182 8.853-1.626 12.545h-.223c-.514-3.692-1.258-9.432-1.773-12.627l-1.849-11.481zm-8.05-8.364-2.217-12.627h-9.377l10.781 55.267h11.595l9.676-55.267h-9.378l-2.141 12.627z" transform="translate(449.065 546.1488)"/><path d="m0 0c.445-.165.96-.165 1.55-.165 4.873 0 7.091 3.853 7.091 9.022 0 4.838-1.773 8.608-6.278 8.608-.882 0-1.772-.165-2.363-.41zm-9.676 25.089c2.732.658 6.43 1.068 10.121 1.068 5.762 0 10.267-.902 13.513-4.263 2.954-2.872 4.282-7.462 4.282-12.135 0-5.988-1.62-10.168-4.205-13.284-3.101-3.609-8.126-5.249-12.116-5.249h-1.919v-20.581h-9.676z" transform="translate(475.8881 554.5125)"/><path d="m0 0v-12.218c0-10.168-.591-19.679-.96-25.419h.147c1.404 4.756 3.913 11.969 5.387 16.236l7.313 21.401h8.793v-55.267h-8.495v12.462c0 11.07.369 19.269.591 24.847h-.146c-1.112-5.003-3.329-11.645-4.949-16.235l-7.313-21.074h-8.938v55.267z" transform="translate(507.623 580.4248)"/><path d="m0 0c-.515.083-1.105.245-1.919.245-4.504 0-6.429-4.019-6.429-8.199 0-5.248 2.808-8.609 7.02-8.609.591 0 .813 0 1.328.079zm-20.013-46.903c.661 1.639 1.328 3.771 1.919 5.906 1.328 5.575 1.328 13.281 5.019 17.626.89 1.068 2.218 1.97 3.545 2.38v.162c-5.241 1.804-8.564 6.315-8.564 13.284 0 5.658 1.919 9.594 4.581 12.053 3.176 2.871 7.604 4.101 12.63 4.101 3.691 0 7.529-.327 10.559-1.067v-54.445h-9.676v22.059h-1.036c-1.696 0-3.024-.74-3.983-2.053-2.148-3.033-2.516-11.067-3.329-15.168-.368-1.639-.737-3.281-1.397-4.838z" transform="translate(552.7182 572.0604)"/></g></g></svg>