<svg height="983.03998" viewBox="0 0 983.03998 983.03998" width="983.03998" xmlns="http://www.w3.org/2000/svg" xmlns:xlink="http://www.w3.org/1999/xlink"><clipPath id="a"><path d="m0 737.28h737.28v-737.28h-737.28z"/></clipPath><g transform="matrix(1.3333333 0 0 -1.3333333 0 983.04)"><path d="m0 0h737.28v737.28h-737.28z" fill="#1a3668"/><path d="m729.573 7.688h-721.866v721.903h721.866z" fill="#1a3668"/><g clip-path="url(#a)" fill="#fff"><path d="m0 0c15.917 14.77 25.907 35.847 25.907 59.228 0 3.496-.248 6.941-.678 10.326 32.346-3.464 57.631-30.911 57.631-64.171 0-18.895-8.212-35.865-21.207-47.683-12.163 22.791-34.918 39.089-61.653 42.3m54.864-80.22c0-35.578-28.957-64.534-64.548-64.534-11.583 0-22.42 3.106-31.826 8.468 13.728 14.49 22.193 34.044 22.193 55.53 0 5.29-.534 10.458-1.506 15.465 11.606-6.451 24.943-10.137 39.139-10.137 12.625 0 24.588 2.916 35.237 8.109.859-4.174 1.311-8.485 1.311-12.901m-219.543-.536c0 4.59.489 9.059 1.412 13.375 10.633-5.154 22.551-8.047 35.135-8.047 14.151 0 27.443 3.662 39.022 10.074-.9-4.82-1.397-9.786-1.397-14.866 0-21.827 8.729-41.652 22.846-56.209-9.554-5.595-20.632-8.86-32.471-8.86-35.598 0-64.547 28.953-64.547 64.533m-27.997 86.139c0 33.26 25.278 60.703 57.623 64.171-.429-3.385-.677-6.83-.677-10.326 0-23.625 10.197-44.913 26.404-59.702-26.808-3.052-49.675-19.253-61.965-41.993-13.089 11.816-21.385 28.866-21.385 47.85m137.761 118.387c26.448 0 49.199-15.994 59.166-38.811-26.256-4.63-48.175-21.961-59.166-45.414-10.977 23.457-32.903 40.788-59.16 45.414 9.967 22.817 32.718 38.811 59.16 38.811m15.37-146.82c8.943 4.688 19.08 7.378 29.861 7.378 25.375 0 47.313-14.759 57.86-36.107-8.947-4.692-19.098-7.38-29.86-7.38-25.384 0-47.325 14.758-57.861 36.109m-30.944-.435c-10.619-21.117-32.436-35.674-57.643-35.674-10.69 0-20.763 2.66-29.649 7.278 10.619 21.117 32.443 35.673 57.649 35.673 10.695 0 20.756-2.655 29.643-7.277m-48.124 92.636c31.081-4.622 55.029-31.413 55.029-63.768 0-3.376-.342-6.676-.847-9.916-31.084 4.625-55.025 31.409-55.025 63.761 0 3.383.339 6.683.843 9.923m63.998-195.601c-12.082 11.733-19.617 28.112-19.617 46.23 0 17.845 7.29 34.018 19.023 45.712 12.076-11.734 19.618-28.115 19.618-46.248 0-17.834-7.283-34.003-19.024-45.694m64.247 185.678c0-32.352-23.94-59.136-55.025-63.761-.504 3.24-.839 6.54-.839 9.916 0 32.355 23.941 59.142 55.021 63.765.504-3.237.843-6.537.843-9.92m89.499-53.845c0 43.576-34.665 79.179-77.848 80.752-11.108 31.369-41.066 53.907-76.198 53.907-35.125 0-65.079-22.538-76.199-53.907-43.182-1.577-77.832-37.18-77.832-80.752 0-25.856 12.223-48.903 31.185-63.706-2.059-7.13-3.193-14.65-3.193-22.433 0-44.546 36.255-80.803 80.822-80.803 16.911 0 32.617 5.233 45.612 14.15 12.84-8.593 28.26-13.612 44.836-13.612 44.56 0 80.814 36.254 80.814 80.801 0 7.627-1.08 14.998-3.061 21.989 18.884 14.809 31.062 37.813 31.062 63.614" transform="translate(427.8513 259.1146)"/><path d="m0 0v-145.546h-24.47v111.416h-.219l-17.173-17.817h-.21v25.544l22.543 26.403z" transform="translate(115.7632 669.0891)"/><path d="m0 0h61.4v-22.538l-31.988-123.008h-24.269l32.636 125.588h-37.779z" transform="translate(126.9258 669.0891)"/><path d="m0 0v-55.267h-9.676v45.921h-9.898v-45.921h-9.676v55.267z" transform="translate(268.0438 668.4187)"/><path d="m0 0-1.626 11.563c-.515 3.361-1.183 8.857-1.621 12.541h-.222c-.521-3.684-1.258-9.428-1.773-12.623l-1.849-11.481zm-8.05-8.36-2.217-12.631h-9.378l10.782 55.267h11.595l9.676-55.267h-9.378l-2.141 12.631z" transform="translate(292.1228 634.1426)"/><path d="m0 0c.445-.159.96-.159 1.55-.159 4.873 0 7.091 3.85 7.091 9.015 0 4.842-1.773 8.609-6.277 8.609-.883 0-1.773-.159-2.364-.406zm-9.676 25.095c2.732.655 6.43 1.068 10.121 1.068 5.762 0 10.267-.903 13.514-4.27 2.954-2.865 4.282-7.459 4.282-12.134 0-5.985-1.621-10.166-4.206-13.285-3.101-3.602-8.126-5.248-12.116-5.248h-1.919v-20.578h-9.676z" transform="translate(318.9394 642.5038)"/><path d="m0 0h-8.793v9.924h27.332v-9.924h-8.863v-45.343h-9.676z" transform="translate(348.9204 658.4949)"/><path d="m0 0v-22.141h10.121v22.141h9.676v-55.267h-9.676v23.126h-10.121v-23.126h-9.676v55.267z" transform="translate(381.6396 668.4187)"/><path d="m0 0h-11.372v-14.924h12.853v-9.345h-22.529v55.267h21.639v-9.346h-11.963v-12.712h11.372z" transform="translate(430.1086 637.4209)"/><path d="m0 0c.444-.159.959-.159 1.55-.159 4.879 0 7.09 3.85 7.09 9.015 0 4.842-1.773 8.609-6.277 8.609-.883 0-1.772-.159-2.363-.406zm-9.676 25.095c2.732.655 6.429 1.068 10.12 1.068 5.763 0 10.268-.903 13.514-4.27 2.954-2.865 4.289-7.459 4.289-12.134 0-5.985-1.627-10.166-4.213-13.285-3.101-3.602-8.126-5.248-12.116-5.248h-1.918v-20.578h-9.676z" transform="translate(447.015 642.5038)"/><path d="m0 0c-1.404-.737-4.136-1.308-7.535-1.308-12.7 0-18.755 11.638-18.755 27.3 0 20.832 10.413 28.945 20.089 28.945 3.393 0 5.756-.737 6.722-1.474l-1.626-9.022c-1.112.579-2.364 1.068-4.505 1.068-5.47 0-10.413-5.248-10.413-18.94 0-13.202 4.505-18.367 10.413-18.367 1.62 0 3.469.407 4.65.82z" transform="translate(494.931 613.971)"/><path d="m0 0h-8.793v9.924h27.332v-9.924h-8.863v-45.343h-9.676z" transform="translate(506.8879 658.4949)"/><path d="m0 0c.591-.165 1.258-.165 2.141-.165 3.914 0 7.167 2.624 7.167 8.285 0 5.489-3.399 8.36-7.237 8.443h-2.071zm0 24.517h2.071c3.469 0 6.125 3.279 6.125 7.789 0 4.015-1.697 7.135-5.687 7.135-1.029 0-1.918-.083-2.509-.331zm-9.676 21.894c2.954.737 6.798 1.067 11.004 1.067 4.657 0 9.161-.661 12.63-3.939 2.662-2.459 3.767-6.15 3.767-10.007 0-4.917-2.287-9.669-7.236-12.051v-.324c5.762-1.805 8.863-7.135 8.863-13.202 0-4.594-1.328-8.12-3.691-10.827-2.955-3.608-7.98-5.578-16.322-5.578-3.697 0-6.798.248-9.015.579z" transform="translate(539.6071 621.1884)"/><path d="m0 0c0-12.541 2.141-18.939 6.055-18.939 4.059 0 5.61 8.203 5.61 19.435 0 9.676-1.328 18.45-5.687 18.45-3.837 0-5.978-7.052-5.978-18.946m21.785.985c0-20.826-6.645-29.269-16.099-29.269-11.302 0-15.73 13.284-15.73 28.449 0 15.09 5.387 28.127 16.391 28.127 12.04 0 15.438-14.677 15.438-27.307" transform="translate(572.8091 640.7817)"/><path d="m0 0c.591-.165 1.258-.165 2.141-.165 3.914 0 7.167 2.624 7.167 8.285 0 5.489-3.399 8.36-7.237 8.443h-2.071zm0 24.517h2.071c3.469 0 6.131 3.279 6.131 7.79 0 4.014-1.703 7.134-5.692 7.134-1.029 0-1.919-.083-2.51-.331zm-9.676 21.894c2.954.737 6.798 1.067 11.004 1.067 4.657 0 9.161-.661 12.63-3.939 2.662-2.459 3.767-6.15 3.767-10.007 0-4.917-2.286-9.669-7.236-12.051v-.324c5.763-1.805 8.863-7.135 8.863-13.202 0-4.594-1.328-8.12-3.691-10.827-2.955-3.608-7.98-5.578-16.328-5.578-3.691 0-6.792.248-9.009.579z" transform="translate(248.4693 534.6063)"/><path d="m0 0v-12.217c0-10.172-.591-19.683-.959-25.42h.146c1.404 4.752 3.914 11.97 5.394 16.233l7.306 21.404h8.793v-55.267h-8.494v12.465c0 11.068.368 19.269.591 24.842h-.146c-1.112-5.001-3.323-11.64-4.95-16.233l-7.312-21.074h-8.939v55.267z" transform="translate(298.7589 581.8366)"/><path d="m0 0v-22.141h10.121v22.141h9.676v-55.267h-9.676v23.126h-10.121v-23.126h-9.676v55.267z" transform="translate(336.777 581.8366)"/><path d="m0 0h-8.787v9.924h27.326v-9.924h-8.863v-45.343h-9.676z" transform="translate(369.9413 571.9127)"/><path d="m0 0h-11.373v-14.923h12.853v-9.346h-22.529v55.267h21.64v-9.346h-11.964v-12.712h11.373z" transform="translate(414.0391 550.8387)"/><path d="m0 0c.445-.159.96-.159 1.55-.159 4.873 0 7.09 3.85 7.09 9.015 0 4.842-1.772 8.609-6.276 8.609-.884 0-1.773-.158-2.364-.406zm-9.676 25.095c2.732.655 6.43 1.068 10.121 1.068 5.762 0 10.267-.903 13.513-4.27 2.954-2.865 4.282-7.459 4.282-12.134 0-5.985-1.62-10.166-4.206-13.285-3.1-3.602-8.125-5.248-12.115-5.248h-1.919v-20.578h-9.676z" transform="translate(430.9448 555.9217)"/><path d="m0 0h-11.373v-14.923h12.853v-9.346h-22.529v55.267h21.64v-9.346h-11.964v-12.712h11.373z" transform="translate(475.1636 550.8387)"/><path d="m0 0c-1.404-.737-4.136-1.309-7.535-1.309-12.7 0-18.755 11.639-18.755 27.3 0 20.832 10.413 28.945 20.089 28.945 3.392 0 5.756-.737 6.716-1.474l-1.621-9.021c-1.111.578-2.363 1.067-4.504 1.067-5.471 0-10.42-5.248-10.42-18.939 0-13.202 4.512-18.367 10.42-18.367 1.62 0 3.469.406 4.65.819z" transform="translate(506.2311 527.3895)"/><path d="m0 0-1.62 11.563c-.521 3.361-1.181 8.856-1.626 12.541h-.223c-.514-3.685-1.257-9.428-1.772-12.623l-1.849-11.481zm-8.049-8.36-2.218-12.631h-9.377l10.781 55.267h11.595l9.676-55.267h-9.377l-2.142 12.631z" transform="translate(528.6322 547.5605)"/><path d="m0 0-3.17 10.165c-.959 3.202-1.772 6.315-2.662 9.841h-.146c-.813-3.526-1.626-6.887-2.364-10l-2.662-10.006h-9.6l9.308 28.291-8.939 26.976h10.121l2.878-10.248c.813-2.872 1.48-5.743 2.294-8.856h.145c.813 3.361 1.405 5.984 2.065 9.015l2.516 10.089h9.67l-9.301-27.472 9.822-27.795z" transform="translate(564.1405 526.5698)"/><path d="m0 0 4.581-20.826c.666-3.119 1.258-6.397 1.626-8.856h.223c.438 2.624.737 5.985 1.181 9.098l3.323 20.584h9.822l-7.389-29.44c-1.696-6.97-3.615-14.511-6.131-19.264-2.363-4.351-5.979-7.217-10.114-7.217-1.703 0-2.954.165-3.914.489l.369 8.774c.444-.082 1.181-.248 2.363-.248 2.51 0 4.581 2.872 5.317 5.578.369 1.151.293 2.052-.076 3.279l-11.594 38.049z" transform="translate(82.2812 491.8552)"/><path d="m0 0c-1.404-.737-4.136-1.309-7.535-1.309-12.7 0-18.755 11.639-18.755 27.3 0 20.833 10.413 28.945 20.089 28.945 3.392 0 5.756-.736 6.722-1.473l-1.626-9.022c-1.112.578-2.364 1.067-4.505 1.067-5.47 0-10.413-5.247-10.413-18.939 0-13.202 4.505-18.367 10.413-18.367 1.62 0 3.469.406 4.65.819z" transform="translate(129.1238 437.4081)"/><path d="m0 0h-8.787v9.923h27.326v-9.923h-8.863v-45.344h-9.676z" transform="translate(141.0741 481.932)"/><path d="m0 0c0-12.541 2.141-18.939 6.055-18.939 4.06 0 5.61 8.202 5.61 19.435 0 9.676-1.328 18.449-5.686 18.449-3.838 0-5.979-7.052-5.979-18.945m21.786.985c0-20.826-6.646-29.27-16.099-29.27-11.303 0-15.731 13.285-15.731 28.45 0 15.089 5.387 28.126 16.391 28.126 12.039 0 15.439-14.676 15.439-27.306" transform="translate(171.6965 464.2189)"/><path d="m0 0c.223-3.037 1.036-4.676 3.323-4.676 1.995 0 3.177 1.639 3.323 4.676h6.131c-.737-7.052-4.136-9.435-9.53-9.435-5.019 0-8.933 2.383-9.301 9.435zm-2.732-11.481v-12.217c0-10.172-.59-19.682-.959-25.419h.146c1.404 4.752 3.914 11.969 5.394 16.232l7.307 21.404h8.792v-55.266h-8.494v12.464c0 11.068.368 19.27.591 24.842h-.147c-1.111-5-3.322-11.639-4.949-16.232l-7.312-21.074h-8.939v55.266z" transform="translate(210.3497 503.3359)"/><path d="m0 0v-18.367c0-4.511 1.55-7.707 5.464-7.707 1.403 0 3.03.49 3.989 1.144v24.93h9.524v-55.267h-9.524v22.059h-.222c-2.293-1.15-4.505-1.887-7.09-1.887-8.571 0-11.671 6.398-11.671 15.495v19.6z" transform="translate(243.9778 491.8552)"/><path d="m0 0v-12.217c0-10.172-.591-19.683-.959-25.419h.146c1.404 4.752 3.914 11.969 5.394 16.232l7.306 21.404h8.793v-55.267h-8.494v12.465c0 11.068.368 19.27.591 24.842h-.147c-1.111-5.001-3.322-11.64-4.949-16.233l-7.313-21.074h-8.939v55.267z" transform="translate(279.1555 491.8552)"/><path d="m0 0c.591-.165 1.258-.165 2.141-.165 3.913 0 7.166 2.623 7.166 8.284 0 5.49-3.398 8.361-7.236 8.444h-2.071zm0 24.517h2.071c3.469 0 6.124 3.278 6.124 7.789 0 4.016-1.696 7.135-5.686 7.135-1.029 0-1.918-.083-2.509-.33zm-9.676 21.893c2.954.737 6.798 1.067 11.004 1.067 4.657 0 9.161-.66 12.63-3.938 2.662-2.459 3.767-6.151 3.767-10.006 0-4.918-2.287-9.671-7.236-12.053v-.324c5.762-1.804 8.863-7.135 8.863-13.202 0-4.593-1.328-8.119-3.691-10.826-2.955-3.608-7.98-5.578-16.322-5.578-3.697 0-6.798.248-9.015.578z" transform="translate(317.1672 444.6256)"/><path d="m0 0c0-12.541 2.141-18.939 6.055-18.939 4.059 0 5.61 8.202 5.61 19.435 0 9.676-1.328 18.449-5.687 18.449-3.837 0-5.978-7.052-5.978-18.945m21.785.985c0-20.826-6.646-29.27-16.099-29.27-11.302 0-15.73 13.285-15.73 28.45 0 15.089 5.387 28.126 16.391 28.126 12.04 0 15.438-14.676 15.438-27.306" transform="translate(350.3692 464.2189)"/><path d="m0 0v-9.352h-13.297v-45.915h-9.676v55.267z" transform="translate(400.6929 491.8552)"/><path d="m0 0c0-12.541 2.141-18.939 6.055-18.939 4.06 0 5.61 8.202 5.61 19.435 0 9.676-1.328 18.449-5.686 18.449-3.838 0-5.979-7.052-5.979-18.945m21.785.985c0-20.826-6.645-29.27-16.099-29.27-11.302 0-15.73 13.285-15.73 28.45 0 15.089 5.387 28.126 16.391 28.126 12.04 0 15.438-14.676 15.438-27.306" transform="translate(412.6309 464.2189)"/><path d="m0 0c.445-.159.96-.159 1.55-.159 4.873 0 7.09 3.85 7.09 9.016 0 4.841-1.772 8.608-6.277 8.608-.882 0-1.772-.159-2.363-.406zm-9.676 25.096c2.732.654 6.43 1.067 10.121 1.067 5.762 0 10.267-.902 13.513-4.269 2.954-2.866 4.282-7.459 4.282-12.135 0-5.985-1.62-10.166-4.206-13.284-3.1-3.603-8.126-5.249-12.116-5.249h-1.918v-20.578h-9.676z" transform="translate(463.9385 465.9403)"/><path d="m0 0-1.621 11.563c-.52 3.36-1.181 8.856-1.626 12.541h-.222c-.514-3.685-1.258-9.428-1.773-12.624l-1.849-11.48zm-8.05-8.361-2.217-12.63h-9.378l10.782 55.266h11.595l9.676-55.266h-9.378l-2.141 12.63z" transform="translate(501.5247 457.5798)"/><path d="m0 0c2.141 1.639 6.277 3.196 11.004 3.196 9.453 0 13.882-6.398 13.882-13.609 0-5.661-3.393-11.156-8.419-12.548v-.165c5.839-1.308 9.899-6.232 9.899-13.856 0-10.578-8.126-16.398-17.059-16.398-4.142 0-7.757 1.067-10.051 2.459l1.404 8.774c2.141-1.398 4.95-2.218 7.682-2.218 5.171 0 7.903 3.285 7.903 7.713 0 6.15-4.574 8.609-9.822 8.609h-1.405v8.119h.96c4.435 0 8.863 2.377 8.863 7.459 0 3.857-2.141 6.48-6.277 6.48-2.287 0-5.019-1.067-6.944-2.299z" transform="translate(517.6238 489.3141)"/><path d="m0 0c.591-.165 1.258-.165 2.141-.165 3.914 0 7.167 2.623 7.167 8.284 0 5.49-3.399 8.361-7.237 8.444h-2.071zm0 24.517h2.071c3.469 0 6.131 3.278 6.131 7.789 0 4.016-1.703 7.135-5.693 7.135-1.029 0-1.918-.083-2.509-.33zm-9.676 21.893c2.954.737 6.798 1.067 11.004 1.067 4.657 0 9.161-.66 12.63-3.938 2.662-2.459 3.768-6.151 3.768-10.006 0-4.918-2.288-9.671-7.237-12.053v-.324c5.762-1.804 8.863-7.135 8.863-13.202 0-4.593-1.328-8.119-3.691-10.826-2.955-3.608-7.98-5.578-16.328-5.578-3.691 0-6.792.248-9.009.578z" transform="translate(558.818 444.6256)"/><path d="m0 0v-12.217c0-10.172-.591-19.683-.96-25.419h.147c1.404 4.752 3.913 11.969 5.387 16.232l7.313 21.404h8.793v-55.267h-8.495v12.465c0 11.068.369 19.27.591 24.842h-.146c-1.112-5.001-3.329-11.64-4.949-16.233l-7.313-21.074h-8.939v55.267z" transform="translate(592.3316 491.8552)"/><path d="m0 0h-8.793v9.923h27.332v-9.923h-8.863v-45.344h-9.676z" transform="translate(626.4229 481.932)"/><path d="m0 0v-12.217c0-10.172-.591-19.683-.959-25.419h.146c1.404 4.752 3.914 11.969 5.394 16.232l7.306 21.404h8.793v-55.267h-8.494v12.465c0 11.068.368 19.27.591 24.842h-.146c-1.112-5.001-3.323-11.64-4.95-16.233l-7.312-21.074h-8.939v55.267z" transform="translate(658.0427 491.8552)"/><path d="m0 0c-.515.083-1.105.248-1.919.248-4.504 0-6.429-4.015-6.429-8.202 0-5.248 2.808-8.609 7.02-8.609.591 0 .813 0 1.328.083zm-20.013-46.9c.661 1.64 1.328 3.774 1.919 5.903 1.328 5.578 1.328 13.284 5.019 17.63.89 1.067 2.218 1.969 3.545 2.376v.165c-5.241 1.805-8.564 6.315-8.564 13.285 0 5.66 1.919 9.593 4.581 12.052 3.176 2.872 7.604 4.104 12.63 4.104 3.691 0 7.529-.331 10.559-1.067v-54.448h-9.676v22.059h-1.036c-1.696 0-3.024-.737-3.983-2.052-2.147-3.031-2.516-11.068-3.329-15.172-.368-1.639-.737-3.278-1.398-4.835z" transform="translate(703.132 483.4882)"/></g></g></svg>