<svg height="983.03998" viewBox="0 0 983.03998 983.03998" width="983.03998" xmlns="http://www.w3.org/2000/svg" xmlns:xlink="http://www.w3.org/1999/xlink"><clipPath id="a"><path d="m0 737.28h737.28v-737.28h-737.28z"/></clipPath><g transform="matrix(1.3333333 0 0 -1.3333333 0 983.04)"><path d="m0 0h737.28v737.28h-737.28z" fill="#ef412a"/><path d="m729.573 7.69h-721.866v721.901h721.866z" fill="#ef412a"/><g clip-path="url(#a)" fill="#fff"><path d="m0 0c-47.694 0-86.485 38.804-86.485 86.493 0 47.695 38.791 86.496 86.485 86.496 47.697 0 86.497-38.801 86.497-86.496 0-47.689-38.8-86.493-86.497-86.493m166.108 250.69h-89.717c-.614 0-1.139-.509-1.139-1.144v-29.813c0-.64.525-1.148 1.139-1.148h35.725l-39.668-39.676c-19.981 15.698-45.121 25.093-72.448 25.093-64.787 0-117.51-52.713-117.51-117.509 0-59.657 44.697-109.026 102.343-116.495v-34.353h-35.387c-.657 0-1.157-.508-1.157-1.135v-31.955c0-.635.5-1.142 1.157-1.142h35.387v-33.807c0-.632.509-1.14 1.139-1.14h31.94c.635 0 1.157.508 1.157 1.14v33.807h35.383c.631 0 1.139.507 1.139 1.142v31.955c0 .627-.508 1.135-1.139 1.135h-35.383v34.912c55.753 9.144 98.435 57.635 98.435 115.936 0 25.15-7.96 48.457-21.461 67.588l39.102 39.109v-33.368c0-.631.526-1.139 1.156-1.139h29.807c.64 0 1.165.508 1.165 1.139v89.724c0 .635-.525 1.144-1.165 1.144" transform="translate(367.4489 205.7467)"/><path d="m0 0h-104.909c-.631 0-1.139-.467-1.139-1.023v-25.397c0-.596.508-1.043 1.139-1.043h104.909c.652 0 1.161.447 1.161 1.043v25.397c0 .556-.509 1.023-1.161 1.023" transform="translate(420.2799 327.7434)"/><path d="m0 0h-104.909c-.631 0-1.139-.479-1.139-1.058v-25.397c0-.57.508-1.025 1.139-1.025h104.909c.652 0 1.161.455 1.161 1.025v25.397c0 .579-.509 1.058-1.161 1.058" transform="translate(420.2799 282.3939)"/><path d="m0 0c-9.655 0-16.743-3.43-20.607-10.089h-.219v36.282h42.081v19.963h-64.396v-82.012h22.315v3.233c0 8.586 3.872 13.308 10.732 13.308 7.518 0 10.532-5.16 10.532-13.106v-35.204c0-7.732-2.795-13.094-10.312-13.094-8.376 0-11.372 5.58-11.372 14.163v18.25h-22.342v-16.529c0-22.11 8.805-36.281 33.714-36.281 24.689 0 34.774 13.093 34.774 33.276v35.637c0 22.973-11.802 32.203-24.9 32.203" transform="translate(127.5899 623.0091)"/><path d="m0 0v-9.349h-13.298v-45.918h-9.676v55.267z" transform="translate(228.4251 667.0096)"/><path d="m0 0h-11.373v-14.921h12.853v-9.349h-22.529v55.267h21.64v-9.349h-11.964v-12.709h11.373z" transform="translate(253.9842 636.0124)"/><path d="m0 0v-22.141h10.121v22.141h9.676v-55.267h-9.676v23.123h-10.121v-23.123h-9.676v55.267z" transform="translate(270.998 667.0096)"/><path d="m0 0c0-6.315-.369-12.71-1.182-18.615-.591-3.936-1.48-8.199-2.509-11.56h10.851v36.569h-7.16zm16.766 15.743v-46.083l3.914-.165-.445-21.071h-7.313l-.369 12.052h-21.638l-.369-12.052h-7.389l-.368 21.071 3.545.165c1.55 4.18 2.585 8.364 3.399 12.875.959 6.312 1.404 12.789 1.404 19.27v13.938z" transform="translate(312.5104 651.2664)"/><path d="m0 0h-11.372v-14.921h12.853v-9.349h-22.529v55.267h21.639v-9.349h-11.963v-12.709h11.372z" transform="translate(359.0601 636.0124)"/><path d="m0 0c.445-.165.96-.165 1.55-.165 4.88 0 7.091 3.853 7.091 9.022 0 4.838-1.773 8.608-6.277 8.608-.883 0-1.773-.165-2.364-.41zm-9.676 25.093c2.733.653 6.43 1.063 10.121 1.063 5.762 0 10.267-.901 13.514-4.262 2.954-2.872 4.288-7.462 4.288-12.135 0-5.988-1.627-10.169-4.212-13.285-3.101-3.609-8.127-5.248-12.116-5.248h-1.919v-20.581h-9.676z" transform="translate(375.9724 641.0979)"/><path d="m0 0v-22.141h10.121v22.141h9.676v-55.267h-9.676v23.123h-10.121v-23.123h-9.676v55.267z" transform="translate(408.8127 667.0096)"/><path d="m0 0c0-12.544 2.141-18.942 6.054-18.942 4.06 0 5.61 8.198 5.61 19.434 0 9.676-1.328 18.45-5.686 18.45-3.837 0-5.978-7.052-5.978-18.942m21.785.984c0-20.828-6.646-29.272-16.099-29.272-11.302 0-15.731 13.281-15.731 28.45 0 15.089 5.388 28.125 16.392 28.125 12.039 0 15.438-14.675 15.438-27.303" transform="translate(444.2195 639.3765)"/><path d="m0 0h-11.372v-14.921h12.853v-9.349h-22.529v55.267h21.639v-9.349h-11.963v-12.709h11.372z" transform="translate(492.6183 636.0124)"/><path d="m0 0c.445-.165.96-.165 1.55-.165 4.873 0 7.09 3.853 7.09 9.022 0 4.838-1.772 8.608-6.276 8.608-.883 0-1.773-.165-2.364-.41zm-9.676 25.089c2.732.658 6.43 1.068 10.121 1.068 5.762 0 10.267-.902 13.513-4.263 2.954-2.872 4.282-7.462 4.282-12.135 0-5.988-1.62-10.168-4.206-13.284-3.1-3.609-8.125-5.249-12.115-5.249h-1.919v-20.581h-9.676z" transform="translate(215.1274 554.5125)"/><path d="m0 0-1.62 11.563c-.521 3.361-1.182 8.853-1.627 12.545h-.222c-.514-3.692-1.258-9.432-1.773-12.627l-1.849-11.481zm-8.049-8.364-2.218-12.627h-9.378l10.782 55.267h11.595l9.676-55.267h-9.378l-2.141 12.627z" transform="translate(252.7136 546.1488)"/><path d="m0 0c.591-.165 1.258-.165 2.141-.165 3.914 0 7.167 2.623 7.167 8.281 0 5.496-3.4 8.364-7.237 8.447h-2.071zm0 24.517h2.071c3.469 0 6.125 3.279 6.125 7.789 0 4.019-1.697 7.132-5.686 7.132-1.029 0-1.919-.08-2.51-.328zm-9.676 21.89c2.954.741 6.798 1.068 11.004 1.068 4.657 0 9.161-.655 12.63-3.936 2.662-2.459 3.767-6.15 3.767-10.003 0-4.921-2.286-9.676-7.236-12.053v-.33c5.763-1.804 8.863-7.131 8.863-13.202 0-4.59-1.328-8.116-3.691-10.823-2.954-3.608-7.98-5.574-16.321-5.574-3.698 0-6.799.244-9.016.574z" transform="translate(279.5302 533.1946)"/><path d="m0 0h-11.373v-14.924h12.853v-9.349h-22.529v55.268h21.64v-9.35h-11.964v-12.709h11.373z" transform="translate(325.5218 549.4303)"/><path d="m0 0v-22.142h10.12v22.142h9.676v-55.267h-9.676v23.122h-10.12v-23.122h-9.676v55.267z" transform="translate(342.5421 580.4248)"/><path d="m0 0c-1.405-.737-4.136-1.312-7.535-1.312-12.701 0-18.755 11.646-18.755 27.306 0 20.826 10.413 28.946 20.089 28.946 3.392 0 5.756-.74 6.722-1.477l-1.627-9.019c-1.112.572-2.363 1.064-4.504 1.064-5.471 0-10.413-5.247-10.413-18.942 0-13.199 4.505-18.367 10.413-18.367 1.62 0 3.469.41 4.65.819z" transform="translate(393.9654 525.9771)"/><path d="m0 0h-8.793v9.924h27.332v-9.924h-8.863v-45.344h-9.676z" transform="translate(405.9222 570.501)"/><path d="m0 0c.591-.165 1.258-.165 2.141-.165 3.913 0 7.166 2.623 7.166 8.281 0 5.496-3.398 8.364-7.236 8.447h-2.071zm0 24.517h2.071c3.469 0 6.124 3.279 6.124 7.789 0 4.019-1.696 7.132-5.686 7.132-1.029 0-1.918-.08-2.509-.328zm-9.676 21.89c2.954.741 6.798 1.068 11.004 1.068 4.657 0 9.161-.655 12.63-3.936 2.662-2.459 3.768-6.15 3.768-10.003 0-4.921-2.288-9.676-7.237-12.053v-.33c5.762-1.804 8.863-7.131 8.863-13.202 0-4.59-1.328-8.116-3.691-10.823-2.955-3.608-7.98-5.574-16.322-5.574-3.698 0-6.798.244-9.015.574z" transform="translate(438.6414 533.1946)"/><path d="m0 0c0-12.548 2.141-18.942 6.054-18.942 4.06 0 5.61 8.199 5.61 19.435 0 9.676-1.328 18.446-5.686 18.446-3.837 0-5.978-7.049-5.978-18.939m21.785.985c0-20.829-6.646-29.276-16.099-29.276-11.302 0-15.731 13.285-15.731 28.453 0 15.089 5.388 28.126 16.392 28.126 12.039 0 15.438-14.676 15.438-27.303" transform="translate(471.8434 552.7911)"/></g></g></svg>