<svg height="983.03998" viewBox="0 0 983.03998 983.03998" width="983.03998" xmlns="http://www.w3.org/2000/svg" xmlns:xlink="http://www.w3.org/1999/xlink"><clipPath id="a"><path d="m0 737.28h737.28v-737.28h-737.28z"/></clipPath><g transform="matrix(1.3333333 0 0 -1.3333333 0 983.04)"><path d="m0 0h737.28v737.28h-737.28z" fill="#f36e24"/><path d="m729.577 7.694h-721.875v721.892h721.875z" fill="#f36e24"/><g clip-path="url(#a)" fill="#fff"><path d="m0 0-65.288-37.679v75.369l65.288 37.695zm-215.677-37.679v69.642l60.314-34.827zm-9.92 0-65.278 37.679v75.385l65.278-37.695zm70.234 208.483-60.314-34.829v69.65zm80.154-34.826-60.306 34.826 60.306 34.821zm-60.306-52.001 65.266 37.676 65.286-37.674-65.286-37.694zm-14.884 8.593-60.314 34.814 60.314 34.828zm70.226 34.812-60.306-34.811v69.641zm-70.226-121.653-60.317 34.827 60.317 34.829zm157.84 82.547-72.729 41.973v83.969c0 1.773-.943 3.41-2.48 4.298l-75.191 43.412c-1.537.884-3.423.884-4.96 0l-75.198-43.412c-1.537-.888-2.48-2.525-2.48-4.298v-83.969l-72.718-41.973c-1.537-.887-2.48-2.525-2.48-4.297v-86.843c0-1.773.943-3.411 2.48-4.298l75.198-43.406c.769-.442 1.622-.664 2.48-.664s1.712.222 2.48.664l72.718 41.975 72.71-41.975c.769-.442 1.623-.664 2.48-.664.858 0 1.712.221 2.481.664l75.209 43.406c1.537.886 2.48 2.525 2.48 4.298v86.843c0 1.772-.943 3.412-2.48 4.297" transform="translate(523.0414 141.731)"/><path d="m0 0c-.429-8.148-3.859-13.297-11.583-13.297-8.358 0-11.586 5.149-11.586 14.594v25.316c0 9.226 3.425 14.586 11.801 14.586 8.152 0 11.368-5.575 11.368-14.586zm24.256 22.316c0 22.536-9.878 38.837-35.624 38.837-25.969 0-36.045-14.154-36.045-36.686v-21.459c0-23.82 9.432-35.833 27.038-35.833 10.299 0 16.516 4.727 20.165 11.795h.21v-31.317c0-8.797-3.434-15.024-12.227-15.024-8.801 0-12.016 5.152-12.016 14.165v9.651h-22.32v-7.728c0-21.452 7.732-36.471 34.77-36.471 25.737 0 36.049 16.522 36.049 39.268z" transform="translate(107.5948 610.1476)"/><path d="m0 0v-12.218c0-10.167-.585-19.679-.95-25.419h.146c1.385 4.756 3.866 11.97 5.327 16.236l7.224 21.401h8.682v-55.267h-8.393v12.465c0 11.067.365 19.266.584 24.844h-.145c-1.093-5.003-3.282-11.645-4.889-16.235l-7.224-21.074h-8.828v55.267z" transform="translate(176.1033 668.0781)"/><path d="m0 0v-22.142h9.997v22.142h9.558v-55.267h-9.558v23.123h-9.997v-23.123h-9.559v55.267z" transform="translate(212.9966 668.0781)"/><path d="m0 0c0-6.315-.362-12.71-1.166-18.615-.584-3.936-1.458-8.198-2.48-11.559h10.724v36.569h-7.078zm16.563 15.744v-46.083l3.869-.166-.438-21.071h-7.224l-.365 12.053h-21.379l-.365-12.053h-7.293l-.366 21.071 3.501.166c1.534 4.18 2.554 8.363 3.357 12.874.947 6.312 1.385 12.789 1.385 19.27v13.939z" transform="translate(253.3458 652.3343)"/><path d="m0 0 4.523-20.829c.658-3.117 1.24-6.395 1.605-8.853h.219c.439 2.623.731 5.984 1.169 9.1l3.282 20.582h9.704l-7.297-29.438c-1.677-6.969-3.573-14.514-6.054-19.269-2.335-4.346-5.912-7.214-9.997-7.214-1.677 0-2.919.162-3.866.489l.365 8.774c.435-.083 1.166-.245 2.335-.245 2.481 0 4.523 2.868 5.251 5.575.365 1.15.293 2.049-.073 3.281l-11.455 38.047z" transform="translate(283.6508 668.0781)"/><path d="m0 0c-1.385-.737-4.085-1.312-7.443-1.312-12.547 0-18.532 11.642-18.532 27.306 0 20.826 10.289 28.943 19.847 28.943 3.355 0 5.689-.737 6.639-1.474l-1.604-9.022c-1.096.575-2.334 1.067-4.453 1.067-5.397 0-10.286-5.247-10.286-18.942 0-13.199 4.45-18.367 10.286-18.367 1.607 0 3.43.41 4.599.823z" transform="translate(329.2514 613.6304)"/><path d="m0 0h-8.681v9.924h26.995v-9.924h-8.755v-45.343h-9.559z" transform="translate(340.3853 658.1543)"/><path d="m0 0c.438-.165.95-.165 1.531-.165 4.816 0 7.005 3.853 7.005 9.021 0 4.838-1.751 8.609-6.201 8.609-.877 0-1.75-.166-2.335-.41zm-9.558 25.092c2.7.654 6.347 1.064 9.996 1.064 5.69 0 10.144-.902 13.352-4.263 2.919-2.872 4.231-7.462 4.231-12.134 0-5.989-1.604-10.169-4.158-13.285-3.065-3.609-8.024-5.248-11.967-5.248h-1.896v-20.581h-9.558z" transform="translate(372.05 642.1665)"/><path d="m0 0v-12.218c0-10.167-.584-19.679-.95-25.419h.147c1.385 4.756 3.865 11.97 5.326 16.236l7.224 21.401h8.682v-55.267h-8.393v12.465c0 11.067.366 19.266.585 24.844h-.146c-1.093-5.003-3.282-11.645-4.889-16.235l-7.224-21.074h-8.827v55.267z" transform="translate(402.7329 668.0781)"/><path d="m0 0-1.604 11.563c-.512 3.361-1.166 8.853-1.605 12.545h-.219c-.511-3.692-1.242-9.432-1.75-12.627l-1.827-11.481zm-7.951-8.364-2.189-12.627h-9.266l10.651 55.267h11.455l9.559-55.267h-9.267l-2.115 12.627z" transform="translate(446.3324 633.8021)"/><path d="m0 0v-55.267h-9.558v45.918h-7.294v-14.597c0-12.709-.73-23.859-6.932-29.272-1.826-1.64-4.161-2.703-6.569-2.703l-2.042 9.101c1.169.327 2.407.981 3.284 1.966 2.847 3.281 3.501 9.184 3.501 19.927v24.927z" transform="translate(491.9486 668.0781)"/><path d="m0 0v-12.218c0-10.167-.584-19.679-.95-25.419h.147c1.385 4.756 3.865 11.97 5.326 16.236l7.224 21.401h8.682v-55.267h-8.393v12.465c0 11.067.366 19.266.585 24.844h-.146c-1.093-5.003-3.282-11.645-4.889-16.235l-7.224-21.074h-8.828v55.267z" transform="translate(507.2884 668.0781)"/><path d="m0 0c2.116 1.642 6.204 3.199 10.873 3.199 9.34 0 13.717-6.395 13.717-13.612 0-5.658-3.358-11.15-8.32-12.545v-.165c5.766-1.312 9.778-6.229 9.778-13.856 0-10.578-8.024-16.398-16.855-16.398-4.085 0-7.659 1.064-9.921 2.459l1.385 8.773c2.116-1.394 4.889-2.214 7.589-2.214 5.108 0 7.805 3.279 7.805 7.707 0 6.15-4.524 8.612-9.701 8.612h-1.388v8.116h.949c4.378 0 8.756 2.379 8.756 7.462 0 3.853-2.116 6.477-6.202 6.477-2.261 0-4.962-1.064-6.858-2.297z" transform="translate(532.3524 665.5337)"/><path d="m0 0-1.604 11.563c-.512 3.361-1.166 8.853-1.605 12.545h-.219c-.511-3.692-1.242-9.432-1.75-12.627l-1.827-11.481zm-7.951-8.364-2.189-12.627h-9.266l10.651 55.267h11.455l9.559-55.267h-9.266l-2.116 12.627z" transform="translate(578.9659 633.8021)"/><path d="m0 0v-45.918h9.705v45.918h9.558v-46.083l3.866-.166-.438-21.07h-7.224l-.436 12.052h-24.589v55.267z" transform="translate(604.7982 668.0781)"/><path d="m0 0v-12.218c0-10.167-.585-19.679-.95-25.419h.146c1.385 4.756 3.866 11.97 5.327 16.236l7.224 21.401h8.682v-55.267h-8.393v12.465c0 11.067.365 19.266.585 24.844h-.147c-1.092-5.003-3.281-11.645-4.888-16.235l-7.224-21.074h-8.828v55.267z" transform="translate(640.5068 668.0781)"/><path d="m0 0c-.508.083-1.093.245-1.896.245-4.451 0-6.347-4.019-6.347-8.199 0-5.248 2.773-8.609 6.931-8.609.585 0 .804 0 1.312.08zm-19.772-46.902c.658 1.638 1.313 3.77 1.897 5.902 1.312 5.578 1.312 13.284 4.962 17.63.874 1.067 2.189 1.969 3.501 2.379v.162c-5.178 1.804-8.463 6.315-8.463 13.285 0 5.657 1.896 9.593 4.524 12.052 3.138 2.872 7.515 4.101 12.477 4.101 3.647 0 7.443-.327 10.432-1.064v-54.447h-9.558v22.058h-1.019c-1.681 0-2.993-.74-3.943-2.053-2.116-3.033-2.478-11.067-3.281-15.168-.365-1.638-.731-3.281-1.389-4.837z" transform="translate(684.3854 659.7137)"/><path d="m0 0c2.116 6.807 4.085 15.333 4.889 21.814l9.701.819c-2.189-7.379-5.251-15.991-8.462-21.893z" transform="translate(697.1015 602.5603)"/><path d="m0 0v-12.22c0-10.166-.591-19.676-.962-25.42h.149c1.404 4.759 3.914 11.97 5.39 16.239l7.313 21.401h8.79v-55.27h-8.494v12.465c0 11.067.368 19.269.591 24.847h-.15c-1.109-5.006-3.323-11.645-4.946-16.239l-7.313-21.073h-8.939v55.27z" transform="translate(176.2588 581.4928)"/><path d="m0 0v-22.144h10.12v22.144h9.673v-55.27h-9.673v23.126h-10.12v-23.126h-9.676v55.27z" transform="translate(214.277 581.4928)"/><path d="m0 0v-22.144h10.118v22.144h9.676v-55.27h-9.676v23.126h-10.118v-23.126h-9.673v55.27z" transform="translate(251.37 581.4928)"/><path d="m0 0c0-12.548 2.141-18.945 6.058-18.945 4.063 0 5.613 8.202 5.613 19.434 0 9.676-1.331 18.451-5.686 18.451-3.844 0-5.985-7.053-5.985-18.94m21.788.985c0-20.833-6.648-29.276-16.102-29.276-11.299 0-15.73 13.285-15.73 28.45 0 15.089 5.394 28.129 16.398 28.129 12.039 0 15.434-14.679 15.434-27.303" transform="translate(286.7735 553.859)"/><path d="m0 0c.591-.165 1.255-.165 2.144-.165 3.914 0 7.164 2.624 7.164 8.285 0 5.495-3.399 8.36-7.24 8.443h-2.068zm0 24.517h2.068c3.472 0 6.131 3.279 6.131 7.79 0 4.021-1.7 7.134-5.686 7.134-1.036 0-1.922-.083-2.513-.33zm-9.673 21.894c2.954.74 6.792 1.067 11.004 1.067 4.65 0 9.158-.654 12.63-3.936 2.656-2.458 3.764-6.153 3.764-10.003 0-4.924-2.289-9.676-7.236-12.052v-.33c5.76-1.805 8.863-7.135 8.863-13.202 0-4.594-1.331-8.12-3.695-10.827-2.954-3.608-7.976-5.571-16.321-5.571-3.691 0-6.795.241-9.009.572z" transform="translate(323.8035 534.2592)"/><path d="m0 0-1.623 11.563c-.518 3.361-1.182 8.857-1.623 12.548h-.223c-.518-3.691-1.258-9.435-1.773-12.63l-1.848-11.481zm-8.05-8.36-2.213-12.631h-9.381l10.781 55.27h11.598l9.673-55.27h-9.378l-2.141 12.631z" transform="translate(365.0583 547.2134)"/><path d="m0 0v-45.918h9.822v45.918h9.676v-46.083l3.913-.166-.441-21.074h-7.313l-.441 12.053h-24.892v55.27z" transform="translate(391.8755 581.4928)"/><path d="m0 0v-12.22c0-10.166-.591-19.676-.963-25.42h.15c1.404 4.759 3.913 11.97 5.39 16.239l7.313 21.401h8.79v-55.27h-8.495v12.465c0 11.067.369 19.269.592 24.847h-.15c-1.109-5.006-3.322-11.645-4.946-16.239l-7.313-21.073h-8.939v55.27z" transform="translate(428.6862 581.4928)"/><path d="m0 0v-12.22c0-10.166-.591-19.676-.962-25.42h.149c1.404 4.759 3.914 11.97 5.39 16.239l7.314 21.401h8.789v-55.27h-8.494v12.465c0 11.067.368 19.269.591 24.847h-.15c-1.109-5.006-3.322-11.645-4.946-16.239l-7.312-21.073h-8.94v55.27z" transform="translate(465.5984 581.4928)"/><path d="m0 0v-12.22c0-10.166-.591-19.676-.959-25.42h.149c1.401 4.759 3.914 11.97 5.391 16.239l7.312 21.401h8.787v-55.27h-8.491v12.465c0 11.067.368 19.269.591 24.847h-.15c-1.105-5.006-3.322-11.645-4.949-16.239l-7.309-21.073h-8.936v55.27z" transform="translate(518.2046 581.4928)"/><path d="m0 0v-12.217c0-10.165-.591-19.676-.962-25.42h.149c1.404 4.759 3.914 11.97 5.39 16.239l7.313 21.398h8.79v-55.267h-8.494v12.465c0 11.068.368 19.269.591 24.848h-.15c-1.109-5.007-3.323-11.646-4.946-16.24l-7.313-21.073h-8.939v55.267z" transform="translate(176.2588 494.9074)"/><path d="m0 0v-22.141h10.12v22.141h9.673v-55.267h-9.673v23.126h-10.12v-23.126h-9.676v55.267z" transform="translate(214.277 494.9074)"/><path d="m0 0c3.25.743 6.131 5.165 6.131 17.547 0 12.548-3.323 16.563-6.131 17.307zm-8.418 34.854c-2.955-.985-6.131-5.413-6.131-17.631 0-11.397 3.103-16.48 6.131-17.223zm8.491 11.969v-4.18c8.939-1.315 15.734-9.105 15.734-25.013 0-16.97-6.871-24.104-15.734-25.502v-4.504h-8.564v4.504c-9.013 1.481-15.734 8.532-15.734 25.254 0 16.239 8.052 23.946 15.807 25.261v4.18z" transform="translate(263.4987 450.0536)"/><path d="m0 0c.445-.165.96-.165 1.55-.165 4.876 0 7.091 3.85 7.091 9.021 0 4.835-1.773 8.609-6.277 8.609-.886 0-1.773-.165-2.364-.413zm-9.676 25.089c2.735.654 6.426 1.067 10.121 1.067 5.76 0 10.267-.902 13.513-4.263 2.955-2.872 4.285-7.465 4.285-12.134 0-5.992-1.623-10.172-4.208-13.285-3.104-3.609-8.126-5.248-12.112-5.248h-1.923v-20.584h-9.676z" transform="translate(294.2193 468.999)"/><path d="m0 0-1.626 11.563c-.518 3.361-1.183 8.857-1.627 12.548h-.219c-.518-3.691-1.255-9.435-1.773-12.63l-1.846-11.481zm-8.053-8.36-2.214-12.631h-9.38l10.784 55.267h11.595l9.676-55.267h-9.381l-2.144 12.631z" transform="translate(331.8055 460.6313)"/><path d="m0 0c-1.404-.737-4.136-1.309-7.532-1.309-12.703 0-18.761 11.645-18.761 27.306 0 20.826 10.416 28.946 20.089 28.946 3.399 0 5.762-.744 6.722-1.481l-1.623-9.015c-1.109.572-2.364 1.061-4.508 1.061-5.464 0-10.413-5.248-10.413-18.939 0-13.202 4.504-18.367 10.413-18.367 1.626 0 3.472.406 4.653.82z" transform="translate(372.2185 440.4603)"/><path d="m0 0h-8.79v9.924h27.329v-9.924h-8.863v-45.343h-9.676z" transform="translate(384.1688 484.9835)"/><path d="m0 0c.444-.165.959-.165 1.55-.165 4.876 0 7.09 3.85 7.09 9.021 0 4.835-1.772 8.609-6.277 8.609-.886 0-1.772-.165-2.363-.413zm-9.676 25.089c2.735.654 6.426 1.067 10.12 1.067 5.76 0 10.268-.902 13.514-4.263 2.954-2.872 4.285-7.465 4.285-12.134 0-5.992-1.623-10.172-4.209-13.285-3.103-3.609-8.125-5.248-12.112-5.248h-1.922v-20.584h-9.676z" transform="translate(416.8946 468.999)"/><path d="m0 0 4.581-20.826c.664-3.12 1.255-6.398 1.626-8.856h.219c.445 2.623.741 5.984 1.182 9.104l3.326 20.578h9.822l-7.385-29.435c-1.7-6.969-3.619-14.517-6.131-19.269-2.364-4.346-5.982-7.217-10.118-7.217-1.699 0-2.954.165-3.913.489l.368 8.774c.442-.077 1.181-.242 2.363-.242 2.51 0 4.578 2.865 5.318 5.572.368 1.15.296 2.052-.077 3.284l-11.594 38.044z" transform="translate(446.2211 494.9074)"/><path d="m0 0v-24.022h.74l8.123 24.022h10.635l-11.445-25.584c5.095-2.129 6.794-7.294 8.198-14.022 1.106-5.33 1.919-10.579 3.396-15.661h-9.676c-1.182 3.939-1.918 8.45-2.731 12.796-1.183 6.474-2.514 10.654-6.5 10.654h-.74v-23.45h-9.453v55.267z" transform="translate(479.9761 494.9074)"/><path d="m0 0h-8.789v9.924h27.328v-9.924h-8.863v-45.343h-9.676z" transform="translate(510.8334 484.9835)"/><path d="m0 0 4.578-20.826c.664-3.12 1.254-6.398 1.623-8.856h.223c.444 2.623.74 5.984 1.181 9.104l3.323 20.578h9.825l-7.386-29.435c-1.699-6.969-3.621-14.517-6.13-19.269-2.363-4.346-5.982-7.217-10.118-7.217-1.7 0-2.954.165-3.917.489l.372 8.774c.441-.077 1.182-.242 2.363-.242 2.51 0 4.578 2.865 5.318 5.572.369 1.15.295 2.052-.073 3.284l-11.598 38.044z" transform="translate(541.761 494.9074)"/><path d="m0 0c.445-.165.96-.165 1.55-.165 4.876 0 7.091 3.85 7.091 9.021 0 4.835-1.773 8.609-6.277 8.609-.886 0-1.773-.165-2.364-.413zm-9.676 25.089c2.735.654 6.426 1.067 10.121 1.067 5.759 0 10.267-.902 13.513-4.263 2.954-2.872 4.285-7.465 4.285-12.134 0-5.992-1.623-10.172-4.208-13.285-3.104-3.609-8.126-5.248-12.113-5.248h-1.922v-20.584h-9.676z" transform="translate(575.7319 468.999)"/><path d="m0 0-1.623 11.563c-.518 3.361-1.182 8.857-1.624 12.548h-.222c-.518-3.691-1.258-9.435-1.773-12.63l-1.849-11.481zm-8.05-8.36-2.214-12.631h-9.381l10.782 55.267h11.598l9.673-55.267h-9.378l-2.141 12.631z" transform="translate(613.3182 460.6313)"/></g></g></svg>