<svg height="983.03998" viewBox="0 0 983.03998 983.03998" width="983.03998" xmlns="http://www.w3.org/2000/svg" xmlns:xlink="http://www.w3.org/1999/xlink"><clipPath id="a"><path d="m0 737.28h737.28v-737.28h-737.28z"/></clipPath><g transform="matrix(1.3333333 0 0 -1.3333333 0 983.04)"><path d="m0 0h737.28v737.28h-737.28z" fill="#2c9a47"/><path d="m729.56 7.709h-721.84v721.862h721.84z" fill="#2c9a47"/><g clip-path="url(#a)" fill="#fff"><path d="m0 0c0 20.311-13.033 36.778-32.773 36.778-9.869 0-21.776-10.809-28.242-17.457-6.466 6.656-17.584 17.475-27.458 17.475-19.74 0-33.574-16.469-33.574-36.788 0-10.156 4-19.349 10.474-26.01l50.602-50.694 50.531 50.637-.039.037c6.475 6.659 10.479 15.861 10.479 26.022" transform="translate(616.3529 278.4495)"/><path d="m0 0c-.171 0-.342.004-.517.016-3.846.233-7.023 3.088-7.675 6.888l-25.702 149.696-38.936-72.188c-1.704-3.163-5.265-4.864-8.766-4.236-3.535.629-6.259 3.452-6.772 7.001l-16.528 115.529-30.24-67.926c-1.337-2.997-4.311-4.929-7.593-4.929h-117.535c-4.591 0-8.31 3.721-8.31 8.309s3.719 8.309 8.31 8.309h112.138l39.778 89.345c1.506 3.383 5.068 5.357 8.739 4.85 3.667-.512 6.554-3.386 7.079-7.053l17.041-119.123 38.397 71.191c1.683 3.128 5.157 4.837 8.661 4.256 3.496-.572 6.242-3.301 6.843-6.794l23.801-138.642 86.751 288.165c.99 3.281 3.89 5.62 7.303 5.888 3.425.254 6.654-1.586 8.139-4.672l45.647-94.631c1.994-4.133.258-9.098-3.872-11.092-4.131-1.995-9.103-.261-11.097 3.873l-36.364 75.388-90.769-301.504c-1.06-3.529-4.306-5.914-7.951-5.914" transform="translate(400.9171 118.9928)"/><path d="m0 0c24.694 0 35.422 13.101 35.422 33.273v21.464c0 13.309-5.795 21.902-18.03 24.687 10.088 3.216 16.743 11.38 16.743 23.613v12.667c0 20.607-9.875 33.271-32.414 33.271-25.337 0-34.138-15.019-34.138-36.489v-12.877h22.323v14.809c0 9.015 2.8 14.163 10.528 14.163 7.731 0 10.509-5.148 10.509-13.09v-15.672c0-7.73-5.148-11.802-13.085-11.802h-9.239v-18.685h10.312c8.582 0 12.012-4.072 12.012-11.802v-24.044c0-7.721-3.43-13.098-10.943-13.098-8.372 0-11.381 5.587-11.381 14.171v20.822h-22.311v-19.1c0-22.116 8.792-36.281 33.692-36.281" transform="translate(109.48 521.5887)"/><path d="m0 0-3.177 10.168c-.959 3.196-1.772 6.312-2.659 9.838h-.145c-.814-3.526-1.627-6.887-2.364-10.003l-2.659-10.003h-9.603l9.308 28.288-8.936 26.979h10.117l2.882-10.251c.81-2.869 1.474-5.74 2.287-8.857h.149c.81 3.365 1.401 5.988 2.068 9.022l2.509 10.086h9.677l-9.308-27.471 9.825-27.796z" transform="translate(201.4684 611.7428)"/><path d="m0 0c0-12.544 2.141-18.942 6.058-18.942 4.063 0 5.613 8.198 5.613 19.434 0 9.676-1.331 18.45-5.686 18.45-3.844 0-5.985-7.052-5.985-18.942m21.788.984c0-20.828-6.648-29.272-16.102-29.272-11.299 0-15.73 13.281-15.73 28.45 0 15.089 5.394 28.125 16.398 28.125 12.039 0 15.434-14.675 15.434-27.303" transform="translate(222.0083 639.3765)"/><path d="m0 0c.445-.165.963-.165 1.554-.165 4.872 0 7.09 3.853 7.09 9.022 0 4.838-1.773 8.608-6.28 8.608-.887 0-1.773-.165-2.364-.41zm-9.673 25.093c2.732.653 6.423 1.063 10.118 1.063 5.759 0 10.263-.901 13.516-4.262 2.955-2.872 4.282-7.462 4.282-12.135 0-5.988-1.626-10.169-4.209-13.285-3.103-3.609-8.126-5.248-12.112-5.248h-1.922v-20.581h-9.673z" transform="translate(259.0382 641.0979)"/><path d="m0 0c0-12.544 2.141-18.942 6.058-18.942 4.063 0 5.613 8.198 5.613 19.434 0 9.676-1.331 18.45-5.686 18.45-3.844 0-5.985-7.052-5.985-18.942m21.788.984c0-20.828-6.648-29.272-16.102-29.272-11.299 0-15.73 13.281-15.73 28.45 0 15.089 5.394 28.125 16.398 28.125 12.039 0 15.434-14.675 15.434-27.303" transform="translate(290.7569 639.3765)"/><path d="m0 0v-45.918h8.049v45.918h9.454v-45.918h8.05v45.918h9.529v-55.267h-44.612v55.267z" transform="translate(327.714 667.0096)"/><path d="m0 0h-11.375v-14.921h12.853v-9.349h-22.529v55.267h21.642v-9.349h-11.966v-12.709h11.375z" transform="translate(391.4779 636.0124)"/><path d="m0 0h-11.375v-14.921h12.852v-9.349h-22.528v55.267h21.642v-9.349h-11.966v-12.709h11.375z" transform="translate(419.8709 636.0124)"/><path d="m0 0c2.144 1.643 6.28 3.199 11.007 3.199 9.454 0 13.885-6.395 13.885-13.612 0-5.657-3.399-11.15-8.421-12.544v-.166c5.835-1.311 9.898-6.229 9.898-13.856 0-10.578-8.126-16.398-17.062-16.398-4.136 0-7.754 1.064-10.044 2.459l1.404 8.774c2.141-1.395 4.949-2.214 7.681-2.214 5.168 0 7.903 3.278 7.903 7.706 0 6.15-4.58 8.612-9.825 8.612h-1.401v8.116h.96c4.431 0 8.862 2.379 8.862 7.462 0 3.854-2.141 6.477-6.277 6.477-2.29 0-5.025-1.064-6.944-2.296z" transform="translate(439.9835 664.4652)"/><path d="m0 0c0-6.315-.371-12.71-1.181-18.615-.591-3.936-1.478-8.199-2.513-11.56h10.858v36.569h-7.164zm16.763 15.743v-46.083l3.917-.165-.445-21.071h-7.309l-.372 12.052h-21.639l-.368-12.052h-7.386l-.369 21.071 3.545.165c1.551 4.18 2.583 8.364 3.396 12.875.96 6.312 1.404 12.789 1.404 19.27v13.938z" transform="translate(486.2952 651.2664)"/><path d="m0 0c0-12.544 2.141-18.942 6.058-18.942 4.062 0 5.613 8.198 5.613 19.434 0 9.676-1.331 18.45-5.686 18.45-3.844 0-5.985-7.052-5.985-18.942m21.788.984c0-20.828-6.648-29.272-16.102-29.272-11.299 0-15.731 13.281-15.731 28.45 0 15.089 5.394 28.125 16.398 28.125 12.039 0 15.435-14.675 15.435-27.303" transform="translate(519.2402 639.3765)"/><path d="m0 0c.444-.165.962-.165 1.553-.165 4.873 0 7.09 3.853 7.09 9.022 0 4.838-1.772 8.608-6.279 8.608-.887 0-1.773-.165-2.364-.41zm-9.673 25.093c2.732.653 6.423 1.063 10.117 1.063 5.76 0 10.264-.901 13.517-4.262 2.955-2.872 4.282-7.462 4.282-12.135 0-5.988-1.626-10.169-4.209-13.285-3.103-3.609-8.125-5.248-12.112-5.248h-1.922v-20.581h-9.673z" transform="translate(556.2702 641.0979)"/><path d="m0 0c0-12.544 2.141-18.942 6.058-18.942 4.062 0 5.613 8.198 5.613 19.434 0 9.676-1.331 18.45-5.686 18.45-3.844 0-5.985-7.052-5.985-18.942m21.788.984c0-20.828-6.648-29.272-16.102-29.272-11.299 0-15.731 13.281-15.731 28.45 0 15.089 5.394 28.125 16.398 28.125 12.039 0 15.435-14.675 15.435-27.303" transform="translate(587.9888 639.3765)"/><path d="m0 0c.591-.165 1.254-.165 2.144-.165 3.913 0 7.163 2.624 7.163 8.281 0 5.493-3.398 8.364-7.239 8.447h-2.068zm0 24.517h2.068c3.472 0 6.13 3.278 6.13 7.789 0 4.019-1.699 7.132-5.685 7.132-1.036 0-1.922-.08-2.513-.328zm-9.673 21.894c2.954.736 6.792 1.063 11.004 1.063 4.65 0 9.158-.654 12.63-3.935 2.656-2.459 3.765-6.151 3.765-10.003 0-4.921-2.291-9.676-7.237-12.056v-.327c5.759-1.804 8.863-7.132 8.863-13.202 0-4.59-1.331-8.116-3.695-10.823-2.954-3.608-7.976-5.575-16.321-5.575-3.692 0-6.795.245-9.009.575z" transform="translate(625.0188 619.7799)"/><path d="m0 0c.668-.165 1.258-.165 1.849-.165 4.946 0 7.459 4.183 7.459 9.183 0 5.003-2.44 8.939-7.09 8.939-.813 0-1.627-.082-2.218-.248zm-.073 46.902v-20.58c.813.162 1.922.244 3.914.244 9.453 0 15.511-6.312 15.511-16.89 0-5.496-1.477-9.514-4.063-12.548-3.472-3.936-8.789-5.902-15.953-5.902-3.694 0-6.795.244-9.012.575v55.101z" transform="translate(659.5069 620.1072)"/><path d="m0 0h-11.375v-14.921h12.852v-9.349h-22.525v55.267h21.639v-9.349h-11.966v-12.709h11.375z" transform="translate(704.9455 636.0124)"/><path d="m0 0v-12.218c0-10.168-.591-19.679-.96-25.419h.15c1.401 4.756 3.913 11.969 5.391 16.236l7.312 21.401h8.787v-55.267h-8.492v12.462c0 11.07.369 19.269.591 24.847h-.149c-1.105-5.003-3.322-11.645-4.949-16.235l-7.31-21.074h-8.935v55.267z" transform="translate(193.9335 580.4248)"/><path d="m0 0c.667-.165 1.331-.165 2.141-.165 2.29 0 4.136.985 5.318 2.623 1.257 1.64 1.849 3.937 1.849 6.398 0 2.541-.668 4.839-1.923 6.395-1.254 1.639-3.027 2.706-5.168 2.706-.813 0-1.55-.082-2.217-.247zm15.731 46.903v-9.184h-15.804v-11.563c1.404.328 2.513.41 3.913.41 4.286 0 8.053-1.477 10.785-4.101 2.954-2.868 4.727-7.214 4.727-12.789 0-5.33-1.478-9.593-4.136-12.548-3.399-4.015-8.717-5.902-15.88-5.902-3.694 0-6.795.244-9.012.575v55.102z" transform="translate(247.6515 533.5218)"/><path d="m0 0v-55.267h-9.676v45.918h-7.386v-14.597c0-12.709-.74-23.859-7.017-29.272-1.846-1.64-4.209-2.706-6.646-2.706l-2.067 9.104c1.181.327 2.436.981 3.322 1.966 2.882 3.281 3.545 9.183 3.545 19.927v24.927z" transform="translate(301.597 580.4248)"/><path d="m0 0-1.626 11.563c-.518 3.361-1.182 8.853-1.627 12.545h-.219c-.518-3.692-1.254-9.432-1.772-12.627l-1.846-11.481zm-8.053-8.364-2.214-12.627h-9.38l10.784 55.267h11.595l9.676-55.267h-9.38l-2.144 12.627z" transform="translate(325.6818 546.1488)"/><path d="m0 0v-9.349h-13.295v-45.918h-9.672v55.267z" transform="translate(365.7903 580.4248)"/><path d="m0 0c0-12.548 2.141-18.942 6.058-18.942 4.063 0 5.613 8.199 5.613 19.435 0 9.676-1.331 18.446-5.686 18.446-3.844 0-5.985-7.049-5.985-18.939m21.789.985c0-20.829-6.649-29.276-16.102-29.276-11.3 0-15.731 13.285-15.731 28.453 0 15.089 5.394 28.126 16.397 28.126 12.04 0 15.436-14.676 15.436-27.303" transform="translate(377.7276 552.7911)"/><path d="m0 0v-55.267h-9.673v45.918h-9.898v-45.918h-9.673v55.267z" transform="translate(434.3288 580.4248)"/><path d="m0 0c0-12.548 2.144-18.942 6.058-18.942 4.06 0 5.613 8.199 5.613 19.435 0 9.676-1.331 18.446-5.689 18.446-3.838 0-5.982-7.049-5.982-18.939m21.788.985c0-20.829-6.645-29.276-16.099-29.276-11.302 0-15.733 13.285-15.733 28.453 0 15.089 5.39 28.126 16.398 28.126 12.036 0 15.434-14.676 15.434-27.303" transform="translate(449.9419 552.7911)"/><path d="m0 0v-55.267h-9.676v45.918h-7.386v-14.597c0-12.709-.74-23.859-7.017-29.272-1.846-1.64-4.209-2.706-6.645-2.706l-2.068 9.104c1.181.327 2.436.981 3.322 1.966 2.882 3.281 3.545 9.183 3.545 19.927v24.927z" transform="translate(505.7395 580.4248)"/><path d="m0 0 4.578-20.829c.663-3.117 1.254-6.395 1.623-8.857h.222c.444 2.624.74 5.988 1.181 9.105l3.324 20.581h9.825l-7.386-29.438c-1.7-6.969-3.622-14.514-6.131-19.27-2.363-4.345-5.982-7.216-10.117-7.216-1.7 0-2.955.165-3.917.491l.372 8.775c.441-.08 1.181-.245 2.363-.245 2.509 0 4.578 2.868 5.317 5.575.369 1.147.296 2.049-.072 3.281l-11.598 38.047z" transform="translate(519.9201 580.4248)"/><path d="m0 0v-18.368c0-4.51 1.554-7.709 5.467-7.709 1.404 0 3.028.492 3.986 1.15v24.927h9.531v-55.267h-9.531v22.059h-.219c-2.29-1.151-4.507-1.888-7.09-1.888-8.567 0-11.671 6.395-11.671 15.496v19.6z" transform="translate(553.554 580.4248)"/><path d="m0 0v-12.218c0-10.168-.591-19.679-.962-25.419h.149c1.404 4.756 3.914 11.969 5.39 16.236l7.314 21.401h8.789v-55.267h-8.494v12.462c0 11.07.368 19.269.591 24.847h-.15c-1.109-5.003-3.322-11.645-4.946-16.235l-7.312-21.074h-8.94v55.267z" transform="translate(588.7318 580.4248)"/><path d="m0 0h-11.375v-14.924h12.853v-9.349h-22.529v55.268h21.642v-9.35h-11.966v-12.709h11.375z" transform="translate(638.1252 549.4303)"/></g></g></svg>