<svg height="983.03998" viewBox="0 0 983.03998 983.03998" width="983.03998" xmlns="http://www.w3.org/2000/svg" xmlns:xlink="http://www.w3.org/1999/xlink"><clipPath id="a"><path d="m0 737.28h737.28v-737.28h-737.28z"/></clipPath><g transform="matrix(1.3333333 0 0 -1.3333333 0 983.04)"><path d="m0 0h737.28v737.28h-737.28z" fill="#e01a83"/><path d="m729.577 7.691h-721.875v721.896h721.875z" fill="#e01a83"/><g fill="#fff"><path d="m0 0v-111.529h24.497v145.699h-19.56l-22.556-26.434v-25.579h.206l17.189 17.843z" transform="translate(77.0813 635.0015)"/><g clip-path="url(#a)"><path d="m0 0v78.228c0 8.81 3.22 15.044 11.604 15.044 8.595 0 11.815-6.234 11.815-15.044v-78.228c0-8.814-3.22-15.033-11.815-15.033-8.384 0-11.604 6.219-11.604 15.033m47.92 3.868v70.494c0 22.78-11.386 39.322-36.316 39.322-24.707 0-36.11-16.542-36.11-39.322v-70.494c0-22.556 11.403-39.322 36.11-39.322 24.93 0 36.316 16.766 36.316 39.322" transform="translate(143.051 557.2047)"/><path d="m0 0 4.581-20.83c.666-3.116 1.257-6.394 1.626-8.853h.222c.438 2.624.737 5.985 1.182 9.101l3.323 20.582h9.822l-7.389-29.438c-1.696-6.969-3.615-14.514-6.131-19.269-2.363-4.346-5.978-7.214-10.114-7.214-1.703 0-2.954.162-3.914.489l.369 8.773c.444-.082 1.182-.244 2.362-.244 2.511 0 4.582 2.868 5.319 5.575.368 1.15.292 2.049-.076 3.281l-11.595 38.047z" transform="translate(231.9592 668.0801)"/><path d="m0 0c-.223 5.248-.592 12.379-.445 18.285h-.223c-.883-5.906-2.217-12.71-3.177-16.973l-4.282-19.762h-6.867l-4.137 19.434c-.959 4.426-2.286 11.316-3.03 17.301h-.223c-.145-5.985-.437-12.955-.736-18.45l-.813-19.187h-8.342l3.615 55.267h10.19l3.991-20.01c1.404-6.969 2.662-13.119 3.544-19.348h.153c.737 6.15 1.842 12.379 3.17 19.348l3.921 20.01h10.19l3.023-55.267h-8.639z" transform="translate(285.8478 632.1651)"/><path d="m0 0h-11.373v-14.92h12.852v-9.349h-22.528v55.267h21.64v-9.349h-11.964v-12.71h11.373z" transform="translate(322.7092 637.0821)"/><path d="m0 0v-22.142h10.12v22.142h9.677v-55.267h-9.677v23.123h-10.12v-23.123h-9.677v55.267z" transform="translate(339.7297 668.0801)"/><path d="m0 0c.667-.165 1.258-.165 1.849-.165 4.949 0 7.459 4.184 7.459 9.184 0 5.003-2.441 8.939-7.091 8.939-.813 0-1.626-.083-2.217-.248zm-.076 46.903v-20.581c.812.162 1.925.244 3.92.244 9.453 0 15.509-6.312 15.509-16.89 0-5.495-1.482-9.514-4.067-12.548-3.469-3.935-8.787-5.901-15.947-5.901-3.697 0-6.798.244-9.015.574v55.102z" transform="translate(376.8195 621.1768)"/><path d="m0 0v-45.918h8.05v45.918h9.453v-45.918h8.05v45.918h9.529v-55.267h-44.612v55.267z" transform="translate(410.7336 668.0801)"/><path d="m0 0h-11.372v-14.92h12.852v-9.349h-22.528v55.267h21.639v-9.349h-11.963v-12.71h11.372z" transform="translate(474.4943 637.0821)"/><path d="m0 0v-22.142h10.121v22.142h9.676v-55.267h-9.676v23.123h-10.121v-23.123h-9.676v55.267z" transform="translate(491.5139 668.0801)"/><path d="m0 0v-12.218c0-10.168-.591-19.679-.96-25.419h.147c1.404 4.756 3.913 11.97 5.387 16.236l7.313 21.401h8.793v-55.267h-8.494v12.465c0 11.067.368 19.266.589 24.844h-.145c-1.111-5.003-3.329-11.645-4.949-16.235l-7.313-21.074h-8.938v55.267z" transform="translate(527.506 668.0801)"/><path d="m0 0h-11.372v-14.92h12.852v-9.349h-22.528v55.267h21.639v-9.349h-11.963v-12.71h11.372z" transform="translate(576.8957 637.0821)"/><path d="m0 0v-22.144h10.121v22.144h9.676v-55.27h-9.676v23.126h-10.121v-23.126h-9.676v55.27z" transform="translate(236.3176 581.4947)"/><path d="m0 0h-11.373v-14.923h12.853v-9.352h-22.529v55.27h21.64v-9.349h-11.964v-12.713h11.373z" transform="translate(284.7863 550.5001)"/><path d="m0 0c.444-.166.959-.166 1.55-.166 4.873 0 7.09 3.851 7.09 9.022 0 4.835-1.773 8.609-6.277 8.609-.883 0-1.773-.165-2.363-.413zm-9.677 25.088c2.733.659 6.43 1.068 10.121 1.068 5.763 0 10.267-.902 13.514-4.263 2.954-2.872 4.281-7.465 4.281-12.135 0-5.99-1.619-10.171-4.205-13.284-3.1-3.609-8.126-5.248-12.116-5.248h-1.918v-20.584h-9.677z" transform="translate(301.6926 555.5831)"/><path d="m0 0-1.621 11.563c-.521 3.361-1.181 8.856-1.626 12.548h-.222c-.514-3.692-1.259-9.435-1.773-12.631l-1.849-11.48zm-8.05-8.36-2.218-12.631h-9.377l10.782 55.27h11.594l9.676-55.27h-9.377l-2.14 12.631z" transform="translate(339.2785 547.2154)"/><path d="m0 0c.591-.166 1.258-.166 2.141-.166 3.914 0 7.167 2.625 7.167 8.286 0 5.495-3.4 8.36-7.237 8.443h-2.071zm0 24.518h2.071c3.469 0 6.125 3.277 6.125 7.789 0 4.021-1.696 7.134-5.686 7.134-1.03 0-1.919-.083-2.51-.33zm-9.676 21.892c2.954.741 6.798 1.068 11.004 1.068 4.657 0 9.161-.654 12.63-3.936 2.662-2.459 3.768-6.153 3.768-10.003 0-4.924-2.288-9.676-7.237-12.052v-.331c5.763-1.804 8.863-7.135 8.863-13.201 0-4.594-1.328-8.121-3.691-10.827-2.954-3.608-7.979-5.571-16.321-5.571-3.698 0-6.799.241-9.016.571z" transform="translate(366.0949 534.2613)"/><path d="m0 0h-11.372v-14.923h12.852v-9.352h-22.528v55.27h21.639v-9.349h-11.963v-12.713h11.372z" transform="translate(412.0861 550.5001)"/><path d="m0 0v-22.144h10.12v22.144h9.677v-55.27h-9.677v23.126h-10.12v-23.126h-9.676v55.27z" transform="translate(429.1066 581.4947)"/><path d="m0 0c-1.404-.737-4.137-1.309-7.535-1.309-12.701 0-18.755 11.645-18.755 27.307 0 20.825 10.412 28.945 20.089 28.945 3.392 0 5.756-.741 6.722-1.478l-1.626-9.018c-1.113.572-2.364 1.061-4.505 1.061-5.471 0-10.413-5.248-10.413-18.94 0-13.201 4.504-18.366 10.413-18.366 1.62 0 3.468.406 4.65.819z" transform="translate(480.5305 527.0445)"/><path d="m0 0h-8.793v9.927h27.332v-9.927h-8.862v-45.343h-9.677z" transform="translate(492.4865 571.5674)"/><path d="m0 0c.591-.166 1.258-.166 2.141-.166 3.914 0 7.166 2.625 7.166 8.286 0 5.495-3.399 8.36-7.237 8.443h-2.07zm0 24.518h2.07c3.469 0 6.125 3.277 6.125 7.789 0 4.021-1.696 7.134-5.686 7.134-1.03 0-1.918-.083-2.509-.33zm-9.676 21.892c2.954.741 6.798 1.068 11.004 1.068 4.656 0 9.161-.654 12.63-3.936 2.661-2.459 3.768-6.153 3.768-10.003 0-4.924-2.288-9.676-7.237-12.052v-.331c5.762-1.804 8.863-7.135 8.863-13.201 0-4.594-1.328-8.121-3.692-10.827-2.954-3.608-7.979-5.571-16.321-5.571-3.698 0-6.798.241-9.015.571z" transform="translate(525.2062 534.2613)"/><path d="m0 0-1.619 11.563c-.522 3.361-1.183 8.856-1.627 12.548h-.223c-.514-3.692-1.258-9.435-1.772-12.631l-1.849-11.48zm-8.049-8.36-2.218-12.631h-9.378l10.783 55.27h11.594l9.676-55.27h-9.377l-2.141 12.631z" transform="translate(566.4572 547.2154)"/><path d="m0 0h-132.996c-.8 0-1.445-.726-1.445-1.614v-39.97c0-.907.645-1.624 1.445-1.624h132.996c.815 0 1.462.717 1.462 1.624v39.97c0 .888-.647 1.614-1.462 1.614" transform="translate(435.6476 255.8419)"/><path d="m0 0h-132.996c-.8 0-1.445-.726-1.445-1.614v-39.971c0-.906.645-1.623 1.445-1.623h132.996c.815 0 1.462.717 1.462 1.623v39.971c0 .888-.647 1.614-1.462 1.614" transform="translate(435.6476 340.8907)"/><path d="m0 0-63.839 63.838c-.431.432-1.129.432-1.559 0l-63.839-63.838c-.695-.695-.203-1.883.779-1.883h127.678c.983 0 1.474 1.188.78 1.883" transform="translate(433.7766 401.3116)"/><path d="m0 0 63.839 63.838c.431.431.431 1.129 0 1.559l-63.839 63.839c-.694.696-1.883.203-1.883-.779v-127.678c0-.982 1.189-1.474 1.883-.779" transform="translate(493.7062 212.1446)"/><path d="m0 0 63.839-63.839c.431-.431 1.129-.431 1.559 0l63.839 63.839c.695.694.203 1.883-.78 1.883h-127.678c-.982 0-1.473-1.189-.779-1.883" transform="translate(304.5392 152.2139)"/><path d="m0 0-63.838-63.839c-.432-.431-.432-1.129 0-1.559l63.838-63.838c.695-.696 1.883-.203 1.883.779v127.678c0 .982-1.188 1.474-1.883.779" transform="translate(244.6086 341.381)"/></g></g></g></svg>