<svg height="983.03998" viewBox="0 0 983.03998 983.03998" width="983.03998" xmlns="http://www.w3.org/2000/svg" xmlns:xlink="http://www.w3.org/1999/xlink"><clipPath id="a"><path d="m0 737.28h737.28v-737.28h-737.28z"/></clipPath><g transform="matrix(1.3333333 0 0 -1.3333333 0 983.04)"><path d="m0 0h737.28v737.28h-737.28z" fill="#8f1738"/><path d="m729.577 7.692h-721.875v721.896h721.875z" fill="#8f1738"/><g clip-path="url(#a)" fill="#fff"><path d="m0 0-73.372-69.798c-2.769-2.756-4.189-4.784-4.189-10.483v-195.622c0-2.296 1.875-4.174 4.189-4.174h75.79c2.309 0 4.176 1.878 4.176 4.174v274.142c0 2.309-1.806 6.523-6.594 1.761" transform="translate(505.0879 374.4314)"/><path d="m0 0-73.381-69.789c-2.761-2.76-4.184-4.784-4.184-10.474v-104.704c0-2.287 1.879-4.166 4.184-4.166h75.795c2.313 0 4.179 1.879 4.179 4.166v183.215c0 2.313-1.822 6.536-6.593 1.752" transform="translate(293.709 283.4956)"/><path d="m0 0c.026.556-.171 1.151-.623 1.59-.385.377-.879.552-1.357.596l-.403-.027-.6-.035-56.183-12.673-1.021-.105c-.403-.079-.784-.28-1.095-.574-.828-.837-.828-2.186 0-3.023l.635-.635 12.831-12.827-127.308-127.308-58.798 58.803c-.666.67-1.722.67-2.393 0l-15.954-15.96c-.013 0-.013-.017-.013-.017l-94.256-94.239c-.652-.665-.652-1.743 0-2.396l15.977-15.968c.652-.661 1.717-.661 2.374 0l93.082 93.06 42.668-42.672c.044-.066.066-.136.136-.202l15.959-15.941c.661-.671 1.726-.671 2.392 0l144.486 144.485 13.474-13.467c.828-.836 2.178-.836 2.997 0 .394.395.587.877.613 1.385l.009.179 12.34 57.353z" transform="translate(538.4388 459.0761)"/><path d="m0 0-35.502-35.795c-.674-.556-1.659-.538-2.286.088l-32.163 32.785c-5.888 5.866-7.159 1.109-7.159-1.196v-168.592c0-2.295 1.849-4.175 4.154-4.175h75.813c2.295 0 4.17 1.88 4.17 4.175v171.387c0 2.304-1.819 6.536-7.027 1.323" transform="translate(399.8148 271.2473)"/><path d="m0 0c0-8.805-3.22-15.03-12.016-15.03-8.595 0-11.81 6.225-11.81 15.03v23.617c0 8.796 3.215 15.026 11.81 15.026 8.796 0 12.016-6.23 12.016-15.026zm-22.972 80.497c0 8.813 3.014 13.965 10.956 13.965 8.148 0 11.162-5.152 11.162-13.965v-9.866c0-8.801-3.014-13.966-11.162-13.966-7.942 0-10.956 5.165-10.956 13.966zm47.447-77.921v15.889c0 13.948-4.932 24.041-16.313 29.198 9.651 4.713 14.167 13.299 14.167 25.325v6.019c0 22.754-11.806 34.988-34.345 34.988-22.324 0-33.925-12.234-33.925-34.988v-6.019c0-11.811 4.302-20.612 13.738-25.325-11.376-5.157-16.103-15.25-16.103-29.198v-15.889c0-22.11 10.527-37.569 36.29-37.569 25.969 0 36.491 15.459 36.491 37.569" transform="translate(122.9655 556.5775)"/><path d="m0 0c0-6.315-.368-12.71-1.182-18.615-.59-3.936-1.477-8.198-2.512-11.559h10.857v36.569h-7.163zm16.767 15.744v-46.083l3.913-.166-.445-21.07h-7.312l-.369 12.052h-21.639l-.369-12.052h-7.385l-.372 21.07 3.545.166c1.554 4.18 2.586 8.363 3.399 12.874.96 6.312 1.404 12.789 1.404 19.27v13.939z" transform="translate(197.6298 652.3362)"/><path d="m0 0c0-12.544 2.144-18.942 6.057-18.942 4.061 0 5.614 8.198 5.614 19.434 0 9.676-1.331 18.45-5.69 18.45-3.837 0-5.981-7.052-5.981-18.942m21.788.985c0-20.829-6.645-29.273-16.099-29.273-11.302 0-15.734 13.282-15.734 28.45 0 15.089 5.391 28.126 16.399 28.126 12.036 0 15.434-14.676 15.434-27.303" transform="translate(230.5748 640.4464)"/><path d="m0 0c-1.401-.737-4.136-1.312-7.532-1.312-12.703 0-18.761 11.642-18.761 27.306 0 20.826 10.413 28.943 20.089 28.943 3.399 0 5.762-.737 6.721-1.474l-1.626-9.022c-1.106.575-2.363 1.067-4.504 1.067-5.464 0-10.413-5.247-10.413-18.942 0-13.199 4.504-18.367 10.413-18.367 1.626 0 3.472.41 4.653.822z" transform="translate(282.4937 613.6324)"/><path d="m0 0h-8.79v9.924h27.326v-9.924h-8.863v-45.343h-9.673z" transform="translate(294.4441 658.1562)"/><path d="m0 0c0-12.544 2.141-18.942 6.058-18.942 4.063 0 5.613 8.198 5.613 19.434 0 9.676-1.331 18.45-5.686 18.45-3.844 0-5.985-7.052-5.985-18.942m21.788.985c0-20.829-6.648-29.273-16.102-29.273-11.299 0-15.73 13.282-15.73 28.45 0 15.089 5.394 28.126 16.397 28.126 12.04 0 15.435-14.676 15.435-27.303" transform="translate(325.0634 640.4464)"/><path d="m0 0c.219-3.034 1.033-4.672 3.323-4.672 1.995 0 3.176 1.638 3.323 4.672h6.131c-.741-7.049-4.137-9.428-9.527-9.428-5.023 0-8.939 2.379-9.307 9.428zm-2.735-11.477v-12.218c0-10.167-.591-19.679-.96-25.419h.15c1.401 4.756 3.914 11.97 5.391 16.236l7.312 21.401h8.787v-55.267h-8.492v12.465c0 11.067.369 19.266.592 24.844h-.15c-1.105-5.002-3.322-11.645-4.949-16.235l-7.309-21.074h-8.936v55.267z" transform="translate(363.7197 679.5568)"/><path d="m0 0v-22.142h10.118v22.142h9.676v-55.267h-9.676v23.123h-10.118v-23.123h-9.673v55.267z" transform="translate(399.0055 668.0801)"/><path d="m0 0-1.626 11.563c-.518 3.361-1.183 8.853-1.627 12.545h-.219c-.518-3.692-1.255-9.432-1.773-12.627l-1.846-11.481zm-8.053-8.364-2.214-12.627h-9.381l10.785 55.267h11.595l9.676-55.267h-9.381l-2.144 12.627z" transform="translate(442.8846 633.804)"/><path d="m0 0c-.515.083-1.105.245-1.919.245-4.504 0-6.426-4.019-6.426-8.199 0-5.248 2.805-8.609 7.017-8.609.591 0 .813 0 1.328.079zm-20.013-46.902c.664 1.638 1.328 3.77 1.919 5.902 1.327 5.578 1.327 13.284 5.022 17.629.886 1.068 2.214 1.97 3.545 2.38v.162c-5.244 1.804-8.567 6.315-8.567 13.285 0 5.657 1.918 9.593 4.58 12.052 3.174 2.871 7.605 4.101 12.627 4.101 3.695 0 7.535-.327 10.563-1.064v-54.447h-9.676v22.058h-1.033c-1.699 0-3.027-.74-3.989-2.053-2.142-3.033-2.51-11.067-3.323-15.168-.369-1.639-.74-3.281-1.405-4.837z" transform="translate(478.0943 659.7157)"/><path d="m0 0c.444-.165.959-.165 1.55-.165 4.876 0 7.09 3.853 7.09 9.021 0 4.838-1.773 8.609-6.277 8.609-.886 0-1.772-.166-2.363-.41zm-9.677 25.092c2.736.654 6.427 1.064 10.121 1.064 5.76 0 10.267-.902 13.514-4.263 2.954-2.872 4.285-7.462 4.285-12.134 0-5.989-1.623-10.169-4.209-13.285-3.104-3.609-8.125-5.248-12.112-5.248h-1.922v-20.581h-9.677z" transform="translate(520.7324 642.1684)"/><path d="m0 0-1.623 11.563c-.518 3.361-1.182 8.853-1.623 12.545h-.223c-.518-3.692-1.258-9.432-1.773-12.627l-1.848-11.481zm-8.049-8.364-2.214-12.627h-9.381l10.781 55.267h11.598l9.673-55.267h-9.378l-2.141 12.627z" transform="translate(558.3179 633.804)"/><path d="m0 0c.667-.165 1.331-.165 2.141-.165 2.29 0 4.136.985 5.317 2.624 1.258 1.642 1.849 3.935 1.849 6.397 0 2.541-.667 4.839-1.922 6.395-1.255 1.639-3.027 2.706-5.168 2.706-.813 0-1.55-.082-2.217-.247zm15.73 46.903v-9.184h-15.803v-11.563c1.404.328 2.513.41 3.913.41 4.286 0 8.053-1.474 10.785-4.098 2.954-2.871 4.727-7.217 4.727-12.792 0-5.33-1.477-9.593-4.136-12.548-3.399-4.015-8.717-5.902-15.88-5.902-3.695 0-6.795.245-9.012.575v55.102z" transform="translate(585.1352 621.177)"/><path d="m0 0c0-12.544 2.141-18.942 6.058-18.942 4.063 0 5.613 8.198 5.613 19.434 0 9.676-1.331 18.45-5.686 18.45-3.844 0-5.985-7.052-5.985-18.942m21.789.985c0-20.829-6.649-29.273-16.102-29.273-11.3 0-15.731 13.282-15.731 28.45 0 15.089 5.394 28.126 16.398 28.126 12.039 0 15.435-14.676 15.435-27.303" transform="translate(618.1335 640.4464)"/><path d="m0 0h-8.79v9.924h27.325v-9.924h-8.862v-45.343h-9.673z" transform="translate(651.0467 658.1562)"/><path d="m0 0-1.626 11.563c-.518 3.361-1.182 8.853-1.627 12.545h-.219c-.518-3.692-1.254-9.432-1.772-12.627l-1.846-11.481zm-8.053-8.364-2.214-12.627h-9.38l10.784 55.267h11.595l9.676-55.267h-9.38l-2.145 12.627z" transform="translate(687.6381 633.804)"/><path d="m0 0v-12.22c0-10.165-.591-19.676-.962-25.42h.149c1.404 4.759 3.914 11.97 5.39 16.239l7.314 21.401h8.789v-55.27h-8.494v12.465c0 11.068.368 19.269.591 24.847h-.15c-1.109-5.006-3.322-11.645-4.946-16.239l-7.312-21.073h-8.94v55.27z" transform="translate(192.5345 581.4947)"/><path d="m0 0h13.59c-.074 5.737-2.586 13.526-9.085 13.526-2.069 0-4.063-.489-5.687-1.391l-2.214 8.611c2.141 1.147 5.168 2.377 9.232 2.377 14.326 0 17.649-15.906 17.649-28.536 0-16.893-7.383-28.043-18.685-28.043-3.914 0-7.091 1.232-8.787 2.134l1.773 8.933c1.55-.819 3.323-1.391 5.61-1.391 7.461 0 9.602 7.954 10.044 14.269h-13.44z" transform="translate(237.0183 559.0265)"/><path d="m0 0v-24.025h.736l8.127 24.025h10.635l-11.448-25.588c5.095-2.128 6.794-7.293 8.195-14.021 1.108-5.331 1.922-10.579 3.399-15.661h-9.676c-1.182 3.939-1.918 8.45-2.732 12.795-1.182 6.474-2.509 10.655-6.5 10.655h-.736v-23.45h-9.454v55.27z" transform="translate(275.3825 581.4947)"/><path d="m0 0c0-12.548 2.141-18.945 6.058-18.945 4.063 0 5.613 8.202 5.613 19.434 0 9.676-1.331 18.45-5.686 18.45-3.844 0-5.985-7.052-5.985-18.939m21.788.985c0-20.833-6.648-29.276-16.102-29.276-11.299 0-15.73 13.285-15.73 28.45 0 15.089 5.394 28.129 16.398 28.129 12.039 0 15.434-14.679 15.434-27.303" transform="translate(306.0811 553.861)"/><path d="m0 0v-22.144h10.118v22.144h9.676v-55.27h-9.676v23.126h-10.118v-23.126h-9.673v55.27z" transform="translate(343.1111 581.4947)"/><path d="m0 0c0-12.548 2.141-18.945 6.058-18.945 4.063 0 5.613 8.202 5.613 19.434 0 9.676-1.331 18.45-5.686 18.45-3.844 0-5.985-7.052-5.985-18.939m21.788.985c0-20.833-6.648-29.276-16.102-29.276-11.299 0-15.73 13.285-15.73 28.45 0 15.089 5.394 28.129 16.398 28.129 12.038 0 15.434-14.679 15.434-27.303" transform="translate(378.5146 553.861)"/><path d="m0 0c-.223 5.247-.591 12.382-.445 18.284h-.223c-.885-5.902-2.213-12.706-3.176-16.969l-4.282-19.765h-6.868l-4.136 19.435c-.959 4.428-2.29 11.315-3.03 17.299h-.22c-.149-5.984-.444-12.954-.74-18.449l-.813-19.187h-8.345l3.618 55.27h10.194l3.987-20.01c1.404-6.969 2.661-13.119 3.545-19.351h.149c.74 6.149 1.845 12.382 3.177 19.351l3.914 20.01h10.193l3.027-55.27h-8.643z" transform="translate(436.2659 545.5766)"/><path d="m0 0v-12.22c0-10.165-.591-19.676-.962-25.42h.149c1.404 4.759 3.914 11.97 5.39 16.239l7.313 21.401h8.79v-55.27h-8.494v12.465c0 11.068.368 19.269.591 24.847h-.15c-1.109-5.006-3.323-11.645-4.946-16.239l-7.312-21.073h-8.94v55.27z" transform="translate(460.6429 581.4947)"/><path d="m0 0v-18.37c0-4.511 1.55-7.707 5.464-7.707 1.404 0 3.027.489 3.99 1.15v24.927h9.527v-55.27h-9.527v22.058h-.223c-2.29-1.15-4.504-1.886-7.09-1.886-8.567 0-11.671 6.397-11.671 15.495v19.603z" transform="translate(497.0027 581.4947)"/><path d="m0 0h-11.376v-14.924h12.853v-9.351h-22.526v55.27h21.64v-9.349h-11.967v-12.713h11.376z" transform="translate(544.6585 550.5001)"/><path d="m0 0c-1.401-.737-4.136-1.309-7.532-1.309-12.703 0-18.761 11.645-18.761 27.306 0 20.826 10.413 28.946 20.089 28.946 3.399 0 5.762-.741 6.722-1.478l-1.627-9.018c-1.105.572-2.363 1.061-4.504 1.061-5.464 0-10.413-5.248-10.413-18.939 0-13.202 4.504-18.367 10.413-18.367 1.626 0 3.472.406 4.653.82z" transform="translate(575.7227 527.0444)"/><path d="m0 0v-24.025h.74l8.123 24.025h10.635l-11.445-25.588c5.095-2.128 6.794-7.293 8.198-14.021 1.106-5.331 1.919-10.579 3.396-15.661h-9.676c-1.181 3.939-1.918 8.45-2.731 12.795-1.182 6.474-2.513 10.655-6.5 10.655h-.74v-23.45h-9.453v55.27z" transform="translate(590.0587 581.4947)"/><path d="m0 0v-12.22c0-10.165-.591-19.676-.963-25.42h.15c1.404 4.759 3.913 11.97 5.39 16.239l7.313 21.401h8.79v-55.27h-8.495v12.465c0 11.068.369 19.269.591 24.847h-.149c-1.109-5.006-3.323-11.645-4.946-16.239l-7.313-21.073h-8.939v55.27z" transform="translate(622.4859 581.4947)"/><path d="m0 0c.219-3.034 1.032-4.672 3.323-4.672 1.995 0 3.177 1.638 3.323 4.672h6.131c-.741-7.052-4.136-9.428-9.527-9.428-5.022 0-8.939 2.376-9.307 9.428zm-2.735-11.477v-12.22c0-10.165-.591-19.676-.959-25.42h.149c1.401 4.759 3.914 11.97 5.391 16.239l7.313 21.401h8.786v-55.27h-8.491v12.465c0 11.068.368 19.269.591 24.847h-.15c-1.105-5.006-3.322-11.645-4.949-16.239l-7.309-21.073h-8.936v55.27z" transform="translate(662.1266 592.9715)"/><path d="m0 0c.445-.165.96-.165 1.55-.165 4.876 0 7.091 3.85 7.091 9.021 0 4.835-1.773 8.609-6.277 8.609-.886 0-1.773-.165-2.364-.413zm-9.676 25.089c2.735.654 6.426 1.067 10.121 1.067 5.76 0 10.267-.902 13.514-4.263 2.954-2.871 4.284-7.465 4.284-12.134 0-5.991-1.623-10.172-4.208-13.285-3.104-3.609-8.126-5.248-12.112-5.248h-1.923v-20.584h-9.676z" transform="translate(193.6398 469.0009)"/><path d="m0 0c0-12.548 2.144-18.945 6.058-18.945 4.06 0 5.613 8.202 5.613 19.434 0 9.676-1.331 18.45-5.689 18.45-3.838 0-5.982-7.052-5.982-18.939m21.789.985c0-20.832-6.646-29.276-16.1-29.276-11.302 0-15.733 13.285-15.733 28.45 0 15.089 5.39 28.126 16.398 28.126 12.036 0 15.435-14.676 15.435-27.3" transform="translate(225.3585 467.2789)"/><path d="m0 0c-1.401-.737-4.136-1.309-7.532-1.309-12.704 0-18.761 11.645-18.761 27.306 0 20.826 10.413 28.946 20.089 28.946 3.399 0 5.762-.744 6.722-1.481l-1.627-9.015c-1.105.572-2.363 1.061-4.504 1.061-5.464 0-10.413-5.248-10.413-18.939 0-13.202 4.504-18.367 10.413-18.367 1.626 0 3.472.406 4.653.819z" transform="translate(277.2775 440.4623)"/><path d="m0 0h-8.79v9.924h27.325v-9.924h-8.862v-45.343h-9.673z" transform="translate(289.2278 484.9855)"/></g></g></svg>