<svg height="983.03998" viewBox="0 0 983.03998 983.03998" width="983.03998" xmlns="http://www.w3.org/2000/svg" xmlns:xlink="http://www.w3.org/1999/xlink"><clipPath id="a"><path d="m0 737.28h737.28v-737.28h-737.28z"/></clipPath><g transform="matrix(1.3333333 0 0 -1.3333333 0 983.04)"><path d="m0 0h737.28v737.28h-737.28z" fill="#d19f29"/><path d="m729.577 7.69h-721.875v721.901h721.875z" fill="#d19f29"/><g clip-path="url(#a)" fill="#fff"><path d="m0 0v-10.15c-.009-.07-.035-.154-.035-.228 0-.087.026-.166.035-.241.105-2.51 2.155-4.512 4.683-4.56.03 0 .057-.018.092-.018s.079.018.118.018h119.078c.03 0 .065-.018.1-.018s.07.018.105.018c2.602.048 4.678 2.164 4.696 4.766 0 .009.018.018.018.035 0 0-.018.018-.018.035v11.487c67.034 21.974 117.25 76.304 128.295 142.514.026.14.043.271.065.394.04.232.066.442.066.665 0 2.664-2.147 4.815-4.815 4.815h-377.247-2.269c-2.676 0-4.827-2.151-4.827-4.815l.25-2.163c11.599-66.842 63.196-121.474 131.61-142.554" transform="translate(295.8587 116.1823)"/><path d="m0 0c-1.564-2.226-38.23-55.014.819-97.699 17.908-19.591 16.354-36.877 11.241-48.552h25.049c5.073 17.238 2.979 38.857-17.356 61.076-28.773 31.454.368 73.969.806 74.626 3.435 4.849 1.594 11.101-4.066 14.019-5.681 2.899-13.045 1.349-16.493-3.47" transform="translate(424.6214 427.6922)"/><path d="m0 0h25.058c5.064 17.243 2.961 38.854-17.374 61.076-28.781 31.459.337 73.952.798 74.648 3.416 4.828 1.607 11.071-4.075 13.997-5.66 2.891-13.037 1.354-16.471-3.47-1.573-2.217-38.271-55.013.814-97.699 17.909-19.595 16.349-36.886 11.25-48.552" transform="translate(361.184 281.4408)"/><path d="m0 0c-1.586-2.226-38.253-55.014.806-97.699 17.917-19.6 16.366-36.886 11.267-48.552h25.049c5.064 17.229 2.97 38.849-17.382 61.076-28.782 31.454.359 73.969.819 74.644 3.404 4.831 1.59 11.083-4.092 14.001-5.66 2.917-13.033 1.357-16.467-3.47" transform="translate(273.6046 427.6922)"/><path d="m0 0h-40.145v6.869c0 11.372 4.083 15.67 10.303 22.324l15.666 16.529c12.665 13.523 15.46 22.109 15.46 36.715v14.167c0 20.816-10.093 30.7-31.988 30.7-21.462 0-32.414-11.381-32.414-31.778v-17.593h22.329v18.246c0 8.791 4.293 11.376 9.449 11.376 4.714 0 8.796-1.936 8.796-10.951v-12.021c0-12.029-1.077-16.752-9.015-25.119l-13.747-14.597c-13.3-14.176-18.241-23.621-18.241-37.998v-26.836h63.547z" transform="translate(146.5289 543.5078)"/><path d="m0 0v-55.267h-9.676v45.918h-7.385v-14.596c0-12.71-.741-23.86-7.017-29.272-1.846-1.64-4.21-2.704-6.646-2.704l-2.068 9.101c1.182.327 2.436.981 3.323 1.966 2.881 3.282 3.545 9.184 3.545 19.927v24.927z" transform="translate(236.9933 667.0096)"/><path d="m0 0v-12.217c0-10.169-.591-19.679-.96-25.419h.15c1.401 4.755 3.913 11.969 5.391 16.235l7.312 21.401h8.787v-55.267h-8.492v12.465c0 11.068.369 19.267.592 24.845h-.15c-1.105-5.004-3.322-11.646-4.949-16.236l-7.31-21.074h-8.935v55.267z" transform="translate(253.188 667.0096)"/><path d="m0 0v-24.024h.74l8.123 24.024h10.635l-11.445-25.584c5.095-2.132 6.794-7.297 8.198-14.022 1.106-5.33 1.919-10.578 3.396-15.661h-9.676c-1.182 3.936-1.918 8.447-2.731 12.792-1.183 6.478-2.514 10.658-6.5 10.658h-.74v-23.45h-9.454v55.267z" transform="translate(290.9837 667.0096)"/><path d="m0 0c.591-.165 1.258-.165 2.141-.165 3.916 0 7.166 2.624 7.166 8.281 0 5.493-3.399 8.364-7.239 8.447h-2.068zm0 24.517h2.068c3.472 0 6.13 3.278 6.13 7.789 0 4.019-1.699 7.132-5.686 7.132-1.035 0-1.921-.08-2.512-.328zm-9.676 21.894c2.954.736 6.798 1.063 11.007 1.063 4.654 0 9.158-.654 12.627-3.935 2.662-2.459 3.767-6.151 3.767-10.003 0-4.921-2.287-9.676-7.236-12.056v-.327c5.759-1.804 8.863-7.132 8.863-13.202 0-4.59-1.331-8.116-3.695-10.823-2.954-3.608-7.976-5.575-16.321-5.575-3.695 0-6.795.245-9.012.575z" transform="translate(324.5161 619.7799)"/><path d="m0 0v-12.217c0-10.169-.591-19.679-.959-25.419h.149c1.401 4.755 3.914 11.969 5.391 16.235l7.313 21.401h8.786v-55.267h-8.491v12.465c0 11.068.368 19.267.591 24.845h-.15c-1.105-5.004-3.322-11.646-4.949-16.236l-7.309-21.074h-8.936v55.267z" transform="translate(358.0291 667.0096)"/><path d="m0 0c0-6.315-.369-12.71-1.182-18.615-.591-3.936-1.477-8.199-2.513-11.56h10.858v36.569h-7.163zm16.766 15.743v-46.083l3.914-.165-.445-21.071h-7.313l-.368 12.052h-21.639l-.369-12.052h-7.385l-.372 21.071 3.545.165c1.554 4.18 2.585 8.364 3.399 12.875.959 6.312 1.404 12.789 1.404 19.27v13.938z" transform="translate(400.4692 651.2664)"/><path d="m0 0-1.623 11.563c-.518 3.361-1.182 8.853-1.624 12.545h-.222c-.518-3.692-1.258-9.432-1.773-12.628l-1.849-11.48zm-8.05-8.364-2.214-12.627h-9.381l10.782 55.267h11.598l9.673-55.267h-9.378l-2.141 12.627z" transform="translate(443.5443 632.7341)"/><path d="m0 0v-45.918h9.822v45.918h9.676v-46.083l3.914-.165-.442-21.071h-7.312l-.442 12.052h-24.892v55.267z" transform="translate(470.3609 667.0096)"/><path d="m0 0v-12.217c0-10.169-.591-19.679-.962-25.419h.149c1.404 4.755 3.914 11.969 5.391 16.235l7.312 21.401h8.79v-55.267h-8.494v12.465c0 11.068.368 19.267.591 24.845h-.149c-1.11-5.004-3.324-11.646-4.947-16.236l-7.312-21.074h-8.939v55.267z" transform="translate(507.1716 667.0096)"/><path d="m0 0c-.518.083-1.109.245-1.919.245-4.507 0-6.426-4.019-6.426-8.2 0-5.247 2.808-8.608 7.017-8.608.591 0 .81 0 1.328.079zm-20.016-46.903c.667 1.639 1.331 3.771 1.922 5.902 1.331 5.579 1.331 13.285 5.022 17.631.886 1.067 2.217 1.969 3.545 2.379v.162c-5.244 1.804-8.567 6.315-8.567 13.284 0 5.658 1.922 9.594 4.578 12.053 3.176 2.871 7.607 4.1 12.63 4.1 3.694 0 7.535-.327 10.562-1.063v-54.448h-9.676v22.058h-1.032c-1.7 0-3.031-.739-3.99-2.052-2.142-3.033-2.51-11.067-3.323-15.168-.369-1.639-.737-3.281-1.404-4.838z" transform="translate(552.2641 658.6458)"/><path d="m0 0v-9.349h-13.294v-45.918h-9.676v55.267z" transform="translate(232.1172 580.4248)"/><path d="m0 0c0-12.548 2.144-18.942 6.057-18.942 4.061 0 5.614 8.199 5.614 19.435 0 9.676-1.331 18.446-5.69 18.446-3.837 0-5.981-7.049-5.981-18.939m21.788.985c0-20.829-6.645-29.276-16.099-29.276-11.302 0-15.734 13.285-15.734 28.453 0 15.089 5.391 28.126 16.398 28.126 12.037 0 15.435-14.676 15.435-27.303" transform="translate(244.0553 552.7911)"/><path d="m0 0v-55.267h-9.677v45.918h-7.385v-14.597c0-12.709-.74-23.859-7.017-29.272-1.846-1.64-4.209-2.706-6.646-2.706l-2.068 9.104c1.182.327 2.437.981 3.323 1.966 2.881 3.281 3.545 9.183 3.545 19.927v24.927z" transform="translate(299.8529 580.4248)"/><path d="m0 0c0-12.548 2.141-18.942 6.057-18.942 4.063 0 5.614 8.199 5.614 19.435 0 9.676-1.331 18.446-5.686 18.446-3.844 0-5.985-7.049-5.985-18.939m21.788.985c0-20.829-6.649-29.276-16.102-29.276-11.299 0-15.731 13.285-15.731 28.453 0 15.089 5.394 28.126 16.398 28.126 12.039 0 15.435-14.676 15.435-27.303" transform="translate(315.4628 552.7911)"/><path d="m0 0c0-6.315-.371-12.71-1.181-18.615-.591-3.936-1.478-8.198-2.513-11.559h10.858v36.568h-7.164zm16.763 15.744v-46.084l3.917-.165-.445-21.071h-7.309l-.372 12.052h-21.639l-.368-12.052h-7.386l-.369 21.071 3.545.165c1.551 4.18 2.583 8.364 3.396 12.875.96 6.312 1.404 12.789 1.404 19.266v13.943z" transform="translate(356.482 564.681)"/><path d="m0 0-1.626 11.563c-.518 3.361-1.182 8.853-1.627 12.545h-.219c-.518-3.692-1.254-9.432-1.772-12.627l-1.846-11.481zm-8.053-8.364-2.214-12.627h-9.38l10.784 55.267h11.595l9.676-55.267h-9.38l-2.145 12.627z" transform="translate(399.5603 546.1488)"/></g></g></svg>