<svg viewBox="0 0 720 720" xmlns="http://www.w3.org/2000/svg"><path d="m-1.08-1.08h722.16v722.16h-722.16z" fill="#0a97d9"/><g fill="#fff"><path d="m49.12 88.93c-4.12 2.21-15.81 5.44-19.89 7.48v-19.55c5.44-2.21 20.57-9.52 25.67-15.13h20.57v137.7h-26.35z"/><path d="m130 167.13h-41.85v-20.4l35.87-85h30.43v85.51h13.43v19.89h-13.43v32.3h-24.45zm0-19.89v-58.48l-21.08 58.48z"/><path d="m229.73 61.63h12.42c12.8 0 16.7 5.13 16.7 16.38v19.17c0 11.57-4 17.1-16.31 17.1h-12.81zm12.55 45.95c6.56 0 6.82-3.51 6.82-10.07v-20.15c0-6.31-.65-8.91-6.95-8.91h-2.86v39.13z"/><path d="m264.64 61.63h22.1v6.76h-12.55v15.14h9.88v6.7h-9.88v17.48h12.68v6.57h-22.23z"/><path d="m291.16 61.63h6.69l12.81 30v-30h7.93v52.65h-6.37l-12.87-31.46v31.46h-8.19z"/><path d="m324.44 96.92v-17.68c0-11.31 3.44-18.2 15-18.2 10.8-.04 14.56 5.59 14.56 15.34v2.73h-9.16v-3c0-5.07-.52-8.06-5.27-8.06-5.07 0-5.46 4.1-5.46 8.91v22.04c0 5.46 1 8.91 5.72 8.91s5.79-3.64 5.79-9.36v-4.94h-5.62v-6h14.3v26.72h-6.3l-.65-5.14a8.87 8.87 0 0 1 -8.9 5.85c-10.37-.04-14.01-7.04-14.01-18.12z"/><path d="m360.57 61.63h9.5v52.65h-9.5z"/><path d="m375.13 108.1 14.11-39.84h-13.39v-6.63h23.08v4.94l-14.7 41.14h14.77v6.57h-23.87z"/><path d="m229.73 129.63h22.1v6.76h-12.54v15.14h9.88v6.7h-9.88v17.48h12.71v6.57h-22.27z"/><path d="m256.25 129.63h9.56v23.14l10.46-23.14h9.17l-10.08 23.46 11.12 29.19h-9.56l-8.77-23.92-2.34 4v20h-9.56z"/><path d="m287.91 165.77v-19.77c0-10.66 3.9-17 15.21-17s15.14 6.31 15.14 17v19.76c0 10.59-3.9 17.22-15.14 17.22s-15.21-6.55-15.21-17.21zm20.6 2.27v-24.24c0-4.42-.71-7.74-5.39-7.74s-5.46 3.32-5.46 7.74v24.2c0 4.36.71 7.87 5.46 7.87s5.39-3.47 5.39-7.87z"/><path d="m329.05 136.71h-8.38v-7.08h26.19v7.08h-8.19v45.57h-9.62z"/><path d="m350.63 129.63h9.49v52.65h-9.49z"/><path d="m365.19 176.1 14.1-39.84h-13.39v-6.63h23.1v4.94l-14.69 41.14h14.76v6.57h-23.88z"/><path d="m393.53 129.63h9.47v52.65h-9.49z"/><path d="m410.62 129.63h9.95l7.43 36.46 7.74-36.46h9.68l1 52.65h-7.15l-.78-36.6-7.49 36.6h-5.78l-7.61-36.73-.71 36.73h-7.22z"/><path d="m452.94 129.63h9.55v46.08h12.81v6.57h-22.36z"/><path d="m486.87 129.63h10.27l10.53 52.65h-8.91l-2.08-12.16h-9.16l-2.15 12.16h-9zm8.77 34.37-3.57-22.1-3.58 22.1z"/><path d="m511.63 129.63h12.68c10.53 0 16.51 3.38 16.51 14 0 6.31-1.56 10.73-6.5 12.74l7.34 25.94h-9.66l-6.3-24.12h-4.55v24.12h-9.56zm12.61 22.55c5.53 0 7.54-2.4 7.54-8.06 0-5.33-1.49-7.93-7-7.93h-3.57v16z"/><path d="m547.06 129.63h9.49v52.65h-9.49z"/><path d="m563.37 129.63h6.7l12.8 30v-30h7.93v52.65h-6.37l-12.87-31.46v31.46h-8.19z"/><path d="m597.76 129.63h9.49v52.65h-9.49z"/><path d="m237.6 197.63h10.27l10.53 52.65h-8.91l-2.08-12.16h-9.16l-2.15 12.16h-9zm8.77 34.37-3.57-22.1-3.58 22.1z"/><path d="m260.8 234.94 8.26-1.63c.26 6.24 1.75 10.27 6 10.27 3 0 4.35-2.08 4.35-4.94 0-4.55-2.34-7.08-5.78-10.07l-6.63-5.79c-3.77-3.25-6.11-6.89-6.11-12.74 0-8.32 5.2-13 13.58-13 9.88 0 12.68 6.63 13.2 14.3l-8.26 1.43c-.19-4.94-.91-8.64-5.13-8.64-2.86 0-4.42 2.14-4.42 4.94 0 3.57 1.49 5.52 4.29 7.93l6.56 5.78c4.29 3.71 7.87 8.32 7.87 15.28 0 7.6-5.33 12.93-13.2 12.93-9.64.01-14.19-5.59-14.58-16.05z"/><path d="m292.91 197.63h12.68c10.53 0 16.51 3.38 16.51 14 0 6.31-1.56 10.73-6.5 12.74l7.34 25.94h-9.62l-6.32-24.15h-4.55v24.12h-9.56zm12.61 22.55c5.53 0 7.54-2.4 7.54-8.06 0-5.33-1.49-7.93-7-7.93h-3.57v16z"/><path d="m335.94 197.63h10.27l10.53 52.65h-8.9l-2.08-12.16h-9.17l-2.15 12.16h-9zm8.78 34.37-3.58-22.1-3.58 22.1z"/><path d="m359.14 234.94 8.26-1.63c.26 6.24 1.75 10.27 6 10.27 3.05 0 4.35-2.08 4.35-4.94 0-4.55-2.34-7.08-5.78-10.07l-6.63-5.79c-3.77-3.25-6.11-6.89-6.11-12.74 0-8.32 5.2-13 13.58-13 9.88 0 12.68 6.63 13.2 14.3l-8.26 1.43c-.19-4.94-.91-8.64-5.13-8.64-2.86 0-4.42 2.14-4.42 4.94 0 3.57 1.49 5.52 4.29 7.93l6.56 5.78c4.29 3.71 7.87 8.32 7.87 15.28 0 7.6-5.33 12.93-13.2 12.93-9.64.01-14.19-5.59-14.58-16.05z"/><path d="m391.38 197.63h9.56v22h10.72v-22h9.62v52.65h-9.62v-23.79h-10.72v23.79h-9.56z"/><path d="m554.28 539.59c-9.13-12.33-68.11-87.53-150.8-87.53-71.8 0-148.61 65.13-148.61 65.13s-28.87-59.06-87.87-64.73c-.34 0-.71-.08-1.1-.08h-.37a2.4 2.4 0 0 0 -2.25 2.34 6.48 6.48 0 0 0 .92 2.16c7.61 12.63 27 48.56 27 84.46s-19.53 72-27.06 84.62l-.51.8a2.32 2.32 0 0 0 -.37 1.24 2.35 2.35 0 0 0 2.18 2.33l.63-.06a2.64 2.64 0 0 0 .62 0c59.21-5.52 88.17-64.76 88.17-64.76s76.81 65.13 148.61 65.13c82.69 0 141.67-75.19 150.8-87.5.25-.33.45-.63.63-.85a2.23 2.23 0 0 0 0-1.8c-.18-.25-.38-.54-.63-.85m-104.81 11.2a24.13 24.13 0 1 1 24.16-24.14 24.14 24.14 0 0 1 -24.16 24.14"/><path d="m249.45 384.66a2.78 2.78 0 0 1 .63-.65 2.5 2.5 0 0 1 1.3-.44 2.31 2.31 0 0 1 1.62.66.36.36 0 0 0 .11.1c45.07 43 92.36 8.14 102.2 0l1-.92a2.41 2.41 0 0 1 .89-.15 2.69 2.69 0 0 1 1 .15l1 .92c9.83 8.14 57.1 43 102.19 0 0 0 .05-.06.09-.1a2.25 2.25 0 0 1 1.59-.66 2.39 2.39 0 0 1 1.31.44 2.76 2.76 0 0 1 .67.65c8.74 8.6 46.49 41.11 86.44 6.39a2.31 2.31 0 0 0 .7-1.66v-16.5a2.35 2.35 0 0 0 -2.35-2.37 3.06 3.06 0 0 0 -.51.1l-1.2.6c-12.27 6.16-50.36 20.75-84.91-11.91-.32-.31-.66-.61-1-.95a1.91 1.91 0 0 0 -1-.23 1.43 1.43 0 0 0 -.72.18 2 2 0 0 0 -1.2.88c-10.29 7.84-57.57 39.86-99.68.58l-.62-.62a2.43 2.43 0 0 0 -1.71-.66 2.33 2.33 0 0 0 -1.64.66l-.65.62c-42.08 39.28-89.41 7.26-99.7-.58a1.91 1.91 0 0 0 -1.16-.88 1.58 1.58 0 0 0 -.76-.18 1.91 1.91 0 0 0 -1 .23c-.33.34-.67.64-1 .95-34.55 32.66-72.61 18.07-84.89 11.91l-1.21-.6a3.53 3.53 0 0 0 -.46-.1 2.36 2.36 0 0 0 -2.37 2.37v16.5a2.29 2.29 0 0 0 .68 1.66c39.92 34.72 77.72 2.21 86.46-6.39"/><path d="m165.13 310.73a2.17 2.17 0 0 0 -.45-.1 2.38 2.38 0 0 0 -2.37 2.4v16.45a2.34 2.34 0 0 0 .69 1.71c39.91 34.68 77.7 2.18 86.45-6.4a2 2 0 0 1 .63-.67 2.4 2.4 0 0 1 1.3-.43 2.3 2.3 0 0 1 1.61.63.28.28 0 0 0 .12.1c45.08 43 92.36 8.18 102.19 0l1-.88a2.1 2.1 0 0 1 .9-.18 2.22 2.22 0 0 1 .94.18l1 .88c9.83 8.18 57.11 43 102.19 0 0 0 .06-.05.09-.1a2.28 2.28 0 0 1 1.6-.63 2.36 2.36 0 0 1 1.31.43 2.22 2.22 0 0 1 .66.67c8.74 8.58 46.49 41.08 86.44 6.4a2.38 2.38 0 0 0 .69-1.71v-16.48a2.36 2.36 0 0 0 -2.34-2.4 2.3 2.3 0 0 0 -.51.1c-.37.21-.76.41-1.2.62-12.28 6.15-50.35 20.78-84.91-11.92-.33-.31-.67-.61-1-1a2.53 2.53 0 0 0 -1-.22 4.16 4.16 0 0 0 -.72.11 2.71 2.71 0 0 0 -1.2.94c-10.3 7.85-57.57 39.85-99.68.58l-.61-.6a2.63 2.63 0 0 0 -1.71-.71 2.52 2.52 0 0 0 -1.65.71l-.65.6c-42.08 39.27-89.41 7.27-99.7-.58a2.52 2.52 0 0 0 -1.17-.94 4.37 4.37 0 0 0 -.75-.11 2.68 2.68 0 0 0 -1 .22 13 13 0 0 1 -1 1c-34.56 32.7-72.62 18.07-84.9 11.92-.43-.21-.84-.41-1.22-.62"/></g></svg>