<svg viewBox="0 0 720 720" xmlns="http://www.w3.org/2000/svg"><path d="m-1.08-1.08h722.16v722.16h-722.16z" fill="#c5192d"/><g fill="#fff"><path d="m94.73 167.13h-41.82v-20.4l35.87-85h30.43v85.51h13.43v19.89h-13.43v32.3h-24.48zm0-19.89v-58.48l-21.08 58.48z"/><path d="m187.66 98.94 8.26-1.63c.26 6.24 1.75 10.27 6 10.27 3 0 4.35-2.08 4.35-4.94 0-4.55-2.34-7.08-5.78-10.07l-6.63-5.79c-3.77-3.25-6.11-6.89-6.11-12.74 0-8.32 5.2-13 13.58-13 9.88 0 12.68 6.63 13.2 14.3l-8.26 1.43c-.19-4.94-.91-8.64-5.13-8.64-2.86 0-4.42 2.14-4.42 4.94 0 3.57 1.49 5.52 4.29 7.93l6.56 5.78c4.29 3.71 7.87 8.32 7.87 15.28 0 7.6-5.33 12.93-13.2 12.93-9.64.01-14.19-5.59-14.58-16.05z"/><path d="m220 61.63h9.49v52.65h-9.49z"/><path d="m236.35 61.63h21.65v6.63h-12.1v15.34h9.88v6.69h-9.88v24h-9.55z"/><path d="m268.2 61.63h10.27l10.53 52.65h-8.91l-2.09-12.16h-9.16l-2.15 12.16h-9zm8.8 34.37-3.57-22.1-3.61 22.1z"/><path d="m295.76 68.71h-8.39v-7.08h26.2v7.08h-8.19v45.57h-9.62z"/><path d="m317.08 61.63h9.55v46.08h12.81v6.57h-22.36z"/><path d="m343.4 61.63h9.49v52.65h-9.49z"/><path d="m194.23 154.71h-8.39v-7.08h26.16v7.08h-8.19v45.57h-9.62z"/><path d="m222.11 147.63h10.27l10.53 52.65h-8.91l-2.08-12.16h-9.17l-2.14 12.16h-9zm8.78 34.37-3.58-22.1-3.57 22.1z"/><path d="m244.34 147.63h7.54l-3 17.87h-4.49z"/><path d="m255.26 147.63h9.56v46.08h12.8v6.57h-22.36z"/><path d="m281.59 147.63h9.49v52.65h-9.49z"/><path d="m298.68 147.63h9.95l7.47 36.46 7.74-36.46h9.68l1 52.65h-7.15l-.78-36.6-7.48 36.6h-5.78l-7.61-36.73-.72 36.73h-7.22z"/><path d="m318.96 386.25-130.12-75.13v243.05l130.12 39.25z"/><path d="m333.27 386.75v206.76l130.96-39.37v-243.01z"/><path d="m539.4 549.86h-3.82l15.4 53.8 15.38-53.8h-3.82 3.82v-216.24h-3.82-3.82-4.06-7.66-3.77-3.83-3.82v216.24z"/><path d="m492.17 321.56-13.94-11.02v250.22l-144.58 46.71h-6.69-1.32-6.68l-143.93-40.21v-256.72l-13.96 11.02v255.49l157.23 43.53h7.34 1.32 7.35l145.05-46.06 12.81-3.77z"/><path d="m566.37 305a15.4 15.4 0 1 0 -30.79 0v16.6h30.79z"/></g></svg>