<svg viewBox="0 0 720 720" xmlns="http://www.w3.org/2000/svg"><path d="m-1.08-1.08h722.16v722.16h-722.16z" fill="#19486a"/><g fill="#fff"><path d="m50.12 88.93c-4.12 2.21-15.81 5.44-19.89 7.48v-19.55c5.44-2.21 20.57-9.52 25.67-15.13h20.57v137.7h-26.35z"/><path d="m123.36 81.79h-37.36v-20.06h63v17.17l-29 120.53h-25.54z"/><path d="m182.73 61.63h13c9.23 0 15.41 3.12 15.41 13.52 0 6.43-2.67 10-7.61 10.79 6.18 1.17 9.1 5.59 9.1 13 0 10.07-4.94 15.34-14.69 15.34h-15.21zm12.87 21.51c5.72 0 7.22-2.53 7.22-7.86 0-5.59-2.73-7-8.58-7h-2v14.86zm.39 24.38c5.85 0 7.48-2.73 7.48-8.65 0-6.24-2.08-9.1-7.8-9.1h-3.38v17.75z"/><path d="m225.44 61.63h10.27l10.53 52.65h-8.91l-2.08-12.16h-9.16l-2.15 12.16h-9zm8.77 34.37-3.57-22.1-3.58 22.1z"/><path d="m250.2 61.63h12.68c10.53 0 16.51 3.38 16.51 14 0 6.31-1.56 10.73-6.5 12.74l7.34 25.94h-9.62l-6.3-24.12h-4.55v24.12h-9.56zm12.61 22.55c5.53 0 7.54-2.4 7.54-8.06 0-5.33-1.49-7.93-7-7.93h-3.57v16z"/><path d="m300.57 114.93a6.35 6.35 0 0 1 -1.1.06c-11.38 0-15.21-6.56-15.21-17.22v-19.77c0-10.66 3.9-17 15.21-17s15.15 6.31 15.15 17v19.77c0 7.54-2 13.13-7.28 15.6a25.42 25.42 0 0 0 5.26 5.07l-1.82 6.37c-3.19-1.5-7.61-5.98-10.21-9.88zm4.36-14.93v-24.2c0-4.42-.78-7.74-5.46-7.74s-5.47 3.32-5.47 7.74v24.2c0 4.36.71 7.87 5.46 7.87s5.47-3.47 5.47-7.87z"/><path d="m327.94 61.63h10.27l10.53 52.65h-8.9l-2.08-12.16h-9.17l-2.15 12.16h-9zm8.77 34.37-3.57-22.1-3.58 22.1z"/><path d="m352.7 61.63h12.68c10.53 0 16.51 3.38 16.51 14 0 6.31-1.56 10.73-6.5 12.74l7.34 25.94h-9.62l-6.3-24.12h-4.55v24.12h-9.56zm12.61 22.55c5.53 0 7.54-2.4 7.54-8.06 0-5.33-1.49-7.93-7-7.93h-3.57v16z"/><path d="m386.76 97.77v-19.77c0-10.66 3.9-17 15.21-17s15.15 6.31 15.15 17v19.77c0 10.59-3.9 17.22-15.15 17.22s-15.21-6.56-15.21-17.22zm20.61 2.23v-24.2c0-4.42-.72-7.74-5.4-7.74s-5.46 3.32-5.46 7.74v24.2c0 4.36.72 7.87 5.46 7.87s5.4-3.47 5.4-7.87z"/><path d="m422.9 61.63h12.68c10.53 0 16.51 3.38 16.51 14 0 6.31-1.56 10.73-6.5 12.74l7.34 25.94h-9.62l-6.31-24.15h-4.55v24.12h-9.55zm12.61 22.55c5.53 0 7.54-2.4 7.54-8.06 0-5.33-1.49-7.93-7-7.93h-3.57v16z"/><path d="m182.73 129.63h12.68c10.53 0 16.51 3.38 16.51 14 0 6.31-1.56 10.73-6.5 12.74l7.34 25.94h-9.62l-6.3-24.12h-4.55v24.12h-9.56zm12.61 22.55c5.53 0 7.54-2.4 7.54-8.06 0-5.33-1.49-7.93-7-7.93h-3.57v16z"/><path d="m218.16 129.63h9.49v52.65h-9.49z"/><path d="m232 129.63h8.45l7 37.24 6.55-37.24h8.65l-10.65 52.65h-9.43z"/><path d="m265.28 165.77v-19.77c0-10.66 3.9-17 15.21-17s15.15 6.31 15.15 17v19.76c0 10.59-3.9 17.22-15.15 17.22s-15.21-6.55-15.21-17.21zm20.61 2.23v-24.2c0-4.42-.72-7.74-5.4-7.74s-5.49 3.32-5.49 7.74v24.2c0 4.36.72 7.87 5.46 7.87s5.43-3.47 5.43-7.87z"/><path d="m297.84 176.82c5.53 0 7-1 7-6.57v-40.62h9.55v40.88c0 8.84-2.53 13.07-11.89 13.07h-4.62z"/><path d="m321.05 129.63h9.55v46.08h12.81v6.57h-22.36z"/><path d="m355 129.63h10.27l10.53 52.65h-8.91l-2.08-12.16h-9.16l-2.15 12.16h-9zm8.75 34.37-3.57-22.1-3.58 22.1z"/><path d="m379.74 129.63h6.7l12.8 30v-30h7.93v52.65h-6.37l-12.87-31.46v31.46h-8.19z"/><path d="m414.13 129.63h9.49v52.65h-9.49z"/><path d="m429.14 166.94 8.26-1.63c.26 6.24 1.75 10.27 6 10.27 3.05 0 4.35-2.08 4.35-4.94 0-4.55-2.34-7.08-5.78-10.07l-6.63-5.79c-3.77-3.25-6.11-6.89-6.11-12.74 0-8.32 5.2-13 13.58-13 9.88 0 12.68 6.63 13.2 14.3l-8.26 1.43c-.19-4.94-.91-8.64-5.13-8.64-2.86 0-4.42 2.14-4.42 4.94 0 3.57 1.49 5.52 4.29 7.93l6.56 5.78c4.29 3.71 7.87 8.32 7.87 15.28 0 7.6-5.33 12.93-13.2 12.93-9.64.01-14.19-5.59-14.58-16.05z"/><path d="m461.38 129.63h9.56v22h10.72v-22h9.62v52.65h-9.62v-23.79h-10.72v23.79h-9.56z"/><path d="m190.08 230.19-10.66-32.56h9l6.5 20.86 6.08-20.86h8.77l-10.53 32.56v20.09h-9.16z"/><path d="m211.72 233.77v-19.77c0-10.66 3.9-17 15.21-17s15.15 6.31 15.15 17v19.76c0 10.59-3.9 17.22-15.15 17.22s-15.21-6.55-15.21-17.21zm20.61 2.23v-24.2c0-4.42-.72-7.74-5.4-7.74s-5.46 3.32-5.46 7.74v24.2c0 4.36.72 7.87 5.46 7.87s5.4-3.47 5.4-7.87z"/><path d="m245.33 197.63h7.54l-3.06 17.87h-4.48z"/><path d="m256.24 197.63h9.56v46.08h12.81v6.57h-22.37z"/><path d="m282.57 197.63h9.49v52.65h-9.49z"/><path d="m298.88 197.63h12.42c12.8 0 16.7 5.13 16.7 16.38v19.17c0 11.57-4 17.1-16.31 17.1h-12.81zm12.55 46c6.56 0 6.82-3.51 6.82-10.07v-20.2c0-6.31-.65-8.91-6.95-8.91h-2.86v39.13z"/><path d="m341.26 197.63h10.27l10.53 52.65h-8.9l-2.08-12.16h-9.17l-2.14 12.16h-9zm8.74 34.37-3.58-22.1-3.53 22.1z"/><path d="m380.65 197.63h9.56v22h10.72v-22h9.62v52.65h-9.62v-23.79h-10.72v23.79h-9.56z"/><path d="m425.18 197.63h10.27l10.55 52.65h-8.91l-2.09-12.16h-9.16l-2.15 12.16h-9zm8.82 34.37-3.57-22.1-3.63 22.1z"/><path d="m450.72 197.63h9.95l7.47 36.46 7.74-36.46h9.68l1 52.65h-7.15l-.78-36.6-7.48 36.6h-5.78l-7.61-36.73-.76 36.73h-7.22z"/><path d="m493 197.63h9.55v23.14l10.47-23.14h9.16l-10.07 23.46 11.11 29.19h-9.55l-8.78-23.92-2.34 4v20h-9.55z"/><path d="m524.69 233.77v-19.77c0-10.66 3.9-17 15.21-17s15.15 6.31 15.15 17v19.76c0 10.59-3.9 17.22-15.15 17.22s-15.21-6.55-15.21-17.21zm20.61 2.23v-24.2c0-4.42-.72-7.74-5.4-7.74s-5.46 3.32-5.46 7.74v24.2c0 4.36.72 7.87 5.46 7.87s5.4-3.47 5.4-7.87z"/><path d="m560.83 197.63h12.68c10.53 0 16.51 3.38 16.51 14 0 6.31-1.56 10.73-6.5 12.74l7.34 25.94h-9.62l-6.3-24.12h-4.55v24.12h-9.56zm12.61 22.55c5.53 0 7.54-2.4 7.54-8.06 0-5.33-1.49-7.93-7-7.93h-3.57v16z"/><path d="m596 197.63h9.55v46.08h12.81v6.57h-22.36z"/><path d="m622.32 197.63h9.49v52.65h-9.49z"/><path d="m638.63 197.63h9.56v23.14l10.46-23.14h9.17l-10.08 23.46 11.12 29.19h-9.56l-8.77-23.92-2.34 4v20h-9.56z"/><path d="m544.38 445.25a94.6 94.6 0 0 0 -91-94.42 94.49 94.49 0 0 0 -178.19 0 94.42 94.42 0 0 0 -54.54 168.9 94.43 94.43 0 0 0 144.1 104.16 94.43 94.43 0 0 0 143.32-104.26 94.38 94.38 0 0 0 36.31-74.38m-104.64-63a75.5 75.5 0 0 1 -64.33 74.55 74.8 74.8 0 0 1 63.35-86.14 75 75 0 0 1 1 11.59m-75.11 217.1a75.25 75.25 0 0 1 -.7-107.5 75.25 75.25 0 0 1 .7 107.5m-74.85-228.66a74.74 74.74 0 0 1 63.35 86.15 74.74 74.74 0 0 1 -63.35-86.15m56.27 108.31a75.18 75.18 0 0 1 -102.07 33.2 75.18 75.18 0 0 1 102.07-33.2m36.18-.51a75.23 75.23 0 0 1 102.56 33.59 75.2 75.2 0 0 1 -102.56-33.59m-18-171.66a75.54 75.54 0 0 1 69.18 45.38 94.82 94.82 0 0 0 -69.18 53.1 94.73 94.73 0 0 0 -69.16-53.1 75.54 75.54 0 0 1 69.16-45.38m-161.04 138.42a75.56 75.56 0 0 1 67.37-75 96.33 96.33 0 0 0 -.79 12.07 94.29 94.29 0 0 0 30.87 69.81 94.71 94.71 0 0 0 -72.45 49.09 75.21 75.21 0 0 1 -25-55.94m32.73 100.72a74.71 74.71 0 0 1 1.65-15.64 94.32 94.32 0 0 0 86.71-2.36 94 94 0 0 0 25.07 83.11 75.32 75.32 0 0 1 -113.43-65.11m256.69-.62a75.35 75.35 0 0 1 -112.63 65.51 94.19 94.19 0 0 0 25.9-64.89 95.31 95.31 0 0 0 -1.76-18.08 94.27 94.27 0 0 0 87 2.37 75.06 75.06 0 0 1 1.53 15.09m-64.15-93.8a94.24 94.24 0 0 0 30.29-69.25 96.33 96.33 0 0 0 -.79-12.07 75.34 75.34 0 0 1 42.55 130.74 94.69 94.69 0 0 0 -72.09-49.46"/></g></svg>