<svg viewBox="0 0 720 720" xmlns="http://www.w3.org/2000/svg"><path d="m-1.08-1.08h722.16v722.16h-722.16z" fill="#fcc30b"/><g fill="#fff"><path d="m89.12 81.79h-37.4v-20.06h63.07v17.17l-29.07 120.53h-25.5z"/><path d="m187.82 61.63h10.27l10.53 52.65h-8.9l-2.08-12.16h-9.17l-2.14 12.16h-9zm8.78 34.37-3.6-22.09-3.55 22.09z"/><path d="m212.59 61.63h12.67c10.53 0 16.51 3.38 16.51 14 0 6.31-1.56 10.73-6.5 12.74l7.35 25.94h-9.62l-6.31-24.12h-4.55v24.12h-9.55zm12.61 22.55c5.52 0 7.54-2.4 7.54-8.06 0-5.33-1.5-7.93-7-7.93h-3.58v16z"/><path d="m246 108.1 14.1-39.84h-13.39v-6.63h23.08v4.94l-14.69 41.14h14.75v6.57h-23.85z"/><path d="m273 97.77v-19.77c0-10.66 3.9-17 15.21-17s15.15 6.31 15.15 17v19.77c0 10.59-3.9 17.22-15.15 17.22s-15.21-6.56-15.21-17.22zm20.58 2.23v-24.2c0-4.42-.72-7.74-5.4-7.74s-5.46 3.32-5.46 7.74v24.2c0 4.36.72 7.87 5.46 7.87s5.4-3.47 5.4-7.87z"/><path d="m309.11 61.63h6.69l12.81 30v-30h7.93v52.65h-6.37l-12.87-31.46v31.46h-8.19z"/><path d="m355.26 61.63h8.45l7 37.24 6.56-37.24h8.65l-10.6 52.65h-9.43z"/><path d="m395.88 61.63h10.27l10.53 52.65h-8.9l-2.08-12.16h-9.17l-2.14 12.16h-9zm8.78 34.37-3.58-22.1-3.57 22.1z"/><path d="m185.22 154.71h-8.38v-7.08h26.16v7.08h-8.19v45.57h-9.62z"/><path d="m205.44 183.77v-19.77c0-10.66 3.9-17 15.21-17s15.14 6.31 15.14 17v19.76c0 10.59-3.9 17.22-15.14 17.22s-15.21-6.55-15.21-17.21zm20.56 2.23v-24.2c0-4.42-.71-7.74-5.39-7.74s-5.46 3.32-5.46 7.74v24.2c0 4.36.71 7.87 5.46 7.87s5.39-3.47 5.39-7.87z"/><path d="m239.56 194.1 14.11-39.84h-13.39v-6.63h23.07v4.94l-14.69 41.14h14.76v6.57h-23.86z"/><path d="m275.51 147.63h10.27l10.53 52.65h-8.91l-2.08-12.16h-9.16l-2.16 12.16h-9zm8.77 34.37-3.57-22.1-3.58 22.1z"/><path d="m314.76 147.63h22.1v6.76h-12.54v15.14h9.88v6.7h-9.88v17.48h12.68v6.57h-22.24z"/><path d="m341.28 147.63h6.72l12.8 30v-30h7.93v52.65h-6.37l-12.87-31.46v31.46h-8.19z"/><path d="m375.41 147.63h22.1v6.76h-12.51v15.14h9.88v6.7h-9.88v17.48h12.68v6.57h-22.27z"/><path d="m401.93 147.63h12.67c10.53 0 16.51 3.38 16.51 14 0 6.31-1.56 10.73-6.5 12.74l7.39 25.91h-9.62l-6.38-24.12h-4.55v24.12h-9.55zm12.61 22.55c5.52 0 7.54-2.4 7.54-8.06 0-5.33-1.5-7.93-7-7.93h-3.58v16z"/><path d="m436 182.92v-17.68c0-11.31 3.44-18.2 15-18.2 10.79 0 14.56 5.59 14.56 15.34v2.73h-9.16v-3c0-5.07-.52-8.06-5.27-8.06-5.07 0-5.46 4.1-5.46 8.91v22c0 5.46 1 8.91 5.72 8.91s5.79-3.64 5.79-9.36v-4.94h-5.66v-6.05h14.3v26.72h-6.24l-.65-5.14a8.87 8.87 0 0 1 -8.93 5.9c-10.37 0-14-7-14-18.08z"/><path d="m472.13 147.63h9.49v52.65h-9.49z"/><path d="m495.79 180.19-10.66-32.56h9l6.5 20.86 6.11-20.86h8.77l-10.51 32.56v20.09h-9.16z"/><path d="m524.65 147.63h10.27l10.53 52.65h-8.91l-2.08-12.16h-9.16l-2.15 12.16h-9zm8.77 34.37-3.57-22.1-3.58 22.1z"/><path d="m360.26 350.75a106.34 106.34 0 1 0 106.32 106.33 106.33 106.33 0 0 0 -106.32-106.33m-7.87 42c0-3.54 3.55-7.44 7.92-7.44s7.87 3.9 7.87 7.44v36.5c0 3.53-3.52 7.38-7.87 7.38s-7.92-3.85-7.92-7.38zm7.89 118.81a55.32 55.32 0 0 1 -16.43-108.13v20.57a36.21 36.21 0 1 0 32.77 0v-20.58a55.31 55.31 0 0 1 -16.34 108.15"/><path d="m238.21 456.15c0-4.82-4.27-8.72-8.17-8.72h-46.56c-3.93 0-8.24 3.9-8.24 8.72s4.31 8.76 8.24 8.76h46.52c3.9 0 8.17-3.93 8.17-8.76"/><path d="m545.34 456.15c0-4.82-4.28-8.72-8.18-8.72h-46.56c-3.92 0-8.23 3.9-8.23 8.72s4.31 8.76 8.23 8.76h46.56c3.9 0 8.18-3.93 8.18-8.76"/><path d="m360.31 641.21c4.81 0 8.72-4.27 8.72-8.17v-46.56c0-3.92-3.91-8.24-8.72-8.24s-8.77 4.32-8.77 8.24v46.52c0 3.9 3.94 8.17 8.77 8.17"/><path d="m520.9 548.07c2.39-4.18.63-9.7-2.76-11.63l-40.41-23.13c-3.4-1.95-9.09-.7-11.48 3.49s-.61 9.74 2.8 11.69l40.41 23.12c3.38 1.94 9 .65 11.44-3.54"/><path d="m268.39 616.78c4.18 2.39 9.69.62 11.63-2.76l23.13-40.41c2-3.41.7-9.09-3.49-11.48s-9.75-.61-11.69 2.79l-23.13 40.41c-1.93 3.38-.65 9 3.55 11.45"/><path d="m452.55 616.57c4.17-2.4 5.43-8.05 3.49-11.43l-23.21-40.36c-2-3.41-7.49-5.19-11.67-2.79s-5.45 8.1-3.48 11.51l23.2 40.36c1.95 3.38 7.47 5.12 11.67 2.71"/><path d="m199.89 548.43c2.4 4.17 8 5.43 11.43 3.49l40.35-23.21c3.41-2 5.21-7.49 2.8-11.67s-8.11-5.45-11.5-3.49l-40.37 23.21c-3.38 1.94-5.12 7.48-2.71 11.67"/><path d="m360.31 334.09c4.81 0 8.72-4.27 8.72-8.17v-46.56c0-3.93-3.91-8.24-8.72-8.24s-8.77 4.31-8.77 8.24v46.56c0 3.9 3.94 8.17 8.77 8.17"/><path d="m254.34 395.51c2.4-4.18.64-9.69-2.75-11.63l-40.41-23.12c-3.41-2-9.09-.71-11.49 3.47s-.6 9.75 2.8 11.7l40.41 23.13c3.39 1.94 9 .65 11.44-3.55"/><path d="m420.94 350.23c4.19 2.39 9.69.62 11.63-2.76l23.13-40.41c1.95-3.41.7-9.09-3.48-11.49s-9.75-.61-11.7 2.8l-23.12 40.41c-1.94 3.39-.66 9.05 3.54 11.45"/><path d="m299.45 350.33c4.17-2.4 5.43-8.05 3.49-11.43l-23.21-40.37c-2-3.4-7.49-5.19-11.67-2.78s-5.45 8.1-3.49 11.5l23.21 40.36c2 3.38 7.47 5.13 11.67 2.72"/><path d="m466.13 395.32c2.4 4.18 8.05 5.44 11.43 3.5l40.36-23.21c3.4-2 5.2-7.5 2.8-11.68s-8.1-5.44-11.51-3.48l-40.37 23.21c-3.38 1.94-5.12 7.48-2.71 11.66"/></g></svg>