<svg viewBox="0 0 720 720" xmlns="http://www.w3.org/2000/svg"><path d="m-1.08-1.08h722.16v722.16h-722.16z" fill="#a21942"/><g fill="#fff"><path d="m55.12 159c.17-14.79 5.44-26.52 16.15-32-7.48-5.44-13.77-15-14.11-30.26-.34-22.74 11.56-36.74 34.84-36.74s35 14.11 34.51 36.72c-.34 15.47-6.29 25-13.77 30.26 10.54 5.44 16 17.17 16.15 32 .51 25.16-9.52 42.5-36.89 42.5-27.19-.01-37-17.35-36.88-42.48zm47.94 1.7c.17-11-1.19-22.1-11-22.1-9.69 0-11.22 11.05-11.22 22.1-.05 9.3 1.16 21.22 11.16 21.22s11.06-12.07 11.06-21.25zm-1.36-64.8c0-9.52-3.06-16.15-9.69-16.15-6.8 0-10 6.63-10 16.15 0 13.26 2.89 21.25 10 21.25 6.99 0 9.69-7.99 9.69-21.25z"/><path d="m181.74 61.63h9.94l7.48 36.46 7.73-36.46h9.69l1 52.65h-7.18l-.78-36.6-7.47 36.6h-5.79l-7.6-36.73-.76 36.73h-7.21z"/><path d="m223.66 97.25v-35.62h9.34v36.72c0 5 .59 9.49 5.46 9.49s5.53-4.48 5.53-9.49v-36.72h9.29v35.62c0 11-3.05 17.74-14.82 17.74s-14.8-6.69-14.8-17.74z"/><path d="m259.54 61.63h6.7l12.8 30v-30h7.96v52.65h-6.4l-12.87-31.46v31.46h-8.19z"/><path d="m292.82 97.77v-19.77c0-10.66 3.9-17 15.21-17s15.15 6.31 15.15 17v19.77c0 10.59-3.9 17.22-15.15 17.22s-15.21-6.56-15.21-17.22zm20.61 2.23v-24.2c0-4.42-.72-7.74-5.4-7.74s-5.46 3.32-5.46 7.74v24.2c0 4.36.72 7.87 5.46 7.87s5.4-3.47 5.4-7.87z"/><path d="m327.66 98.94 8.26-1.63c.26 6.24 1.75 10.27 6 10.27 3.05 0 4.35-2.08 4.35-4.94 0-4.55-2.34-7.08-5.78-10.07l-6.63-5.79c-3.77-3.25-6.11-6.89-6.11-12.74 0-8.32 5.2-13 13.58-13 9.88 0 12.68 6.63 13.2 14.3l-8.26 1.43c-.19-4.94-.91-8.64-5.13-8.64-2.86 0-4.42 2.14-4.42 4.94 0 3.57 1.49 5.52 4.29 7.93l6.56 5.78c4.29 3.71 7.87 8.32 7.87 15.28 0 7.6-5.33 12.93-13.2 12.93-9.64.01-14.19-5.59-14.58-16.05z"/><path d="m360 61.63h9.49v52.65h-9.49z"/><path d="m376.35 61.63h13c9.23 0 15.4 3.12 15.4 13.52 0 6.43-2.66 10-7.6 10.79 6.17 1.17 9.1 5.59 9.1 13 0 10.07-4.94 15.34-14.69 15.34h-15.21zm12.87 21.51c5.72 0 7.21-2.53 7.21-7.86 0-5.59-2.73-7-8.58-7h-2v14.86zm.39 24.38c5.85 0 7.47-2.73 7.47-8.65 0-6.24-2.08-9.1-7.8-9.1h-3.38v17.75z"/><path d="m426 61.63h9.49v52.65h-9.49z"/><path d="m441 98.94 8.26-1.63c.26 6.24 1.75 10.27 6 10.27 3.05 0 4.35-2.08 4.35-4.94 0-4.55-2.34-7.08-5.78-10.07l-6.63-5.79c-3.77-3.25-6.12-6.89-6.12-12.74 0-8.32 5.2-13 13.59-13 9.88 0 12.68 6.63 13.2 14.3l-8.26 1.43c-.19-4.94-.91-8.64-5.13-8.64-2.86 0-4.43 2.14-4.43 4.94 0 3.57 1.5 5.52 4.3 7.93l6.56 5.78c4.29 3.71 7.87 8.32 7.87 15.28 0 7.6-5.33 12.93-13.2 12.93-9.58.01-14.17-5.59-14.58-16.05z"/><path d="m473.26 61.63h9.55v22h10.73v-22h9.62v52.65h-9.62v-23.79h-10.73v23.79h-9.55z"/><path d="m180.11 165.77v-19.77c0-10.66 3.9-17 15.21-17s15.15 6.31 15.15 17v19.76c0 10.59-3.9 17.22-15.15 17.22s-15.21-6.55-15.21-17.21zm20.61 2.23v-24.2c0-4.42-.72-7.74-5.4-7.74s-5.46 3.32-5.46 7.74v24.2c0 4.36.72 7.87 5.46 7.87s5.4-3.47 5.4-7.87z"/><path d="m213.72 129.63h7.54l-3.06 17.87h-4.48z"/><path d="m224.64 129.63h12.67c10.53 0 16.51 3.38 16.51 14 0 6.31-1.56 10.73-6.5 12.74l7.35 25.94h-9.62l-6.31-24.12h-4.55v24.12h-9.55zm12.61 22.55c5.52 0 7.54-2.4 7.54-8.06 0-5.33-1.5-7.93-7-7.93h-3.58v16z"/><path d="m260.06 129.63h9.49v52.65h-9.49z"/><path d="m276.38 129.63h6.69l12.81 30v-30h7.93v52.65h-6.37l-12.87-31.46v31.46h-8.19z"/><path d="m310.5 129.63h9.56v46.08h12.8v6.57h-22.36z"/><path d="m344.43 129.63h10.27l10.53 52.65h-8.9l-2.08-12.16h-9.17l-2.14 12.16h-9zm8.78 34.37-3.58-22.1-3.57 22.1z"/><path d="m369.19 129.63h12.68c10.53 0 16.51 3.38 16.51 14 0 6.31-1.56 10.73-6.5 12.74l7.35 25.94h-9.62l-6.31-24.12h-4.55v24.12h-9.56zm12.61 22.55c5.53 0 7.55-2.4 7.55-8.06 0-5.33-1.5-7.93-7-7.93h-3.57v16z"/><path d="m404.62 129.63h9.49v52.65h-9.49z"/><path d="m433 129.63h8.45l6.95 37.24 6.57-37.24h8.64l-10.61 52.65h-9.43z"/><path d="m473.58 129.63h10.27l10.53 52.65h-8.9l-2.08-12.16h-9.17l-2.14 12.16h-9zm8.78 34.37-3.58-22.1-3.57 22.1z"/><path d="m181.22 197.63h9.49v52.65h-9.49z"/><path d="m213 250.93a6.35 6.35 0 0 1 -1.1.06c-11.38 0-15.21-6.56-15.21-17.22v-19.77c0-10.66 3.9-17 15.21-17s15.1 6.35 15.1 17v19.76c0 7.54-2 13.13-7.28 15.6a25.7 25.7 0 0 0 5.27 5.07l-1.82 6.37c-3.17-1.49-7.57-5.97-10.17-9.87zm4.36-14.93v-24.2c0-4.42-.78-7.74-5.46-7.74s-5.46 3.32-5.46 7.74v24.2c0 4.36.71 7.87 5.46 7.87s5.46-3.47 5.46-7.87z"/><path d="m237.9 204.71h-8.39v-7.08h26.2v7.08h-8.19v45.57h-9.62z"/><path d="m259.48 197.63h9.52v52.65h-9.49z"/><path d="m274.49 234.94 8.26-1.63c.26 6.24 1.75 10.27 6 10.27 3 0 4.35-2.08 4.35-4.94 0-4.55-2.34-7.08-5.78-10.07l-6.63-5.79c-3.77-3.25-6.11-6.89-6.11-12.74 0-8.32 5.2-13 13.58-13 9.88 0 12.68 6.63 13.2 14.3l-8.26 1.43c-.19-4.94-.91-8.64-5.13-8.64-2.86 0-4.42 2.14-4.42 4.94 0 3.57 1.49 5.52 4.29 7.93l6.56 5.78c4.29 3.71 7.87 8.32 7.87 15.28 0 7.6-5.33 12.93-13.2 12.93-9.64.01-14.19-5.59-14.58-16.05z"/><path d="m305.76 233.77v-19.77c0-10.66 3.9-17 15.21-17s15.14 6.31 15.14 17v19.76c0 10.59-3.9 17.22-15.14 17.22s-15.21-6.55-15.21-17.21zm20.6 2.27v-24.24c0-4.42-.71-7.74-5.39-7.74s-5.46 3.32-5.46 7.74v24.2c0 4.36.71 7.87 5.46 7.87s5.39-3.47 5.39-7.87z"/><path d="m341.9 197.63h12.41c12.81 0 16.71 5.13 16.71 16.38v19.17c0 11.57-4 17.1-16.32 17.1h-12.8zm12.54 46c6.57 0 6.83-3.51 6.83-10.07v-20.2c0-6.31-.65-8.91-7-8.91h-2.86v39.13z"/><path d="m377.06 197.63h9.49v52.65h-9.49z"/><path d="m400.72 230.19-10.66-32.56h9l6.5 20.86 6.11-20.86h8.78l-10.54 32.56v20.09h-9.16z"/><path d="m437.38 233.77v-19.77c0-10.66 3.9-17 15.21-17s15.14 6.31 15.14 17v19.76c0 10.59-3.9 17.22-15.14 17.22s-15.21-6.55-15.21-17.21zm20.62 2.23v-24.2c0-4.42-.71-7.74-5.39-7.74s-5.46 3.32-5.46 7.74v24.2c0 4.36.71 7.87 5.46 7.87s5.39-3.47 5.39-7.87z"/><path d="m471 197.63h7.54l-3 17.87h-4.54z"/><path d="m480.6 234.94 8.26-1.63c.26 6.24 1.75 10.27 6 10.27 3.05 0 4.35-2.08 4.35-4.94 0-4.55-2.34-7.08-5.78-10.07l-6.63-5.79c-3.77-3.25-6.11-6.89-6.11-12.74 0-8.32 5.2-13 13.58-13 9.88 0 12.68 6.63 13.2 14.3l-8.26 1.43c-.19-4.94-.91-8.64-5.13-8.64-2.86 0-4.42 2.14-4.42 4.94 0 3.57 1.49 5.52 4.29 7.93l6.56 5.78c4.29 3.71 7.87 8.32 7.87 15.28 0 7.6-5.33 12.93-13.2 12.93-9.64.01-14.18-5.59-14.58-16.05z"/><path d="m513 197.63h9.49v52.65h-9.49z"/><path d="m528 234.94 8.25-1.63c.26 6.24 1.76 10.27 6 10.27 3.06 0 4.36-2.08 4.36-4.94 0-4.55-2.34-7.08-5.79-10.07l-6.63-5.79c-3.77-3.25-6.11-6.89-6.11-12.74 0-8.32 5.2-13 13.59-13 9.88 0 12.67 6.63 13.19 14.3l-8.25 1.43c-.2-4.94-.91-8.64-5.14-8.64-2.86 0-4.42 2.14-4.42 4.94 0 3.57 1.5 5.52 4.29 7.93l6.57 5.78c4.29 3.71 7.86 8.32 7.86 15.28 0 7.6-5.33 12.93-13.19 12.93-9.65.01-14.2-5.59-14.58-16.05z"/><path d="m560.23 197.63h9.55v22h10.73v-22h9.62v52.65h-9.62v-23.79h-10.73v23.79h-9.55z"/><path d="m497.66 373.18-73.74 70.15c-2.79 2.77-4.21 4.8-4.21 10.53v196.6a4.2 4.2 0 0 0 4.21 4.19h76.17a4.19 4.19 0 0 0 4.19-4.19v-275.46c0-2.32-1.81-6.56-6.62-1.77"/><path d="m285.22 464.57-73.75 70.14c-2.77 2.77-4.2 4.8-4.2 10.52v105.23a4.21 4.21 0 0 0 4.2 4.19h76.18a4.2 4.2 0 0 0 4.2-4.19v-184.13c0-2.32-1.83-6.57-6.63-1.76"/><path d="m531.17 288.11a2.07 2.07 0 0 0 -.62-1.59 2.21 2.21 0 0 0 -1.37-.6h-.4-.61l-56.46 12.73-1 .11a2.25 2.25 0 0 0 -1.11.58 2.15 2.15 0 0 0 0 3l.64.64 12.88 13.02-127.94 128-59.1-59.1a1.68 1.68 0 0 0 -2.4 0l-16 16a0 0 0 0 0 0 0l-94.72 94.71a1.7 1.7 0 0 0 0 2.4l16.04 15.99a1.67 1.67 0 0 0 2.39 0l93.54-93.52 42.89 42.88a.8.8 0 0 0 .13.21l16 16a1.68 1.68 0 0 0 2.4 0l145.21-145.16 13.54 13.53a2.1 2.1 0 0 0 3 0 2.07 2.07 0 0 0 .62-1.39v-.18l12.4-57.64z"/><path d="m391.86 476.88-35.68 36a1.71 1.71 0 0 1 -2.3-.09l-32.32-32.95c-5.92-5.89-7.2-1.11-7.2 1.21v169.4a4.19 4.19 0 0 0 4.18 4.2h76.19a4.21 4.21 0 0 0 4.19-4.2v-172.24c0-2.32-1.83-6.57-7.06-1.33"/></g></svg>