<svg viewBox="0 0 720 720" xmlns="http://www.w3.org/2000/svg"><path d="m-1.08-1.08h722.16v722.16h-722.16z" fill="#ff3a21"/><g fill="#fff"><path d="m55.63 159.48h25.5c0 15.13 1.87 23 11.39 22.61 10-.34 10.54-11.56 10.54-29.58 0-14.62-1.53-25-11.73-25-6.12 0-10 4.25-11.73 12.41h-22.6l1.87-78.2h63.23v22.62h-41.82l-1.36 30.43c2.72-3.4 9.69-6.12 17.34-6.63 21.25-1.87 31.62 15 31.62 43.18 0 29.24-5.61 50.32-36.89 50.32-29.07 0-35.36-16.64-35.36-42.16z"/><path d="m188.12 96.92v-17.68c0-11.31 3.44-18.2 15-18.2 10.79 0 14.56 5.59 14.56 15.34v2.73h-9.16v-3c0-5.07-.52-8.06-5.27-8.06-5.07 0-5.46 4.1-5.46 8.91v22.04c0 5.46 1 8.91 5.72 8.91s5.79-3.64 5.79-9.36v-4.94h-5.66v-6h14.36v26.72h-6.24l-.65-5.14a8.87 8.87 0 0 1 -8.9 5.85c-10.45-.04-14.09-7.04-14.09-18.12z"/><path d="m224 61.63h22.1v6.76h-12.55v15.14h9.88v6.7h-9.88v17.48h12.68v6.57h-22.23z"/><path d="m250.52 61.63h6.69l12.81 30v-30h7.98v52.65h-6.37l-12.92-31.46v31.46h-8.19z"/><path d="m284.64 61.63h12.42c12.8 0 16.7 5.13 16.7 16.38v19.17c0 11.57-4 17.1-16.31 17.1h-12.81zm12.55 45.95c6.56 0 6.82-3.51 6.82-10.07v-20.15c0-6.31-.65-8.91-6.95-8.91h-2.86v39.13z"/><path d="m319.55 61.63h22.1v6.76h-12.55v15.14h9.9v6.7h-9.9v17.48h12.68v6.57h-22.23z"/><path d="m346.07 61.63h12.67c10.53 0 16.51 3.38 16.51 14 0 6.31-1.56 10.73-6.5 12.74l7.35 25.94h-9.62l-6.31-24.12h-4.55v24.12h-9.55zm12.61 22.55c5.52 0 7.54-2.4 7.54-8.06 0-5.33-1.5-7.93-7-7.93h-3.58v16z"/><path d="m194.23 154.71h-8.39v-7.08h26.16v7.08h-8.19v45.57h-9.62z"/><path d="m215.55 147.63h22.1v6.76h-12.55v15.14h9.9v6.7h-9.9v17.48h12.68v6.57h-22.23z"/><path d="m242.07 147.63h6.69l12.81 30v-30h7.93v52.65h-6.37l-12.87-31.46v31.46h-8.19z"/><path d="m276.19 147.63h9.56v46.08h12.8v6.57h-22.36z"/><path d="m302.52 147.63h9.48v52.65h-9.49z"/><path d="m318 182.92v-17.68c0-11.31 3.44-18.2 15-18.2 10.79 0 14.56 5.59 14.56 15.34v2.73h-9.16v-3c0-5.07-.52-8.06-5.27-8.06-5.07 0-5.46 4.1-5.46 8.91v22c0 5.46 1 8.91 5.72 8.91s5.79-3.64 5.79-9.36v-4.94h-5.66v-6.05h14.3v26.72h-6.24l-.65-5.14a8.87 8.87 0 0 1 -8.93 5.9c-10.37 0-14-7-14-18.08z"/><path d="m354.13 147.63h9.49v52.65h-9.49z"/><path d="m525.68 271.77h-90.16a1.15 1.15 0 0 0 -1.15 1.14v30a1.16 1.16 0 0 0 1.15 1.15h35.9l-39.86 39.84a118 118 0 0 0 -190.91 92.88c0 60 44.92 109.57 102.85 117.08v34.52h-35.56a1.14 1.14 0 0 0 -1.16 1.14v32.12a1.13 1.13 0 0 0 1.16 1.14h35.56v34a1.14 1.14 0 0 0 1.15 1.15h32.1a1.15 1.15 0 0 0 1.16-1.15v-34h35.56a1.13 1.13 0 0 0 1.14-1.14v-32.12a1.14 1.14 0 0 0 -1.14-1.14h-35.56v-35.08a118 118 0 0 0 77.36-184.44l39.3-39.31v33.54a1.15 1.15 0 0 0 1.16 1.14h29.95a1.16 1.16 0 0 0 1.17-1.14v-90.18a1.16 1.16 0 0 0 -1.17-1.14m-166.93 251.94a86.93 86.93 0 1 1 86.92-86.93 87 87 0 0 1 -86.92 86.93"/><path d="m411.84 401.1h-105.43a1.1 1.1 0 0 0 -1.15 1v25.52a1.09 1.09 0 0 0 1.15 1.05h105.43a1.09 1.09 0 0 0 1.17-1.05v-25.49a1.1 1.1 0 0 0 -1.17-1"/><path d="m411.84 446.68h-105.43a1.11 1.11 0 0 0 -1.15 1.06v25.52a1.08 1.08 0 0 0 1.15 1h105.43a1.09 1.09 0 0 0 1.17-1v-25.52a1.11 1.11 0 0 0 -1.17-1.06"/></g></svg>