<svg viewBox="0 0 720 720" xmlns="http://www.w3.org/2000/svg"><path d="m-1.08-1.08h722.16v722.16h-722.16z" fill="#bf8b2e"/><g fill="#fff"><path d="m49.12 88.93c-4.12 2.21-15.81 5.44-19.89 7.48v-19.55c5.44-2.21 20.57-9.52 25.67-15.13h20.57v137.7h-26.35z"/><path d="m91.36 180.9 33.49-51.51c7.31-11.39 14.62-20.91 14.62-33.66 0-8.84-3.4-13.6-10-13.6-10 0-12.41 9.18-12.41 20.4v6.29h-25.7v-6.82c0-24.31 10.54-42 37.57-42 24.14 0 36.55 13.43 36.55 36.21 0 16.83-8.67 28.56-18 42.67l-26.52 39.78h40.8v20.74h-70.4z"/><path d="m205.51 61.63h10l7.47 36.46 7.74-36.46h9.68l1 52.65h-7.15l-.78-36.6-7.48 36.6h-5.78l-7.61-36.73-.71 36.73h-7.29z"/><path d="m255.69 61.63h10.31l10.53 52.65h-8.9l-2.08-12.16h-9.17l-2.14 12.16h-9zm8.78 34.37-3.58-22.1-3.57 22.1z"/><path d="m278.89 98.94 8.26-1.63c.26 6.24 1.76 10.27 6 10.27 3.06 0 4.36-2.08 4.36-4.94 0-4.55-2.34-7.08-5.79-10.07l-6.63-5.79c-3.79-3.25-6.09-6.89-6.09-12.78 0-8.32 5.2-13 13.59-13 9.88 0 12.67 6.63 13.19 14.3l-8.25 1.43c-.2-4.94-.91-8.64-5.14-8.64-2.86 0-4.42 2.14-4.42 4.94 0 3.57 1.5 5.52 4.29 7.93l6.57 5.78c4.29 3.71 7.86 8.32 7.86 15.28 0 7.6-5.33 12.93-13.19 12.93-9.66.05-14.21-5.55-14.61-16.01z"/><path d="m308.47 61.63h7.53l-3 17.87h-4.48z"/><path d="m319 97.25v-35.62h9.36v36.72c0 5 .58 9.49 5.46 9.49s5.52-4.48 5.52-9.49v-36.72h9.3v35.62c0 11-3.06 17.74-14.82 17.74s-14.82-6.69-14.82-17.74z"/><path d="m354.88 61.63h9.55v46.08h12.81v6.57h-22.36z"/><path d="m381.2 61.63h9.49v52.65h-9.49z"/><path d="m404.86 94.19-10.66-32.56h9l6.5 20.86 6.11-20.86h8.78l-10.59 32.56v20.09h-9.17z"/><path d="m433.72 61.63h10.28l10.53 52.65h-8.9l-2.08-12.16h-9.17l-2.14 12.16h-9zm8.78 34.37-3.58-22.1-3.57 22.1z"/><path d="m461.28 68.71h-8.38v-7.08h26.19v7.08h-8.19v45.57h-9.62z"/><path d="m482.6 61.63h9.56v46.08h12.84v6.57h-22.4z"/><path d="m508.93 61.63h9.49v52.65h-9.49z"/><path d="m205 129.63h9.49v52.65h-9.49z"/><path d="m220 166.94 8.25-1.63c.26 6.24 1.76 10.27 6 10.27 3.06 0 4.36-2.08 4.36-4.94 0-4.55-2.34-7.08-5.79-10.07l-6.63-5.79c-3.77-3.25-6.11-6.89-6.11-12.74 0-8.32 5.2-13 13.59-13 9.88 0 12.67 6.63 13.19 14.3l-8.25 1.43c-.2-4.94-.91-8.64-5.14-8.64-2.86 0-4.42 2.14-4.42 4.94 0 3.57 1.5 5.52 4.29 7.93l6.57 5.78c4.29 3.71 7.86 8.32 7.86 15.28 0 7.6-5.33 12.93-13.19 12.93-9.58.01-14.18-5.59-14.58-16.05z"/><path d="m257.38 136.71h-8.38v-7.08h26.2v7.08h-8.2v45.57h-9.62z"/><path d="m278.7 129.63h22.1v6.76h-12.55v15.14h9.88v6.7h-9.88v17.48h12.68v6.57h-22.23z"/><path d="m302.68 129.63h7.54l-3.05 17.87h-4.49z"/><path d="m314.38 129.63h9.95l7.47 36.46 7.74-36.46h9.68l1 52.65h-7.15l-.78-36.6-7.48 36.6h-5.81l-7.61-36.73-.71 36.73h-7.22z"/><path d="m355.85 165.77v-19.77c0-10.66 3.9-17 15.21-17s15.15 6.31 15.15 17v19.76c0 10.59-3.9 17.22-15.15 17.22s-15.21-6.55-15.21-17.21zm20.61 2.23v-24.2c0-4.42-.72-7.74-5.4-7.74s-5.46 3.32-5.46 7.74v24.2c0 4.36.72 7.87 5.46 7.87s5.4-3.47 5.4-7.87z"/><path d="m392 129.63h9.56v46.08h12.8v6.57h-22.36z"/><path d="m430.08 129.63h8.45l7 37.24 6.56-37.24h8.65l-10.6 52.65h-9.42z"/><path d="m470.71 129.63h10.29l10.53 52.65h-8.93l-2.08-12.16h-9.16l-2.15 12.16h-9zm8.77 34.37-3.57-22.1-3.58 22.1z"/><path d="m205 197.63h9.49v52.65h-9.49z"/><path d="m220 234.94 8.25-1.63c.26 6.24 1.76 10.27 6 10.27 3.06 0 4.36-2.08 4.36-4.94 0-4.55-2.34-7.08-5.79-10.07l-6.63-5.79c-3.77-3.25-6.11-6.89-6.11-12.74 0-8.32 5.2-13 13.59-13 9.88 0 12.67 6.63 13.19 14.3l-8.25 1.43c-.2-4.94-.91-8.64-5.14-8.64-2.86 0-4.42 2.14-4.42 4.94 0 3.57 1.5 5.52 4.29 7.93l6.57 5.78c4.29 3.71 7.86 8.32 7.86 15.28 0 7.6-5.33 12.93-13.19 12.93-9.58.01-14.18-5.59-14.58-16.05z"/><path d="m252.24 197.63h9.56v22h10.73v-22h9.62v52.65h-9.62v-23.79h-10.73v23.79h-9.56z"/><path d="m288.9 197.63h9.56v46.08h12.81v6.57h-22.37z"/><path d="m322.83 197.63h10.27l10.54 52.65h-8.91l-2.08-12.16h-9.17l-2.14 12.16h-9zm8.78 34.37-3.61-22.09-3.54 22.09z"/><path d="m347.6 197.63h13c9.23 0 15.4 3.12 15.4 13.52 0 6.43-2.66 10-7.6 10.79 6.17 1.17 9.1 5.59 9.1 13 0 10.07-4.94 15.34-14.69 15.34h-15.21zm12.87 21.51c5.72 0 7.21-2.53 7.21-7.86 0-5.59-2.73-7-8.58-7h-2v14.82zm.39 24.38c5.85 0 7.47-2.73 7.47-8.65 0-6.24-2.08-9.1-7.8-9.1h-3.38v17.75z"/><path d="m396.15 233.44v-18.78c0-10.79 3.45-17.62 15-17.62 10.79 0 14.23 6 14.23 15.15v4.42h-9.23v-4.55c0-4.42-.06-8-4.94-8s-5.39 3.77-5.39 8.58v22.82c0 5.72 1.17 8.45 5.39 8.45 4.75 0 4.94-3.71 4.94-8.39v-4.74h9.23v4.22c0 9.3-3.12 16-14.23 16-11.55 0-15-7.29-15-17.56z"/><path d="m430.93 197.63h9.55v22h10.73v-22h9.62v52.65h-9.62v-23.79h-10.73v23.79h-9.55z"/><path d="m467.85 197.63h9.49v52.65h-9.49z"/><path d="m499.63 250.93a6.35 6.35 0 0 1 -1.1.06c-11.38 0-15.21-6.56-15.21-17.22v-19.77c0-10.66 3.9-17 15.21-17s15.14 6.31 15.14 17v19.76c0 7.54-2 13.13-7.28 15.6a25.7 25.7 0 0 0 5.27 5.07l-1.82 6.37c-3.19-1.49-7.61-5.97-10.21-9.87zm4.37-14.93v-24.2c0-4.42-.78-7.74-5.46-7.74s-5.46 3.32-5.46 7.74v24.2c0 4.36.71 7.87 5.46 7.87s5.46-3.47 5.46-7.87z"/><path d="m527 197.63h10.27l10.53 52.65h-8.91l-2.08-12.16h-9.16l-2.15 12.16h-9zm8.77 34.37-3.57-22.1-3.58 22.1z"/><path d="m551.76 197.63h12.68c10.53 0 16.51 3.38 16.51 14 0 6.31-1.56 10.73-6.5 12.74l7.34 25.94h-9.62l-6.3-24.12h-4.55v24.12h-9.56zm12.61 22.55c5.53 0 7.54-2.4 7.54-8.06 0-5.33-1.49-7.93-7-7.93h-3.57v16z"/><path d="m587.18 197.63h9.5v52.65h-9.5z"/><path d="m602.2 234.94 8.25-1.63c.27 6.24 1.76 10.27 6 10.27 3.06 0 4.36-2.08 4.36-4.94 0-4.55-2.34-7.08-5.78-10.07l-6.64-5.79c-3.77-3.25-6.11-6.89-6.11-12.74 0-8.32 5.2-13 13.59-13 9.88 0 12.68 6.63 13.2 14.3l-8.26 1.43c-.19-4.94-.91-8.64-5.14-8.64-2.85 0-4.42 2.14-4.42 4.94 0 3.57 1.5 5.52 4.29 7.93l6.57 5.78c4.29 3.71 7.87 8.32 7.87 15.28 0 7.6-5.33 12.93-13.2 12.93-9.64.01-14.19-5.59-14.58-16.05z"/><path d="m634.44 197.63h9.56v22h10.73v-22h9.62v52.65h-9.62v-23.79h-10.73v23.79h-9.55z"/><path d="m544.11 373.67c-32-25.3-74.49-25.82-90-22.12l-1.8.42c-17.95 4.24-46.47 11.25-79.85 52.68-.19.23-.38.46-.56.7l-.42.51a2.77 2.77 0 0 0 -.56 1.61 2.88 2.88 0 0 0 .36 1.39l.78 1.28c4.19 7 9.47 16 13.94 24.34a1.92 1.92 0 0 1 .12.25 2.88 2.88 0 0 0 2.55 1.57 2.82 2.82 0 0 0 2-.8c.21-.27.42-.56.61-.85 29.63-41 52.92-46.63 68.68-50.34l1.89-.44c8.18-2 39.28-1.85 61.73 15.88 17.52 13.83 26.42 35.84 26.42 65.41 0 49.61-24.13 69-44.38 76.56-31.36 11.73-61.44-4-61.66-4.07l-1.35-.65c-17.23-7.48-42.94-23-67.18-71.72-48.91-98.09-89.76-107.28-116.79-113.45l-1.45-.32c-12.31-2.79-55.06-4.77-88.66 22.05-17.56 14-38.47 41.24-38.47 91.41 0 30.56 6.28 50.75 22.42 72 3.54 4.84 39.71 51.31 109.64 37.9 11.19-2.14 26.36-7.48 43-20l15.39 13.88a2.53 2.53 0 0 0 3.53-.17 2.37 2.37 0 0 0 .62-1.67v-.21l11.1-68.3v-.76a2.49 2.49 0 0 0 -.82-1.82 2.32 2.32 0 0 0 -1.63-.61h-.48l-.72.08-65.42 18.31-1.19.2a2.2 2.2 0 0 0 -1.25.73 2.48 2.48 0 0 0 .18 3.54l.77.71 14.66 13.24c-9.47 6.13-17.72 8.94-24 10.16-50.6 9.65-75.58-23.48-76.53-24.78l-.33-.4c-11.76-15.43-15.73-28.55-15.73-52 0-29.66 8.74-51.69 26-65.45 21.88-17.46 52.06-17.56 60.58-15.62l1.47.33c22.15 5 52.51 11.88 94.31 95.86 21.72 43.6 48.91 72.11 83.14 87.14a120.9 120.9 0 0 0 52.11 12.08 103.71 103.71 0 0 0 36.3-6.44c19.84-7.4 66-32.7 66-107.71 0-50.13-21.23-77.42-39-91.49"/></g></svg>