<svg viewBox="0 0 720 720" xmlns="http://www.w3.org/2000/svg"><path d="m-1.08-1.08h722.16v722.16h-722.16z" fill="#fd9d24"/><g fill="#fff"><path d="m50.12 88.93c-4.12 2.21-15.81 5.44-19.89 7.48v-19.55c5.44-2.21 20.57-9.52 25.67-15.13h20.57v137.7h-26.35z"/><path d="m107.33 88.93c-4.08 2.21-15.81 5.44-19.89 7.48v-19.55c5.44-2.21 20.57-9.52 25.67-15.13h20.57v137.7h-26.35z"/><path d="m167.62 61.61h12.67c9 0 15 3.06 15 13.24 0 6.31-2.6 9.81-7.42 10.57 6 1.15 8.88 5.48 8.88 12.73 0 9.87-4.82 15-14.33 15h-14.8zm12.54 21.07c5.58 0 7-2.48 7-7.7 0-5.47-2.66-6.81-8.37-6.81h-1.9v14.51zm.38 23.87c5.71 0 7.29-2.67 7.29-8.46 0-6.11-2-8.91-7.6-8.91h-3.3v17.37z"/><path d="m208.17 61.61h10l10.27 51.57h-8.68l-2-11.91h-8.96l-2.09 11.91h-8.8zm8.56 33.68-3.49-21.65-3.49 21.65z"/><path d="m231.23 61.61h12.36c10.27 0 16.1 3.31 16.1 13.69 0 6.17-1.52 10.5-6.34 12.48l7.16 25.4h-9.38l-6.13-23.62h-4.44v23.62h-9.32zm12.3 22.09c5.38 0 7.35-2.35 7.35-7.89 0-5.22-1.46-7.77-6.84-7.77h-3.49v15.66z"/><path d="m279.27 113.81a5.3 5.3 0 0 1 -1.08.07c-11.09 0-14.83-6.43-14.83-16.87v-19.35c0-10.44 3.8-16.62 14.83-16.62s14.81 6.18 14.81 16.62v19.34c0 7.38-2 12.85-7.09 15.27a24.83 24.83 0 0 0 5.13 5l-1.77 6.24c-3.16-1.51-7.47-5.88-10-9.7zm4.24-14.58v-23.74c0-4.33-.76-7.57-5.32-7.57s-5.32 3.24-5.32 7.57v23.74c0 4.27.69 7.71 5.32 7.71s5.32-3.44 5.32-7.71z"/><path d="m304.87 61.61h10l10.26 51.57h-8.68l-2-11.91h-8.95l-2.09 11.91h-8.81zm8.55 33.68-3.49-21.65-3.48 21.65z"/><path d="m327.93 61.61h12.36c10.26 0 16.09 3.31 16.09 13.69 0 6.17-1.52 10.5-6.34 12.48l7.17 25.4h-9.38l-6.15-23.62h-4.44v23.62h-9.31zm12.29 22.09c5.39 0 7.35-2.35 7.35-7.89 0-5.22-1.45-7.77-6.84-7.77h-3.49v15.66z"/><path d="m360.05 97v-19.34c0-10.44 3.81-16.62 14.83-16.62s14.77 6.18 14.77 16.62v19.34c0 10.37-3.8 16.87-14.77 16.87s-14.83-6.42-14.83-16.87zm20.09 2.22v-23.73c0-4.33-.69-7.57-5.26-7.57s-5.32 3.24-5.32 7.57v23.74c0 4.27.7 7.71 5.32 7.71s5.26-3.44 5.26-7.71z"/><path d="m394.21 61.61h12.36c10.26 0 16.09 3.31 16.09 13.69 0 6.17-1.52 10.5-6.34 12.48l7.16 25.4h-9.37l-6.11-23.62h-4.44v23.62h-9.31zm12.29 22.09c5.39 0 7.35-2.35 7.35-7.89 0-5.22-1.45-7.77-6.84-7.77h-3.49v15.66z"/><path d="m166.35 164.74 8.05-1.59c.25 6.11 1.71 10.06 5.83 10.06 3 0 4.24-2 4.24-4.84 0-4.45-2.28-6.94-5.64-9.86l-6.46-5.67c-3.68-3.18-6-6.75-6-12.48 0-8.14 5.07-12.73 13.25-12.73 9.63 0 12.35 6.49 12.86 14l-8.05 1.4c-.19-4.84-.89-8.47-5-8.47-2.79 0-4.31 2.1-4.31 4.84 0 3.5 1.45 5.41 4.18 7.76l6.4 5.67c4.18 3.63 7.67 8.15 7.67 15 0 7.45-5.2 12.67-12.87 12.67-9.33-.03-13.77-5.5-14.15-15.76z"/><path d="m196.7 128.21h9.3v21.51h10.45v-21.51h9.38v51.56h-9.38v-23.3h-10.45v23.3h-9.3z"/><path d="m239 128.21h10l10.27 51.56h-8.68l-2-11.91h-8.94l-2.09 11.91h-8.81zm8.55 33.67-3.48-21.64-3.49 21.64z"/><path d="m262.22 128.21h9.32v21.51h10.46v-21.51h9.38v51.56h-9.38v-23.3h-10.46v23.3h-9.32z"/><path d="m304.55 128.21h10l10.27 51.56h-8.69l-2-11.91h-8.94l-2.09 11.91h-8.81zm8.55 33.67-3.48-21.64-3.49 21.64z"/><path d="m327.61 128.21h12.39c10.26 0 16.1 3.31 16.1 13.68 0 6.18-1.53 10.5-6.34 12.48l7.16 25.4h-9.38l-6.15-23.62h-4.43v23.62h-9.32zm12.3 22.08c5.38 0 7.35-2.35 7.35-7.89 0-5.22-1.46-7.77-6.85-7.77h-3.48v15.66z"/><path d="m360.82 128.21h9.31v45.13h12.48v6.43h-21.79z"/><path d="m392.81 128.21h10l10.26 51.56h-8.68l-2-11.91h-8.93l-2.09 11.91h-8.81zm8.56 33.67-3.49-21.64-3.48 21.64z"/><path d="m415.88 128.21h12.36c10.26 0 16.09 3.31 16.09 13.68 0 6.18-1.52 10.5-6.34 12.48l7.16 25.4h-9.37l-6.15-23.62h-4.44v23.62h-9.31zm12.29 22.08c5.39 0 7.35-2.35 7.35-7.89 0-5.22-1.46-7.77-6.84-7.77h-3.49v15.66z"/><path d="m459.73 128.21h8.27l6.78 36.47 6.4-36.47h8.43l-10.33 51.56h-9.18z"/><path d="m498.25 128.21h10l10.27 51.56h-8.68l-2-11.91h-8.93l-2.09 11.91h-8.82zm8.56 33.67-3.49-21.64-3.48 21.64z"/><path d="m542 128.21h10l10.27 51.56h-8.69l-2-11.91h-8.94l-2.09 11.91h-8.81zm8.55 33.67-3.48-21.64-3.49 21.64z"/><path d="m565.23 128.21h9.31v21.51h10.46v-21.51h9.38v51.56h-9.38v-23.3h-10.46v23.3h-9.31z"/><path d="m599.07 163.6v-19.35c0-10.44 3.8-16.62 14.82-16.62s14.77 6.18 14.77 16.62v19.35c0 10.37-3.8 16.87-14.77 16.87s-14.82-6.47-14.82-16.87zm20.08 2.23v-23.75c0-4.33-.69-7.57-5.26-7.57s-5.32 3.24-5.32 7.57v23.75c0 4.26.7 7.7 5.32 7.7s5.26-3.44 5.26-7.7z"/><path d="m633.22 128.21h9.31v45.13h12.47v6.43h-21.8z"/><path d="m657.8 128.21h9.26v51.56h-9.26z"/><path d="m174.78 226.69-10.4-31.89h8.75l6.34 20.43 5.95-20.43h8.58l-10.27 31.89v19.67h-8.93z"/><path d="m201.83 194.8h10l10.26 51.56h-8.68l-2-11.91h-8.93l-2.09 11.91h-8.81zm8.56 33.67-3.49-21.64-3.48 21.64z"/><path d="m223.38 231.33 8.05-1.59c.25 6.11 1.71 10.06 5.83 10.06 3 0 4.24-2 4.24-4.84 0-4.45-2.28-6.94-5.64-9.86l-6.46-5.67c-3.68-3.18-6-6.75-6-12.48 0-8.14 5.07-12.73 13.25-12.73 9.63 0 12.35 6.5 12.86 14l-8.05 1.4c-.19-4.84-.89-8.47-5-8.47-2.79 0-4.31 2.1-4.31 4.84 0 3.5 1.45 5.41 4.18 7.77l6.4 5.66c4.18 3.63 7.67 8.15 7.67 15 0 7.45-5.2 12.67-12.87 12.67-9.34-.03-13.77-5.51-14.15-15.76z"/><path d="m253.73 194.8h9.27v21.51h10.5v-21.51h9.38v51.56h-9.38v-23.3h-10.5v23.3h-9.31z"/><path d="m296.06 194.8h10l10.27 51.56h-8.69l-2-11.91h-8.94l-2.09 11.91h-8.81zm8.55 33.67-3.48-21.64-3.49 21.64z"/><path d="m317.6 231.33 8-1.59c.25 6.11 1.71 10.06 5.83 10.06 3 0 4.24-2 4.24-4.84 0-4.45-2.28-6.94-5.64-9.86l-6.46-5.67c-3.67-3.18-6-6.75-6-12.48 0-8.14 5.07-12.73 13.25-12.73 9.63 0 12.36 6.5 12.86 14l-8 1.4c-.19-4.84-.88-8.47-5-8.47-2.79 0-4.31 2.1-4.31 4.84 0 3.5 1.46 5.41 4.18 7.77l6.4 5.66c4.18 3.63 7.67 8.15 7.67 15 0 7.45-5.2 12.67-12.86 12.67-9.34-.03-13.76-5.51-14.16-15.76z"/><path d="m348 194.8h9.32v21.51h10.45v-21.51h9.38v51.56h-9.38v-23.3h-10.5v23.3h-9.27z"/><path d="m392.43 241c5.39 0 6.79-1 6.79-6.43v-39.77h9.31v40c0 8.65-2.47 12.79-11.6 12.79h-4.5z"/><path d="m413.16 230.19v-19.35c0-10.44 3.8-16.62 14.82-16.62s14.77 6.18 14.77 16.62v19.35c0 10.37-3.8 16.87-14.77 16.87s-14.82-6.43-14.82-16.87zm20.08 2.23v-23.75c0-4.33-.69-7.57-5.26-7.57s-5.32 3.24-5.32 7.57v23.75c0 4.26.7 7.7 5.32 7.7s5.26-3.44 5.26-7.7z"/><path d="m454 226.69-10.43-31.89h8.74l6.34 20.43 6-20.43h8.55l-10.3 31.89v19.67h-8.9z"/><path d="m475.32 194.8h9.31v45.13h12.49v6.43h-21.8z"/><path d="m507.32 194.8h10l10.26 51.56h-8.68l-2-11.91h-8.9l-2.09 11.91h-8.81zm8.55 33.67-3.49-21.64-3.48 21.64z"/><path d="m530.38 194.8h12.36c10.26 0 16.09 3.31 16.09 13.68 0 6.18-1.52 10.51-6.34 12.48l7.17 25.4h-9.38l-6.15-23.62h-4.44v23.62h-9.31zm12.29 22.08c5.39 0 7.35-2.35 7.35-7.89 0-5.22-1.45-7.76-6.84-7.76h-3.49v15.65z"/><path d="m563.84 194.8h9.25v51.56h-9.25z"/><path d="m122.07 562.58h109.13a2.69 2.69 0 0 0 2.67-2.69 2.65 2.65 0 0 0 -.7-1.78l-.17-.11-54.29-70.24-.53-.59a2.63 2.63 0 0 0 -3.73-.18l-.33.38-.51.57-53 69.51-.81 1a2.64 2.64 0 0 0 -.46 1.5 2.69 2.69 0 0 0 2.73 2.63z"/><path d="m230.87 572.48h-109.34a2.68 2.68 0 0 0 -2.68 2.68v85.57a2.68 2.68 0 0 0 2.68 2.68h35.19v-53.83a2.67 2.67 0 0 1 2.68-2.68h32.66a2.67 2.67 0 0 1 2.68 2.68v53.83h36.13a2.68 2.68 0 0 0 2.67-2.68v-85.57a2.68 2.68 0 0 0 -2.67-2.68z"/><path d="m608.77 550.08h-108.22a2.6 2.6 0 0 0 -2.64 2.57v109.28a2.6 2.6 0 0 0 2.64 2.57h108.22a2.61 2.61 0 0 0 2.65-2.57v-109.28a2.6 2.6 0 0 0 -2.65-2.57m-59.21 71.34a2.61 2.61 0 0 1 -2.64 2.59h-32.34a2.63 2.63 0 0 1 -2.66-2.59v-19.64a2.61 2.61 0 0 1 2.66-2.58h32.34a2.6 2.6 0 0 1 2.64 2.58zm0-36.31a2.61 2.61 0 0 1 -2.64 2.58h-32.34a2.62 2.62 0 0 1 -2.66-2.58v-19.66a2.62 2.62 0 0 1 2.66-2.58h32.34a2.61 2.61 0 0 1 2.64 2.58zm49.44 36.31a2.62 2.62 0 0 1 -2.65 2.59h-32.35a2.62 2.62 0 0 1 -2.65-2.59v-19.64a2.6 2.6 0 0 1 2.65-2.58h32.32a2.6 2.6 0 0 1 2.65 2.58zm0-36.31a2.61 2.61 0 0 1 -2.65 2.58h-32.35a2.61 2.61 0 0 1 -2.65-2.58v-19.66a2.61 2.61 0 0 1 2.65-2.58h32.32a2.61 2.61 0 0 1 2.65 2.58z"/><path d="m357.2 296.42h-105.91a2.59 2.59 0 0 0 -2.59 2.58v362a2.6 2.6 0 0 0 2.59 2.59h105.91a2.61 2.61 0 0 0 2.61-2.59v-362a2.61 2.61 0 0 0 -2.61-2.59m-63 325.9a1.4 1.4 0 0 1 -1.39 1.39h-24.25a1.39 1.39 0 0 1 -1.39-1.39v-27a1.38 1.38 0 0 1 1.39-1.38h24.25a1.39 1.39 0 0 1 1.39 1.38zm0-62.07a1.39 1.39 0 0 1 -1.39 1.39h-24.25a1.38 1.38 0 0 1 -1.39-1.39v-27a1.38 1.38 0 0 1 1.39-1.4h24.25a1.39 1.39 0 0 1 1.39 1.4zm0-62.05a1.39 1.39 0 0 1 -1.39 1.39h-24.25a1.39 1.39 0 0 1 -1.39-1.39v-27a1.39 1.39 0 0 1 1.39-1.39h24.25a1.39 1.39 0 0 1 1.39 1.39zm0-62.07a1.39 1.39 0 0 1 -1.39 1.39h-24.25a1.39 1.39 0 0 1 -1.39-1.39v-27a1.37 1.37 0 0 1 1.39-1.37h24.25a1.38 1.38 0 0 1 1.39 1.37zm0-62.05a1.4 1.4 0 0 1 -1.39 1.39h-24.25a1.39 1.39 0 0 1 -1.39-1.39v-27a1.39 1.39 0 0 1 1.39-1.39h24.25a1.39 1.39 0 0 1 1.39 1.39zm47.56 248.24a1.4 1.4 0 0 1 -1.4 1.39h-24.25a1.39 1.39 0 0 1 -1.39-1.39v-27a1.38 1.38 0 0 1 1.39-1.38h24.25a1.39 1.39 0 0 1 1.4 1.38zm0-62.07a1.39 1.39 0 0 1 -1.4 1.39h-24.25a1.38 1.38 0 0 1 -1.39-1.39v-27a1.38 1.38 0 0 1 1.39-1.4h24.25a1.39 1.39 0 0 1 1.4 1.4zm0-62.05a1.4 1.4 0 0 1 -1.4 1.39h-24.25a1.39 1.39 0 0 1 -1.39-1.39v-27a1.39 1.39 0 0 1 1.39-1.39h24.25a1.4 1.4 0 0 1 1.4 1.39zm0-62.07a1.4 1.4 0 0 1 -1.4 1.39h-24.25a1.39 1.39 0 0 1 -1.39-1.39v-27a1.37 1.37 0 0 1 1.39-1.37h24.25a1.38 1.38 0 0 1 1.4 1.37zm0-62.05a1.4 1.4 0 0 1 -1.4 1.39h-24.25a1.39 1.39 0 0 1 -1.39-1.39v-27a1.39 1.39 0 0 1 1.39-1.39h24.25a1.4 1.4 0 0 1 1.4 1.39z"/><path d="m611.3 539.08a2.17 2.17 0 0 1 -2.18 2.19h-108.92a2.18 2.18 0 0 1 -2.18-2.19v-21.78a2.19 2.19 0 0 1 2.18-2.18h108.92a2.18 2.18 0 0 1 2.18 2.18z"/><path d="m485.13 364.77a2.8 2.8 0 0 0 -2.66-2 2.76 2.76 0 0 0 -1.52.5c-.06.05-.13.08-.2.14l-.89 1.12-104.09 132.02-.48.64a3 3 0 0 0 -.9 2.06v162.26a2.58 2.58 0 0 0 2.59 2.58h105.81a2.58 2.58 0 0 0 2.59-2.58v-295.66a2.56 2.56 0 0 0 -.25-1.08zm-43.83 71.71.75-.94c7.12-9.14 19.12-23.91 25-31.09l.77-.91a3 3 0 0 1 2.33-1.1 3 3 0 0 1 2.89 2.42v33.4a3 3 0 0 1 -2.88 3c-.05 0-.09 0-.13 0s-.08 0-.13 0h-26c-.05 0-.09 0-.14 0s-.08 0-.13 0a3 3 0 0 1 -2.29-4.76zm-16.47 184.92a2.58 2.58 0 0 1 -2.59 2.59h-31.56a2.58 2.58 0 0 1 -2.59-2.59v-19.76a2.58 2.58 0 0 1 2.59-2.58h31.56a2.58 2.58 0 0 1 2.59 2.58zm0-36.5a2.58 2.58 0 0 1 -2.59 2.58h-31.56a2.58 2.58 0 0 1 -2.59-2.58v-19.76a2.57 2.57 0 0 1 2.59-2.59h31.56a2.57 2.57 0 0 1 2.59 2.59zm0-36.51a2.58 2.58 0 0 1 -2.59 2.58h-31.56a2.58 2.58 0 0 1 -2.59-2.58v-19.77a2.58 2.58 0 0 1 2.59-2.59h31.56a2.58 2.58 0 0 1 2.59 2.59zm.09-80v43.52a2.6 2.6 0 0 1 -2.59 2.59h-31.56a2.59 2.59 0 0 1 -2.6-2.59v-5.48a2.84 2.84 0 0 1 .2-1 2 2 0 0 1 .15-.29 3 3 0 0 1 .23-.35l.3-.42c4-5.78 22.24-28.2 29.89-37.58l.76-.93a3 3 0 0 1 2.33-1.1 3 3 0 0 1 2.89 2.43zm48.16 153a2.59 2.59 0 0 1 -2.58 2.61h-31.56a2.59 2.59 0 0 1 -2.61-2.59v-19.77a2.59 2.59 0 0 1 2.61-2.58h31.56a2.59 2.59 0 0 1 2.58 2.58zm0-36.5a2.59 2.59 0 0 1 -2.58 2.58h-31.56a2.59 2.59 0 0 1 -2.61-2.58v-19.75a2.58 2.58 0 0 1 2.61-2.59h31.56a2.58 2.58 0 0 1 2.58 2.59zm0-36.51a2.59 2.59 0 0 1 -2.58 2.62h-31.56a2.59 2.59 0 0 1 -2.61-2.58v-19.8a2.59 2.59 0 0 1 2.61-2.59h31.56a2.59 2.59 0 0 1 2.58 2.59zm0-36.52a2.59 2.59 0 0 1 -2.58 2.58h-31.56a2.59 2.59 0 0 1 -2.61-2.58v-19.74a2.59 2.59 0 0 1 2.61-2.59h31.56a2.59 2.59 0 0 1 2.58 2.59zm0-36.51a2.59 2.59 0 0 1 -2.58 2.65h-31.56a2.59 2.59 0 0 1 -2.61-2.59v-19.81a2.6 2.6 0 0 1 2.61-2.6h31.56a2.6 2.6 0 0 1 2.58 2.6z"/></g></svg>