<svg viewBox="0 0 720 720" xmlns="http://www.w3.org/2000/svg"><path d="m-1.08-1.08h722.16v722.16h-722.16z" fill="#fd6925"/><g fill="#fff"><path d="m57.16 166.11v-2h24.84c0 11.56 1.36 17.17 10 17.17 8.33 0 10.2-6.63 10.2-27.88v-13.98c-2.89 4.93-9.35 7.82-17.34 8-22.27.34-29.92-18.19-29.92-41 .06-27.86 10.06-46.42 37.06-46.42 26.18 0 37.06 17.85 37.06 44v50.15c0 26.86-7.65 47.09-37.23 47.09-25.32.06-34.67-12.35-34.67-35.13zm45.05-45.05v-21.93c0-10.37-1.7-19.55-10.2-19.55-8.67 0-10.2 8.84-10.2 23.8 0 14.11.17 24 10.37 24 5.27-.03 8.33-3.38 10.03-6.32z"/><path d="m158.64 98 8.26-1.62c.26 6.24 1.75 10.27 6 10.27 3.05 0 4.35-2.08 4.35-4.94 0-4.55-2.34-7.09-5.78-10.08l-6.63-5.78c-3.77-3.25-6.11-6.89-6.11-12.74 0-8.32 5.2-13 13.58-13 9.88 0 12.68 6.63 13.2 14.3l-8.26 1.43c-.19-4.94-.91-8.65-5.13-8.65-2.86 0-4.42 2.15-4.42 4.94 0 3.58 1.49 5.53 4.29 7.93l6.56 5.79c4.29 3.7 7.87 8.32 7.87 15.27 0 7.61-5.33 12.94-13.2 12.94-9.64-.01-14.22-5.6-14.58-16.06z"/><path d="m198.36 60.68h10.27l10.53 52.65h-8.91l-2.08-12.15h-9.17l-2.15 12.15h-9zm8.77 34.39-3.57-22.07-3.56 22.07z"/><path d="m223.12 60.68h6.7l12.8 30v-30h7.93v52.65h-6.37l-12.87-31.46v31.46h-8.19z"/><path d="m256.4 96.82v-19.76c0-10.66 3.9-17 15.21-17s15.15 6.3 15.15 17v19.76c0 10.6-3.9 17.23-15.15 17.23s-15.21-6.57-15.21-17.23zm20.6 2.28v-24.25c0-4.42-.72-7.73-5.4-7.73s-5.46 3.31-5.46 7.73v24.25c0 4.35.72 7.86 5.46 7.86s5.4-3.51 5.4-7.86z"/><path d="m300 60.68h10.27l10.53 52.65h-8.91l-2.08-12.15h-9.16l-2.15 12.15h-9zm8.77 34.39-3.55-22.07-3.58 22.1z"/><path d="m327.57 67.77h-8.38v-7.09h26.2v7.09h-8.2v45.56h-9.62z"/><path d="m348.89 60.68h9.56v46.09h12.8v6.56h-22.36z"/><path d="m382.82 60.68h10.27l10.53 52.65h-8.9l-2.08-12.15h-9.17l-2.14 12.15h-9zm8.78 34.39-3.6-22.07-3.57 22.1z"/><path d="m406 98 8.25-1.62c.26 6.24 1.76 10.27 6 10.27 3.06 0 4.36-2.08 4.36-4.94 0-4.55-2.34-7.09-5.79-10.08l-6.63-5.78c-3.77-3.25-6.11-6.89-6.11-12.74 0-8.32 5.2-13 13.59-13 9.88 0 12.67 6.63 13.19 14.3l-8.25 1.43c-.2-4.94-.91-8.65-5.14-8.65-2.86 0-4.42 2.15-4.42 4.94 0 3.58 1.5 5.53 4.29 7.93l6.57 5.79c4.29 3.7 7.86 8.32 7.86 15.27 0 7.61-5.33 12.94-13.19 12.94-9.58-.01-14.16-5.6-14.58-16.06z"/><path d="m438.27 60.68h9.55v22h10.73v-22h9.62v52.65h-9.62v-23.79h-10.73v23.79h-9.55z"/><path d="m480.19 67.77h-8.38v-7.09h26.19v7.09h-8.19v45.56h-9.62z"/><path d="m501.77 60.68h9.49v52.65h-9.49z"/><path d="m518.09 60.68h12.67c10.53 0 16.51 3.38 16.51 14 0 6.3-1.56 10.72-6.5 12.74l7.35 25.93h-9.62l-6.31-24.11h-4.55v24.11h-9.55zm12.61 22.56c5.52 0 7.54-2.41 7.54-8.06 0-5.33-1.5-7.93-7-7.93h-3.58v16z"/><path d="m553.51 60.68h9.49v52.65h-9.49z"/><path d="m568.52 98 8.26-1.62c.26 6.24 1.75 10.27 6 10.27 3 0 4.35-2.08 4.35-4.94 0-4.55-2.34-7.09-5.78-10.08l-6.63-5.78c-3.77-3.25-6.11-6.89-6.11-12.74 0-8.32 5.2-13 13.58-13 9.88 0 12.68 6.63 13.2 14.3l-8.26 1.43c-.19-4.94-.91-8.65-5.13-8.65-2.86 0-4.42 2.15-4.42 4.94 0 3.58 1.49 5.53 4.29 7.93l6.56 5.79c4.29 3.7 7.87 8.32 7.87 15.27 0 7.61-5.33 12.94-13.2 12.94-9.64-.01-14.19-5.6-14.58-16.06z"/><path d="m600.76 60.68h9.56v22h10.68v-22h9.62v52.65h-9.62v-23.79h-10.68v23.79h-9.56z"/><path d="m636.64 118.92a5.39 5.39 0 0 0 4.23-5.59h-4.68v-8.77h8.64v8c0 5.59-2.4 8.65-7.28 9.56z"/><path d="m160.2 128.68h9.49v52.65h-9.49z"/><path d="m176.52 128.68h6.69l12.81 30v-30h7.98v52.65h-6.37l-12.87-31.46v31.46h-8.19z"/><path d="m210.64 128.68h6.7l12.8 30v-30h7.93v52.65h-6.37l-12.87-31.46v31.46h-8.19z"/><path d="m243.92 164.82v-19.76c0-10.66 3.9-17 15.21-17s15.15 6.3 15.15 17v19.76c0 10.6-3.9 17.23-15.15 17.23s-15.21-6.57-15.21-17.23zm20.61 2.28v-24.25c0-4.42-.72-7.73-5.4-7.73s-5.46 3.31-5.46 7.73v24.25c0 4.35.72 7.86 5.46 7.86s5.4-3.51 5.4-7.86z"/><path d="m277.33 128.68h8.45l7 37.25 6.56-37.25h8.66l-10.6 52.65h-9.42z"/><path d="m318 128.68h10.27l10.53 52.65h-8.91l-2.08-12.15h-9.16l-2.15 12.15h-9zm8.77 34.39-3.61-22.07-3.58 22.1z"/><path d="m345.51 135.77h-8.38v-7.09h26.2v7.09h-8.2v45.56h-9.62z"/><path d="m365.53 166 8.26-1.62c.26 6.24 1.75 10.27 6 10.27 3.05 0 4.35-2.08 4.35-4.94 0-4.55-2.34-7.09-5.78-10.08l-6.63-5.78c-3.77-3.25-6.11-6.89-6.11-12.74 0-8.32 5.2-13 13.58-13 9.88 0 12.68 6.63 13.2 14.3l-8.26 1.43c-.19-4.94-.91-8.65-5.13-8.65-2.86 0-4.42 2.15-4.42 4.94 0 3.58 1.49 5.53 4.29 7.93l6.56 5.79c4.29 3.7 7.87 8.32 7.87 15.27 0 7.61-5.33 12.94-13.2 12.94-9.64-.01-14.19-5.6-14.58-16.06z"/><path d="m397.9 128.68h9.49v52.65h-9.49z"/><path d="m421.56 161.25-10.66-32.57h9l6.5 20.87 6.11-20.87h8.78l-10.53 32.57v20.08h-9.17z"/><path d="m450.42 128.68h10.27l10.53 52.65h-8.9l-2.08-12.15h-9.17l-2.14 12.15h-9zm8.78 34.39-3.58-22.07-3.57 22.1z"/><path d="m487.21 128.68h8.45l7 37.25 6.56-37.25h8.65l-10.6 52.65h-9.42z"/><path d="m527.84 128.68h10.27l10.53 52.65h-8.91l-2.08-12.15h-9.16l-2.15 12.15h-9zm8.77 34.39-3.61-22.07-3.58 22.1z"/><path d="m160.2 196.68h9.49v52.65h-9.49z"/><path d="m176.52 196.68h6.69l12.81 30v-30h7.98v52.65h-6.37l-12.87-31.46v31.46h-8.19z"/><path d="m210.64 196.68h21.65v6.63h-12.09v15.34h9.88v6.7h-9.88v24h-9.56z"/><path d="m236.19 196.68h12.67c10.53 0 16.51 3.38 16.51 14 0 6.3-1.56 10.72-6.5 12.74l7.35 25.93h-9.62l-6.31-24.11h-4.55v24.11h-9.55zm12.61 22.56c5.52 0 7.54-2.41 7.54-8.06 0-5.33-1.5-7.93-7-7.93h-3.58v16z"/><path d="m279.22 196.68h10.27l10.51 52.65h-8.91l-2.09-12.15h-9.16l-2.15 12.15h-9zm8.78 34.39-3.58-22.07-3.58 22.1z"/><path d="m306.77 203.77h-8.38v-7.09h26.2v7.09h-8.19v45.56h-9.63z"/><path d="m327.7 232.3v-35.62h9.36v36.73c0 5 .59 9.49 5.46 9.49s5.53-4.49 5.53-9.49v-36.73h9.29v35.62c0 11-3 17.75-14.82 17.75s-14.82-6.7-14.82-17.75z"/><path d="m361.83 243.16 14.1-39.85h-13.39v-6.63h23.08v4.94l-14.69 41.15h14.75v6.56h-23.85z"/><path d="m390.17 196.68h9.49v52.65h-9.49z"/><path d="m406.48 196.68h9.52v46.09h12.8v6.56h-22.32z"/><path d="m433.33 196.68h9.94l7.48 36.47 7.73-36.47h9.69l1 52.65h-7.17l-.78-36.59-7.47 36.59h-5.75l-7.6-36.72-.72 36.72h-7.21z"/><path d="m483.51 196.68h10.27l10.53 52.65h-8.91l-2.08-12.15h-9.16l-2.16 12.15h-9zm8.77 34.39-3.57-22.07-3.58 22.1z"/><path d="m545.32 494.1-86.24-49.77v-99.57a5.88 5.88 0 0 0 -2.94-5.1l-89.14-51.48a5.88 5.88 0 0 0 -5.88 0l-89.17 51.48a5.86 5.86 0 0 0 -2.94 5.1v99.57l-86.25 49.77a5.85 5.85 0 0 0 -2.94 5.09v103a5.86 5.86 0 0 0 2.94 5.1l89.17 51.47a5.87 5.87 0 0 0 5.88 0l86.19-49.76 86.22 49.77a5.92 5.92 0 0 0 2.94.79 5.82 5.82 0 0 0 2.94-.79l89.18-51.47a5.86 5.86 0 0 0 2.94-5.1v-103a5.85 5.85 0 0 0 -2.9-5.1zm-187.16 97.9-71.53-41.29 71.53-41.3zm83.27-144.25-71.51 41.25v-82.57zm-83.27 41.25-71.52-41.28 71.52-41.3zm17.65 10.19 77.39-44.68 77.41 44.67-77.41 44.7zm71.51-61.67-71.51-41.29 71.51-41.23zm-95.05-41.29-71.52 41.3v-82.53zm-83.27 247.23-77.41-44.68v-89.39l77.41 44.69zm11.76 0v-82.58l71.52 41.29zm255.74-44.68-77.42 44.68v-89.38l77.42-44.69z"/></g></svg>