<svg viewBox="0 0 720 720" xmlns="http://www.w3.org/2000/svg"><path d="m-.59-.59h721.18v721.18h-721.18z" fill="#3f7e44" transform="matrix(0 -1 1 0 -.49 719.51)"/><g fill="#fff"><path d="m51.12 88.93c-4.12 2.21-15.81 5.44-19.89 7.48v-19.55c5.44-2.21 20.57-9.52 25.67-15.13h20.57v137.7h-26.35z"/><path d="m89.85 160.16v-4.76h26.15v4.6c.17 13.43 2.55 19.72 11.22 19.72 8.84 0 10.71-6.8 10.71-19.89 0-13.77-3.23-21.59-15.3-21.93a29.18 29.18 0 0 0 -4.59-.17v-19.22h4.08c12.24 0 15.81-6.29 15.81-20.4 0-11-2.55-17.34-11.22-17.34s-10.51 7.48-10.71 18.23v6.12h-26.15v-7.52c0-24.14 13.6-37.74 36.89-37.74 23.46 0 37.06 12.92 37.06 36.89 0 16.15-7.48 27.37-17.34 30.09 10 3.74 17.34 12.92 17.34 32.47 0 25-10 42.5-36.89 42.5-27.54 0-37.06-16.66-37.06-41.65z"/><path d="m185 61.63h9.49v52.65h-9.49z"/><path d="m215.93 114.93a6.35 6.35 0 0 1 -1.1.06c-11.38 0-15.21-6.56-15.21-17.22v-19.77c0-10.66 3.9-17 15.21-17s15.17 6.35 15.17 17v19.77c0 7.54-2 13.13-7.28 15.6a25.7 25.7 0 0 0 5.27 5.07l-1.82 6.37c-3.17-1.5-7.64-5.98-10.24-9.88zm4.36-14.93v-24.2c0-4.42-.78-7.74-5.46-7.74s-5.46 3.32-5.46 7.74v24.2c0 4.36.71 7.87 5.46 7.87s5.46-3.47 5.46-7.87z"/><path d="m235 61.63h9.55v46.08h12.81v6.57h-22.36z"/><path d="m260.46 61.63h9.54v52.65h-9.49z"/><path d="m276.7 61.63h9.95l7.48 36.46 7.73-36.46h9.69l1 52.65h-7.15l-.78-36.6-7.47 36.6h-5.79l-7.6-36.73-.76 36.73h-7.22z"/><path d="m331 97.77v-19.77c0-10.66 3.9-17 15.21-17s15.14 6.31 15.14 17v19.77c0 10.59-3.89 17.22-15.14 17.22s-15.21-6.56-15.21-17.22zm20.6 2.27v-24.24c0-4.42-.71-7.74-5.39-7.74s-5.46 3.32-5.46 7.74v24.2c0 4.36.71 7.87 5.46 7.87s5.37-3.47 5.37-7.87z"/><path d="m363.74 61.63h7.54l-3.06 17.87h-4.48z"/><path d="m372.06 108.1 14.1-39.84h-13.39v-6.63h23.08v4.94l-14.69 41.14h14.75v6.57h-23.85z"/><path d="m398.19 96.92v-17.68c0-11.31 3.44-18.2 15-18.2 10.79 0 14.56 5.59 14.56 15.34v2.73h-9.15v-3c0-5.07-.52-8.06-5.27-8.06-5.07 0-5.46 4.1-5.46 8.91v22.04c0 5.46 1 8.91 5.72 8.91s5.79-3.64 5.79-9.36v-4.94h-5.66v-6h14.28v26.72h-6.24l-.65-5.14a8.87 8.87 0 0 1 -8.9 5.85c-10.38-.04-14.02-7.04-14.02-18.12z"/><path d="m441.09 61.63h10.27l10.53 52.65h-8.89l-2.08-12.16h-9.16l-2.15 12.16h-9zm8.77 34.37-3.57-22.1-3.58 22.1z"/><path d="m465 61.63h12.67c10.53 0 16.51 3.38 16.51 14 0 6.31-1.56 10.73-6.5 12.74l7.32 25.91h-9.62l-6.31-24.12h-4.55v24.12h-9.52zm12.61 22.55c5.52 0 7.54-2.4 7.54-8.06 0-5.33-1.5-7.93-7-7.93h-3.58v16z"/><path d="m499.58 61.63h9.5v52.65h-9.5z"/><path d="m513.75 98.94 8.25-1.63c.26 6.24 1.75 10.27 6 10.27 3 0 4.36-2.08 4.36-4.94 0-4.55-2.35-7.08-5.79-10.07l-6.63-5.79c-3.77-3.25-6.11-6.89-6.11-12.74 0-8.32 5.2-13 13.58-13 9.89 0 12.68 6.63 13.2 14.3l-8.25 1.43c-.2-4.94-.91-8.64-5.14-8.64-2.86 0-4.42 2.14-4.42 4.94 0 3.57 1.49 5.52 4.29 7.93l6.57 5.78c4.29 3.71 7.86 8.32 7.86 15.28 0 7.6-5.33 12.93-13.2 12.93-9.63.01-14.18-5.59-14.57-16.05z"/><path d="m545.15 61.63h9.55v22h10.73v-22h9.62v52.65h-9.62v-23.79h-10.73v23.79h-9.55z"/><path d="m581.22 61.63h9.49v52.65h-9.49z"/><path d="m595.85 96.92v-17.68c0-11.31 3.44-18.2 15-18.2 10.79 0 14.56 5.59 14.56 15.34v2.73h-9.16v-3c0-5.07-.52-8.06-5.27-8.06-5.07 0-5.46 4.1-5.46 8.91v22.04c0 5.46 1 8.91 5.72 8.91s5.79-3.64 5.79-9.36v-4.94h-5.66v-6h14.3v26.72h-6.24l-.65-5.14a8.87 8.87 0 0 1 -8.9 5.85c-10.39-.04-14.03-7.04-14.03-18.12z"/><path d="m638.75 61.63h10.25l10.53 52.65h-8.91l-2.08-12.16h-9.14l-2.15 12.16h-9zm8.77 34.37-3.52-22.09-3.63 22.09z"/><path d="m200.2 200.93a6.35 6.35 0 0 1 -1.1.06c-11.38 0-15.21-6.56-15.21-17.22v-19.77c0-10.66 3.9-17 15.21-17s15.14 6.31 15.14 17v19.76c0 7.54-2 13.13-7.28 15.6a25.7 25.7 0 0 0 5.27 5.07l-1.82 6.37c-3.19-1.49-7.61-5.97-10.21-9.87zm4.36-14.93v-24.2c0-4.42-.78-7.74-5.46-7.74s-5.46 3.32-5.46 7.74v24.2c0 4.36.71 7.87 5.46 7.87s5.46-3.47 5.46-7.87z"/><path d="m226.72 147.63h10.28l10.53 52.65h-8.9l-2.08-12.16h-9.17l-2.14 12.16h-9zm8.78 34.37-3.58-22.1-3.57 22.1z"/><path d="m250.64 147.63h12.68c10.53 0 16.51 3.38 16.51 14 0 6.31-1.56 10.73-6.5 12.74l7.34 25.94h-9.62l-6.3-24.12h-4.55v24.12h-9.56zm12.61 22.55c5.53 0 7.54-2.4 7.54-8.06 0-5.33-1.49-7.93-7-7.93h-3.59v16z"/><path d="m283.53 184.94 8.26-1.63c.26 6.24 1.75 10.27 6 10.27 3.05 0 4.35-2.08 4.35-4.94 0-4.55-2.34-7.08-5.78-10.07l-6.63-5.79c-3.77-3.25-6.12-6.89-6.12-12.74 0-8.32 5.2-13 13.59-13 9.88 0 12.68 6.63 13.2 14.3l-8.26 1.43c-.19-4.94-.91-8.64-5.13-8.64-2.86 0-4.43 2.14-4.43 4.94 0 3.57 1.5 5.52 4.3 7.93l6.56 5.78c4.29 3.71 7.87 8.32 7.87 15.28 0 7.6-5.33 12.93-13.2 12.93-9.64.01-14.19-5.59-14.58-16.05z"/><path d="m314.92 147.63h9.56v22h10.72v-22h9.62v52.65h-9.62v-23.79h-10.72v23.79h-9.56z"/><path d="m351 147.63h9.49v52.65h-9.49z"/><path d="m380.12 147.63h9.55v23.14l10.47-23.14h9.16l-10.07 23.46 11.11 29.19h-9.55l-8.79-23.92-2.34 4v20h-9.55z"/><path d="m412 183.25v-35.62h9.36v36.72c0 5 .59 9.49 5.46 9.49s5.53-4.48 5.53-9.49v-36.72h9.29v35.62c0 11.05-3.05 17.74-14.82 17.74s-14.82-6.69-14.82-17.74z"/><path d="m447.07 147.63h12.67c10.53 0 16.51 3.38 16.51 14 0 6.31-1.56 10.73-6.5 12.74l7.35 25.94h-9.62l-6.31-24.12h-4.55v24.12h-9.55zm12.61 22.55c5.52 0 7.54-2.4 7.54-8.06 0-5.33-1.5-7.93-7-7.93h-3.58v16z"/><path d="m489.25 147.63h10.27l10.53 52.65h-8.9l-2.08-12.16h-9.17l-2.14 12.16h-9zm8.75 34.37-3.58-22.1-3.54 22.1z"/><path d="m511.61 184.94 8.26-1.63c.26 6.24 1.75 10.27 6 10.27 3 0 4.35-2.08 4.35-4.94 0-4.55-2.34-7.08-5.78-10.07l-6.63-5.79c-3.77-3.25-6.11-6.89-6.11-12.74 0-8.32 5.2-13 13.58-13 9.88 0 12.68 6.63 13.2 14.3l-8.26 1.43c-.19-4.94-.91-8.64-5.13-8.64-2.86 0-4.42 2.14-4.42 4.94 0 3.57 1.49 5.52 4.29 7.93l6.56 5.78c4.29 3.71 7.87 8.32 7.87 15.28 0 7.6-5.33 12.93-13.2 12.93-9.64.01-14.19-5.59-14.58-16.05z"/><path d="m543 147.63h9.55v22h10.73v-22h9.62v52.65h-9.62v-23.79h-10.72v23.79h-9.56z"/><path d="m579.08 147.63h9.49v52.65h-9.49z"/><path d="m593.25 184.94 8.26-1.63c.26 6.24 1.75 10.27 6 10.27 3 0 4.35-2.08 4.35-4.94 0-4.55-2.34-7.08-5.78-10.07l-6.63-5.79c-3.77-3.25-6.12-6.89-6.12-12.74 0-8.32 5.21-13 13.59-13 9.88 0 12.68 6.63 13.2 14.3l-8.26 1.43c-.19-4.94-.91-8.64-5.13-8.64-2.86 0-4.42 2.14-4.42 4.94 0 3.57 1.49 5.52 4.29 7.93l6.56 5.78c4.29 3.71 7.87 8.32 7.87 15.28 0 7.6-5.33 12.93-13.2 12.93-9.64.01-14.19-5.59-14.58-16.05z"/><path d="m624.64 147.63h9.56v22h10.73v-22h9.62v52.65h-9.62v-23.79h-10.73v23.79h-9.56z"/><path d="m631.58 451.81c-19.08-26.81-105.39-133.99-266.1-134.21s-247.32 106.7-266.48 133.49q-1.23 1.71-2.1 3c.58.87 1.27 1.86 2.09 3 19.1 26.82 105.39 134 266.13 134.2s247.3-106.72 266.45-133.49c.84-1.16 1.53-2.14 2.08-3-.55-.84-1.24-1.83-2.07-3m-355.85-66.64c1.45-2.12 6.27-8.18 6.86-9 1.24-1.59 3.7-1.91 5.42-2.22s4 .64 4.25 1.92-.66 6.26-1.51 7.12c-2.36 2.44-8.5 5.88-11.88 5.34-2.61-.41-3.64-2.44-3.14-3.21m-5.73 11.46c.25-.3.48-.55.58-.67 2-2.3 6.05-2.79 8.83-3.22s6.5.93 6.95 2.79-7 5.21-8.36 6.47c-3.87 3.56-9.94 10.81-13.48 11.58a4.21 4.21 0 0 1 -2.89-.3 111.27 111.27 0 0 1 8.37-16.65m60 123.48c-2.19 8.56-4.73 11.64-6.9 14.33s-10.19 6.2-15.28 5.82-5.78-14-5.77-21c0-2.42-3.42 4.74-5.19-9.81-1.12-9.32-7.12 1-7.53-5.25s-3.4-5-6.54-8.85-7 .37-11.39 2.32-2.56 3-8.73 1c-.16-.05-.24-.09-.39-.15a111.55 111.55 0 0 1 -8.74-43.59c0-3.78.21-7.49.57-11.17a7 7 0 0 1 .69-1c5.94-7 5.81-8.64 5.81-8.64l6.55-2.26a110 110 0 0 1 18.33 4.6c6.49 2.45 16.71 8 22.65 5.55 4.3-1.77 7.67-4.11 7.27-7.69-.48-4.49-4-5.56-8.3-2.54-1.58 1.11-4.93-6.77-7.57-6.38s3.25 9.27 1 9.64-6.74-9.25-7.51-10.81-4.23-5.42-7.36-2.48c-6.61 6.27-17.33 5.87-19.49 7.48-6.56 4.9-8.28-1.62-8.13-5.59.26-.91.53-1.83.82-2.72 2.15-2.36 9.83-3.13 12.47-1.37 2.89 1.94 5-.49 6.1-1.66s.75-3 0-4.55 1.45-2.7 2.95-3.09 6.51-3.89 8.5-5.05 12.36-2.4 17-.07a9 9 0 0 0 11.18-2.24 30 30 0 0 1 8.12-6.76c1.63-.75-4-6-8.61-.29s-7 6.2-9.17 6.2-15.09-3.25-16.68-7.34 4-7.13 8.83-9.43 17.82-2.22 21.16-3c6.78-1.48 15.46-4.88 19.83-1.9s-18.26 8.05-10.84 12.07c2.64 1.45 14.6-6.86 18.69-9 9.64-4.95-9.32-6.62-6.85-16.71 2.8-11.41-23.25-7-36.24-6.08a111.94 111.94 0 0 1 169.07 68.41 18.6 18.6 0 0 1 -.55 5.18c-1 4-8.68 7.49-13.12 1-1.12-1.64-5.92-6.18-5.77 1.57s7.53 8.57.37 13.22-8.47 3.52-11.78 4.69-6.51 9.15-5.73 13.43 11 16 3.42 15.47c-1.78-.14-15.15-9.29-17.35-15.17-2.32-6.19-4.85-12.25-6.65-16.92s-6.54-5.84-10.55-3.11 1.11 5.45-1.77 11.28-4.91 11-9.11 6.2c-10.91-12.54-26.8-6.39-29.27-20.32-1.34-7.56-7.84-6.84-13.28-11.13s-8.5-6.58-9.42-3.5c-.82 2.7 17.09 16.93 18.36 20.58 1.89 5.41-5.38 10.17-10.71 11.44s-7.62-3-12.83-8.43-7.49-9.32-7.86-5.06c-.53 6.16 4.94 15.22 10.25 18.61 4.52 2.87 9.6 4.18 8.12 8.83s0 2-5.11 7-6.06 6.67-5.7 13.63-1.46 7.4-2.56 13.21-3.62.78-5.82 9.3m120.16-44.48c3.77-.3 9.41 4.92 7.2 6.92s-7.85 1.25-10.67-1 1.78-5.82 3.47-5.95m-4.75-3.45c-1.21-.45-2.27-1.6-3.18-4.35s1.4-4.31 3.66-3.2 5.27 4.6 5.27 6.43-4.52 1.61-5.75 1.12m-49.37-.18c-2.22 2-7.88 1.24-10.71-1s1.8-5.82 3.48-5.95c3.77-.33 9.42 4.94 7.23 6.93m-45.8 22.16c-1.54 2.52-5.78 21.34-8.6 19.14s1.17-21.83 2-23.32c4.43-8.11 14-7.7 6.61 4.18m15.12 73a112.17 112.17 0 0 1 -31.46-4.56 4.61 4.61 0 0 1 -1.35-5.47c3.48-9 13.8-12.55 21.95-13.32 18.15-1.75 42 11.84 45.8 9.66s11.49-12.15 22.76-11.72c7.68.31 7.62 1.6 10.2 2.57a111.54 111.54 0 0 1 -67.91 22.84m79-32.49a19.5 19.5 0 0 1 -3.51-1.3c-6.11-3.12-5.38 1.85-8.39.75s3.41-8.09-5.63-2.2-6.56-.92-10.47-10.89 4.55-21.32 11.68-23.87c9.73-3.51 15.77-4.22 20.33-5.34 13.46-3.34 16.31-11.32 18.75-6.46.46.91.9 1.78 1.3 2.59a17.62 17.62 0 0 1 1.72 7.3 112 112 0 0 1 -25.72 39.46m30.75-56.48c-3-.83-15.55-18.22-5.6-29.65 1.66-1.88-3.32-7.41-2-7.52 5.44-.42 8.33 3 9.75 7.83.1 2.14.19 4.3.18 6.49a113.17 113.17 0 0 1 -2.37 22.85"/></g></svg>