<svg viewBox="0 0 720 720" xmlns="http://www.w3.org/2000/svg"><path d="m-1.08-1.08h722.16v722.16h-722.16z" fill="#00689d"/><g fill="#fff"><path d="m49.12 88.93c-4.12 2.21-15.81 5.44-19.89 7.48v-19.55c5.44-2.21 20.57-9.52 25.67-15.13h20.57v137.7h-26.35z"/><path d="m91.4 156.08v-49c0-26.82 7.48-47.08 37.06-47.08 25.33 0 34.68 12.41 34.85 34.85v2.38h-24.82c0-11.56-1.19-17.17-9.86-17.17-8.33 0-10.54 6.63-10.54 27.88v13.94c2.89-4.93 9.52-7.82 17.68-8 21.93-.34 29.75 16.83 29.75 39.61 0 28.05-8.84 47.77-36.89 47.77-26.35.04-37.23-19.17-37.23-45.18zm47.77 1.92c0-13.94-.34-24-10.54-24a12.6 12.6 0 0 0 -10.54 6.29v21.91c0 10.37 2.21 19.55 10.71 19.55 8.67 0 10.37-8.67 10.37-23.75z"/><path d="m211 68.71h-8.39v-7.08h26.2v7.08h-8.19v45.57h-9.62z"/><path d="m232.58 61.63h9.49v52.65h-9.49z"/><path d="m248.89 61.63h6.7l12.8 30v-30h7.93v52.65h-6.32l-12.92-31.46v31.46h-8.19z"/><path d="m282.17 97.44v-18.78c0-10.79 3.45-17.62 15-17.62 10.79 0 14.23 6 14.23 15.15v4.42h-9.23v-4.55c0-4.42-.06-8-4.94-8s-5.39 3.77-5.39 8.58v22.82c0 5.72 1.17 8.45 5.39 8.45 4.75 0 4.94-3.71 4.94-8.39v-4.74h9.23v4.22c0 9.3-3.12 16-14.23 16-11.55 0-15-7.29-15-17.56z"/><path d="m316.94 61.63h9.56v22h10.73v-22h9.62v52.65h-9.62v-23.79h-10.73v23.79h-9.56z"/><path d="m353.6 61.63h9.56v46.08h12.84v6.57h-22.4z"/><path d="m379.93 61.63h9.49v52.65h-9.49z"/><path d="m396.24 61.63h9.56v23.14l10.46-23.14h9.17l-10.08 23.46 11.12 29.19h-9.56l-8.77-23.92-2.34 4v20h-9.56z"/><path d="m428.74 119.87a5.39 5.39 0 0 0 4.23-5.59h-4.68v-8.78h8.64v8c0 5.59-2.4 8.64-7.28 9.55z"/><path d="m464.43 61.63h10.27l10.53 52.65h-8.91l-2.08-12.16h-9.16l-2.15 12.16h-9zm8.77 34.37-3.57-22.1-3.58 22.1z"/><path d="m489.19 61.63h12.42c12.8 0 16.7 5.13 16.7 16.38v19.17c0 11.57-4 17.1-16.31 17.1h-12.81zm12.55 45.95c6.56 0 6.82-3.51 6.82-10.07v-20.15c0-6.31-.65-8.91-6.95-8.91h-2.86v39.13z"/><path d="m523.25 97.77v-19.77c0-10.66 3.9-17 15.21-17s15.15 6.31 15.15 17v19.77c0 10.59-3.9 17.22-15.15 17.22s-15.21-6.56-15.21-17.22zm20.61 2.23v-24.2c0-4.42-.72-7.74-5.4-7.74s-5.46 3.32-5.46 7.74v24.2c0 4.36.72 7.87 5.46 7.87s5.4-3.47 5.4-7.87z"/><path d="m559.39 61.63h9.61v46.08h12.8v6.57h-22.41z"/><path d="m593.32 61.63h10.27l10.53 52.65h-8.9l-2.08-12.16h-9.14l-2.14 12.16h-9zm8.78 34.37-3.58-22.1-3.52 22.1z"/><path d="m620.88 68.71h-8.39v-7.08h26.2v7.08h-8.19v45.57h-9.62z"/><path d="m203.26 129.63h8.45l7 37.24 6.56-37.24h8.65l-10.6 52.65h-9.42z"/><path d="m243.89 129.63h10.27l10.53 52.65h-8.91l-2.08-12.16h-9.16l-2.15 12.16h-9zm8.77 34.37-3.57-22.1-3.58 22.1z"/><path d="m281.84 166.94 8.26-1.63c.26 6.24 1.76 10.27 6 10.27 3.06 0 4.36-2.08 4.36-4.94 0-4.55-2.34-7.08-5.79-10.07l-6.67-5.79c-3.77-3.25-6.11-6.89-6.11-12.74 0-8.32 5.2-13 13.58-13 9.89 0 12.68 6.63 13.2 14.3l-8.25 1.43c-.2-4.94-.91-8.64-5.14-8.64-2.86 0-4.42 2.14-4.42 4.94 0 3.57 1.49 5.52 4.29 7.93l6.57 5.78c4.29 3.71 7.86 8.32 7.86 15.28 0 7.6-5.33 12.93-13.19 12.93-9.61.01-14.15-5.59-14.55-16.05z"/><path d="m321.56 129.63h10.27l10.53 52.65h-8.91l-2.08-12.16h-9.16l-2.15 12.16h-9zm8.77 34.37-3.57-22.1-3.58 22.1z"/><path d="m347.1 129.63h9.95l7.47 36.46 7.74-36.46h9.74l1 52.65h-7.15l-.78-36.6-7.48 36.6h-5.78l-7.61-36.73-.71 36.73h-7.22z"/><path d="m397.28 129.63h10.27l10.53 52.65h-8.9l-2.08-12.16h-9.17l-2.14 12.16h-9zm8.78 34.37-3.58-22.1-3.57 22.1z"/><path d="m422.05 129.63h12.67c10.53 0 16.51 3.38 16.51 14 0 6.31-1.56 10.73-6.5 12.74l7.35 25.94h-9.62l-6.31-24.12h-4.55v24.12h-9.55zm12.61 22.55c5.52 0 7.54-2.4 7.54-8.06 0-5.33-1.5-7.93-7-7.93h-3.6v16z"/><path d="m465.08 129.63h10.27l10.53 52.65h-8.88l-2.08-12.16h-9.16l-2.15 12.16h-9zm8.77 34.37-3.57-22.1-3.58 22.1z"/><path d="m489.84 129.63h9.56v46.08h12.8v6.57h-22.36z"/><path d="m516.16 129.63h9.5v52.65h-9.5z"/><path d="m205.73 197.63h13c9.23 0 15.41 3.12 15.41 13.52 0 6.43-2.67 10-7.61 10.79 6.18 1.17 9.1 5.59 9.1 13 0 10.07-4.94 15.34-14.69 15.34h-15.21zm12.87 21.51c5.72 0 7.22-2.53 7.22-7.86 0-5.59-2.73-7-8.58-7h-2v14.82zm.39 24.38c5.85 0 7.48-2.73 7.48-8.65 0-6.24-2.08-9.1-7.8-9.1h-3.38v17.75z"/><path d="m239.79 233.77v-19.77c0-10.66 3.9-17 15.21-17s15.15 6.31 15.15 17v19.76c0 10.59-3.9 17.22-15.15 17.22s-15.21-6.55-15.21-17.21zm20.61 2.23v-24.2c0-4.42-.72-7.74-5.4-7.74s-5.46 3.32-5.46 7.74v24.2c0 4.36.72 7.87 5.46 7.87s5.4-3.47 5.4-7.87z"/><path d="m274.63 234.94 8.26-1.63c.26 6.24 1.75 10.27 6 10.27 3.05 0 4.35-2.08 4.35-4.94 0-4.55-2.34-7.08-5.78-10.07l-6.63-5.79c-3.78-3.25-6.11-6.89-6.11-12.74 0-8.32 5.2-13 13.58-13 9.88 0 12.68 6.63 13.2 14.3l-8.26 1.43c-.19-4.94-.91-8.64-5.13-8.64-2.86 0-4.42 2.14-4.42 4.94 0 3.57 1.49 5.52 4.29 7.93l6.56 5.78c4.29 3.71 7.87 8.32 7.87 15.28 0 7.6-5.33 12.93-13.2 12.93-9.64.01-14.21-5.59-14.58-16.05z"/><path d="m306.87 197.63h9.55v22h10.73v-22h9.62v52.65h-9.62v-23.79h-10.73v23.79h-9.55z"/><path d="m359 250.93a6.52 6.52 0 0 1 -1.11.06c-11.37 0-15.21-6.56-15.21-17.22v-19.77c0-10.66 3.9-17 15.21-17s15.11 6.35 15.11 17v19.76c0 7.54-2 13.13-7.28 15.6a25.45 25.45 0 0 0 5.27 5.07l-1.83 6.37c-3.16-1.49-7.56-5.97-10.16-9.87zm4.36-14.93v-24.2c0-4.42-.78-7.74-5.47-7.74s-5.46 3.32-5.46 7.74v24.2c0 4.36.72 7.87 5.46 7.87s5.47-3.47 5.47-7.87z"/><path d="m386.36 197.63h10.27l10.53 52.65h-8.9l-2.08-12.16h-9.18l-2.14 12.16h-9zm8.78 34.37-3.58-22.1-3.56 22.1z"/><path d="m411.13 197.63h12.67c10.53 0 16.51 3.38 16.51 14 0 6.31-1.56 10.73-6.5 12.74l7.35 25.94h-9.62l-6.31-24.12h-4.55v24.12h-9.55zm12.61 22.55c5.52 0 7.54-2.4 7.54-8.06 0-5.33-1.5-7.93-7-7.93h-3.58v16z"/><path d="m445.71 233.25v-35.62h9.36v36.72c0 5 .58 9.49 5.46 9.49s5.52-4.48 5.52-9.49v-36.72h9.3v35.62c0 11.05-3.06 17.74-14.82 17.74s-14.82-6.69-14.82-17.74z"/><path d="m479.12 197.63h8.45l6.95 37.24 6.57-37.24h8.64l-10.59 52.65h-9.43z"/><path d="m478.85 319.28s-7 9.35-5 18.46 12.46 14.54 12.46 14.54 7-9.35 5-18.46-12.45-14.54-12.45-14.54"/><path d="m467.37 372.7s7.05-9.36 5-18.48-12.44-14.53-12.44-14.53-7.05 9.35-5 18.47 12.46 14.54 12.46 14.54"/><path d="m496.32 362.68s7.44 7.5 15.91 6.74 14.77-9.42 14.77-9.42-7.43-7.5-15.91-6.75-14.75 9.47-14.75 9.47"/><path d="m508.51 322.61c-6.89 7-5.92 19.37-5.92 19.37s12.14 1 19.05-5.94 5.92-19.36 5.92-19.36-12.16-1.05-19 5.93"/><path d="m493.3 390.48c8.44 1 16.38-6.24 16.38-6.24s-5.75-8.87-14.18-9.86-16.39 6.25-16.39 6.25 5.75 8.86 14.19 9.85"/><path d="m500.84 526.17h-63.09a8.92 8.92 0 1 0 0 17.84h63.09a8.92 8.92 0 1 0 0-17.84"/><path d="m500.84 624.54h-63.09a8.93 8.93 0 1 0 0 17.85h63.09a8.93 8.93 0 0 0 0-17.85"/><path d="m217.12 504.5a39.79 39.79 0 0 0 -4.38-1.13s1.62.5 4.38 1.13"/><path d="m498.51 550.25h-58.45a5.08 5.08 0 0 0 -5.08 5.07v17.68l-38.16 4.19-55.75-1.19v-34.11a151.94 151.94 0 0 0 22.18-4.5c53.66-15.14 65.37-48.57 64.2-79.26-1.17-31.27 8.84-43.41 23.21-48.81a65.07 65.07 0 0 1 11.92-3.16c.16 7.68 1.72 16.61 5.15 27.25 1.27-.07 2.54-.18 3.8-.32-3.62-10.88-5.17-19.83-5.26-27.46a66.53 66.53 0 0 1 12.73-.38 81.08 81.08 0 0 1 -12.11-8.63c2.41-14.81 11.23-23.9 20.32-33.19 5-5.12 10.16-10.4 14.22-16.7l-3.17-2c-3.84 6-8.89 11.12-13.75 16.1-8.87 9.07-17.81 18.33-20.84 33a120.13 120.13 0 0 1 -9.19-9.25c-13.23-14.84-30.27-3.94-54.56 18.68s-54.87 23.38-84.72-7.16c-39.38-40.32-73.73-40.08-97.29-37.8 16.11 6.87 21.75 21.93 29.91 60.2 8.55 40.16 30.1 58.34 59.6 60.84-13.68 2.22-17.22 4.11-39.2 19.3-17.16 11.84-41.31 8.09-51.1 5.87 18 5.6 39.26 24.45 58.3 31a141 141 0 0 0 34.76 7.13v32.6l-105.75-2.24v22.7l192.39-4.27 38.16 4.2v17.69a5.09 5.09 0 0 0 5.08 5.09h58.45a5.1 5.1 0 0 0 5.09-5.09v-58a5.09 5.09 0 0 0 -5.09-5.07zm-179.14-7.14c4.16.07 8.33-.05 12.51-.33v33l-12.51-.28z"/><path d="m199 591.94c0 4.79-3.35 8.68-7.47 8.68h-4.53c-4.12 0-7.48-3.89-7.48-8.68v-15.72c0-4.8 3.36-8.68 7.48-8.68h4.49c4.12 0 7.47 3.88 7.47 8.68z"/></g></svg>