<svg viewBox="0 0 720 720" xmlns="http://www.w3.org/2000/svg"><path d="m-1.08-1.08h722.16v722.16h-722.16z" fill="#4c9f38"/><g fill="#fff"><path d="m54.61 160.16v-4.76h26.18v4.6c.21 13.42 2.55 19.71 11.21 19.71 8.84 0 10.71-6.8 10.71-19.89 0-13.77-3.23-21.59-15.3-21.93a29.18 29.18 0 0 0 -4.59-.17v-19.21h4.08c12.24 0 15.81-6.29 15.81-20.4 0-11-2.55-17.34-11.22-17.34s-10.49 7.48-10.7 18.23v6.12h-26.18v-7.52c0-24.14 13.6-37.74 36.89-37.74 23.46 0 37.06 12.92 37.06 36.89 0 16.15-7.48 27.37-17.34 30.09 10 3.74 17.34 12.92 17.34 32.47 0 25-10 42.5-36.89 42.5-27.54 0-37.06-16.66-37.06-41.65z"/><path d="m187.66 98.94 8.26-1.63c.26 6.24 1.75 10.27 6 10.27 3 0 4.35-2.08 4.35-4.94 0-4.55-2.34-7.08-5.78-10.07l-6.63-5.79c-3.77-3.25-6.11-6.89-6.11-12.74 0-8.32 5.2-13 13.58-13 9.88 0 12.68 6.63 13.2 14.3l-8.26 1.43c-.19-4.94-.91-8.64-5.13-8.64-2.86 0-4.42 2.14-4.42 4.94 0 3.57 1.49 5.52 4.29 7.93l6.56 5.78c4.29 3.71 7.87 8.32 7.87 15.28 0 7.6-5.33 12.93-13.2 12.93-9.64.01-14.19-5.59-14.58-16.05z"/><path d="m218.93 97.77v-19.77c0-10.66 3.9-17 15.21-17s15.14 6.31 15.14 17v19.77c0 10.59-3.9 17.22-15.14 17.22s-15.21-6.56-15.21-17.22zm20.6 2.27v-24.24c0-4.42-.71-7.74-5.39-7.74s-5.46 3.32-5.46 7.74v24.2c0 4.36.71 7.87 5.46 7.87s5.39-3.47 5.39-7.87z"/><path d="m254.22 96.92v-17.68c0-11.31 3.45-18.2 15-18.2 10.78-.04 14.58 5.59 14.58 15.34v2.73h-9.17v-3c0-5.07-.52-8.06-5.26-8.06-5.07 0-5.46 4.1-5.46 8.91v22.04c0 5.46 1 8.91 5.72 8.91s5.78-3.64 5.78-9.36v-4.94h-5.65v-6h14.3v26.72h-6.24l-.65-5.14c-1.43 3.38-4 5.85-8.91 5.85-10.4-.04-14.04-7.04-14.04-18.12z"/><path d="m287.57 61.63h7.54l-3.06 17.87h-4.48z"/><path d="m298.49 61.63h9.51v46.08h12.81v6.57h-22.32z"/><path d="m324.81 61.63h9.49v52.65h-9.49z"/><path d="m341.13 61.63h9.55v23.14l10.47-23.14h9.16l-10.07 23.46 11.11 29.19h-9.55l-8.8-23.92-2.34 4v20h-9.55z"/><path d="m386.43 61.63h8.45l6.95 37.24 6.57-37.24h8.65l-10.6 52.65h-9.45z"/><path d="m427.05 61.63h10.27l10.54 52.65h-8.86l-2.08-12.16h-9.22l-2.14 12.16h-9zm8.78 34.37-3.58-22.1-3.57 22.1z"/><path d="m189 147.63h21.65v6.63h-12.13v15.34h9.88v6.69h-9.88v24h-9.52z"/><path d="m220.81 147.63h10.27l10.54 52.65h-8.91l-2.08-12.16h-9.17l-2.14 12.16h-9zm8.78 34.37-3.59-22.09-3.56 22.09z"/><path d="m245.58 147.63h12.67c10.53 0 16.51 3.38 16.51 14 0 6.31-1.56 10.73-6.5 12.74l7.35 25.94h-9.61l-6.31-24.12h-4.55v24.12h-9.55zm12.61 22.55c5.52 0 7.54-2.4 7.54-8.06 0-5.33-1.5-7.93-7-7.93h-3.58v16z"/><path d="m279.64 183.77v-19.77c0-10.66 3.9-17 15.21-17s15.15 6.35 15.15 17v19.76c0 10.59-3.9 17.22-15.14 17.22s-15.22-6.55-15.22-17.21zm20.6 2.27v-24.24c0-4.42-.71-7.74-5.39-7.74s-5.46 3.32-5.46 7.74v24.2c0 4.36.71 7.87 5.46 7.87s5.39-3.47 5.39-7.87z"/><path d="m313.05 147.63h8.45l6.95 37.24 6.55-37.24h8.64l-10.59 52.65h-9.43z"/><path d="m346.33 183.77v-19.77c0-10.66 3.9-17 15.21-17s15.14 6.31 15.14 17v19.76c0 10.59-3.9 17.22-15.14 17.22s-15.21-6.55-15.21-17.21zm20.6 2.27v-24.24c0-4.42-.71-7.74-5.39-7.74s-5.46 3.32-5.46 7.74v24.2c0 4.36.71 7.87 5.46 7.87s5.39-3.47 5.39-7.87z"/><path d="m382.47 147.63h6.69l12.81 30v-30h7.93v52.65h-6.37l-12.87-31.46v31.46h-8.19z"/><path d="m416.59 147.63h9.56v46.08h12.85v6.57h-22.41z"/><path d="m442.92 147.63h9.49v52.65h-9.49z"/><path d="m459.23 147.63h9.56v23.14l10.46-23.14h9.17l-10.08 23.46 11.12 29.19h-9.56l-8.77-23.92-2.34 4v20h-9.56z"/><path d="m603.67 450.66c0-20.41-13.1-37-32.94-37-9.92 0-21.89 10.86-28.38 17.54-6.5-6.69-17.68-17.56-27.6-17.56-19.84 0-33.74 16.55-33.74 37a37.36 37.36 0 0 0 10.53 26.14l50.85 50.95 50.78-50.89a37.39 37.39 0 0 0 10.5-26.18z"/><path d="m387.15 610.91h-.51a8.36 8.36 0 0 1 -7.72-6.93l-25.83-150.45-39.09 72.55a8.35 8.35 0 0 1 -15.61-2.78l-16.65-116.1-30.4 68.26a8.35 8.35 0 0 1 -7.63 5h-118.12a8.35 8.35 0 1 1 0-16.7h112.7l40-89.79a8.35 8.35 0 0 1 15.89 2.22l17.13 119.71 38.59-71.54a8.35 8.35 0 0 1 15.58 2.55l23.92 139.33 87.18-289.6a8.35 8.35 0 0 1 15.52-1.22l45.9 95.05a8.35 8.35 0 1 1 -15.05 7.25l-36.58-75.72-91.22 303a8.36 8.36 0 0 1 -8 5.91z"/></g></svg>