<svg viewBox="0 0 720 720" xmlns="http://www.w3.org/2000/svg"><path d="m-1.08-1.08h722.16v722.16h-722.16z" fill="#dd1367"/><g fill="#fff"><path d="m50.12 88.93c-4.12 2.21-15.81 5.44-19.89 7.48v-19.55c5.44-2.21 20.57-9.52 25.67-15.13h20.57v137.7h-26.35z"/><path d="m87.74 162v-61.68c0-24.14 11.39-40.46 36.89-40.46 25.16 0 36.72 16.32 36.72 40.46v61.68c0 23.29-12.58 39.78-36.72 39.78-24.63.03-36.89-16.29-36.89-39.78zm46.92-.51v-60.66c0-7.31-.68-17.85-10-17.85-9.69 0-10.2 10.54-10.2 17.85v60.69c0 6.8 1.19 17.17 10.2 17.17 8.81 0 10-10.37 10-17.17z"/><path d="m234 68.71h-8.39v-7.08h26.2v7.08h-8.19v45.57h-9.62z"/><path d="m255.32 61.63h22.1v6.76h-12.55v15.14h9.88v6.7h-9.88v17.48h12.68v6.57h-22.23z"/><path d="m281.83 61.63h6.7l12.8 30v-30h7.94v52.65h-6.37l-12.9-31.46v31.46h-8.19z"/><path d="m315.11 96.92v-17.68c0-11.31 3.45-18.2 15-18.2 10.79 0 14.56 5.59 14.56 15.34v2.73h-9.16v-3c0-5.07-.53-8.06-5.27-8.06-5.07 0-5.46 4.1-5.46 8.91v22.04c0 5.46 1 8.91 5.72 8.91s5.79-3.64 5.79-9.36v-4.94h-5.66v-6h14.37v26.72h-6.24l-.65-5.14a8.87 8.87 0 0 1 -8.9 5.85c-10.46-.04-14.1-7.04-14.1-18.12z"/><path d="m349.69 98.94 8.31-1.63c.26 6.24 1.75 10.27 6 10.27 3.05 0 4.35-2.08 4.35-4.94 0-4.55-2.34-7.08-5.78-10.07l-6.63-5.79c-3.77-3.25-6.11-6.89-6.11-12.74 0-8.32 5.2-13 13.58-13 9.88 0 12.68 6.63 13.2 14.3l-8.26 1.43c-.19-4.94-.91-8.64-5.13-8.64-2.86 0-4.42 2.14-4.42 4.94 0 3.57 1.49 5.52 4.29 7.93l6.56 5.78c4.29 3.71 7.87 8.32 7.87 15.28 0 7.6-5.33 12.93-13.2 12.93-9.69.01-14.24-5.59-14.63-16.05z"/><path d="m382.06 61.63h9.49v52.65h-9.49z"/><path d="m396.62 108.1 14.11-39.84h-13.39v-6.63h23.07v4.94l-14.69 41.14h14.76v6.57h-23.86z"/><path d="m424.7 61.63h9.56v46.08h12.8v6.57h-22.36z"/><path d="m451 61.63h9.49v52.65h-9.49z"/><path d="m467.34 61.63h9.56v23.14l10.46-23.14h9.17l-10.08 23.46 11.12 29.19h-9.57l-8.77-23.92-2.34 4v20h-9.56z"/><path d="m500.62 61.63h6.7l12.8 30v-30h7.93v52.65h-6.37l-12.87-31.46v31.46h-8.19z"/><path d="m535 61.63h9.49v52.65h-9.49z"/><path d="m228.73 147.63h9.56v23.14l10.46-23.14h9.17l-10.08 23.46 11.16 29.19h-9.6l-8.77-23.92-2.34 4v20h-9.56z"/><path d="m269.88 147.63h10.27l10.53 52.65h-8.91l-2.08-12.16h-9.16l-2.15 12.16h-9zm8.77 34.37-3.57-22.1-3.58 22.1z"/><path d="m295.42 147.63h9.95l7.47 36.46 7.74-36.46h9.68l1 52.65h-7.15l-.78-36.6-7.48 36.6h-5.78l-7.61-36.73-.71 36.73h-7.22z"/><path d="m345.6 147.63h10.27l10.53 52.65h-8.9l-2.08-12.16h-9.17l-2.14 12.16h-9zm8.78 34.37-3.58-22.1-3.57 22.1z"/><path d="m375.7 180.19-10.7-32.56h9l6.5 20.86 6.12-20.86h8.77l-10.53 32.56v20.09h-9.16z"/><path d="m404 154.71h-8.39v-7.08h26.2v7.08h-8.19v45.57h-9.62z"/><path d="m425.55 147.63h9.45v52.65h-9.49z"/><path d="m441.86 147.63h12.68c10.53 0 16.51 3.38 16.51 14 0 6.31-1.56 10.73-6.5 12.74l7.34 25.94h-9.62l-6.27-24.15h-4.55v24.12h-9.56zm12.61 22.55c5.53 0 7.54-2.4 7.54-8.06 0-5.33-1.49-7.93-7-7.93h-3.57v16z"/><path d="m477.29 147.63h9.49v52.65h-9.49z"/><path d="m492.3 184.94 8.26-1.63c.26 6.24 1.75 10.27 6 10.27 3 0 4.35-2.08 4.35-4.94 0-4.55-2.34-7.08-5.78-10.07l-6.63-5.79c-3.77-3.25-6.11-6.89-6.11-12.74 0-8.32 5.2-13 13.58-13 9.88 0 12.68 6.63 13.2 14.3l-8.26 1.43c-.19-4.94-.91-8.64-5.13-8.64-2.86 0-4.42 2.14-4.42 4.94 0 3.57 1.49 5.52 4.29 7.93l6.56 5.78c4.29 3.71 7.87 8.32 7.87 15.28 0 7.6-5.33 12.93-13.2 12.93-9.64.01-14.19-5.59-14.58-16.05z"/><path d="m524.54 147.63h9.56v22h10.72v-22h9.62v52.65h-9.62v-23.79h-10.72v23.79h-9.56z"/><path d="m427 472.8h-133a1.53 1.53 0 0 0 -1.44 1.61v40a1.53 1.53 0 0 0 1.44 1.59h133a1.54 1.54 0 0 0 1.46-1.63v-40a1.54 1.54 0 0 0 -1.46-1.57"/><path d="m427 387.75h-133a1.53 1.53 0 0 0 -1.44 1.61v40a1.53 1.53 0 0 0 1.44 1.64h133a1.54 1.54 0 0 0 1.46-1.63v-40a1.54 1.54 0 0 0 -1.46-1.61"/><path d="m425.14 327.33-63.84-63.84a1.1 1.1 0 0 0 -1.56 0l-63.84 63.84a1.1 1.1 0 0 0 .78 1.88h127.68a1.1 1.1 0 0 0 .78-1.88z"/><path d="m485.07 516.5 63.84-63.84a1.1 1.1 0 0 0 0-1.56l-63.84-63.84a1.11 1.11 0 0 0 -1.89.78v127.68a1.11 1.11 0 0 0 1.89.78z"/><path d="m295.9 576.43 63.84 63.83a1.09 1.09 0 0 0 1.56 0l63.84-63.83a1.11 1.11 0 0 0 -.78-1.89h-127.68a1.11 1.11 0 0 0 -.78 1.89z"/><path d="m236 387.26-63.87 63.84a1.1 1.1 0 0 0 0 1.56l63.87 63.84a1.1 1.1 0 0 0 1.88-.78v-127.72a1.1 1.1 0 0 0 -1.88-.74z"/></g></svg>