<svg viewBox="0 0 720 720" xmlns="http://www.w3.org/2000/svg"><path d="m-1.08-1.08h722.16v722.16h-722.16z" fill="#dda83a"/><g fill="#fff"><path d="m55.12 180.9 33.49-51.51c7.31-11.39 14.62-20.91 14.62-33.66 0-8.84-3.4-13.6-10-13.6-10 0-12.41 9.18-12.41 20.4v6.29h-25.7v-6.82c0-24.31 10.54-42 37.57-42 24.14 0 36.55 13.43 36.55 36.21 0 16.83-8.67 28.56-18 42.67l-26.54 39.81h40.8v20.74h-70.38z"/><path d="m188.12 97.77v-19.77c0-10.66 3.9-17 15.21-17s15.14 6.31 15.14 17v19.77c0 10.59-3.9 17.22-15.14 17.22s-15.21-6.56-15.21-17.22zm20.6 2.27v-24.24c0-4.42-.71-7.74-5.39-7.74s-5.46 3.32-5.46 7.74v24.2c0 4.36.71 7.87 5.46 7.87s5.39-3.47 5.39-7.87z"/><path d="m223.41 97.44v-18.78c0-10.79 3.45-17.62 15-17.62 10.79 0 14.23 6 14.23 15.15v4.42h-9.23v-4.55c0-4.42-.06-8-4.94-8s-5.39 3.77-5.39 8.58v22.82c0 5.72 1.17 8.45 5.39 8.45 4.75 0 4.94-3.71 4.94-8.39v-4.74h9.23v4.22c0 9.3-3.12 16-14.23 16-11.55 0-15-7.29-15-17.56z"/><path d="m258.19 61.63h9.55v22h10.73v-22h9.62v52.65h-9.62v-23.79h-10.73v23.79h-9.55z"/><path d="m294.85 61.63h9.55v46.08h12.81v6.57h-22.36z"/><path d="m321.17 61.63h9.49v52.65h-9.49z"/><path d="m337.49 61.63h9.51v23.14l10.47-23.14h9.16l-10.03 23.46 11.11 29.19h-9.55l-8.78-23.92-2.34 4v20h-9.55z"/><path d="m370.77 61.63h9.55v23.14l10.47-23.14h9.21l-10.12 23.46 11.12 29.19h-9.55l-8.78-23.92-2.34 4v20h-9.55z"/><path d="m411.91 61.63h10.27l10.53 52.65h-8.9l-2.08-12.16h-9.17l-2.14 12.16h-9zm8.78 34.37-3.58-22.1-3.57 22.1z"/><path d="m189 147.63h13c9.23 0 15.41 3.12 15.41 13.52 0 6.43-2.67 10-7.61 10.79 6.18 1.17 9.11 5.59 9.11 13 0 10.07-4.94 15.34-14.7 15.34h-15.21zm12.87 21.51c5.72 0 7.22-2.53 7.22-7.86 0-5.59-2.73-7-8.58-7h-1.95v14.82zm.39 24.38c5.85 0 7.48-2.73 7.48-8.65 0-6.24-2.08-9.1-7.8-9.1h-3.38v17.75z"/><path d="m231.67 147.63h10.27l10.53 52.65h-8.91l-2.08-12.16h-9.16l-2.15 12.16h-9zm8.77 34.37-3.57-22.1-3.58 22.1z"/><path d="m256.43 147.63h12.68c10.53 0 16.51 3.38 16.51 14 0 6.31-1.56 10.73-6.5 12.74l7.34 25.94h-9.62l-6.3-24.12h-4.54v24.12h-9.56zm12.57 22.55c5.53 0 7.54-2.4 7.54-8.06 0-5.33-1.49-7.93-7-7.93h-3.54v16z"/><path d="m291.73 147.63h9.55v22h10.72v-22h9.62v52.65h-9.62v-23.79h-10.72v23.79h-9.55z"/><path d="m336.25 147.63h10.27l10.53 52.65h-8.9l-2.08-12.16h-9.17l-2.14 12.16h-9zm8.75 34.37-3.58-22.1-3.54 22.1z"/><path d="m361.8 147.63h9.94l7.48 36.46 7.78-36.46h9.69l1 52.65h-7.15l-.78-36.6-7.47 36.6h-5.79l-7.6-36.73-.72 36.73h-7.21z"/><path d="m418.61 147.63h13c9.23 0 15.4 3.12 15.4 13.52 0 6.43-2.66 10-7.6 10.79 6.17 1.17 9.1 5.59 9.1 13 0 10.07-4.94 15.34-14.69 15.34h-15.21zm12.87 21.51c5.72 0 7.21-2.53 7.21-7.86 0-5.59-2.73-7-8.58-7h-1.95v14.82zm.39 24.38c5.85 0 7.47-2.73 7.47-8.65 0-6.24-2.08-9.1-7.8-9.1h-3.38v17.75z"/><path d="m453.51 147.63h22.1v6.76h-12.54v15.14h9.93v6.7h-9.88v17.48h12.67v6.57h-22.28z"/><path d="m480 147.63h12.68c10.53 0 16.51 3.38 16.51 14 0 6.31-1.56 10.73-6.5 12.74l7.34 25.94h-9.62l-6.3-24.12h-4.55v24.12h-9.56zm12.61 22.55c5.53 0 7.54-2.4 7.54-8.06 0-5.33-1.49-7.93-7-7.93h-3.57v16z"/><path d="m515.45 147.63h9.49v52.65h-9.49z"/><path d="m530.47 184.94 8.25-1.63c.26 6.24 1.76 10.27 6 10.27 3.06 0 4.36-2.08 4.36-4.94 0-4.55-2.34-7.08-5.79-10.07l-6.63-5.79c-3.77-3.25-6.11-6.89-6.11-12.74 0-8.32 5.2-13 13.59-13 9.88 0 12.68 6.63 13.2 14.3l-8.26 1.43c-.19-4.94-.91-8.64-5.14-8.64-2.86 0-4.42 2.14-4.42 4.94 0 3.57 1.5 5.52 4.29 7.93l6.57 5.78c4.29 3.71 7.87 8.32 7.87 15.28 0 7.6-5.34 12.93-13.2 12.93-9.64.01-14.19-5.59-14.58-16.05z"/><path d="m562.71 147.63h9.55v22h10.74v-22h9.62v52.65h-9.62v-23.79h-10.74v23.79h-9.55z"/><path d="m286.64 613.72v10.2a1.57 1.57 0 0 0 0 .23 2 2 0 0 0 0 .24 4.79 4.79 0 0 0 4.7 4.58h.09.12 119.67.11.1a4.81 4.81 0 0 0 4.72-4.79.07.07 0 0 1 0 0v-11.61c67.37-22.09 117.85-76.69 128.93-143.23 0-.14 0-.27.07-.39a4 4 0 0 0 .07-.67 4.83 4.83 0 0 0 -4.84-4.84h-381.38a4.83 4.83 0 0 0 -4.85 4.84l.25 2.17c11.6 67.18 63.48 122.08 132.24 143.27"/><path d="m416 300.65c-1.57 2.24-38.42 55.29.82 98.19 18 19.69 16.44 37.06 11.3 48.79h25.17c5.1-17.32 3-39.05-17.44-61.38-28.91-31.61.37-74.33.81-75 3.45-4.88 1.6-11.16-4.08-14.09s-13.11-1.36-16.58 3.48"/><path d="m352.29 447.63h25.18c5.09-17.32 3-39-17.46-61.38-28.93-31.61.34-74.32.8-75 3.43-4.85 1.62-11.12-4.09-14.06s-13.11-1.36-16.56 3.48c-1.58 2.23-38.46 55.29.82 98.19 18 19.69 16.43 37.07 11.31 48.79"/><path d="m264.27 300.65c-1.59 2.24-38.44 55.29.81 98.19 18 19.7 16.45 37.07 11.32 48.79h25.18c5.09-17.31 3-39-17.47-61.38-28.93-31.61.36-74.33.82-75 3.42-4.86 1.6-11.14-4.11-14.07s-13.1-1.37-16.55 3.48"/></g></svg>