<svg viewBox="0 0 720 720" xmlns="http://www.w3.org/2000/svg"><path d="m-.11-1.08h720.22v722.16h-720.22z" fill="#e5243b"/><g fill="#fff"><path d="m51 88.93c-4.08 2.21-15.81 5.44-19.89 7.48v-19.55c5.44-2.21 20.57-9.52 25.67-15.13h20.54v137.7h-26.32z"/><path d="m126 97.77v-19.77c0-10.66 3.9-17 15.21-17s15.15 6.31 15.15 17v19.77c0 10.59-3.9 17.22-15.15 17.22s-15.21-6.56-15.21-17.22zm20.56 2.23v-24.2c0-4.42-.72-7.74-5.4-7.74s-5.46 3.32-5.46 7.74v24.2c0 4.36.72 7.87 5.46 7.87s5.4-3.47 5.4-7.87z"/><path d="m159.55 61.63h7.54l-3.09 17.87h-4.49z"/><path d="m175.74 68.71h-8.39v-7.08h26.2v7.08h-8.19v45.57h-9.62z"/><path d="m203.62 61.63h10.27l10.53 52.65h-8.9l-2.08-12.16h-9.17l-2.14 12.16h-9zm8.78 34.37-3.58-22.1-3.57 22.1z"/><path d="m258.35 114.93a6.35 6.35 0 0 1 -1.1.06c-11.38.01-15.25-6.56-15.25-17.22v-19.77c0-10.66 3.9-17 15.21-17s15.14 6.31 15.14 17v19.77c0 7.54-2 13.13-7.28 15.6a25.7 25.7 0 0 0 5.27 5.07l-1.82 6.37c-3.15-1.5-7.52-5.98-10.17-9.88zm4.36-14.93v-24.2c0-4.42-.78-7.74-5.46-7.74s-5.46 3.32-5.46 7.74v24.2c0 4.36.71 7.87 5.46 7.87s5.46-3.47 5.46-7.87z"/><path d="m285.72 61.63h10.28l10.53 52.65h-8.91l-2.08-12.16h-9.16l-2.15 12.16h-9zm8.77 34.37-3.57-22.1-3.58 22.1z"/><path d="m308.92 98.94 8.26-1.63c.26 6.24 1.75 10.27 6 10.27 3 0 4.35-2.08 4.35-4.94 0-4.55-2.34-7.08-5.78-10.07l-6.63-5.79c-3.79-3.25-6.12-6.89-6.12-12.78 0-8.32 5.2-13 13.58-13 9.88 0 12.68 6.63 13.2 14.3l-8.26 1.43c-.19-4.94-.91-8.64-5.13-8.64-2.86 0-4.42 2.14-4.42 4.94 0 3.57 1.49 5.52 4.29 7.93l6.56 5.78c4.29 3.71 7.87 8.32 7.87 15.28 0 7.6-5.33 12.93-13.2 12.93-9.63.05-14.18-5.55-14.57-16.01z"/><path d="m341.16 61.63h9.56v22h10.72v-22h9.62v52.65h-9.62v-23.79h-10.72v23.79h-9.56z"/><path d="m376.52 98.94 8.26-1.63c.26 6.24 1.75 10.27 6 10.27 3.06 0 4.36-2.08 4.36-4.94 0-4.55-2.34-7.08-5.78-10.07l-6.63-5.79c-3.78-3.25-6.12-6.89-6.12-12.74 0-8.32 5.21-13 13.59-13 9.88 0 12.68 6.63 13.2 14.3l-8.26 1.43c-.19-4.94-.91-8.64-5.13-8.64-2.86 0-4.43 2.14-4.43 4.94 0 3.57 1.5 5.52 4.3 7.93l6.56 5.78c4.29 3.71 7.87 8.32 7.87 15.28 0 7.6-5.33 12.93-13.2 12.93-9.65.01-14.2-5.59-14.59-16.05z"/><path d="m408.76 61.63h9.55v22h10.69v-22h9.62v52.65h-9.62v-23.79h-10.69v23.79h-9.55z"/><path d="m444.57 97.77v-19.77c0-10.66 3.9-17 15.21-17s15.15 6.31 15.15 17v19.77c0 10.59-3.9 17.22-15.15 17.22s-15.21-6.56-15.21-17.22zm20.61 2.23v-24.2c0-4.42-.72-7.74-5.4-7.74s-5.46 3.32-5.46 7.74v24.2c0 4.36.72 7.87 5.46 7.87s5.4-3.47 5.4-7.87z"/><path d="m496.18 114.93a6.35 6.35 0 0 1 -1.1.06c-11.38 0-15.21-6.56-15.21-17.22v-19.77c0-10.66 3.9-17 15.21-17s15.14 6.31 15.14 17v19.77c0 7.54-2 13.13-7.28 15.6a25.7 25.7 0 0 0 5.27 5.07l-1.82 6.37c-3.19-1.5-7.61-5.98-10.21-9.88zm4.36-14.93v-24.2c0-4.42-.78-7.74-5.46-7.74s-5.46 3.32-5.46 7.74v24.2c0 4.36.71 7.87 5.46 7.87s5.46-3.47 5.46-7.87z"/><path d="m516.07 61.63h9.56v46.08h12.8v6.57h-22.36z"/><path d="m542.4 61.63h9.49v52.65h-9.49z"/><path d="m558.71 61.63h9.56v23.14l10.46-23.14h9.17l-10.08 23.46 11.12 29.19h-9.56l-8.77-23.92-2.34 4v20h-9.56z"/><path d="m592 61.63h9.56v23.14l10.44-23.14h9.17l-10.07 23.46 11.12 29.19h-9.56l-8.77-23.92-2.34 4v20h-9.55z"/><path d="m633.14 61.63h10.27l10.53 52.65h-8.94l-2-12.16h-9.16l-2.15 12.16h-9zm8.77 34.37-3.57-22.1-3.58 22.1z"/><path d="m126.79 147.63h13c9.24 0 15.41 3.12 15.41 13.52 0 6.43-2.66 10-7.6 10.79 6.17 1.17 9.1 5.59 9.1 13 0 10.07-4.94 15.34-14.7 15.34h-15.21zm12.88 21.51c5.71 0 7.21-2.53 7.21-7.86 0-5.59-2.73-7-8.58-7h-2v14.82zm.38 24.38c5.86 0 7.48-2.73 7.48-8.65 0-6.24-2.08-9.1-7.8-9.1h-3.38v17.75z"/><path d="m169.5 147.63h10.27l10.53 52.65h-8.9l-2.08-12.16h-9.17l-2.15 12.16h-9zm8.78 34.37-3.58-22.1-3.58 22.1z"/><path d="m194.26 147.63h12.68c10.53 0 16.51 3.38 16.51 14 0 6.31-1.56 10.73-6.5 12.74l7.34 25.94h-9.62l-6.3-24.12h-4.55v24.12h-9.56zm12.61 22.55c5.53 0 7.54-2.4 7.54-8.06 0-5.33-1.49-7.93-7-7.93h-3.57v16z"/><path d="m229.56 147.63h9.55v22h10.73v-22h9.62v52.65h-9.62v-23.79h-10.73v23.79h-9.55z"/><path d="m274.08 147.63h10.27l10.53 52.65h-8.88l-2.08-12.16h-9.17l-2.14 12.16h-9zm8.78 34.37-3.58-22.1-3.57 22.1z"/><path d="m299.63 147.63h9.94l7.48 36.46 7.73-36.46h9.69l1 52.65h-7.15l-.78-36.6-7.54 36.6h-5.79l-7.6-36.73-.72 36.73h-7.21z"/><path d="m356.44 147.63h13c9.23 0 15.4 3.12 15.4 13.52 0 6.43-2.66 10-7.6 10.79 6.17 1.17 9.1 5.59 9.1 13 0 10.07-4.94 15.34-14.69 15.34h-15.21zm12.87 21.51c5.72 0 7.21-2.53 7.21-7.86 0-5.59-2.73-7-8.58-7h-1.94v14.82zm.39 24.38c5.85 0 7.47-2.73 7.47-8.65 0-6.24-2.08-9.1-7.8-9.1h-3.37v17.75z"/><path d="m391.34 147.63h22.1v6.76h-12.54v15.14h9.88v6.7h-9.88v17.48h12.67v6.57h-22.23z"/><path d="m417.86 147.63h12.68c10.53 0 16.51 3.38 16.51 14 0 6.31-1.56 10.73-6.5 12.74l7.34 25.94h-9.62l-6.27-24.15h-4.55v24.12h-9.56zm12.61 22.55c5.53 0 7.54-2.4 7.54-8.06 0-5.33-1.49-7.93-7-7.93h-3.57v16z"/><path d="m453.29 147.63h9.49v52.65h-9.49z"/><path d="m468.3 184.94 8.25-1.63c.26 6.24 1.76 10.27 6 10.27 3 0 4.35-2.08 4.35-4.94 0-4.55-2.34-7.08-5.78-10.07l-6.64-5.79c-3.76-3.25-6.11-6.89-6.11-12.74 0-8.32 5.2-13 13.59-13 9.88 0 12.68 6.63 13.2 14.3l-8.26 1.43c-.19-4.94-.91-8.64-5.14-8.64-2.86 0-4.42 2.14-4.42 4.94 0 3.57 1.5 5.52 4.29 7.93l6.57 5.78c4.29 3.71 7.87 8.32 7.87 15.28 0 7.6-5.33 12.93-13.2 12.93-9.63.01-14.18-5.59-14.57-16.05z"/><path d="m500.54 147.63h9.55v22h10.73v-22h9.62v52.65h-9.62v-23.79h-10.73v23.79h-9.55z"/><path d="m556 343.38a20.08 20.08 0 1 1 20.1 20.08 20.09 20.09 0 0 1 -20.1-20.08"/><path d="m599.51 371.21a26.76 26.76 0 0 1 24.31 26.67v55.68a7.79 7.79 0 0 1 -15.57 0v-47.82c0-1.79-.52-4.22-3.8-4.22-2.26 0-2.74 2.4-2.82 3.93v143.32a11.2 11.2 0 0 1 -22.39 0v-82.59a3 3 0 0 0 -3.17-3.28 3.09 3.09 0 0 0 -3.24 3.28v82.59a11.18 11.18 0 1 1 -22.36 0v-143.32c-.07-1.53-.56-3.93-2.81-3.93-3.3 0-3.8 2.43-3.8 4.22v47.82a7.79 7.79 0 0 1 -15.57 0v-55.68a26.77 26.77 0 0 1 24.34-26.67 10.79 10.79 0 0 1 1.47-.12h43.9a11.58 11.58 0 0 1 1.52.12"/><path d="m436.54 353.93a19 19 0 1 0 -19 19 19 19 0 0 0 19-19"/><path d="m379.21 397-15.81 51.47s-2.81 9.44 5.19 11.79 10.41-6.85 10.41-6.85l12.75-43s.69-3.31 3.17-2.59 1.56 4.25 1.56 4.25l-22.19 80.49h20.63v57.66a9.91 9.91 0 0 0 19.82 0v-57.61h5.63v57.66a9.91 9.91 0 0 0 19.82 0v-57.66h20.63l-22.17-80.49s-.94-3.54 1.54-4.25 3.18 2.59 3.18 2.59l12.75 43s2.42 9.21 10.37 6.85 5.19-11.79 5.19-11.79l-15.84-51.52s-5.64-14.88-18.16-14.88h-40.3c-12.51 0-18.17 14.88-18.17 14.88"/><path d="m322.63 353.93a19 19 0 1 0 -19 19 19 19 0 0 0 19-19"/><path d="m265.3 397-15.8 51.46s-2.83 9.44 5.18 11.79 10.37-6.85 10.37-6.85l12.75-43s.7-3.31 3.18-2.59 1.55 4.25 1.55 4.25l-22.18 80.49h20.65v57.66a9.91 9.91 0 0 0 19.82 0v-57.6h5.63v57.66a9.91 9.91 0 0 0 19.82 0v-57.66h20.63l-22.17-80.49s-.94-3.54 1.54-4.25 3.18 2.59 3.18 2.59l12.73 43s2.43 9.21 10.39 6.85 5.18-11.79 5.18-11.79l-15.83-51.52s-5.63-14.88-18.15-14.88h-40.3c-12.47.01-18.17 14.88-18.17 14.88"/><path d="m500.41 460.37a15.83 15.83 0 1 0 -15.83-15.84 15.81 15.81 0 0 0 15.83 15.84"/><path d="m462.46 509.55c-.78 1.85-1.41 5.78 2.3 7.49 4.36 2 6.79-2.21 6.79-2.21l8.6-27.45s1.5-1.83 1.5.07v64.6a8.12 8.12 0 0 0 16.24 0v-25.49s-.47-3.61 2.43-3.61 2.46 3.61 2.46 3.61v25.49a8.14 8.14 0 0 0 16.28 0v-64.6c0-1.9 1-.55 1-.55l6.74 18.79s2.93 8.4 3.83 8.77a6 6 0 0 0 7.85-3.24 5.93 5.93 0 0 0 -.64-5.78v-.06c-.19-.61-10.08-24.85-11.24-28.26-3.57-10.42-10.07-10.33-16.32-10.5s-10 0-10 0-4-.16-12.26.08-10.85 4.49-20 27.9c-1.3 3.37-5.69 14.28-5.75 14.94z"/><path d="m152.78 343.38a20.08 20.08 0 1 0 -20.1 20.08 20.09 20.09 0 0 0 20.1-20.08"/><path d="m109.23 371.21a26.78 26.78 0 0 0 -24.32 26.67v55.68a7.79 7.79 0 0 0 15.58 0v-47.82c0-1.79.52-4.22 3.8-4.22 2.27 0 2.74 2.4 2.83 3.93v143.32a11.18 11.18 0 1 0 22.36 0v-82.59a3.07 3.07 0 0 1 3.2-3.28 3.06 3.06 0 0 1 3.22 3.28v82.59a11.19 11.19 0 1 0 22.37 0v-143.32c.06-1.53.57-3.93 2.82-3.93 3.3 0 3.79 2.43 3.79 4.22v47.82a7.79 7.79 0 0 0 15.57 0v-55.68a26.76 26.76 0 0 0 -24.33-26.67 10.79 10.79 0 0 0 -1.47-.12h-43.9a11.46 11.46 0 0 0 -1.53.12"/></g><path d="m91.72 461.65-17.84 94.53" fill="none" stroke="#fff" stroke-linecap="round" stroke-miterlimit="10" stroke-width="8.54"/><path d="m190 452.08a5.77 5.77 0 0 0 -10.66 3 10.51 10.51 0 0 0 .57 2.54l16 28.88a10.28 10.28 0 0 1 1 3.81v62a7.79 7.79 0 1 0 15.58 0v-24.42s-.44-3.46 2.36-3.46 2.35 3.46 2.35 3.46v24.47a7.81 7.81 0 0 0 15.62 0v-62a10.28 10.28 0 0 1 1-3.81l14.75-26.67s1.8-3.83 1.8-4.75a5.77 5.77 0 0 0 -5.77-5.75 5.7 5.7 0 0 0 -4.88 2.71h-.07c-.46.4-7.85 13.56-10.28 16-2.59 2.59-4.89 2.31-4.89 2.31h-19.24s-2.33.28-4.9-2.31-9.82-15.6-10.29-16z" fill="#fff"/><path d="m214.82 460.37a15.83 15.83 0 1 0 -15.82-15.84 15.82 15.82 0 0 0 15.83 15.84" fill="#fff"/><path d="m214.84 482.59 17.9 13.05 8.5 31.31h-26.4-26.41l8.52-31.31z" fill="#fff"/></svg>